%TF.GenerationSoftware,KiCad,Pcbnew,9.0.6*%
%TF.CreationDate,2026-05-14T13:26:13+02:00*%
%TF.ProjectId,Hardware,48617264-7761-4726-952e-6b696361645f,rev?*%
%TF.SameCoordinates,PX7b80360PY518a060*%
%TF.FileFunction,Legend,Top*%
%TF.FilePolarity,Positive*%
%FSLAX46Y46*%
G04 Gerber Fmt 4.6, Leading zero omitted, Abs format (unit mm)*
G04 Created by KiCad (PCBNEW 9.0.6) date 2026-05-14 13:26:13*
%MOMM*%
%LPD*%
G01*
G04 APERTURE LIST*
%ADD10C,0.100000*%
%ADD11C,0.150000*%
%ADD12C,0.300000*%
%ADD13C,0.400000*%
%ADD14C,0.125000*%
%ADD15C,0.250000*%
%ADD16C,0.120000*%
%ADD17C,0.127000*%
%ADD18C,0.200000*%
G04 APERTURE END LIST*
D10*
D11*
X47502200Y-80507200D02*
X155502200Y-80507200D01*
X155502200Y-112507200D01*
X47502200Y-112507200D01*
X47502200Y-80507200D01*
D10*
D11*
X-119500000Y75500000D02*
X157502200Y75500000D01*
X157502200Y-114507200D01*
X-119500000Y-114507200D01*
X-119500000Y75500000D01*
D10*
D11*
X-117500000Y73500000D02*
X155502200Y73500000D01*
X155502200Y-112507200D01*
X-117500000Y-112507200D01*
X-117500000Y73500000D01*
D10*
D11*
X-69500000Y73500000D02*
X-69500000Y75500000D01*
D10*
D11*
X-19500000Y73500000D02*
X-19500000Y75500000D01*
D10*
D11*
X30500000Y73500000D02*
X30500000Y75500000D01*
D10*
D11*
X80500000Y73500000D02*
X80500000Y75500000D01*
D10*
D11*
X130500000Y73500000D02*
X130500000Y75500000D01*
D10*
D11*
X-93410840Y73906396D02*
X-94153697Y73906396D01*
X-93782269Y73906396D02*
X-93782269Y75206396D01*
X-93782269Y75206396D02*
X-93906078Y75020681D01*
X-93906078Y75020681D02*
X-94029888Y74896872D01*
X-94029888Y74896872D02*
X-94153697Y74834967D01*
D10*
D11*
X-44153697Y75082586D02*
X-44091793Y75144491D01*
X-44091793Y75144491D02*
X-43967983Y75206396D01*
X-43967983Y75206396D02*
X-43658459Y75206396D01*
X-43658459Y75206396D02*
X-43534650Y75144491D01*
X-43534650Y75144491D02*
X-43472745Y75082586D01*
X-43472745Y75082586D02*
X-43410840Y74958777D01*
X-43410840Y74958777D02*
X-43410840Y74834967D01*
X-43410840Y74834967D02*
X-43472745Y74649253D01*
X-43472745Y74649253D02*
X-44215602Y73906396D01*
X-44215602Y73906396D02*
X-43410840Y73906396D01*
D10*
D11*
X5784398Y75206396D02*
X6589160Y75206396D01*
X6589160Y75206396D02*
X6155826Y74711158D01*
X6155826Y74711158D02*
X6341541Y74711158D01*
X6341541Y74711158D02*
X6465350Y74649253D01*
X6465350Y74649253D02*
X6527255Y74587348D01*
X6527255Y74587348D02*
X6589160Y74463539D01*
X6589160Y74463539D02*
X6589160Y74154015D01*
X6589160Y74154015D02*
X6527255Y74030205D01*
X6527255Y74030205D02*
X6465350Y73968300D01*
X6465350Y73968300D02*
X6341541Y73906396D01*
X6341541Y73906396D02*
X5970112Y73906396D01*
X5970112Y73906396D02*
X5846303Y73968300D01*
X5846303Y73968300D02*
X5784398Y74030205D01*
D10*
D11*
X56465350Y74773062D02*
X56465350Y73906396D01*
X56155826Y75268300D02*
X55846303Y74339729D01*
X55846303Y74339729D02*
X56651064Y74339729D01*
D10*
D11*
X106527255Y75206396D02*
X105908207Y75206396D01*
X105908207Y75206396D02*
X105846303Y74587348D01*
X105846303Y74587348D02*
X105908207Y74649253D01*
X105908207Y74649253D02*
X106032017Y74711158D01*
X106032017Y74711158D02*
X106341541Y74711158D01*
X106341541Y74711158D02*
X106465350Y74649253D01*
X106465350Y74649253D02*
X106527255Y74587348D01*
X106527255Y74587348D02*
X106589160Y74463539D01*
X106589160Y74463539D02*
X106589160Y74154015D01*
X106589160Y74154015D02*
X106527255Y74030205D01*
X106527255Y74030205D02*
X106465350Y73968300D01*
X106465350Y73968300D02*
X106341541Y73906396D01*
X106341541Y73906396D02*
X106032017Y73906396D01*
X106032017Y73906396D02*
X105908207Y73968300D01*
X105908207Y73968300D02*
X105846303Y74030205D01*
D10*
D11*
X156465350Y75206396D02*
X156217731Y75206396D01*
X156217731Y75206396D02*
X156093922Y75144491D01*
X156093922Y75144491D02*
X156032017Y75082586D01*
X156032017Y75082586D02*
X155908207Y74896872D01*
X155908207Y74896872D02*
X155846303Y74649253D01*
X155846303Y74649253D02*
X155846303Y74154015D01*
X155846303Y74154015D02*
X155908207Y74030205D01*
X155908207Y74030205D02*
X155970112Y73968300D01*
X155970112Y73968300D02*
X156093922Y73906396D01*
X156093922Y73906396D02*
X156341541Y73906396D01*
X156341541Y73906396D02*
X156465350Y73968300D01*
X156465350Y73968300D02*
X156527255Y74030205D01*
X156527255Y74030205D02*
X156589160Y74154015D01*
X156589160Y74154015D02*
X156589160Y74463539D01*
X156589160Y74463539D02*
X156527255Y74587348D01*
X156527255Y74587348D02*
X156465350Y74649253D01*
X156465350Y74649253D02*
X156341541Y74711158D01*
X156341541Y74711158D02*
X156093922Y74711158D01*
X156093922Y74711158D02*
X155970112Y74649253D01*
X155970112Y74649253D02*
X155908207Y74587348D01*
X155908207Y74587348D02*
X155846303Y74463539D01*
D10*
D11*
X-69500000Y-112507200D02*
X-69500000Y-114507200D01*
D10*
D11*
X-19500000Y-112507200D02*
X-19500000Y-114507200D01*
D10*
D11*
X30500000Y-112507200D02*
X30500000Y-114507200D01*
D10*
D11*
X80500000Y-112507200D02*
X80500000Y-114507200D01*
D10*
D11*
X130500000Y-112507200D02*
X130500000Y-114507200D01*
D10*
D11*
X-93410840Y-114100804D02*
X-94153697Y-114100804D01*
X-93782269Y-114100804D02*
X-93782269Y-112800804D01*
X-93782269Y-112800804D02*
X-93906078Y-112986519D01*
X-93906078Y-112986519D02*
X-94029888Y-113110328D01*
X-94029888Y-113110328D02*
X-94153697Y-113172233D01*
D10*
D11*
X-44153697Y-112924614D02*
X-44091793Y-112862709D01*
X-44091793Y-112862709D02*
X-43967983Y-112800804D01*
X-43967983Y-112800804D02*
X-43658459Y-112800804D01*
X-43658459Y-112800804D02*
X-43534650Y-112862709D01*
X-43534650Y-112862709D02*
X-43472745Y-112924614D01*
X-43472745Y-112924614D02*
X-43410840Y-113048423D01*
X-43410840Y-113048423D02*
X-43410840Y-113172233D01*
X-43410840Y-113172233D02*
X-43472745Y-113357947D01*
X-43472745Y-113357947D02*
X-44215602Y-114100804D01*
X-44215602Y-114100804D02*
X-43410840Y-114100804D01*
D10*
D11*
X5784398Y-112800804D02*
X6589160Y-112800804D01*
X6589160Y-112800804D02*
X6155826Y-113296042D01*
X6155826Y-113296042D02*
X6341541Y-113296042D01*
X6341541Y-113296042D02*
X6465350Y-113357947D01*
X6465350Y-113357947D02*
X6527255Y-113419852D01*
X6527255Y-113419852D02*
X6589160Y-113543661D01*
X6589160Y-113543661D02*
X6589160Y-113853185D01*
X6589160Y-113853185D02*
X6527255Y-113976995D01*
X6527255Y-113976995D02*
X6465350Y-114038900D01*
X6465350Y-114038900D02*
X6341541Y-114100804D01*
X6341541Y-114100804D02*
X5970112Y-114100804D01*
X5970112Y-114100804D02*
X5846303Y-114038900D01*
X5846303Y-114038900D02*
X5784398Y-113976995D01*
D10*
D11*
X56465350Y-113234138D02*
X56465350Y-114100804D01*
X56155826Y-112738900D02*
X55846303Y-113667471D01*
X55846303Y-113667471D02*
X56651064Y-113667471D01*
D10*
D11*
X106527255Y-112800804D02*
X105908207Y-112800804D01*
X105908207Y-112800804D02*
X105846303Y-113419852D01*
X105846303Y-113419852D02*
X105908207Y-113357947D01*
X105908207Y-113357947D02*
X106032017Y-113296042D01*
X106032017Y-113296042D02*
X106341541Y-113296042D01*
X106341541Y-113296042D02*
X106465350Y-113357947D01*
X106465350Y-113357947D02*
X106527255Y-113419852D01*
X106527255Y-113419852D02*
X106589160Y-113543661D01*
X106589160Y-113543661D02*
X106589160Y-113853185D01*
X106589160Y-113853185D02*
X106527255Y-113976995D01*
X106527255Y-113976995D02*
X106465350Y-114038900D01*
X106465350Y-114038900D02*
X106341541Y-114100804D01*
X106341541Y-114100804D02*
X106032017Y-114100804D01*
X106032017Y-114100804D02*
X105908207Y-114038900D01*
X105908207Y-114038900D02*
X105846303Y-113976995D01*
D10*
D11*
X156465350Y-112800804D02*
X156217731Y-112800804D01*
X156217731Y-112800804D02*
X156093922Y-112862709D01*
X156093922Y-112862709D02*
X156032017Y-112924614D01*
X156032017Y-112924614D02*
X155908207Y-113110328D01*
X155908207Y-113110328D02*
X155846303Y-113357947D01*
X155846303Y-113357947D02*
X155846303Y-113853185D01*
X155846303Y-113853185D02*
X155908207Y-113976995D01*
X155908207Y-113976995D02*
X155970112Y-114038900D01*
X155970112Y-114038900D02*
X156093922Y-114100804D01*
X156093922Y-114100804D02*
X156341541Y-114100804D01*
X156341541Y-114100804D02*
X156465350Y-114038900D01*
X156465350Y-114038900D02*
X156527255Y-113976995D01*
X156527255Y-113976995D02*
X156589160Y-113853185D01*
X156589160Y-113853185D02*
X156589160Y-113543661D01*
X156589160Y-113543661D02*
X156527255Y-113419852D01*
X156527255Y-113419852D02*
X156465350Y-113357947D01*
X156465350Y-113357947D02*
X156341541Y-113296042D01*
X156341541Y-113296042D02*
X156093922Y-113296042D01*
X156093922Y-113296042D02*
X155970112Y-113357947D01*
X155970112Y-113357947D02*
X155908207Y-113419852D01*
X155908207Y-113419852D02*
X155846303Y-113543661D01*
D10*
D11*
X-119500000Y25500000D02*
X-117500000Y25500000D01*
D10*
D11*
X-119500000Y-24500000D02*
X-117500000Y-24500000D01*
D10*
D11*
X-119500000Y-74500000D02*
X-117500000Y-74500000D01*
D10*
D11*
X-118809524Y50277824D02*
X-118190477Y50277824D01*
X-118933334Y49906396D02*
X-118500001Y51206396D01*
X-118500001Y51206396D02*
X-118066667Y49906396D01*
D10*
D11*
X-118407143Y587348D02*
X-118221429Y525443D01*
X-118221429Y525443D02*
X-118159524Y463539D01*
X-118159524Y463539D02*
X-118097620Y339729D01*
X-118097620Y339729D02*
X-118097620Y154015D01*
X-118097620Y154015D02*
X-118159524Y30205D01*
X-118159524Y30205D02*
X-118221429Y-31700D01*
X-118221429Y-31700D02*
X-118345239Y-93604D01*
X-118345239Y-93604D02*
X-118840477Y-93604D01*
X-118840477Y-93604D02*
X-118840477Y1206396D01*
X-118840477Y1206396D02*
X-118407143Y1206396D01*
X-118407143Y1206396D02*
X-118283334Y1144491D01*
X-118283334Y1144491D02*
X-118221429Y1082586D01*
X-118221429Y1082586D02*
X-118159524Y958777D01*
X-118159524Y958777D02*
X-118159524Y834967D01*
X-118159524Y834967D02*
X-118221429Y711158D01*
X-118221429Y711158D02*
X-118283334Y649253D01*
X-118283334Y649253D02*
X-118407143Y587348D01*
X-118407143Y587348D02*
X-118840477Y587348D01*
D10*
D11*
X-118097620Y-49969795D02*
X-118159524Y-50031700D01*
X-118159524Y-50031700D02*
X-118345239Y-50093604D01*
X-118345239Y-50093604D02*
X-118469048Y-50093604D01*
X-118469048Y-50093604D02*
X-118654762Y-50031700D01*
X-118654762Y-50031700D02*
X-118778572Y-49907890D01*
X-118778572Y-49907890D02*
X-118840477Y-49784080D01*
X-118840477Y-49784080D02*
X-118902381Y-49536461D01*
X-118902381Y-49536461D02*
X-118902381Y-49350747D01*
X-118902381Y-49350747D02*
X-118840477Y-49103128D01*
X-118840477Y-49103128D02*
X-118778572Y-48979319D01*
X-118778572Y-48979319D02*
X-118654762Y-48855509D01*
X-118654762Y-48855509D02*
X-118469048Y-48793604D01*
X-118469048Y-48793604D02*
X-118345239Y-48793604D01*
X-118345239Y-48793604D02*
X-118159524Y-48855509D01*
X-118159524Y-48855509D02*
X-118097620Y-48917414D01*
D10*
D11*
X-118840477Y-100093604D02*
X-118840477Y-98793604D01*
X-118840477Y-98793604D02*
X-118530953Y-98793604D01*
X-118530953Y-98793604D02*
X-118345239Y-98855509D01*
X-118345239Y-98855509D02*
X-118221429Y-98979319D01*
X-118221429Y-98979319D02*
X-118159524Y-99103128D01*
X-118159524Y-99103128D02*
X-118097620Y-99350747D01*
X-118097620Y-99350747D02*
X-118097620Y-99536461D01*
X-118097620Y-99536461D02*
X-118159524Y-99784080D01*
X-118159524Y-99784080D02*
X-118221429Y-99907890D01*
X-118221429Y-99907890D02*
X-118345239Y-100031700D01*
X-118345239Y-100031700D02*
X-118530953Y-100093604D01*
X-118530953Y-100093604D02*
X-118840477Y-100093604D01*
D10*
D11*
X157502200Y25500000D02*
X155502200Y25500000D01*
D10*
D11*
X157502200Y-24500000D02*
X155502200Y-24500000D01*
D10*
D11*
X157502200Y-74500000D02*
X155502200Y-74500000D01*
D10*
D11*
X156192676Y50277824D02*
X156811723Y50277824D01*
X156068866Y49906396D02*
X156502199Y51206396D01*
X156502199Y51206396D02*
X156935533Y49906396D01*
D10*
D11*
X156595057Y587348D02*
X156780771Y525443D01*
X156780771Y525443D02*
X156842676Y463539D01*
X156842676Y463539D02*
X156904580Y339729D01*
X156904580Y339729D02*
X156904580Y154015D01*
X156904580Y154015D02*
X156842676Y30205D01*
X156842676Y30205D02*
X156780771Y-31700D01*
X156780771Y-31700D02*
X156656961Y-93604D01*
X156656961Y-93604D02*
X156161723Y-93604D01*
X156161723Y-93604D02*
X156161723Y1206396D01*
X156161723Y1206396D02*
X156595057Y1206396D01*
X156595057Y1206396D02*
X156718866Y1144491D01*
X156718866Y1144491D02*
X156780771Y1082586D01*
X156780771Y1082586D02*
X156842676Y958777D01*
X156842676Y958777D02*
X156842676Y834967D01*
X156842676Y834967D02*
X156780771Y711158D01*
X156780771Y711158D02*
X156718866Y649253D01*
X156718866Y649253D02*
X156595057Y587348D01*
X156595057Y587348D02*
X156161723Y587348D01*
D10*
D11*
X156904580Y-49969795D02*
X156842676Y-50031700D01*
X156842676Y-50031700D02*
X156656961Y-50093604D01*
X156656961Y-50093604D02*
X156533152Y-50093604D01*
X156533152Y-50093604D02*
X156347438Y-50031700D01*
X156347438Y-50031700D02*
X156223628Y-49907890D01*
X156223628Y-49907890D02*
X156161723Y-49784080D01*
X156161723Y-49784080D02*
X156099819Y-49536461D01*
X156099819Y-49536461D02*
X156099819Y-49350747D01*
X156099819Y-49350747D02*
X156161723Y-49103128D01*
X156161723Y-49103128D02*
X156223628Y-48979319D01*
X156223628Y-48979319D02*
X156347438Y-48855509D01*
X156347438Y-48855509D02*
X156533152Y-48793604D01*
X156533152Y-48793604D02*
X156656961Y-48793604D01*
X156656961Y-48793604D02*
X156842676Y-48855509D01*
X156842676Y-48855509D02*
X156904580Y-48917414D01*
D10*
D11*
X156161723Y-100093604D02*
X156161723Y-98793604D01*
X156161723Y-98793604D02*
X156471247Y-98793604D01*
X156471247Y-98793604D02*
X156656961Y-98855509D01*
X156656961Y-98855509D02*
X156780771Y-98979319D01*
X156780771Y-98979319D02*
X156842676Y-99103128D01*
X156842676Y-99103128D02*
X156904580Y-99350747D01*
X156904580Y-99350747D02*
X156904580Y-99536461D01*
X156904580Y-99536461D02*
X156842676Y-99784080D01*
X156842676Y-99784080D02*
X156780771Y-99907890D01*
X156780771Y-99907890D02*
X156656961Y-100031700D01*
X156656961Y-100031700D02*
X156471247Y-100093604D01*
X156471247Y-100093604D02*
X156161723Y-100093604D01*
D10*
D11*
X70958026Y-108293328D02*
X70958026Y-106793328D01*
X70958026Y-106793328D02*
X71315169Y-106793328D01*
X71315169Y-106793328D02*
X71529455Y-106864757D01*
X71529455Y-106864757D02*
X71672312Y-107007614D01*
X71672312Y-107007614D02*
X71743741Y-107150471D01*
X71743741Y-107150471D02*
X71815169Y-107436185D01*
X71815169Y-107436185D02*
X71815169Y-107650471D01*
X71815169Y-107650471D02*
X71743741Y-107936185D01*
X71743741Y-107936185D02*
X71672312Y-108079042D01*
X71672312Y-108079042D02*
X71529455Y-108221900D01*
X71529455Y-108221900D02*
X71315169Y-108293328D01*
X71315169Y-108293328D02*
X70958026Y-108293328D01*
X73100884Y-108293328D02*
X73100884Y-107507614D01*
X73100884Y-107507614D02*
X73029455Y-107364757D01*
X73029455Y-107364757D02*
X72886598Y-107293328D01*
X72886598Y-107293328D02*
X72600884Y-107293328D01*
X72600884Y-107293328D02*
X72458026Y-107364757D01*
X73100884Y-108221900D02*
X72958026Y-108293328D01*
X72958026Y-108293328D02*
X72600884Y-108293328D01*
X72600884Y-108293328D02*
X72458026Y-108221900D01*
X72458026Y-108221900D02*
X72386598Y-108079042D01*
X72386598Y-108079042D02*
X72386598Y-107936185D01*
X72386598Y-107936185D02*
X72458026Y-107793328D01*
X72458026Y-107793328D02*
X72600884Y-107721900D01*
X72600884Y-107721900D02*
X72958026Y-107721900D01*
X72958026Y-107721900D02*
X73100884Y-107650471D01*
X73600884Y-107293328D02*
X74172312Y-107293328D01*
X73815169Y-106793328D02*
X73815169Y-108079042D01*
X73815169Y-108079042D02*
X73886598Y-108221900D01*
X73886598Y-108221900D02*
X74029455Y-108293328D01*
X74029455Y-108293328D02*
X74172312Y-108293328D01*
X75243741Y-108221900D02*
X75100884Y-108293328D01*
X75100884Y-108293328D02*
X74815170Y-108293328D01*
X74815170Y-108293328D02*
X74672312Y-108221900D01*
X74672312Y-108221900D02*
X74600884Y-108079042D01*
X74600884Y-108079042D02*
X74600884Y-107507614D01*
X74600884Y-107507614D02*
X74672312Y-107364757D01*
X74672312Y-107364757D02*
X74815170Y-107293328D01*
X74815170Y-107293328D02*
X75100884Y-107293328D01*
X75100884Y-107293328D02*
X75243741Y-107364757D01*
X75243741Y-107364757D02*
X75315170Y-107507614D01*
X75315170Y-107507614D02*
X75315170Y-107650471D01*
X75315170Y-107650471D02*
X74600884Y-107793328D01*
X75958026Y-108150471D02*
X76029455Y-108221900D01*
X76029455Y-108221900D02*
X75958026Y-108293328D01*
X75958026Y-108293328D02*
X75886598Y-108221900D01*
X75886598Y-108221900D02*
X75958026Y-108150471D01*
X75958026Y-108150471D02*
X75958026Y-108293328D01*
X75958026Y-107364757D02*
X76029455Y-107436185D01*
X76029455Y-107436185D02*
X75958026Y-107507614D01*
X75958026Y-107507614D02*
X75886598Y-107436185D01*
X75886598Y-107436185D02*
X75958026Y-107364757D01*
X75958026Y-107364757D02*
X75958026Y-107507614D01*
D10*
D11*
X47502200Y-109007200D02*
X155502200Y-109007200D01*
D10*
D11*
X48958026Y-111093328D02*
X48958026Y-109593328D01*
X49815169Y-111093328D02*
X49172312Y-110236185D01*
X49815169Y-109593328D02*
X48958026Y-110450471D01*
X50458026Y-111093328D02*
X50458026Y-110093328D01*
X50458026Y-109593328D02*
X50386598Y-109664757D01*
X50386598Y-109664757D02*
X50458026Y-109736185D01*
X50458026Y-109736185D02*
X50529455Y-109664757D01*
X50529455Y-109664757D02*
X50458026Y-109593328D01*
X50458026Y-109593328D02*
X50458026Y-109736185D01*
X52029455Y-110950471D02*
X51958027Y-111021900D01*
X51958027Y-111021900D02*
X51743741Y-111093328D01*
X51743741Y-111093328D02*
X51600884Y-111093328D01*
X51600884Y-111093328D02*
X51386598Y-111021900D01*
X51386598Y-111021900D02*
X51243741Y-110879042D01*
X51243741Y-110879042D02*
X51172312Y-110736185D01*
X51172312Y-110736185D02*
X51100884Y-110450471D01*
X51100884Y-110450471D02*
X51100884Y-110236185D01*
X51100884Y-110236185D02*
X51172312Y-109950471D01*
X51172312Y-109950471D02*
X51243741Y-109807614D01*
X51243741Y-109807614D02*
X51386598Y-109664757D01*
X51386598Y-109664757D02*
X51600884Y-109593328D01*
X51600884Y-109593328D02*
X51743741Y-109593328D01*
X51743741Y-109593328D02*
X51958027Y-109664757D01*
X51958027Y-109664757D02*
X52029455Y-109736185D01*
X53315170Y-111093328D02*
X53315170Y-110307614D01*
X53315170Y-110307614D02*
X53243741Y-110164757D01*
X53243741Y-110164757D02*
X53100884Y-110093328D01*
X53100884Y-110093328D02*
X52815170Y-110093328D01*
X52815170Y-110093328D02*
X52672312Y-110164757D01*
X53315170Y-111021900D02*
X53172312Y-111093328D01*
X53172312Y-111093328D02*
X52815170Y-111093328D01*
X52815170Y-111093328D02*
X52672312Y-111021900D01*
X52672312Y-111021900D02*
X52600884Y-110879042D01*
X52600884Y-110879042D02*
X52600884Y-110736185D01*
X52600884Y-110736185D02*
X52672312Y-110593328D01*
X52672312Y-110593328D02*
X52815170Y-110521900D01*
X52815170Y-110521900D02*
X53172312Y-110521900D01*
X53172312Y-110521900D02*
X53315170Y-110450471D01*
X54672313Y-111093328D02*
X54672313Y-109593328D01*
X54672313Y-111021900D02*
X54529455Y-111093328D01*
X54529455Y-111093328D02*
X54243741Y-111093328D01*
X54243741Y-111093328D02*
X54100884Y-111021900D01*
X54100884Y-111021900D02*
X54029455Y-110950471D01*
X54029455Y-110950471D02*
X53958027Y-110807614D01*
X53958027Y-110807614D02*
X53958027Y-110379042D01*
X53958027Y-110379042D02*
X54029455Y-110236185D01*
X54029455Y-110236185D02*
X54100884Y-110164757D01*
X54100884Y-110164757D02*
X54243741Y-110093328D01*
X54243741Y-110093328D02*
X54529455Y-110093328D01*
X54529455Y-110093328D02*
X54672313Y-110164757D01*
X56529455Y-110307614D02*
X57029455Y-110307614D01*
X57243741Y-111093328D02*
X56529455Y-111093328D01*
X56529455Y-111093328D02*
X56529455Y-109593328D01*
X56529455Y-109593328D02*
X57243741Y-109593328D01*
X57886598Y-110950471D02*
X57958027Y-111021900D01*
X57958027Y-111021900D02*
X57886598Y-111093328D01*
X57886598Y-111093328D02*
X57815170Y-111021900D01*
X57815170Y-111021900D02*
X57886598Y-110950471D01*
X57886598Y-110950471D02*
X57886598Y-111093328D01*
X58600884Y-111093328D02*
X58600884Y-109593328D01*
X58600884Y-109593328D02*
X58958027Y-109593328D01*
X58958027Y-109593328D02*
X59172313Y-109664757D01*
X59172313Y-109664757D02*
X59315170Y-109807614D01*
X59315170Y-109807614D02*
X59386599Y-109950471D01*
X59386599Y-109950471D02*
X59458027Y-110236185D01*
X59458027Y-110236185D02*
X59458027Y-110450471D01*
X59458027Y-110450471D02*
X59386599Y-110736185D01*
X59386599Y-110736185D02*
X59315170Y-110879042D01*
X59315170Y-110879042D02*
X59172313Y-111021900D01*
X59172313Y-111021900D02*
X58958027Y-111093328D01*
X58958027Y-111093328D02*
X58600884Y-111093328D01*
X60100884Y-110950471D02*
X60172313Y-111021900D01*
X60172313Y-111021900D02*
X60100884Y-111093328D01*
X60100884Y-111093328D02*
X60029456Y-111021900D01*
X60029456Y-111021900D02*
X60100884Y-110950471D01*
X60100884Y-110950471D02*
X60100884Y-111093328D01*
X60743742Y-110664757D02*
X61458028Y-110664757D01*
X60600885Y-111093328D02*
X61100885Y-109593328D01*
X61100885Y-109593328D02*
X61600885Y-111093328D01*
X62100884Y-110950471D02*
X62172313Y-111021900D01*
X62172313Y-111021900D02*
X62100884Y-111093328D01*
X62100884Y-111093328D02*
X62029456Y-111021900D01*
X62029456Y-111021900D02*
X62100884Y-110950471D01*
X62100884Y-110950471D02*
X62100884Y-111093328D01*
X64029456Y-111093328D02*
X64315170Y-111093328D01*
X64315170Y-111093328D02*
X64458027Y-111021900D01*
X64458027Y-111021900D02*
X64529456Y-110950471D01*
X64529456Y-110950471D02*
X64672313Y-110736185D01*
X64672313Y-110736185D02*
X64743742Y-110450471D01*
X64743742Y-110450471D02*
X64743742Y-109879042D01*
X64743742Y-109879042D02*
X64672313Y-109736185D01*
X64672313Y-109736185D02*
X64600885Y-109664757D01*
X64600885Y-109664757D02*
X64458027Y-109593328D01*
X64458027Y-109593328D02*
X64172313Y-109593328D01*
X64172313Y-109593328D02*
X64029456Y-109664757D01*
X64029456Y-109664757D02*
X63958027Y-109736185D01*
X63958027Y-109736185D02*
X63886599Y-109879042D01*
X63886599Y-109879042D02*
X63886599Y-110236185D01*
X63886599Y-110236185D02*
X63958027Y-110379042D01*
X63958027Y-110379042D02*
X64029456Y-110450471D01*
X64029456Y-110450471D02*
X64172313Y-110521900D01*
X64172313Y-110521900D02*
X64458027Y-110521900D01*
X64458027Y-110521900D02*
X64600885Y-110450471D01*
X64600885Y-110450471D02*
X64672313Y-110379042D01*
X64672313Y-110379042D02*
X64743742Y-110236185D01*
X65386598Y-110950471D02*
X65458027Y-111021900D01*
X65458027Y-111021900D02*
X65386598Y-111093328D01*
X65386598Y-111093328D02*
X65315170Y-111021900D01*
X65315170Y-111021900D02*
X65386598Y-110950471D01*
X65386598Y-110950471D02*
X65386598Y-111093328D01*
X66386599Y-109593328D02*
X66529456Y-109593328D01*
X66529456Y-109593328D02*
X66672313Y-109664757D01*
X66672313Y-109664757D02*
X66743742Y-109736185D01*
X66743742Y-109736185D02*
X66815170Y-109879042D01*
X66815170Y-109879042D02*
X66886599Y-110164757D01*
X66886599Y-110164757D02*
X66886599Y-110521900D01*
X66886599Y-110521900D02*
X66815170Y-110807614D01*
X66815170Y-110807614D02*
X66743742Y-110950471D01*
X66743742Y-110950471D02*
X66672313Y-111021900D01*
X66672313Y-111021900D02*
X66529456Y-111093328D01*
X66529456Y-111093328D02*
X66386599Y-111093328D01*
X66386599Y-111093328D02*
X66243742Y-111021900D01*
X66243742Y-111021900D02*
X66172313Y-110950471D01*
X66172313Y-110950471D02*
X66100884Y-110807614D01*
X66100884Y-110807614D02*
X66029456Y-110521900D01*
X66029456Y-110521900D02*
X66029456Y-110164757D01*
X66029456Y-110164757D02*
X66100884Y-109879042D01*
X66100884Y-109879042D02*
X66172313Y-109736185D01*
X66172313Y-109736185D02*
X66243742Y-109664757D01*
X66243742Y-109664757D02*
X66386599Y-109593328D01*
X67529455Y-110950471D02*
X67600884Y-111021900D01*
X67600884Y-111021900D02*
X67529455Y-111093328D01*
X67529455Y-111093328D02*
X67458027Y-111021900D01*
X67458027Y-111021900D02*
X67529455Y-110950471D01*
X67529455Y-110950471D02*
X67529455Y-111093328D01*
X68886599Y-109593328D02*
X68600884Y-109593328D01*
X68600884Y-109593328D02*
X68458027Y-109664757D01*
X68458027Y-109664757D02*
X68386599Y-109736185D01*
X68386599Y-109736185D02*
X68243741Y-109950471D01*
X68243741Y-109950471D02*
X68172313Y-110236185D01*
X68172313Y-110236185D02*
X68172313Y-110807614D01*
X68172313Y-110807614D02*
X68243741Y-110950471D01*
X68243741Y-110950471D02*
X68315170Y-111021900D01*
X68315170Y-111021900D02*
X68458027Y-111093328D01*
X68458027Y-111093328D02*
X68743741Y-111093328D01*
X68743741Y-111093328D02*
X68886599Y-111021900D01*
X68886599Y-111021900D02*
X68958027Y-110950471D01*
X68958027Y-110950471D02*
X69029456Y-110807614D01*
X69029456Y-110807614D02*
X69029456Y-110450471D01*
X69029456Y-110450471D02*
X68958027Y-110307614D01*
X68958027Y-110307614D02*
X68886599Y-110236185D01*
X68886599Y-110236185D02*
X68743741Y-110164757D01*
X68743741Y-110164757D02*
X68458027Y-110164757D01*
X68458027Y-110164757D02*
X68315170Y-110236185D01*
X68315170Y-110236185D02*
X68243741Y-110307614D01*
X68243741Y-110307614D02*
X68172313Y-110450471D01*
D10*
D11*
X47502200Y-106007200D02*
X155502200Y-106007200D01*
D10*
D12*
X134913853Y-108285528D02*
X134413853Y-107571242D01*
X134056710Y-108285528D02*
X134056710Y-106785528D01*
X134056710Y-106785528D02*
X134628139Y-106785528D01*
X134628139Y-106785528D02*
X134770996Y-106856957D01*
X134770996Y-106856957D02*
X134842425Y-106928385D01*
X134842425Y-106928385D02*
X134913853Y-107071242D01*
X134913853Y-107071242D02*
X134913853Y-107285528D01*
X134913853Y-107285528D02*
X134842425Y-107428385D01*
X134842425Y-107428385D02*
X134770996Y-107499814D01*
X134770996Y-107499814D02*
X134628139Y-107571242D01*
X134628139Y-107571242D02*
X134056710Y-107571242D01*
X136128139Y-108214100D02*
X135985282Y-108285528D01*
X135985282Y-108285528D02*
X135699568Y-108285528D01*
X135699568Y-108285528D02*
X135556710Y-108214100D01*
X135556710Y-108214100D02*
X135485282Y-108071242D01*
X135485282Y-108071242D02*
X135485282Y-107499814D01*
X135485282Y-107499814D02*
X135556710Y-107356957D01*
X135556710Y-107356957D02*
X135699568Y-107285528D01*
X135699568Y-107285528D02*
X135985282Y-107285528D01*
X135985282Y-107285528D02*
X136128139Y-107356957D01*
X136128139Y-107356957D02*
X136199568Y-107499814D01*
X136199568Y-107499814D02*
X136199568Y-107642671D01*
X136199568Y-107642671D02*
X135485282Y-107785528D01*
X136699567Y-107285528D02*
X137056710Y-108285528D01*
X137056710Y-108285528D02*
X137413853Y-107285528D01*
X137985281Y-108142671D02*
X138056710Y-108214100D01*
X138056710Y-108214100D02*
X137985281Y-108285528D01*
X137985281Y-108285528D02*
X137913853Y-108214100D01*
X137913853Y-108214100D02*
X137985281Y-108142671D01*
X137985281Y-108142671D02*
X137985281Y-108285528D01*
X137985281Y-107356957D02*
X138056710Y-107428385D01*
X138056710Y-107428385D02*
X137985281Y-107499814D01*
X137985281Y-107499814D02*
X137913853Y-107428385D01*
X137913853Y-107428385D02*
X137985281Y-107356957D01*
X137985281Y-107356957D02*
X137985281Y-107499814D01*
D10*
D11*
X48886598Y-108221900D02*
X49100884Y-108293328D01*
X49100884Y-108293328D02*
X49458026Y-108293328D01*
X49458026Y-108293328D02*
X49600884Y-108221900D01*
X49600884Y-108221900D02*
X49672312Y-108150471D01*
X49672312Y-108150471D02*
X49743741Y-108007614D01*
X49743741Y-108007614D02*
X49743741Y-107864757D01*
X49743741Y-107864757D02*
X49672312Y-107721900D01*
X49672312Y-107721900D02*
X49600884Y-107650471D01*
X49600884Y-107650471D02*
X49458026Y-107579042D01*
X49458026Y-107579042D02*
X49172312Y-107507614D01*
X49172312Y-107507614D02*
X49029455Y-107436185D01*
X49029455Y-107436185D02*
X48958026Y-107364757D01*
X48958026Y-107364757D02*
X48886598Y-107221900D01*
X48886598Y-107221900D02*
X48886598Y-107079042D01*
X48886598Y-107079042D02*
X48958026Y-106936185D01*
X48958026Y-106936185D02*
X49029455Y-106864757D01*
X49029455Y-106864757D02*
X49172312Y-106793328D01*
X49172312Y-106793328D02*
X49529455Y-106793328D01*
X49529455Y-106793328D02*
X49743741Y-106864757D01*
X50386597Y-108293328D02*
X50386597Y-107293328D01*
X50386597Y-106793328D02*
X50315169Y-106864757D01*
X50315169Y-106864757D02*
X50386597Y-106936185D01*
X50386597Y-106936185D02*
X50458026Y-106864757D01*
X50458026Y-106864757D02*
X50386597Y-106793328D01*
X50386597Y-106793328D02*
X50386597Y-106936185D01*
X50958026Y-107293328D02*
X51743741Y-107293328D01*
X51743741Y-107293328D02*
X50958026Y-108293328D01*
X50958026Y-108293328D02*
X51743741Y-108293328D01*
X52886598Y-108221900D02*
X52743741Y-108293328D01*
X52743741Y-108293328D02*
X52458027Y-108293328D01*
X52458027Y-108293328D02*
X52315169Y-108221900D01*
X52315169Y-108221900D02*
X52243741Y-108079042D01*
X52243741Y-108079042D02*
X52243741Y-107507614D01*
X52243741Y-107507614D02*
X52315169Y-107364757D01*
X52315169Y-107364757D02*
X52458027Y-107293328D01*
X52458027Y-107293328D02*
X52743741Y-107293328D01*
X52743741Y-107293328D02*
X52886598Y-107364757D01*
X52886598Y-107364757D02*
X52958027Y-107507614D01*
X52958027Y-107507614D02*
X52958027Y-107650471D01*
X52958027Y-107650471D02*
X52243741Y-107793328D01*
X53600883Y-108150471D02*
X53672312Y-108221900D01*
X53672312Y-108221900D02*
X53600883Y-108293328D01*
X53600883Y-108293328D02*
X53529455Y-108221900D01*
X53529455Y-108221900D02*
X53600883Y-108150471D01*
X53600883Y-108150471D02*
X53600883Y-108293328D01*
X53600883Y-107364757D02*
X53672312Y-107436185D01*
X53672312Y-107436185D02*
X53600883Y-107507614D01*
X53600883Y-107507614D02*
X53529455Y-107436185D01*
X53529455Y-107436185D02*
X53600883Y-107364757D01*
X53600883Y-107364757D02*
X53600883Y-107507614D01*
X55386598Y-107864757D02*
X56100884Y-107864757D01*
X55243741Y-108293328D02*
X55743741Y-106793328D01*
X55743741Y-106793328D02*
X56243741Y-108293328D01*
X57386598Y-107293328D02*
X57386598Y-108293328D01*
X57029455Y-106721900D02*
X56672312Y-107793328D01*
X56672312Y-107793328D02*
X57600883Y-107793328D01*
D10*
D11*
X133958026Y-111093328D02*
X133958026Y-109593328D01*
X135315170Y-111093328D02*
X135315170Y-109593328D01*
X135315170Y-111021900D02*
X135172312Y-111093328D01*
X135172312Y-111093328D02*
X134886598Y-111093328D01*
X134886598Y-111093328D02*
X134743741Y-111021900D01*
X134743741Y-111021900D02*
X134672312Y-110950471D01*
X134672312Y-110950471D02*
X134600884Y-110807614D01*
X134600884Y-110807614D02*
X134600884Y-110379042D01*
X134600884Y-110379042D02*
X134672312Y-110236185D01*
X134672312Y-110236185D02*
X134743741Y-110164757D01*
X134743741Y-110164757D02*
X134886598Y-110093328D01*
X134886598Y-110093328D02*
X135172312Y-110093328D01*
X135172312Y-110093328D02*
X135315170Y-110164757D01*
X136029455Y-110950471D02*
X136100884Y-111021900D01*
X136100884Y-111021900D02*
X136029455Y-111093328D01*
X136029455Y-111093328D02*
X135958027Y-111021900D01*
X135958027Y-111021900D02*
X136029455Y-110950471D01*
X136029455Y-110950471D02*
X136029455Y-111093328D01*
X136029455Y-110164757D02*
X136100884Y-110236185D01*
X136100884Y-110236185D02*
X136029455Y-110307614D01*
X136029455Y-110307614D02*
X135958027Y-110236185D01*
X135958027Y-110236185D02*
X136029455Y-110164757D01*
X136029455Y-110164757D02*
X136029455Y-110307614D01*
X137743741Y-109593328D02*
X138743741Y-109593328D01*
X138743741Y-109593328D02*
X138100884Y-111093328D01*
X140386598Y-109521900D02*
X139100884Y-111450471D01*
X141672313Y-111093328D02*
X140815170Y-111093328D01*
X141243741Y-111093328D02*
X141243741Y-109593328D01*
X141243741Y-109593328D02*
X141100884Y-109807614D01*
X141100884Y-109807614D02*
X140958027Y-109950471D01*
X140958027Y-109950471D02*
X140815170Y-110021900D01*
X143100884Y-111093328D02*
X142243741Y-111093328D01*
X142672312Y-111093328D02*
X142672312Y-109593328D01*
X142672312Y-109593328D02*
X142529455Y-109807614D01*
X142529455Y-109807614D02*
X142386598Y-109950471D01*
X142386598Y-109950471D02*
X142243741Y-110021900D01*
D10*
D11*
X47502200Y-102007200D02*
X155502200Y-102007200D01*
D10*
D13*
X49193928Y-102711638D02*
X50336785Y-102711638D01*
X49515357Y-104711638D02*
X49765357Y-102711638D01*
X50753452Y-104711638D02*
X50920119Y-103378304D01*
X51003452Y-102711638D02*
X50896309Y-102806876D01*
X50896309Y-102806876D02*
X50979643Y-102902114D01*
X50979643Y-102902114D02*
X51086786Y-102806876D01*
X51086786Y-102806876D02*
X51003452Y-102711638D01*
X51003452Y-102711638D02*
X50979643Y-102902114D01*
X51586786Y-103378304D02*
X52348690Y-103378304D01*
X51955833Y-102711638D02*
X51741548Y-104425923D01*
X51741548Y-104425923D02*
X51812976Y-104616400D01*
X51812976Y-104616400D02*
X51991548Y-104711638D01*
X51991548Y-104711638D02*
X52182024Y-104711638D01*
X53134405Y-104711638D02*
X52955833Y-104616400D01*
X52955833Y-104616400D02*
X52884405Y-104425923D01*
X52884405Y-104425923D02*
X53098690Y-102711638D01*
X54670119Y-104616400D02*
X54467738Y-104711638D01*
X54467738Y-104711638D02*
X54086785Y-104711638D01*
X54086785Y-104711638D02*
X53908214Y-104616400D01*
X53908214Y-104616400D02*
X53836785Y-104425923D01*
X53836785Y-104425923D02*
X53932024Y-103664019D01*
X53932024Y-103664019D02*
X54051071Y-103473542D01*
X54051071Y-103473542D02*
X54253452Y-103378304D01*
X54253452Y-103378304D02*
X54634404Y-103378304D01*
X54634404Y-103378304D02*
X54812976Y-103473542D01*
X54812976Y-103473542D02*
X54884404Y-103664019D01*
X54884404Y-103664019D02*
X54860595Y-103854495D01*
X54860595Y-103854495D02*
X53884404Y-104044971D01*
X55634405Y-104521161D02*
X55717738Y-104616400D01*
X55717738Y-104616400D02*
X55610595Y-104711638D01*
X55610595Y-104711638D02*
X55527262Y-104616400D01*
X55527262Y-104616400D02*
X55634405Y-104521161D01*
X55634405Y-104521161D02*
X55610595Y-104711638D01*
X55765357Y-103473542D02*
X55848690Y-103568780D01*
X55848690Y-103568780D02*
X55741548Y-103664019D01*
X55741548Y-103664019D02*
X55658214Y-103568780D01*
X55658214Y-103568780D02*
X55765357Y-103473542D01*
X55765357Y-103473542D02*
X55741548Y-103664019D01*
D10*
D11*
X49458026Y-100107614D02*
X48958026Y-100107614D01*
X48958026Y-100893328D02*
X48958026Y-99393328D01*
X48958026Y-99393328D02*
X49672312Y-99393328D01*
X50243740Y-100893328D02*
X50243740Y-99893328D01*
X50243740Y-99393328D02*
X50172312Y-99464757D01*
X50172312Y-99464757D02*
X50243740Y-99536185D01*
X50243740Y-99536185D02*
X50315169Y-99464757D01*
X50315169Y-99464757D02*
X50243740Y-99393328D01*
X50243740Y-99393328D02*
X50243740Y-99536185D01*
X51172312Y-100893328D02*
X51029455Y-100821900D01*
X51029455Y-100821900D02*
X50958026Y-100679042D01*
X50958026Y-100679042D02*
X50958026Y-99393328D01*
X52315169Y-100821900D02*
X52172312Y-100893328D01*
X52172312Y-100893328D02*
X51886598Y-100893328D01*
X51886598Y-100893328D02*
X51743740Y-100821900D01*
X51743740Y-100821900D02*
X51672312Y-100679042D01*
X51672312Y-100679042D02*
X51672312Y-100107614D01*
X51672312Y-100107614D02*
X51743740Y-99964757D01*
X51743740Y-99964757D02*
X51886598Y-99893328D01*
X51886598Y-99893328D02*
X52172312Y-99893328D01*
X52172312Y-99893328D02*
X52315169Y-99964757D01*
X52315169Y-99964757D02*
X52386598Y-100107614D01*
X52386598Y-100107614D02*
X52386598Y-100250471D01*
X52386598Y-100250471D02*
X51672312Y-100393328D01*
X53029454Y-100750471D02*
X53100883Y-100821900D01*
X53100883Y-100821900D02*
X53029454Y-100893328D01*
X53029454Y-100893328D02*
X52958026Y-100821900D01*
X52958026Y-100821900D02*
X53029454Y-100750471D01*
X53029454Y-100750471D02*
X53029454Y-100893328D01*
X53029454Y-99964757D02*
X53100883Y-100036185D01*
X53100883Y-100036185D02*
X53029454Y-100107614D01*
X53029454Y-100107614D02*
X52958026Y-100036185D01*
X52958026Y-100036185D02*
X53029454Y-99964757D01*
X53029454Y-99964757D02*
X53029454Y-100107614D01*
X54886597Y-100893328D02*
X54886597Y-99393328D01*
X54886597Y-100107614D02*
X55743740Y-100107614D01*
X55743740Y-100893328D02*
X55743740Y-99393328D01*
X57100884Y-100893328D02*
X57100884Y-100107614D01*
X57100884Y-100107614D02*
X57029455Y-99964757D01*
X57029455Y-99964757D02*
X56886598Y-99893328D01*
X56886598Y-99893328D02*
X56600884Y-99893328D01*
X56600884Y-99893328D02*
X56458026Y-99964757D01*
X57100884Y-100821900D02*
X56958026Y-100893328D01*
X56958026Y-100893328D02*
X56600884Y-100893328D01*
X56600884Y-100893328D02*
X56458026Y-100821900D01*
X56458026Y-100821900D02*
X56386598Y-100679042D01*
X56386598Y-100679042D02*
X56386598Y-100536185D01*
X56386598Y-100536185D02*
X56458026Y-100393328D01*
X56458026Y-100393328D02*
X56600884Y-100321900D01*
X56600884Y-100321900D02*
X56958026Y-100321900D01*
X56958026Y-100321900D02*
X57100884Y-100250471D01*
X57815169Y-100893328D02*
X57815169Y-99893328D01*
X57815169Y-100179042D02*
X57886598Y-100036185D01*
X57886598Y-100036185D02*
X57958027Y-99964757D01*
X57958027Y-99964757D02*
X58100884Y-99893328D01*
X58100884Y-99893328D02*
X58243741Y-99893328D01*
X59386598Y-100893328D02*
X59386598Y-99393328D01*
X59386598Y-100821900D02*
X59243740Y-100893328D01*
X59243740Y-100893328D02*
X58958026Y-100893328D01*
X58958026Y-100893328D02*
X58815169Y-100821900D01*
X58815169Y-100821900D02*
X58743740Y-100750471D01*
X58743740Y-100750471D02*
X58672312Y-100607614D01*
X58672312Y-100607614D02*
X58672312Y-100179042D01*
X58672312Y-100179042D02*
X58743740Y-100036185D01*
X58743740Y-100036185D02*
X58815169Y-99964757D01*
X58815169Y-99964757D02*
X58958026Y-99893328D01*
X58958026Y-99893328D02*
X59243740Y-99893328D01*
X59243740Y-99893328D02*
X59386598Y-99964757D01*
X59958026Y-99893328D02*
X60243741Y-100893328D01*
X60243741Y-100893328D02*
X60529455Y-100179042D01*
X60529455Y-100179042D02*
X60815169Y-100893328D01*
X60815169Y-100893328D02*
X61100883Y-99893328D01*
X62315170Y-100893328D02*
X62315170Y-100107614D01*
X62315170Y-100107614D02*
X62243741Y-99964757D01*
X62243741Y-99964757D02*
X62100884Y-99893328D01*
X62100884Y-99893328D02*
X61815170Y-99893328D01*
X61815170Y-99893328D02*
X61672312Y-99964757D01*
X62315170Y-100821900D02*
X62172312Y-100893328D01*
X62172312Y-100893328D02*
X61815170Y-100893328D01*
X61815170Y-100893328D02*
X61672312Y-100821900D01*
X61672312Y-100821900D02*
X61600884Y-100679042D01*
X61600884Y-100679042D02*
X61600884Y-100536185D01*
X61600884Y-100536185D02*
X61672312Y-100393328D01*
X61672312Y-100393328D02*
X61815170Y-100321900D01*
X61815170Y-100321900D02*
X62172312Y-100321900D01*
X62172312Y-100321900D02*
X62315170Y-100250471D01*
X63029455Y-100893328D02*
X63029455Y-99893328D01*
X63029455Y-100179042D02*
X63100884Y-100036185D01*
X63100884Y-100036185D02*
X63172313Y-99964757D01*
X63172313Y-99964757D02*
X63315170Y-99893328D01*
X63315170Y-99893328D02*
X63458027Y-99893328D01*
X64529455Y-100821900D02*
X64386598Y-100893328D01*
X64386598Y-100893328D02*
X64100884Y-100893328D01*
X64100884Y-100893328D02*
X63958026Y-100821900D01*
X63958026Y-100821900D02*
X63886598Y-100679042D01*
X63886598Y-100679042D02*
X63886598Y-100107614D01*
X63886598Y-100107614D02*
X63958026Y-99964757D01*
X63958026Y-99964757D02*
X64100884Y-99893328D01*
X64100884Y-99893328D02*
X64386598Y-99893328D01*
X64386598Y-99893328D02*
X64529455Y-99964757D01*
X64529455Y-99964757D02*
X64600884Y-100107614D01*
X64600884Y-100107614D02*
X64600884Y-100250471D01*
X64600884Y-100250471D02*
X63886598Y-100393328D01*
X65243740Y-100750471D02*
X65315169Y-100821900D01*
X65315169Y-100821900D02*
X65243740Y-100893328D01*
X65243740Y-100893328D02*
X65172312Y-100821900D01*
X65172312Y-100821900D02*
X65243740Y-100750471D01*
X65243740Y-100750471D02*
X65243740Y-100893328D01*
X65958026Y-100893328D02*
X65958026Y-99393328D01*
X66100884Y-100321900D02*
X66529455Y-100893328D01*
X66529455Y-99893328D02*
X65958026Y-100464757D01*
X67172312Y-100893328D02*
X67172312Y-99893328D01*
X67172312Y-99393328D02*
X67100884Y-99464757D01*
X67100884Y-99464757D02*
X67172312Y-99536185D01*
X67172312Y-99536185D02*
X67243741Y-99464757D01*
X67243741Y-99464757D02*
X67172312Y-99393328D01*
X67172312Y-99393328D02*
X67172312Y-99536185D01*
X68529456Y-100821900D02*
X68386598Y-100893328D01*
X68386598Y-100893328D02*
X68100884Y-100893328D01*
X68100884Y-100893328D02*
X67958027Y-100821900D01*
X67958027Y-100821900D02*
X67886598Y-100750471D01*
X67886598Y-100750471D02*
X67815170Y-100607614D01*
X67815170Y-100607614D02*
X67815170Y-100179042D01*
X67815170Y-100179042D02*
X67886598Y-100036185D01*
X67886598Y-100036185D02*
X67958027Y-99964757D01*
X67958027Y-99964757D02*
X68100884Y-99893328D01*
X68100884Y-99893328D02*
X68386598Y-99893328D01*
X68386598Y-99893328D02*
X68529456Y-99964757D01*
X69815170Y-100893328D02*
X69815170Y-100107614D01*
X69815170Y-100107614D02*
X69743741Y-99964757D01*
X69743741Y-99964757D02*
X69600884Y-99893328D01*
X69600884Y-99893328D02*
X69315170Y-99893328D01*
X69315170Y-99893328D02*
X69172312Y-99964757D01*
X69815170Y-100821900D02*
X69672312Y-100893328D01*
X69672312Y-100893328D02*
X69315170Y-100893328D01*
X69315170Y-100893328D02*
X69172312Y-100821900D01*
X69172312Y-100821900D02*
X69100884Y-100679042D01*
X69100884Y-100679042D02*
X69100884Y-100536185D01*
X69100884Y-100536185D02*
X69172312Y-100393328D01*
X69172312Y-100393328D02*
X69315170Y-100321900D01*
X69315170Y-100321900D02*
X69672312Y-100321900D01*
X69672312Y-100321900D02*
X69815170Y-100250471D01*
X71172313Y-100893328D02*
X71172313Y-99393328D01*
X71172313Y-100821900D02*
X71029455Y-100893328D01*
X71029455Y-100893328D02*
X70743741Y-100893328D01*
X70743741Y-100893328D02*
X70600884Y-100821900D01*
X70600884Y-100821900D02*
X70529455Y-100750471D01*
X70529455Y-100750471D02*
X70458027Y-100607614D01*
X70458027Y-100607614D02*
X70458027Y-100179042D01*
X70458027Y-100179042D02*
X70529455Y-100036185D01*
X70529455Y-100036185D02*
X70600884Y-99964757D01*
X70600884Y-99964757D02*
X70743741Y-99893328D01*
X70743741Y-99893328D02*
X71029455Y-99893328D01*
X71029455Y-99893328D02*
X71172313Y-99964757D01*
X71529456Y-101036185D02*
X72672313Y-101036185D01*
X73029455Y-99893328D02*
X73029455Y-101393328D01*
X73029455Y-99964757D02*
X73172313Y-99893328D01*
X73172313Y-99893328D02*
X73458027Y-99893328D01*
X73458027Y-99893328D02*
X73600884Y-99964757D01*
X73600884Y-99964757D02*
X73672313Y-100036185D01*
X73672313Y-100036185D02*
X73743741Y-100179042D01*
X73743741Y-100179042D02*
X73743741Y-100607614D01*
X73743741Y-100607614D02*
X73672313Y-100750471D01*
X73672313Y-100750471D02*
X73600884Y-100821900D01*
X73600884Y-100821900D02*
X73458027Y-100893328D01*
X73458027Y-100893328D02*
X73172313Y-100893328D01*
X73172313Y-100893328D02*
X73029455Y-100821900D01*
X75029456Y-100821900D02*
X74886598Y-100893328D01*
X74886598Y-100893328D02*
X74600884Y-100893328D01*
X74600884Y-100893328D02*
X74458027Y-100821900D01*
X74458027Y-100821900D02*
X74386598Y-100750471D01*
X74386598Y-100750471D02*
X74315170Y-100607614D01*
X74315170Y-100607614D02*
X74315170Y-100179042D01*
X74315170Y-100179042D02*
X74386598Y-100036185D01*
X74386598Y-100036185D02*
X74458027Y-99964757D01*
X74458027Y-99964757D02*
X74600884Y-99893328D01*
X74600884Y-99893328D02*
X74886598Y-99893328D01*
X74886598Y-99893328D02*
X75029456Y-99964757D01*
X75672312Y-100893328D02*
X75672312Y-99393328D01*
X75672312Y-99964757D02*
X75815170Y-99893328D01*
X75815170Y-99893328D02*
X76100884Y-99893328D01*
X76100884Y-99893328D02*
X76243741Y-99964757D01*
X76243741Y-99964757D02*
X76315170Y-100036185D01*
X76315170Y-100036185D02*
X76386598Y-100179042D01*
X76386598Y-100179042D02*
X76386598Y-100607614D01*
X76386598Y-100607614D02*
X76315170Y-100750471D01*
X76315170Y-100750471D02*
X76243741Y-100821900D01*
X76243741Y-100821900D02*
X76100884Y-100893328D01*
X76100884Y-100893328D02*
X75815170Y-100893328D01*
X75815170Y-100893328D02*
X75672312Y-100821900D01*
D10*
D11*
X47502200Y-96007200D02*
X155502200Y-96007200D01*
D10*
D11*
X48886598Y-98121900D02*
X49100884Y-98193328D01*
X49100884Y-98193328D02*
X49458026Y-98193328D01*
X49458026Y-98193328D02*
X49600884Y-98121900D01*
X49600884Y-98121900D02*
X49672312Y-98050471D01*
X49672312Y-98050471D02*
X49743741Y-97907614D01*
X49743741Y-97907614D02*
X49743741Y-97764757D01*
X49743741Y-97764757D02*
X49672312Y-97621900D01*
X49672312Y-97621900D02*
X49600884Y-97550471D01*
X49600884Y-97550471D02*
X49458026Y-97479042D01*
X49458026Y-97479042D02*
X49172312Y-97407614D01*
X49172312Y-97407614D02*
X49029455Y-97336185D01*
X49029455Y-97336185D02*
X48958026Y-97264757D01*
X48958026Y-97264757D02*
X48886598Y-97121900D01*
X48886598Y-97121900D02*
X48886598Y-96979042D01*
X48886598Y-96979042D02*
X48958026Y-96836185D01*
X48958026Y-96836185D02*
X49029455Y-96764757D01*
X49029455Y-96764757D02*
X49172312Y-96693328D01*
X49172312Y-96693328D02*
X49529455Y-96693328D01*
X49529455Y-96693328D02*
X49743741Y-96764757D01*
X50386597Y-98193328D02*
X50386597Y-96693328D01*
X51029455Y-98193328D02*
X51029455Y-97407614D01*
X51029455Y-97407614D02*
X50958026Y-97264757D01*
X50958026Y-97264757D02*
X50815169Y-97193328D01*
X50815169Y-97193328D02*
X50600883Y-97193328D01*
X50600883Y-97193328D02*
X50458026Y-97264757D01*
X50458026Y-97264757D02*
X50386597Y-97336185D01*
X52315169Y-98121900D02*
X52172312Y-98193328D01*
X52172312Y-98193328D02*
X51886598Y-98193328D01*
X51886598Y-98193328D02*
X51743740Y-98121900D01*
X51743740Y-98121900D02*
X51672312Y-97979042D01*
X51672312Y-97979042D02*
X51672312Y-97407614D01*
X51672312Y-97407614D02*
X51743740Y-97264757D01*
X51743740Y-97264757D02*
X51886598Y-97193328D01*
X51886598Y-97193328D02*
X52172312Y-97193328D01*
X52172312Y-97193328D02*
X52315169Y-97264757D01*
X52315169Y-97264757D02*
X52386598Y-97407614D01*
X52386598Y-97407614D02*
X52386598Y-97550471D01*
X52386598Y-97550471D02*
X51672312Y-97693328D01*
X53600883Y-98121900D02*
X53458026Y-98193328D01*
X53458026Y-98193328D02*
X53172312Y-98193328D01*
X53172312Y-98193328D02*
X53029454Y-98121900D01*
X53029454Y-98121900D02*
X52958026Y-97979042D01*
X52958026Y-97979042D02*
X52958026Y-97407614D01*
X52958026Y-97407614D02*
X53029454Y-97264757D01*
X53029454Y-97264757D02*
X53172312Y-97193328D01*
X53172312Y-97193328D02*
X53458026Y-97193328D01*
X53458026Y-97193328D02*
X53600883Y-97264757D01*
X53600883Y-97264757D02*
X53672312Y-97407614D01*
X53672312Y-97407614D02*
X53672312Y-97550471D01*
X53672312Y-97550471D02*
X52958026Y-97693328D01*
X54100883Y-97193328D02*
X54672311Y-97193328D01*
X54315168Y-96693328D02*
X54315168Y-97979042D01*
X54315168Y-97979042D02*
X54386597Y-98121900D01*
X54386597Y-98121900D02*
X54529454Y-98193328D01*
X54529454Y-98193328D02*
X54672311Y-98193328D01*
X55172311Y-98050471D02*
X55243740Y-98121900D01*
X55243740Y-98121900D02*
X55172311Y-98193328D01*
X55172311Y-98193328D02*
X55100883Y-98121900D01*
X55100883Y-98121900D02*
X55172311Y-98050471D01*
X55172311Y-98050471D02*
X55172311Y-98193328D01*
X55172311Y-97264757D02*
X55243740Y-97336185D01*
X55243740Y-97336185D02*
X55172311Y-97407614D01*
X55172311Y-97407614D02*
X55100883Y-97336185D01*
X55100883Y-97336185D02*
X55172311Y-97264757D01*
X55172311Y-97264757D02*
X55172311Y-97407614D01*
D10*
D11*
X67502200Y-106007200D02*
X67502200Y-109007200D01*
D10*
D11*
X131502200Y-106007200D02*
X131502200Y-112507200D01*
D14*
X9486997Y1067691D02*
X9320331Y1305786D01*
X9201283Y1067691D02*
X9201283Y1567691D01*
X9201283Y1567691D02*
X9391759Y1567691D01*
X9391759Y1567691D02*
X9439378Y1543881D01*
X9439378Y1543881D02*
X9463188Y1520072D01*
X9463188Y1520072D02*
X9486997Y1472453D01*
X9486997Y1472453D02*
X9486997Y1401024D01*
X9486997Y1401024D02*
X9463188Y1353405D01*
X9463188Y1353405D02*
X9439378Y1329596D01*
X9439378Y1329596D02*
X9391759Y1305786D01*
X9391759Y1305786D02*
X9201283Y1305786D01*
X9701283Y1329596D02*
X9867950Y1329596D01*
X9939378Y1067691D02*
X9701283Y1067691D01*
X9701283Y1067691D02*
X9701283Y1567691D01*
X9701283Y1567691D02*
X9939378Y1567691D01*
X10129855Y1091500D02*
X10201283Y1067691D01*
X10201283Y1067691D02*
X10320331Y1067691D01*
X10320331Y1067691D02*
X10367950Y1091500D01*
X10367950Y1091500D02*
X10391759Y1115310D01*
X10391759Y1115310D02*
X10415569Y1162929D01*
X10415569Y1162929D02*
X10415569Y1210548D01*
X10415569Y1210548D02*
X10391759Y1258167D01*
X10391759Y1258167D02*
X10367950Y1281977D01*
X10367950Y1281977D02*
X10320331Y1305786D01*
X10320331Y1305786D02*
X10225093Y1329596D01*
X10225093Y1329596D02*
X10177474Y1353405D01*
X10177474Y1353405D02*
X10153664Y1377215D01*
X10153664Y1377215D02*
X10129855Y1424834D01*
X10129855Y1424834D02*
X10129855Y1472453D01*
X10129855Y1472453D02*
X10153664Y1520072D01*
X10153664Y1520072D02*
X10177474Y1543881D01*
X10177474Y1543881D02*
X10225093Y1567691D01*
X10225093Y1567691D02*
X10344140Y1567691D01*
X10344140Y1567691D02*
X10415569Y1543881D01*
X10629854Y1329596D02*
X10796521Y1329596D01*
X10867949Y1067691D02*
X10629854Y1067691D01*
X10629854Y1067691D02*
X10629854Y1567691D01*
X10629854Y1567691D02*
X10867949Y1567691D01*
X11010807Y1567691D02*
X11296521Y1567691D01*
X11153664Y1067691D02*
X11153664Y1567691D01*
D15*
X49973996Y18635381D02*
X49640663Y19111572D01*
X49402568Y18635381D02*
X49402568Y19635381D01*
X49402568Y19635381D02*
X49783520Y19635381D01*
X49783520Y19635381D02*
X49878758Y19587762D01*
X49878758Y19587762D02*
X49926377Y19540143D01*
X49926377Y19540143D02*
X49973996Y19444905D01*
X49973996Y19444905D02*
X49973996Y19302048D01*
X49973996Y19302048D02*
X49926377Y19206810D01*
X49926377Y19206810D02*
X49878758Y19159191D01*
X49878758Y19159191D02*
X49783520Y19111572D01*
X49783520Y19111572D02*
X49402568Y19111572D01*
X50735901Y19159191D02*
X50402568Y19159191D01*
X50402568Y18635381D02*
X50402568Y19635381D01*
X50402568Y19635381D02*
X50878758Y19635381D01*
D12*
X1840225Y25199172D02*
X2340225Y23699172D01*
X2340225Y23699172D02*
X2840225Y25199172D01*
X4125939Y23699172D02*
X3268796Y23699172D01*
X3697367Y23699172D02*
X3697367Y25199172D01*
X3697367Y25199172D02*
X3554510Y24984886D01*
X3554510Y24984886D02*
X3411653Y24842029D01*
X3411653Y24842029D02*
X3268796Y24770600D01*
X4768795Y23842029D02*
X4840224Y23770600D01*
X4840224Y23770600D02*
X4768795Y23699172D01*
X4768795Y23699172D02*
X4697367Y23770600D01*
X4697367Y23770600D02*
X4768795Y23842029D01*
X4768795Y23842029D02*
X4768795Y23699172D01*
X5768796Y25199172D02*
X5911653Y25199172D01*
X5911653Y25199172D02*
X6054510Y25127743D01*
X6054510Y25127743D02*
X6125939Y25056315D01*
X6125939Y25056315D02*
X6197367Y24913458D01*
X6197367Y24913458D02*
X6268796Y24627743D01*
X6268796Y24627743D02*
X6268796Y24270600D01*
X6268796Y24270600D02*
X6197367Y23984886D01*
X6197367Y23984886D02*
X6125939Y23842029D01*
X6125939Y23842029D02*
X6054510Y23770600D01*
X6054510Y23770600D02*
X5911653Y23699172D01*
X5911653Y23699172D02*
X5768796Y23699172D01*
X5768796Y23699172D02*
X5625939Y23770600D01*
X5625939Y23770600D02*
X5554510Y23842029D01*
X5554510Y23842029D02*
X5483081Y23984886D01*
X5483081Y23984886D02*
X5411653Y24270600D01*
X5411653Y24270600D02*
X5411653Y24627743D01*
X5411653Y24627743D02*
X5483081Y24913458D01*
X5483081Y24913458D02*
X5554510Y25056315D01*
X5554510Y25056315D02*
X5625939Y25127743D01*
X5625939Y25127743D02*
X5768796Y25199172D01*
D14*
X28367950Y829596D02*
X28439378Y805786D01*
X28439378Y805786D02*
X28463188Y781977D01*
X28463188Y781977D02*
X28486997Y734358D01*
X28486997Y734358D02*
X28486997Y662929D01*
X28486997Y662929D02*
X28463188Y615310D01*
X28463188Y615310D02*
X28439378Y591500D01*
X28439378Y591500D02*
X28391759Y567691D01*
X28391759Y567691D02*
X28201283Y567691D01*
X28201283Y567691D02*
X28201283Y1067691D01*
X28201283Y1067691D02*
X28367950Y1067691D01*
X28367950Y1067691D02*
X28415569Y1043881D01*
X28415569Y1043881D02*
X28439378Y1020072D01*
X28439378Y1020072D02*
X28463188Y972453D01*
X28463188Y972453D02*
X28463188Y924834D01*
X28463188Y924834D02*
X28439378Y877215D01*
X28439378Y877215D02*
X28415569Y853405D01*
X28415569Y853405D02*
X28367950Y829596D01*
X28367950Y829596D02*
X28201283Y829596D01*
X28701283Y567691D02*
X28701283Y1067691D01*
X28701283Y1067691D02*
X28867950Y710548D01*
X28867950Y710548D02*
X29034616Y1067691D01*
X29034616Y1067691D02*
X29034616Y567691D01*
X29272712Y829596D02*
X29439379Y829596D01*
X29510807Y567691D02*
X29272712Y567691D01*
X29272712Y567691D02*
X29272712Y1067691D01*
X29272712Y1067691D02*
X29510807Y1067691D01*
X29701284Y1020072D02*
X29725093Y1043881D01*
X29725093Y1043881D02*
X29772712Y1067691D01*
X29772712Y1067691D02*
X29891760Y1067691D01*
X29891760Y1067691D02*
X29939379Y1043881D01*
X29939379Y1043881D02*
X29963188Y1020072D01*
X29963188Y1020072D02*
X29986998Y972453D01*
X29986998Y972453D02*
X29986998Y924834D01*
X29986998Y924834D02*
X29963188Y853405D01*
X29963188Y853405D02*
X29677474Y567691D01*
X29677474Y567691D02*
X29986998Y567691D01*
X30272712Y853405D02*
X30225093Y877215D01*
X30225093Y877215D02*
X30201283Y901024D01*
X30201283Y901024D02*
X30177474Y948643D01*
X30177474Y948643D02*
X30177474Y972453D01*
X30177474Y972453D02*
X30201283Y1020072D01*
X30201283Y1020072D02*
X30225093Y1043881D01*
X30225093Y1043881D02*
X30272712Y1067691D01*
X30272712Y1067691D02*
X30367950Y1067691D01*
X30367950Y1067691D02*
X30415569Y1043881D01*
X30415569Y1043881D02*
X30439378Y1020072D01*
X30439378Y1020072D02*
X30463188Y972453D01*
X30463188Y972453D02*
X30463188Y948643D01*
X30463188Y948643D02*
X30439378Y901024D01*
X30439378Y901024D02*
X30415569Y877215D01*
X30415569Y877215D02*
X30367950Y853405D01*
X30367950Y853405D02*
X30272712Y853405D01*
X30272712Y853405D02*
X30225093Y829596D01*
X30225093Y829596D02*
X30201283Y805786D01*
X30201283Y805786D02*
X30177474Y758167D01*
X30177474Y758167D02*
X30177474Y662929D01*
X30177474Y662929D02*
X30201283Y615310D01*
X30201283Y615310D02*
X30225093Y591500D01*
X30225093Y591500D02*
X30272712Y567691D01*
X30272712Y567691D02*
X30367950Y567691D01*
X30367950Y567691D02*
X30415569Y591500D01*
X30415569Y591500D02*
X30439378Y615310D01*
X30439378Y615310D02*
X30463188Y662929D01*
X30463188Y662929D02*
X30463188Y758167D01*
X30463188Y758167D02*
X30439378Y805786D01*
X30439378Y805786D02*
X30415569Y829596D01*
X30415569Y829596D02*
X30367950Y853405D01*
X30772711Y1067691D02*
X30820330Y1067691D01*
X30820330Y1067691D02*
X30867949Y1043881D01*
X30867949Y1043881D02*
X30891759Y1020072D01*
X30891759Y1020072D02*
X30915568Y972453D01*
X30915568Y972453D02*
X30939378Y877215D01*
X30939378Y877215D02*
X30939378Y758167D01*
X30939378Y758167D02*
X30915568Y662929D01*
X30915568Y662929D02*
X30891759Y615310D01*
X30891759Y615310D02*
X30867949Y591500D01*
X30867949Y591500D02*
X30820330Y567691D01*
X30820330Y567691D02*
X30772711Y567691D01*
X30772711Y567691D02*
X30725092Y591500D01*
X30725092Y591500D02*
X30701283Y615310D01*
X30701283Y615310D02*
X30677473Y662929D01*
X30677473Y662929D02*
X30653664Y758167D01*
X30653664Y758167D02*
X30653664Y877215D01*
X30653664Y877215D02*
X30677473Y972453D01*
X30677473Y972453D02*
X30701283Y1020072D01*
X30701283Y1020072D02*
X30725092Y1043881D01*
X30725092Y1043881D02*
X30772711Y1067691D01*
D15*
X402568Y21135381D02*
X402568Y20325858D01*
X402568Y20325858D02*
X450187Y20230620D01*
X450187Y20230620D02*
X497806Y20183000D01*
X497806Y20183000D02*
X593044Y20135381D01*
X593044Y20135381D02*
X783520Y20135381D01*
X783520Y20135381D02*
X878758Y20183000D01*
X878758Y20183000D02*
X926377Y20230620D01*
X926377Y20230620D02*
X973996Y20325858D01*
X973996Y20325858D02*
X973996Y21135381D01*
X1402568Y20183000D02*
X1545425Y20135381D01*
X1545425Y20135381D02*
X1783520Y20135381D01*
X1783520Y20135381D02*
X1878758Y20183000D01*
X1878758Y20183000D02*
X1926377Y20230620D01*
X1926377Y20230620D02*
X1973996Y20325858D01*
X1973996Y20325858D02*
X1973996Y20421096D01*
X1973996Y20421096D02*
X1926377Y20516334D01*
X1926377Y20516334D02*
X1878758Y20563953D01*
X1878758Y20563953D02*
X1783520Y20611572D01*
X1783520Y20611572D02*
X1593044Y20659191D01*
X1593044Y20659191D02*
X1497806Y20706810D01*
X1497806Y20706810D02*
X1450187Y20754429D01*
X1450187Y20754429D02*
X1402568Y20849667D01*
X1402568Y20849667D02*
X1402568Y20944905D01*
X1402568Y20944905D02*
X1450187Y21040143D01*
X1450187Y21040143D02*
X1497806Y21087762D01*
X1497806Y21087762D02*
X1593044Y21135381D01*
X1593044Y21135381D02*
X1831139Y21135381D01*
X1831139Y21135381D02*
X1973996Y21087762D01*
X2735901Y20659191D02*
X2878758Y20611572D01*
X2878758Y20611572D02*
X2926377Y20563953D01*
X2926377Y20563953D02*
X2973996Y20468715D01*
X2973996Y20468715D02*
X2973996Y20325858D01*
X2973996Y20325858D02*
X2926377Y20230620D01*
X2926377Y20230620D02*
X2878758Y20183000D01*
X2878758Y20183000D02*
X2783520Y20135381D01*
X2783520Y20135381D02*
X2402568Y20135381D01*
X2402568Y20135381D02*
X2402568Y21135381D01*
X2402568Y21135381D02*
X2735901Y21135381D01*
X2735901Y21135381D02*
X2831139Y21087762D01*
X2831139Y21087762D02*
X2878758Y21040143D01*
X2878758Y21040143D02*
X2926377Y20944905D01*
X2926377Y20944905D02*
X2926377Y20849667D01*
X2926377Y20849667D02*
X2878758Y20754429D01*
X2878758Y20754429D02*
X2831139Y20706810D01*
X2831139Y20706810D02*
X2735901Y20659191D01*
X2735901Y20659191D02*
X2402568Y20659191D01*
X3402568Y20516334D02*
X4164473Y20516334D01*
X5212091Y20230620D02*
X5164472Y20183000D01*
X5164472Y20183000D02*
X5021615Y20135381D01*
X5021615Y20135381D02*
X4926377Y20135381D01*
X4926377Y20135381D02*
X4783520Y20183000D01*
X4783520Y20183000D02*
X4688282Y20278239D01*
X4688282Y20278239D02*
X4640663Y20373477D01*
X4640663Y20373477D02*
X4593044Y20563953D01*
X4593044Y20563953D02*
X4593044Y20706810D01*
X4593044Y20706810D02*
X4640663Y20897286D01*
X4640663Y20897286D02*
X4688282Y20992524D01*
X4688282Y20992524D02*
X4783520Y21087762D01*
X4783520Y21087762D02*
X4926377Y21135381D01*
X4926377Y21135381D02*
X5021615Y21135381D01*
X5021615Y21135381D02*
X5164472Y21087762D01*
X5164472Y21087762D02*
X5212091Y21040143D01*
D12*
X983082Y26270600D02*
X1197368Y26199172D01*
X1197368Y26199172D02*
X1554510Y26199172D01*
X1554510Y26199172D02*
X1697368Y26270600D01*
X1697368Y26270600D02*
X1768796Y26342029D01*
X1768796Y26342029D02*
X1840225Y26484886D01*
X1840225Y26484886D02*
X1840225Y26627743D01*
X1840225Y26627743D02*
X1768796Y26770600D01*
X1768796Y26770600D02*
X1697368Y26842029D01*
X1697368Y26842029D02*
X1554510Y26913458D01*
X1554510Y26913458D02*
X1268796Y26984886D01*
X1268796Y26984886D02*
X1125939Y27056315D01*
X1125939Y27056315D02*
X1054510Y27127743D01*
X1054510Y27127743D02*
X983082Y27270600D01*
X983082Y27270600D02*
X983082Y27413458D01*
X983082Y27413458D02*
X1054510Y27556315D01*
X1054510Y27556315D02*
X1125939Y27627743D01*
X1125939Y27627743D02*
X1268796Y27699172D01*
X1268796Y27699172D02*
X1625939Y27699172D01*
X1625939Y27699172D02*
X1840225Y27627743D01*
X2411653Y26627743D02*
X3125939Y26627743D01*
X2268796Y26199172D02*
X2768796Y27699172D01*
X2768796Y27699172D02*
X3268796Y26199172D01*
X4268795Y26984886D02*
X3768795Y26984886D01*
X3768795Y26199172D02*
X3768795Y27699172D01*
X3768795Y27699172D02*
X4483081Y27699172D01*
X5054509Y26984886D02*
X5554509Y26984886D01*
X5768795Y26199172D02*
X5054509Y26199172D01*
X5054509Y26199172D02*
X5054509Y27699172D01*
X5054509Y27699172D02*
X5768795Y27699172D01*
X8411652Y26199172D02*
X7911652Y26913458D01*
X7554509Y26199172D02*
X7554509Y27699172D01*
X7554509Y27699172D02*
X8125938Y27699172D01*
X8125938Y27699172D02*
X8268795Y27627743D01*
X8268795Y27627743D02*
X8340224Y27556315D01*
X8340224Y27556315D02*
X8411652Y27413458D01*
X8411652Y27413458D02*
X8411652Y27199172D01*
X8411652Y27199172D02*
X8340224Y27056315D01*
X8340224Y27056315D02*
X8268795Y26984886D01*
X8268795Y26984886D02*
X8125938Y26913458D01*
X8125938Y26913458D02*
X7554509Y26913458D01*
X9340224Y27699172D02*
X9625938Y27699172D01*
X9625938Y27699172D02*
X9768795Y27627743D01*
X9768795Y27627743D02*
X9911652Y27484886D01*
X9911652Y27484886D02*
X9983081Y27199172D01*
X9983081Y27199172D02*
X9983081Y26699172D01*
X9983081Y26699172D02*
X9911652Y26413458D01*
X9911652Y26413458D02*
X9768795Y26270600D01*
X9768795Y26270600D02*
X9625938Y26199172D01*
X9625938Y26199172D02*
X9340224Y26199172D01*
X9340224Y26199172D02*
X9197367Y26270600D01*
X9197367Y26270600D02*
X9054509Y26413458D01*
X9054509Y26413458D02*
X8983081Y26699172D01*
X8983081Y26699172D02*
X8983081Y27199172D01*
X8983081Y27199172D02*
X9054509Y27484886D01*
X9054509Y27484886D02*
X9197367Y27627743D01*
X9197367Y27627743D02*
X9340224Y27699172D01*
X10911653Y27699172D02*
X11197367Y27699172D01*
X11197367Y27699172D02*
X11340224Y27627743D01*
X11340224Y27627743D02*
X11483081Y27484886D01*
X11483081Y27484886D02*
X11554510Y27199172D01*
X11554510Y27199172D02*
X11554510Y26699172D01*
X11554510Y26699172D02*
X11483081Y26413458D01*
X11483081Y26413458D02*
X11340224Y26270600D01*
X11340224Y26270600D02*
X11197367Y26199172D01*
X11197367Y26199172D02*
X10911653Y26199172D01*
X10911653Y26199172D02*
X10768796Y26270600D01*
X10768796Y26270600D02*
X10625938Y26413458D01*
X10625938Y26413458D02*
X10554510Y26699172D01*
X10554510Y26699172D02*
X10554510Y27199172D01*
X10554510Y27199172D02*
X10625938Y27484886D01*
X10625938Y27484886D02*
X10768796Y27627743D01*
X10768796Y27627743D02*
X10911653Y27699172D01*
X12197367Y26199172D02*
X12197367Y27699172D01*
X12197367Y27699172D02*
X12697367Y26627743D01*
X12697367Y26627743D02*
X13197367Y27699172D01*
X13197367Y27699172D02*
X13197367Y26199172D01*
D15*
X2817000Y1854950D02*
X2864619Y1997807D01*
X2864619Y1997807D02*
X2864619Y2235902D01*
X2864619Y2235902D02*
X2817000Y2331140D01*
X2817000Y2331140D02*
X2769380Y2378759D01*
X2769380Y2378759D02*
X2674142Y2426378D01*
X2674142Y2426378D02*
X2578904Y2426378D01*
X2578904Y2426378D02*
X2483666Y2378759D01*
X2483666Y2378759D02*
X2436047Y2331140D01*
X2436047Y2331140D02*
X2388428Y2235902D01*
X2388428Y2235902D02*
X2340809Y2045426D01*
X2340809Y2045426D02*
X2293190Y1950188D01*
X2293190Y1950188D02*
X2245571Y1902569D01*
X2245571Y1902569D02*
X2150333Y1854950D01*
X2150333Y1854950D02*
X2055095Y1854950D01*
X2055095Y1854950D02*
X1959857Y1902569D01*
X1959857Y1902569D02*
X1912238Y1950188D01*
X1912238Y1950188D02*
X1864619Y2045426D01*
X1864619Y2045426D02*
X1864619Y2283521D01*
X1864619Y2283521D02*
X1912238Y2426378D01*
X1864619Y2712093D02*
X1864619Y3283521D01*
X2864619Y2997807D02*
X1864619Y2997807D01*
X2483666Y3616855D02*
X2483666Y4378759D01*
X2864619Y5331140D02*
X2864619Y4854950D01*
X2864619Y4854950D02*
X1864619Y4854950D01*
X2864619Y5664474D02*
X1864619Y5664474D01*
X2864619Y6140664D02*
X1864619Y6140664D01*
X1864619Y6140664D02*
X2864619Y6712092D01*
X2864619Y6712092D02*
X1864619Y6712092D01*
X2864619Y7188283D02*
X1864619Y7188283D01*
X2864619Y7759711D02*
X2293190Y7331140D01*
X1864619Y7759711D02*
X2436047Y7188283D01*
D11*
X8843333Y17215181D02*
X8510000Y17691372D01*
X8271905Y17215181D02*
X8271905Y18215181D01*
X8271905Y18215181D02*
X8652857Y18215181D01*
X8652857Y18215181D02*
X8748095Y18167562D01*
X8748095Y18167562D02*
X8795714Y18119943D01*
X8795714Y18119943D02*
X8843333Y18024705D01*
X8843333Y18024705D02*
X8843333Y17881848D01*
X8843333Y17881848D02*
X8795714Y17786610D01*
X8795714Y17786610D02*
X8748095Y17738991D01*
X8748095Y17738991D02*
X8652857Y17691372D01*
X8652857Y17691372D02*
X8271905Y17691372D01*
X9224286Y18119943D02*
X9271905Y18167562D01*
X9271905Y18167562D02*
X9367143Y18215181D01*
X9367143Y18215181D02*
X9605238Y18215181D01*
X9605238Y18215181D02*
X9700476Y18167562D01*
X9700476Y18167562D02*
X9748095Y18119943D01*
X9748095Y18119943D02*
X9795714Y18024705D01*
X9795714Y18024705D02*
X9795714Y17929467D01*
X9795714Y17929467D02*
X9748095Y17786610D01*
X9748095Y17786610D02*
X9176667Y17215181D01*
X9176667Y17215181D02*
X9795714Y17215181D01*
X30723809Y21971372D02*
X30723809Y21495181D01*
X30390476Y22495181D02*
X30723809Y21971372D01*
X30723809Y21971372D02*
X31057142Y22495181D01*
X31342857Y22399943D02*
X31390476Y22447562D01*
X31390476Y22447562D02*
X31485714Y22495181D01*
X31485714Y22495181D02*
X31723809Y22495181D01*
X31723809Y22495181D02*
X31819047Y22447562D01*
X31819047Y22447562D02*
X31866666Y22399943D01*
X31866666Y22399943D02*
X31914285Y22304705D01*
X31914285Y22304705D02*
X31914285Y22209467D01*
X31914285Y22209467D02*
X31866666Y22066610D01*
X31866666Y22066610D02*
X31295238Y21495181D01*
X31295238Y21495181D02*
X31914285Y21495181D01*
X12875595Y18495181D02*
X12875595Y17685658D01*
X12875595Y17685658D02*
X12923214Y17590420D01*
X12923214Y17590420D02*
X12970833Y17542800D01*
X12970833Y17542800D02*
X13066071Y17495181D01*
X13066071Y17495181D02*
X13256547Y17495181D01*
X13256547Y17495181D02*
X13351785Y17542800D01*
X13351785Y17542800D02*
X13399404Y17590420D01*
X13399404Y17590420D02*
X13447023Y17685658D01*
X13447023Y17685658D02*
X13447023Y18495181D01*
X13875595Y18399943D02*
X13923214Y18447562D01*
X13923214Y18447562D02*
X14018452Y18495181D01*
X14018452Y18495181D02*
X14256547Y18495181D01*
X14256547Y18495181D02*
X14351785Y18447562D01*
X14351785Y18447562D02*
X14399404Y18399943D01*
X14399404Y18399943D02*
X14447023Y18304705D01*
X14447023Y18304705D02*
X14447023Y18209467D01*
X14447023Y18209467D02*
X14399404Y18066610D01*
X14399404Y18066610D02*
X13827976Y17495181D01*
X13827976Y17495181D02*
X14447023Y17495181D01*
X20823809Y9021372D02*
X20823809Y8545181D01*
X20490476Y9545181D02*
X20823809Y9021372D01*
X20823809Y9021372D02*
X21157142Y9545181D01*
X22014285Y8545181D02*
X21442857Y8545181D01*
X21728571Y8545181D02*
X21728571Y9545181D01*
X21728571Y9545181D02*
X21633333Y9402324D01*
X21633333Y9402324D02*
X21538095Y9307086D01*
X21538095Y9307086D02*
X21442857Y9259467D01*
X41365565Y17975601D02*
X41031959Y17975601D01*
X41031959Y17451362D02*
X41031959Y18452181D01*
X41031959Y18452181D02*
X41508539Y18452181D01*
X42366384Y17451362D02*
X41889804Y17451362D01*
X41889804Y17451362D02*
X41889804Y18452181D01*
X42557017Y18452181D02*
X43128913Y18452181D01*
X42842965Y17451362D02*
X42842965Y18452181D01*
X43986758Y17451362D02*
X43414862Y17451362D01*
X43700810Y17451362D02*
X43700810Y18452181D01*
X43700810Y18452181D02*
X43605494Y18309207D01*
X43605494Y18309207D02*
X43510178Y18213891D01*
X43510178Y18213891D02*
X43414862Y18166233D01*
X33833333Y12640420D02*
X33785714Y12592800D01*
X33785714Y12592800D02*
X33642857Y12545181D01*
X33642857Y12545181D02*
X33547619Y12545181D01*
X33547619Y12545181D02*
X33404762Y12592800D01*
X33404762Y12592800D02*
X33309524Y12688039D01*
X33309524Y12688039D02*
X33261905Y12783277D01*
X33261905Y12783277D02*
X33214286Y12973753D01*
X33214286Y12973753D02*
X33214286Y13116610D01*
X33214286Y13116610D02*
X33261905Y13307086D01*
X33261905Y13307086D02*
X33309524Y13402324D01*
X33309524Y13402324D02*
X33404762Y13497562D01*
X33404762Y13497562D02*
X33547619Y13545181D01*
X33547619Y13545181D02*
X33642857Y13545181D01*
X33642857Y13545181D02*
X33785714Y13497562D01*
X33785714Y13497562D02*
X33833333Y13449943D01*
X34214286Y13449943D02*
X34261905Y13497562D01*
X34261905Y13497562D02*
X34357143Y13545181D01*
X34357143Y13545181D02*
X34595238Y13545181D01*
X34595238Y13545181D02*
X34690476Y13497562D01*
X34690476Y13497562D02*
X34738095Y13449943D01*
X34738095Y13449943D02*
X34785714Y13354705D01*
X34785714Y13354705D02*
X34785714Y13259467D01*
X34785714Y13259467D02*
X34738095Y13116610D01*
X34738095Y13116610D02*
X34166667Y12545181D01*
X34166667Y12545181D02*
X34785714Y12545181D01*
X42619047Y1568991D02*
X42761904Y1521372D01*
X42761904Y1521372D02*
X42809523Y1473753D01*
X42809523Y1473753D02*
X42857142Y1378515D01*
X42857142Y1378515D02*
X42857142Y1235658D01*
X42857142Y1235658D02*
X42809523Y1140420D01*
X42809523Y1140420D02*
X42761904Y1092800D01*
X42761904Y1092800D02*
X42666666Y1045181D01*
X42666666Y1045181D02*
X42285714Y1045181D01*
X42285714Y1045181D02*
X42285714Y2045181D01*
X42285714Y2045181D02*
X42619047Y2045181D01*
X42619047Y2045181D02*
X42714285Y1997562D01*
X42714285Y1997562D02*
X42761904Y1949943D01*
X42761904Y1949943D02*
X42809523Y1854705D01*
X42809523Y1854705D02*
X42809523Y1759467D01*
X42809523Y1759467D02*
X42761904Y1664229D01*
X42761904Y1664229D02*
X42714285Y1616610D01*
X42714285Y1616610D02*
X42619047Y1568991D01*
X42619047Y1568991D02*
X42285714Y1568991D01*
X43190476Y2045181D02*
X43857142Y2045181D01*
X43857142Y2045181D02*
X43190476Y1045181D01*
X43190476Y1045181D02*
X43857142Y1045181D01*
X44761904Y1045181D02*
X44190476Y1045181D01*
X44476190Y1045181D02*
X44476190Y2045181D01*
X44476190Y2045181D02*
X44380952Y1902324D01*
X44380952Y1902324D02*
X44285714Y1807086D01*
X44285714Y1807086D02*
X44190476Y1759467D01*
X52129048Y4386134D02*
X52890953Y4386134D01*
X52510000Y4005181D02*
X52510000Y4767086D01*
X32357142Y17140420D02*
X32309523Y17092800D01*
X32309523Y17092800D02*
X32166666Y17045181D01*
X32166666Y17045181D02*
X32071428Y17045181D01*
X32071428Y17045181D02*
X31928571Y17092800D01*
X31928571Y17092800D02*
X31833333Y17188039D01*
X31833333Y17188039D02*
X31785714Y17283277D01*
X31785714Y17283277D02*
X31738095Y17473753D01*
X31738095Y17473753D02*
X31738095Y17616610D01*
X31738095Y17616610D02*
X31785714Y17807086D01*
X31785714Y17807086D02*
X31833333Y17902324D01*
X31833333Y17902324D02*
X31928571Y17997562D01*
X31928571Y17997562D02*
X32071428Y18045181D01*
X32071428Y18045181D02*
X32166666Y18045181D01*
X32166666Y18045181D02*
X32309523Y17997562D01*
X32309523Y17997562D02*
X32357142Y17949943D01*
X33309523Y17045181D02*
X32738095Y17045181D01*
X33023809Y17045181D02*
X33023809Y18045181D01*
X33023809Y18045181D02*
X32928571Y17902324D01*
X32928571Y17902324D02*
X32833333Y17807086D01*
X32833333Y17807086D02*
X32738095Y17759467D01*
X33928571Y18045181D02*
X34023809Y18045181D01*
X34023809Y18045181D02*
X34119047Y17997562D01*
X34119047Y17997562D02*
X34166666Y17949943D01*
X34166666Y17949943D02*
X34214285Y17854705D01*
X34214285Y17854705D02*
X34261904Y17664229D01*
X34261904Y17664229D02*
X34261904Y17426134D01*
X34261904Y17426134D02*
X34214285Y17235658D01*
X34214285Y17235658D02*
X34166666Y17140420D01*
X34166666Y17140420D02*
X34119047Y17092800D01*
X34119047Y17092800D02*
X34023809Y17045181D01*
X34023809Y17045181D02*
X33928571Y17045181D01*
X33928571Y17045181D02*
X33833333Y17092800D01*
X33833333Y17092800D02*
X33785714Y17140420D01*
X33785714Y17140420D02*
X33738095Y17235658D01*
X33738095Y17235658D02*
X33690476Y17426134D01*
X33690476Y17426134D02*
X33690476Y17664229D01*
X33690476Y17664229D02*
X33738095Y17854705D01*
X33738095Y17854705D02*
X33785714Y17949943D01*
X33785714Y17949943D02*
X33833333Y17997562D01*
X33833333Y17997562D02*
X33928571Y18045181D01*
X30833333Y9640420D02*
X30785714Y9592800D01*
X30785714Y9592800D02*
X30642857Y9545181D01*
X30642857Y9545181D02*
X30547619Y9545181D01*
X30547619Y9545181D02*
X30404762Y9592800D01*
X30404762Y9592800D02*
X30309524Y9688039D01*
X30309524Y9688039D02*
X30261905Y9783277D01*
X30261905Y9783277D02*
X30214286Y9973753D01*
X30214286Y9973753D02*
X30214286Y10116610D01*
X30214286Y10116610D02*
X30261905Y10307086D01*
X30261905Y10307086D02*
X30309524Y10402324D01*
X30309524Y10402324D02*
X30404762Y10497562D01*
X30404762Y10497562D02*
X30547619Y10545181D01*
X30547619Y10545181D02*
X30642857Y10545181D01*
X30642857Y10545181D02*
X30785714Y10497562D01*
X30785714Y10497562D02*
X30833333Y10449943D01*
X31404762Y10116610D02*
X31309524Y10164229D01*
X31309524Y10164229D02*
X31261905Y10211848D01*
X31261905Y10211848D02*
X31214286Y10307086D01*
X31214286Y10307086D02*
X31214286Y10354705D01*
X31214286Y10354705D02*
X31261905Y10449943D01*
X31261905Y10449943D02*
X31309524Y10497562D01*
X31309524Y10497562D02*
X31404762Y10545181D01*
X31404762Y10545181D02*
X31595238Y10545181D01*
X31595238Y10545181D02*
X31690476Y10497562D01*
X31690476Y10497562D02*
X31738095Y10449943D01*
X31738095Y10449943D02*
X31785714Y10354705D01*
X31785714Y10354705D02*
X31785714Y10307086D01*
X31785714Y10307086D02*
X31738095Y10211848D01*
X31738095Y10211848D02*
X31690476Y10164229D01*
X31690476Y10164229D02*
X31595238Y10116610D01*
X31595238Y10116610D02*
X31404762Y10116610D01*
X31404762Y10116610D02*
X31309524Y10068991D01*
X31309524Y10068991D02*
X31261905Y10021372D01*
X31261905Y10021372D02*
X31214286Y9926134D01*
X31214286Y9926134D02*
X31214286Y9735658D01*
X31214286Y9735658D02*
X31261905Y9640420D01*
X31261905Y9640420D02*
X31309524Y9592800D01*
X31309524Y9592800D02*
X31404762Y9545181D01*
X31404762Y9545181D02*
X31595238Y9545181D01*
X31595238Y9545181D02*
X31690476Y9592800D01*
X31690476Y9592800D02*
X31738095Y9640420D01*
X31738095Y9640420D02*
X31785714Y9735658D01*
X31785714Y9735658D02*
X31785714Y9926134D01*
X31785714Y9926134D02*
X31738095Y10021372D01*
X31738095Y10021372D02*
X31690476Y10068991D01*
X31690476Y10068991D02*
X31595238Y10116610D01*
X3865180Y14933334D02*
X3150895Y14933334D01*
X3150895Y14933334D02*
X3008038Y14980953D01*
X3008038Y14980953D02*
X2912800Y15076191D01*
X2912800Y15076191D02*
X2865180Y15219048D01*
X2865180Y15219048D02*
X2865180Y15314286D01*
X3865180Y14552381D02*
X3865180Y13933334D01*
X3865180Y13933334D02*
X3484228Y14266667D01*
X3484228Y14266667D02*
X3484228Y14123810D01*
X3484228Y14123810D02*
X3436609Y14028572D01*
X3436609Y14028572D02*
X3388990Y13980953D01*
X3388990Y13980953D02*
X3293752Y13933334D01*
X3293752Y13933334D02*
X3055657Y13933334D01*
X3055657Y13933334D02*
X2960419Y13980953D01*
X2960419Y13980953D02*
X2912800Y14028572D01*
X2912800Y14028572D02*
X2865180Y14123810D01*
X2865180Y14123810D02*
X2865180Y14409524D01*
X2865180Y14409524D02*
X2912800Y14504762D01*
X2912800Y14504762D02*
X2960419Y14552381D01*
X17833333Y12640420D02*
X17785714Y12592800D01*
X17785714Y12592800D02*
X17642857Y12545181D01*
X17642857Y12545181D02*
X17547619Y12545181D01*
X17547619Y12545181D02*
X17404762Y12592800D01*
X17404762Y12592800D02*
X17309524Y12688039D01*
X17309524Y12688039D02*
X17261905Y12783277D01*
X17261905Y12783277D02*
X17214286Y12973753D01*
X17214286Y12973753D02*
X17214286Y13116610D01*
X17214286Y13116610D02*
X17261905Y13307086D01*
X17261905Y13307086D02*
X17309524Y13402324D01*
X17309524Y13402324D02*
X17404762Y13497562D01*
X17404762Y13497562D02*
X17547619Y13545181D01*
X17547619Y13545181D02*
X17642857Y13545181D01*
X17642857Y13545181D02*
X17785714Y13497562D01*
X17785714Y13497562D02*
X17833333Y13449943D01*
X18690476Y13545181D02*
X18500000Y13545181D01*
X18500000Y13545181D02*
X18404762Y13497562D01*
X18404762Y13497562D02*
X18357143Y13449943D01*
X18357143Y13449943D02*
X18261905Y13307086D01*
X18261905Y13307086D02*
X18214286Y13116610D01*
X18214286Y13116610D02*
X18214286Y12735658D01*
X18214286Y12735658D02*
X18261905Y12640420D01*
X18261905Y12640420D02*
X18309524Y12592800D01*
X18309524Y12592800D02*
X18404762Y12545181D01*
X18404762Y12545181D02*
X18595238Y12545181D01*
X18595238Y12545181D02*
X18690476Y12592800D01*
X18690476Y12592800D02*
X18738095Y12640420D01*
X18738095Y12640420D02*
X18785714Y12735658D01*
X18785714Y12735658D02*
X18785714Y12973753D01*
X18785714Y12973753D02*
X18738095Y13068991D01*
X18738095Y13068991D02*
X18690476Y13116610D01*
X18690476Y13116610D02*
X18595238Y13164229D01*
X18595238Y13164229D02*
X18404762Y13164229D01*
X18404762Y13164229D02*
X18309524Y13116610D01*
X18309524Y13116610D02*
X18261905Y13068991D01*
X18261905Y13068991D02*
X18214286Y12973753D01*
X38999580Y14877143D02*
X39047200Y14829524D01*
X39047200Y14829524D02*
X39094819Y14686667D01*
X39094819Y14686667D02*
X39094819Y14591429D01*
X39094819Y14591429D02*
X39047200Y14448572D01*
X39047200Y14448572D02*
X38951961Y14353334D01*
X38951961Y14353334D02*
X38856723Y14305715D01*
X38856723Y14305715D02*
X38666247Y14258096D01*
X38666247Y14258096D02*
X38523390Y14258096D01*
X38523390Y14258096D02*
X38332914Y14305715D01*
X38332914Y14305715D02*
X38237676Y14353334D01*
X38237676Y14353334D02*
X38142438Y14448572D01*
X38142438Y14448572D02*
X38094819Y14591429D01*
X38094819Y14591429D02*
X38094819Y14686667D01*
X38094819Y14686667D02*
X38142438Y14829524D01*
X38142438Y14829524D02*
X38190057Y14877143D01*
X38190057Y15258096D02*
X38142438Y15305715D01*
X38142438Y15305715D02*
X38094819Y15400953D01*
X38094819Y15400953D02*
X38094819Y15639048D01*
X38094819Y15639048D02*
X38142438Y15734286D01*
X38142438Y15734286D02*
X38190057Y15781905D01*
X38190057Y15781905D02*
X38285295Y15829524D01*
X38285295Y15829524D02*
X38380533Y15829524D01*
X38380533Y15829524D02*
X38523390Y15781905D01*
X38523390Y15781905D02*
X39094819Y15210477D01*
X39094819Y15210477D02*
X39094819Y15829524D01*
X38094819Y16734286D02*
X38094819Y16258096D01*
X38094819Y16258096D02*
X38571009Y16210477D01*
X38571009Y16210477D02*
X38523390Y16258096D01*
X38523390Y16258096D02*
X38475771Y16353334D01*
X38475771Y16353334D02*
X38475771Y16591429D01*
X38475771Y16591429D02*
X38523390Y16686667D01*
X38523390Y16686667D02*
X38571009Y16734286D01*
X38571009Y16734286D02*
X38666247Y16781905D01*
X38666247Y16781905D02*
X38904342Y16781905D01*
X38904342Y16781905D02*
X38999580Y16734286D01*
X38999580Y16734286D02*
X39047200Y16686667D01*
X39047200Y16686667D02*
X39094819Y16591429D01*
X39094819Y16591429D02*
X39094819Y16353334D01*
X39094819Y16353334D02*
X39047200Y16258096D01*
X39047200Y16258096D02*
X38999580Y16210477D01*
X36274819Y9833334D02*
X35798628Y9500001D01*
X36274819Y9261906D02*
X35274819Y9261906D01*
X35274819Y9261906D02*
X35274819Y9642858D01*
X35274819Y9642858D02*
X35322438Y9738096D01*
X35322438Y9738096D02*
X35370057Y9785715D01*
X35370057Y9785715D02*
X35465295Y9833334D01*
X35465295Y9833334D02*
X35608152Y9833334D01*
X35608152Y9833334D02*
X35703390Y9785715D01*
X35703390Y9785715D02*
X35751009Y9738096D01*
X35751009Y9738096D02*
X35798628Y9642858D01*
X35798628Y9642858D02*
X35798628Y9261906D01*
X35274819Y10166668D02*
X35274819Y10833334D01*
X35274819Y10833334D02*
X36274819Y10404763D01*
X18857142Y20640420D02*
X18809523Y20592800D01*
X18809523Y20592800D02*
X18666666Y20545181D01*
X18666666Y20545181D02*
X18571428Y20545181D01*
X18571428Y20545181D02*
X18428571Y20592800D01*
X18428571Y20592800D02*
X18333333Y20688039D01*
X18333333Y20688039D02*
X18285714Y20783277D01*
X18285714Y20783277D02*
X18238095Y20973753D01*
X18238095Y20973753D02*
X18238095Y21116610D01*
X18238095Y21116610D02*
X18285714Y21307086D01*
X18285714Y21307086D02*
X18333333Y21402324D01*
X18333333Y21402324D02*
X18428571Y21497562D01*
X18428571Y21497562D02*
X18571428Y21545181D01*
X18571428Y21545181D02*
X18666666Y21545181D01*
X18666666Y21545181D02*
X18809523Y21497562D01*
X18809523Y21497562D02*
X18857142Y21449943D01*
X19809523Y20545181D02*
X19238095Y20545181D01*
X19523809Y20545181D02*
X19523809Y21545181D01*
X19523809Y21545181D02*
X19428571Y21402324D01*
X19428571Y21402324D02*
X19333333Y21307086D01*
X19333333Y21307086D02*
X19238095Y21259467D01*
X20761904Y20545181D02*
X20190476Y20545181D01*
X20476190Y20545181D02*
X20476190Y21545181D01*
X20476190Y21545181D02*
X20380952Y21402324D01*
X20380952Y21402324D02*
X20285714Y21307086D01*
X20285714Y21307086D02*
X20190476Y21259467D01*
X33833333Y19640420D02*
X33785714Y19592800D01*
X33785714Y19592800D02*
X33642857Y19545181D01*
X33642857Y19545181D02*
X33547619Y19545181D01*
X33547619Y19545181D02*
X33404762Y19592800D01*
X33404762Y19592800D02*
X33309524Y19688039D01*
X33309524Y19688039D02*
X33261905Y19783277D01*
X33261905Y19783277D02*
X33214286Y19973753D01*
X33214286Y19973753D02*
X33214286Y20116610D01*
X33214286Y20116610D02*
X33261905Y20307086D01*
X33261905Y20307086D02*
X33309524Y20402324D01*
X33309524Y20402324D02*
X33404762Y20497562D01*
X33404762Y20497562D02*
X33547619Y20545181D01*
X33547619Y20545181D02*
X33642857Y20545181D01*
X33642857Y20545181D02*
X33785714Y20497562D01*
X33785714Y20497562D02*
X33833333Y20449943D01*
X34309524Y19545181D02*
X34500000Y19545181D01*
X34500000Y19545181D02*
X34595238Y19592800D01*
X34595238Y19592800D02*
X34642857Y19640420D01*
X34642857Y19640420D02*
X34738095Y19783277D01*
X34738095Y19783277D02*
X34785714Y19973753D01*
X34785714Y19973753D02*
X34785714Y20354705D01*
X34785714Y20354705D02*
X34738095Y20449943D01*
X34738095Y20449943D02*
X34690476Y20497562D01*
X34690476Y20497562D02*
X34595238Y20545181D01*
X34595238Y20545181D02*
X34404762Y20545181D01*
X34404762Y20545181D02*
X34309524Y20497562D01*
X34309524Y20497562D02*
X34261905Y20449943D01*
X34261905Y20449943D02*
X34214286Y20354705D01*
X34214286Y20354705D02*
X34214286Y20116610D01*
X34214286Y20116610D02*
X34261905Y20021372D01*
X34261905Y20021372D02*
X34309524Y19973753D01*
X34309524Y19973753D02*
X34404762Y19926134D01*
X34404762Y19926134D02*
X34595238Y19926134D01*
X34595238Y19926134D02*
X34690476Y19973753D01*
X34690476Y19973753D02*
X34738095Y20021372D01*
X34738095Y20021372D02*
X34785714Y20116610D01*
X25454819Y21833334D02*
X25454819Y21357144D01*
X25454819Y21357144D02*
X24454819Y21357144D01*
X25454819Y22690477D02*
X25454819Y22119049D01*
X25454819Y22404763D02*
X24454819Y22404763D01*
X24454819Y22404763D02*
X24597676Y22309525D01*
X24597676Y22309525D02*
X24692914Y22214287D01*
X24692914Y22214287D02*
X24740533Y22119049D01*
X21353333Y2300420D02*
X21305714Y2252800D01*
X21305714Y2252800D02*
X21162857Y2205181D01*
X21162857Y2205181D02*
X21067619Y2205181D01*
X21067619Y2205181D02*
X20924762Y2252800D01*
X20924762Y2252800D02*
X20829524Y2348039D01*
X20829524Y2348039D02*
X20781905Y2443277D01*
X20781905Y2443277D02*
X20734286Y2633753D01*
X20734286Y2633753D02*
X20734286Y2776610D01*
X20734286Y2776610D02*
X20781905Y2967086D01*
X20781905Y2967086D02*
X20829524Y3062324D01*
X20829524Y3062324D02*
X20924762Y3157562D01*
X20924762Y3157562D02*
X21067619Y3205181D01*
X21067619Y3205181D02*
X21162857Y3205181D01*
X21162857Y3205181D02*
X21305714Y3157562D01*
X21305714Y3157562D02*
X21353333Y3109943D01*
X22305714Y2205181D02*
X21734286Y2205181D01*
X22020000Y2205181D02*
X22020000Y3205181D01*
X22020000Y3205181D02*
X21924762Y3062324D01*
X21924762Y3062324D02*
X21829524Y2967086D01*
X21829524Y2967086D02*
X21734286Y2919467D01*
X36564819Y1166667D02*
X37279104Y1166667D01*
X37279104Y1166667D02*
X37421961Y1119048D01*
X37421961Y1119048D02*
X37517200Y1023810D01*
X37517200Y1023810D02*
X37564819Y880953D01*
X37564819Y880953D02*
X37564819Y785715D01*
X36898152Y2071429D02*
X37564819Y2071429D01*
X36517200Y1833334D02*
X37231485Y1595239D01*
X37231485Y1595239D02*
X37231485Y2214286D01*
X25019580Y6377143D02*
X25067200Y6329524D01*
X25067200Y6329524D02*
X25114819Y6186667D01*
X25114819Y6186667D02*
X25114819Y6091429D01*
X25114819Y6091429D02*
X25067200Y5948572D01*
X25067200Y5948572D02*
X24971961Y5853334D01*
X24971961Y5853334D02*
X24876723Y5805715D01*
X24876723Y5805715D02*
X24686247Y5758096D01*
X24686247Y5758096D02*
X24543390Y5758096D01*
X24543390Y5758096D02*
X24352914Y5805715D01*
X24352914Y5805715D02*
X24257676Y5853334D01*
X24257676Y5853334D02*
X24162438Y5948572D01*
X24162438Y5948572D02*
X24114819Y6091429D01*
X24114819Y6091429D02*
X24114819Y6186667D01*
X24114819Y6186667D02*
X24162438Y6329524D01*
X24162438Y6329524D02*
X24210057Y6377143D01*
X25114819Y7329524D02*
X25114819Y6758096D01*
X25114819Y7043810D02*
X24114819Y7043810D01*
X24114819Y7043810D02*
X24257676Y6948572D01*
X24257676Y6948572D02*
X24352914Y6853334D01*
X24352914Y6853334D02*
X24400533Y6758096D01*
X24114819Y8186667D02*
X24114819Y7996191D01*
X24114819Y7996191D02*
X24162438Y7900953D01*
X24162438Y7900953D02*
X24210057Y7853334D01*
X24210057Y7853334D02*
X24352914Y7758096D01*
X24352914Y7758096D02*
X24543390Y7710477D01*
X24543390Y7710477D02*
X24924342Y7710477D01*
X24924342Y7710477D02*
X25019580Y7758096D01*
X25019580Y7758096D02*
X25067200Y7805715D01*
X25067200Y7805715D02*
X25114819Y7900953D01*
X25114819Y7900953D02*
X25114819Y8091429D01*
X25114819Y8091429D02*
X25067200Y8186667D01*
X25067200Y8186667D02*
X25019580Y8234286D01*
X25019580Y8234286D02*
X24924342Y8281905D01*
X24924342Y8281905D02*
X24686247Y8281905D01*
X24686247Y8281905D02*
X24591009Y8234286D01*
X24591009Y8234286D02*
X24543390Y8186667D01*
X24543390Y8186667D02*
X24495771Y8091429D01*
X24495771Y8091429D02*
X24495771Y7900953D01*
X24495771Y7900953D02*
X24543390Y7805715D01*
X24543390Y7805715D02*
X24591009Y7758096D01*
X24591009Y7758096D02*
X24686247Y7710477D01*
X17929580Y25082143D02*
X17977200Y25034524D01*
X17977200Y25034524D02*
X18024819Y24891667D01*
X18024819Y24891667D02*
X18024819Y24796429D01*
X18024819Y24796429D02*
X17977200Y24653572D01*
X17977200Y24653572D02*
X17881961Y24558334D01*
X17881961Y24558334D02*
X17786723Y24510715D01*
X17786723Y24510715D02*
X17596247Y24463096D01*
X17596247Y24463096D02*
X17453390Y24463096D01*
X17453390Y24463096D02*
X17262914Y24510715D01*
X17262914Y24510715D02*
X17167676Y24558334D01*
X17167676Y24558334D02*
X17072438Y24653572D01*
X17072438Y24653572D02*
X17024819Y24796429D01*
X17024819Y24796429D02*
X17024819Y24891667D01*
X17024819Y24891667D02*
X17072438Y25034524D01*
X17072438Y25034524D02*
X17120057Y25082143D01*
X17120057Y25463096D02*
X17072438Y25510715D01*
X17072438Y25510715D02*
X17024819Y25605953D01*
X17024819Y25605953D02*
X17024819Y25844048D01*
X17024819Y25844048D02*
X17072438Y25939286D01*
X17072438Y25939286D02*
X17120057Y25986905D01*
X17120057Y25986905D02*
X17215295Y26034524D01*
X17215295Y26034524D02*
X17310533Y26034524D01*
X17310533Y26034524D02*
X17453390Y25986905D01*
X17453390Y25986905D02*
X18024819Y25415477D01*
X18024819Y25415477D02*
X18024819Y26034524D01*
X17024819Y26653572D02*
X17024819Y26748810D01*
X17024819Y26748810D02*
X17072438Y26844048D01*
X17072438Y26844048D02*
X17120057Y26891667D01*
X17120057Y26891667D02*
X17215295Y26939286D01*
X17215295Y26939286D02*
X17405771Y26986905D01*
X17405771Y26986905D02*
X17643866Y26986905D01*
X17643866Y26986905D02*
X17834342Y26939286D01*
X17834342Y26939286D02*
X17929580Y26891667D01*
X17929580Y26891667D02*
X17977200Y26844048D01*
X17977200Y26844048D02*
X18024819Y26748810D01*
X18024819Y26748810D02*
X18024819Y26653572D01*
X18024819Y26653572D02*
X17977200Y26558334D01*
X17977200Y26558334D02*
X17929580Y26510715D01*
X17929580Y26510715D02*
X17834342Y26463096D01*
X17834342Y26463096D02*
X17643866Y26415477D01*
X17643866Y26415477D02*
X17405771Y26415477D01*
X17405771Y26415477D02*
X17215295Y26463096D01*
X17215295Y26463096D02*
X17120057Y26510715D01*
X17120057Y26510715D02*
X17072438Y26558334D01*
X17072438Y26558334D02*
X17024819Y26653572D01*
X17333333Y9640420D02*
X17285714Y9592800D01*
X17285714Y9592800D02*
X17142857Y9545181D01*
X17142857Y9545181D02*
X17047619Y9545181D01*
X17047619Y9545181D02*
X16904762Y9592800D01*
X16904762Y9592800D02*
X16809524Y9688039D01*
X16809524Y9688039D02*
X16761905Y9783277D01*
X16761905Y9783277D02*
X16714286Y9973753D01*
X16714286Y9973753D02*
X16714286Y10116610D01*
X16714286Y10116610D02*
X16761905Y10307086D01*
X16761905Y10307086D02*
X16809524Y10402324D01*
X16809524Y10402324D02*
X16904762Y10497562D01*
X16904762Y10497562D02*
X17047619Y10545181D01*
X17047619Y10545181D02*
X17142857Y10545181D01*
X17142857Y10545181D02*
X17285714Y10497562D01*
X17285714Y10497562D02*
X17333333Y10449943D01*
X17666667Y10545181D02*
X18285714Y10545181D01*
X18285714Y10545181D02*
X17952381Y10164229D01*
X17952381Y10164229D02*
X18095238Y10164229D01*
X18095238Y10164229D02*
X18190476Y10116610D01*
X18190476Y10116610D02*
X18238095Y10068991D01*
X18238095Y10068991D02*
X18285714Y9973753D01*
X18285714Y9973753D02*
X18285714Y9735658D01*
X18285714Y9735658D02*
X18238095Y9640420D01*
X18238095Y9640420D02*
X18190476Y9592800D01*
X18190476Y9592800D02*
X18095238Y9545181D01*
X18095238Y9545181D02*
X17809524Y9545181D01*
X17809524Y9545181D02*
X17714286Y9592800D01*
X17714286Y9592800D02*
X17666667Y9640420D01*
X11929580Y20132143D02*
X11977200Y20084524D01*
X11977200Y20084524D02*
X12024819Y19941667D01*
X12024819Y19941667D02*
X12024819Y19846429D01*
X12024819Y19846429D02*
X11977200Y19703572D01*
X11977200Y19703572D02*
X11881961Y19608334D01*
X11881961Y19608334D02*
X11786723Y19560715D01*
X11786723Y19560715D02*
X11596247Y19513096D01*
X11596247Y19513096D02*
X11453390Y19513096D01*
X11453390Y19513096D02*
X11262914Y19560715D01*
X11262914Y19560715D02*
X11167676Y19608334D01*
X11167676Y19608334D02*
X11072438Y19703572D01*
X11072438Y19703572D02*
X11024819Y19846429D01*
X11024819Y19846429D02*
X11024819Y19941667D01*
X11024819Y19941667D02*
X11072438Y20084524D01*
X11072438Y20084524D02*
X11120057Y20132143D01*
X12024819Y21084524D02*
X12024819Y20513096D01*
X12024819Y20798810D02*
X11024819Y20798810D01*
X11024819Y20798810D02*
X11167676Y20703572D01*
X11167676Y20703572D02*
X11262914Y20608334D01*
X11262914Y20608334D02*
X11310533Y20513096D01*
X12024819Y21560715D02*
X12024819Y21751191D01*
X12024819Y21751191D02*
X11977200Y21846429D01*
X11977200Y21846429D02*
X11929580Y21894048D01*
X11929580Y21894048D02*
X11786723Y21989286D01*
X11786723Y21989286D02*
X11596247Y22036905D01*
X11596247Y22036905D02*
X11215295Y22036905D01*
X11215295Y22036905D02*
X11120057Y21989286D01*
X11120057Y21989286D02*
X11072438Y21941667D01*
X11072438Y21941667D02*
X11024819Y21846429D01*
X11024819Y21846429D02*
X11024819Y21655953D01*
X11024819Y21655953D02*
X11072438Y21560715D01*
X11072438Y21560715D02*
X11120057Y21513096D01*
X11120057Y21513096D02*
X11215295Y21465477D01*
X11215295Y21465477D02*
X11453390Y21465477D01*
X11453390Y21465477D02*
X11548628Y21513096D01*
X11548628Y21513096D02*
X11596247Y21560715D01*
X11596247Y21560715D02*
X11643866Y21655953D01*
X11643866Y21655953D02*
X11643866Y21846429D01*
X11643866Y21846429D02*
X11596247Y21941667D01*
X11596247Y21941667D02*
X11548628Y21989286D01*
X11548628Y21989286D02*
X11453390Y22036905D01*
X34823333Y22715181D02*
X34490000Y23191372D01*
X34251905Y22715181D02*
X34251905Y23715181D01*
X34251905Y23715181D02*
X34632857Y23715181D01*
X34632857Y23715181D02*
X34728095Y23667562D01*
X34728095Y23667562D02*
X34775714Y23619943D01*
X34775714Y23619943D02*
X34823333Y23524705D01*
X34823333Y23524705D02*
X34823333Y23381848D01*
X34823333Y23381848D02*
X34775714Y23286610D01*
X34775714Y23286610D02*
X34728095Y23238991D01*
X34728095Y23238991D02*
X34632857Y23191372D01*
X34632857Y23191372D02*
X34251905Y23191372D01*
X35394762Y23286610D02*
X35299524Y23334229D01*
X35299524Y23334229D02*
X35251905Y23381848D01*
X35251905Y23381848D02*
X35204286Y23477086D01*
X35204286Y23477086D02*
X35204286Y23524705D01*
X35204286Y23524705D02*
X35251905Y23619943D01*
X35251905Y23619943D02*
X35299524Y23667562D01*
X35299524Y23667562D02*
X35394762Y23715181D01*
X35394762Y23715181D02*
X35585238Y23715181D01*
X35585238Y23715181D02*
X35680476Y23667562D01*
X35680476Y23667562D02*
X35728095Y23619943D01*
X35728095Y23619943D02*
X35775714Y23524705D01*
X35775714Y23524705D02*
X35775714Y23477086D01*
X35775714Y23477086D02*
X35728095Y23381848D01*
X35728095Y23381848D02*
X35680476Y23334229D01*
X35680476Y23334229D02*
X35585238Y23286610D01*
X35585238Y23286610D02*
X35394762Y23286610D01*
X35394762Y23286610D02*
X35299524Y23238991D01*
X35299524Y23238991D02*
X35251905Y23191372D01*
X35251905Y23191372D02*
X35204286Y23096134D01*
X35204286Y23096134D02*
X35204286Y22905658D01*
X35204286Y22905658D02*
X35251905Y22810420D01*
X35251905Y22810420D02*
X35299524Y22762800D01*
X35299524Y22762800D02*
X35394762Y22715181D01*
X35394762Y22715181D02*
X35585238Y22715181D01*
X35585238Y22715181D02*
X35680476Y22762800D01*
X35680476Y22762800D02*
X35728095Y22810420D01*
X35728095Y22810420D02*
X35775714Y22905658D01*
X35775714Y22905658D02*
X35775714Y23096134D01*
X35775714Y23096134D02*
X35728095Y23191372D01*
X35728095Y23191372D02*
X35680476Y23238991D01*
X35680476Y23238991D02*
X35585238Y23286610D01*
X33833333Y10640420D02*
X33785714Y10592800D01*
X33785714Y10592800D02*
X33642857Y10545181D01*
X33642857Y10545181D02*
X33547619Y10545181D01*
X33547619Y10545181D02*
X33404762Y10592800D01*
X33404762Y10592800D02*
X33309524Y10688039D01*
X33309524Y10688039D02*
X33261905Y10783277D01*
X33261905Y10783277D02*
X33214286Y10973753D01*
X33214286Y10973753D02*
X33214286Y11116610D01*
X33214286Y11116610D02*
X33261905Y11307086D01*
X33261905Y11307086D02*
X33309524Y11402324D01*
X33309524Y11402324D02*
X33404762Y11497562D01*
X33404762Y11497562D02*
X33547619Y11545181D01*
X33547619Y11545181D02*
X33642857Y11545181D01*
X33642857Y11545181D02*
X33785714Y11497562D01*
X33785714Y11497562D02*
X33833333Y11449943D01*
X34738095Y11545181D02*
X34261905Y11545181D01*
X34261905Y11545181D02*
X34214286Y11068991D01*
X34214286Y11068991D02*
X34261905Y11116610D01*
X34261905Y11116610D02*
X34357143Y11164229D01*
X34357143Y11164229D02*
X34595238Y11164229D01*
X34595238Y11164229D02*
X34690476Y11116610D01*
X34690476Y11116610D02*
X34738095Y11068991D01*
X34738095Y11068991D02*
X34785714Y10973753D01*
X34785714Y10973753D02*
X34785714Y10735658D01*
X34785714Y10735658D02*
X34738095Y10640420D01*
X34738095Y10640420D02*
X34690476Y10592800D01*
X34690476Y10592800D02*
X34595238Y10545181D01*
X34595238Y10545181D02*
X34357143Y10545181D01*
X34357143Y10545181D02*
X34261905Y10592800D01*
X34261905Y10592800D02*
X34214286Y10640420D01*
X18933333Y19760134D02*
X18933333Y18626800D01*
X18933333Y18626800D02*
X19000000Y18493467D01*
X19000000Y18493467D02*
X19066666Y18426800D01*
X19066666Y18426800D02*
X19200000Y18360134D01*
X19200000Y18360134D02*
X19466666Y18360134D01*
X19466666Y18360134D02*
X19600000Y18426800D01*
X19600000Y18426800D02*
X19666666Y18493467D01*
X19666666Y18493467D02*
X19733333Y18626800D01*
X19733333Y18626800D02*
X19733333Y19760134D01*
X21133333Y18360134D02*
X20333333Y18360134D01*
X20733333Y18360134D02*
X20733333Y19760134D01*
X20733333Y19760134D02*
X20600000Y19560134D01*
X20600000Y19560134D02*
X20466667Y19426800D01*
X20466667Y19426800D02*
X20333333Y19360134D01*
X18833333Y4545181D02*
X18500000Y5021372D01*
X18261905Y4545181D02*
X18261905Y5545181D01*
X18261905Y5545181D02*
X18642857Y5545181D01*
X18642857Y5545181D02*
X18738095Y5497562D01*
X18738095Y5497562D02*
X18785714Y5449943D01*
X18785714Y5449943D02*
X18833333Y5354705D01*
X18833333Y5354705D02*
X18833333Y5211848D01*
X18833333Y5211848D02*
X18785714Y5116610D01*
X18785714Y5116610D02*
X18738095Y5068991D01*
X18738095Y5068991D02*
X18642857Y5021372D01*
X18642857Y5021372D02*
X18261905Y5021372D01*
X19785714Y4545181D02*
X19214286Y4545181D01*
X19500000Y4545181D02*
X19500000Y5545181D01*
X19500000Y5545181D02*
X19404762Y5402324D01*
X19404762Y5402324D02*
X19309524Y5307086D01*
X19309524Y5307086D02*
X19214286Y5259467D01*
X30357142Y5140420D02*
X30309523Y5092800D01*
X30309523Y5092800D02*
X30166666Y5045181D01*
X30166666Y5045181D02*
X30071428Y5045181D01*
X30071428Y5045181D02*
X29928571Y5092800D01*
X29928571Y5092800D02*
X29833333Y5188039D01*
X29833333Y5188039D02*
X29785714Y5283277D01*
X29785714Y5283277D02*
X29738095Y5473753D01*
X29738095Y5473753D02*
X29738095Y5616610D01*
X29738095Y5616610D02*
X29785714Y5807086D01*
X29785714Y5807086D02*
X29833333Y5902324D01*
X29833333Y5902324D02*
X29928571Y5997562D01*
X29928571Y5997562D02*
X30071428Y6045181D01*
X30071428Y6045181D02*
X30166666Y6045181D01*
X30166666Y6045181D02*
X30309523Y5997562D01*
X30309523Y5997562D02*
X30357142Y5949943D01*
X31309523Y5045181D02*
X30738095Y5045181D01*
X31023809Y5045181D02*
X31023809Y6045181D01*
X31023809Y6045181D02*
X30928571Y5902324D01*
X30928571Y5902324D02*
X30833333Y5807086D01*
X30833333Y5807086D02*
X30738095Y5759467D01*
X32166666Y5711848D02*
X32166666Y5045181D01*
X31928571Y6092800D02*
X31690476Y5378515D01*
X31690476Y5378515D02*
X32309523Y5378515D01*
X27270833Y24095181D02*
X26794643Y24095181D01*
X26794643Y24095181D02*
X26794643Y25095181D01*
X27556548Y24999943D02*
X27604167Y25047562D01*
X27604167Y25047562D02*
X27699405Y25095181D01*
X27699405Y25095181D02*
X27937500Y25095181D01*
X27937500Y25095181D02*
X28032738Y25047562D01*
X28032738Y25047562D02*
X28080357Y24999943D01*
X28080357Y24999943D02*
X28127976Y24904705D01*
X28127976Y24904705D02*
X28127976Y24809467D01*
X28127976Y24809467D02*
X28080357Y24666610D01*
X28080357Y24666610D02*
X27508929Y24095181D01*
X27508929Y24095181D02*
X28127976Y24095181D01*
X20843333Y26715181D02*
X20510000Y27191372D01*
X20271905Y26715181D02*
X20271905Y27715181D01*
X20271905Y27715181D02*
X20652857Y27715181D01*
X20652857Y27715181D02*
X20748095Y27667562D01*
X20748095Y27667562D02*
X20795714Y27619943D01*
X20795714Y27619943D02*
X20843333Y27524705D01*
X20843333Y27524705D02*
X20843333Y27381848D01*
X20843333Y27381848D02*
X20795714Y27286610D01*
X20795714Y27286610D02*
X20748095Y27238991D01*
X20748095Y27238991D02*
X20652857Y27191372D01*
X20652857Y27191372D02*
X20271905Y27191372D01*
X21700476Y27381848D02*
X21700476Y26715181D01*
X21462381Y27762800D02*
X21224286Y27048515D01*
X21224286Y27048515D02*
X21843333Y27048515D01*
X24357142Y640420D02*
X24309523Y592800D01*
X24309523Y592800D02*
X24166666Y545181D01*
X24166666Y545181D02*
X24071428Y545181D01*
X24071428Y545181D02*
X23928571Y592800D01*
X23928571Y592800D02*
X23833333Y688039D01*
X23833333Y688039D02*
X23785714Y783277D01*
X23785714Y783277D02*
X23738095Y973753D01*
X23738095Y973753D02*
X23738095Y1116610D01*
X23738095Y1116610D02*
X23785714Y1307086D01*
X23785714Y1307086D02*
X23833333Y1402324D01*
X23833333Y1402324D02*
X23928571Y1497562D01*
X23928571Y1497562D02*
X24071428Y1545181D01*
X24071428Y1545181D02*
X24166666Y1545181D01*
X24166666Y1545181D02*
X24309523Y1497562D01*
X24309523Y1497562D02*
X24357142Y1449943D01*
X24738095Y1449943D02*
X24785714Y1497562D01*
X24785714Y1497562D02*
X24880952Y1545181D01*
X24880952Y1545181D02*
X25119047Y1545181D01*
X25119047Y1545181D02*
X25214285Y1497562D01*
X25214285Y1497562D02*
X25261904Y1449943D01*
X25261904Y1449943D02*
X25309523Y1354705D01*
X25309523Y1354705D02*
X25309523Y1259467D01*
X25309523Y1259467D02*
X25261904Y1116610D01*
X25261904Y1116610D02*
X24690476Y545181D01*
X24690476Y545181D02*
X25309523Y545181D01*
X26261904Y545181D02*
X25690476Y545181D01*
X25976190Y545181D02*
X25976190Y1545181D01*
X25976190Y1545181D02*
X25880952Y1402324D01*
X25880952Y1402324D02*
X25785714Y1307086D01*
X25785714Y1307086D02*
X25690476Y1259467D01*
X40614819Y20833334D02*
X40138628Y20500001D01*
X40614819Y20261906D02*
X39614819Y20261906D01*
X39614819Y20261906D02*
X39614819Y20642858D01*
X39614819Y20642858D02*
X39662438Y20738096D01*
X39662438Y20738096D02*
X39710057Y20785715D01*
X39710057Y20785715D02*
X39805295Y20833334D01*
X39805295Y20833334D02*
X39948152Y20833334D01*
X39948152Y20833334D02*
X40043390Y20785715D01*
X40043390Y20785715D02*
X40091009Y20738096D01*
X40091009Y20738096D02*
X40138628Y20642858D01*
X40138628Y20642858D02*
X40138628Y20261906D01*
X40614819Y21309525D02*
X40614819Y21500001D01*
X40614819Y21500001D02*
X40567200Y21595239D01*
X40567200Y21595239D02*
X40519580Y21642858D01*
X40519580Y21642858D02*
X40376723Y21738096D01*
X40376723Y21738096D02*
X40186247Y21785715D01*
X40186247Y21785715D02*
X39805295Y21785715D01*
X39805295Y21785715D02*
X39710057Y21738096D01*
X39710057Y21738096D02*
X39662438Y21690477D01*
X39662438Y21690477D02*
X39614819Y21595239D01*
X39614819Y21595239D02*
X39614819Y21404763D01*
X39614819Y21404763D02*
X39662438Y21309525D01*
X39662438Y21309525D02*
X39710057Y21261906D01*
X39710057Y21261906D02*
X39805295Y21214287D01*
X39805295Y21214287D02*
X40043390Y21214287D01*
X40043390Y21214287D02*
X40138628Y21261906D01*
X40138628Y21261906D02*
X40186247Y21309525D01*
X40186247Y21309525D02*
X40233866Y21404763D01*
X40233866Y21404763D02*
X40233866Y21595239D01*
X40233866Y21595239D02*
X40186247Y21690477D01*
X40186247Y21690477D02*
X40138628Y21738096D01*
X40138628Y21738096D02*
X40043390Y21785715D01*
X18699580Y7337143D02*
X18747200Y7289524D01*
X18747200Y7289524D02*
X18794819Y7146667D01*
X18794819Y7146667D02*
X18794819Y7051429D01*
X18794819Y7051429D02*
X18747200Y6908572D01*
X18747200Y6908572D02*
X18651961Y6813334D01*
X18651961Y6813334D02*
X18556723Y6765715D01*
X18556723Y6765715D02*
X18366247Y6718096D01*
X18366247Y6718096D02*
X18223390Y6718096D01*
X18223390Y6718096D02*
X18032914Y6765715D01*
X18032914Y6765715D02*
X17937676Y6813334D01*
X17937676Y6813334D02*
X17842438Y6908572D01*
X17842438Y6908572D02*
X17794819Y7051429D01*
X17794819Y7051429D02*
X17794819Y7146667D01*
X17794819Y7146667D02*
X17842438Y7289524D01*
X17842438Y7289524D02*
X17890057Y7337143D01*
X18794819Y8289524D02*
X18794819Y7718096D01*
X18794819Y8003810D02*
X17794819Y8003810D01*
X17794819Y8003810D02*
X17937676Y7908572D01*
X17937676Y7908572D02*
X18032914Y7813334D01*
X18032914Y7813334D02*
X18080533Y7718096D01*
X17794819Y9194286D02*
X17794819Y8718096D01*
X17794819Y8718096D02*
X18271009Y8670477D01*
X18271009Y8670477D02*
X18223390Y8718096D01*
X18223390Y8718096D02*
X18175771Y8813334D01*
X18175771Y8813334D02*
X18175771Y9051429D01*
X18175771Y9051429D02*
X18223390Y9146667D01*
X18223390Y9146667D02*
X18271009Y9194286D01*
X18271009Y9194286D02*
X18366247Y9241905D01*
X18366247Y9241905D02*
X18604342Y9241905D01*
X18604342Y9241905D02*
X18699580Y9194286D01*
X18699580Y9194286D02*
X18747200Y9146667D01*
X18747200Y9146667D02*
X18794819Y9051429D01*
X18794819Y9051429D02*
X18794819Y8813334D01*
X18794819Y8813334D02*
X18747200Y8718096D01*
X18747200Y8718096D02*
X18699580Y8670477D01*
X24238095Y5545181D02*
X24238095Y4735658D01*
X24238095Y4735658D02*
X24285714Y4640420D01*
X24285714Y4640420D02*
X24333333Y4592800D01*
X24333333Y4592800D02*
X24428571Y4545181D01*
X24428571Y4545181D02*
X24619047Y4545181D01*
X24619047Y4545181D02*
X24714285Y4592800D01*
X24714285Y4592800D02*
X24761904Y4640420D01*
X24761904Y4640420D02*
X24809523Y4735658D01*
X24809523Y4735658D02*
X24809523Y5545181D01*
X25714285Y5211848D02*
X25714285Y4545181D01*
X25476190Y5592800D02*
X25238095Y4878515D01*
X25238095Y4878515D02*
X25857142Y4878515D01*
X14238095Y25545181D02*
X14238095Y24735658D01*
X14238095Y24735658D02*
X14285714Y24640420D01*
X14285714Y24640420D02*
X14333333Y24592800D01*
X14333333Y24592800D02*
X14428571Y24545181D01*
X14428571Y24545181D02*
X14619047Y24545181D01*
X14619047Y24545181D02*
X14714285Y24592800D01*
X14714285Y24592800D02*
X14761904Y24640420D01*
X14761904Y24640420D02*
X14809523Y24735658D01*
X14809523Y24735658D02*
X14809523Y25545181D01*
X15190476Y25545181D02*
X15809523Y25545181D01*
X15809523Y25545181D02*
X15476190Y25164229D01*
X15476190Y25164229D02*
X15619047Y25164229D01*
X15619047Y25164229D02*
X15714285Y25116610D01*
X15714285Y25116610D02*
X15761904Y25068991D01*
X15761904Y25068991D02*
X15809523Y24973753D01*
X15809523Y24973753D02*
X15809523Y24735658D01*
X15809523Y24735658D02*
X15761904Y24640420D01*
X15761904Y24640420D02*
X15714285Y24592800D01*
X15714285Y24592800D02*
X15619047Y24545181D01*
X15619047Y24545181D02*
X15333333Y24545181D01*
X15333333Y24545181D02*
X15238095Y24592800D01*
X15238095Y24592800D02*
X15190476Y24640420D01*
X20337142Y22160420D02*
X20289523Y22112800D01*
X20289523Y22112800D02*
X20146666Y22065181D01*
X20146666Y22065181D02*
X20051428Y22065181D01*
X20051428Y22065181D02*
X19908571Y22112800D01*
X19908571Y22112800D02*
X19813333Y22208039D01*
X19813333Y22208039D02*
X19765714Y22303277D01*
X19765714Y22303277D02*
X19718095Y22493753D01*
X19718095Y22493753D02*
X19718095Y22636610D01*
X19718095Y22636610D02*
X19765714Y22827086D01*
X19765714Y22827086D02*
X19813333Y22922324D01*
X19813333Y22922324D02*
X19908571Y23017562D01*
X19908571Y23017562D02*
X20051428Y23065181D01*
X20051428Y23065181D02*
X20146666Y23065181D01*
X20146666Y23065181D02*
X20289523Y23017562D01*
X20289523Y23017562D02*
X20337142Y22969943D01*
X21289523Y22065181D02*
X20718095Y22065181D01*
X21003809Y22065181D02*
X21003809Y23065181D01*
X21003809Y23065181D02*
X20908571Y22922324D01*
X20908571Y22922324D02*
X20813333Y22827086D01*
X20813333Y22827086D02*
X20718095Y22779467D01*
X21670476Y22969943D02*
X21718095Y23017562D01*
X21718095Y23017562D02*
X21813333Y23065181D01*
X21813333Y23065181D02*
X22051428Y23065181D01*
X22051428Y23065181D02*
X22146666Y23017562D01*
X22146666Y23017562D02*
X22194285Y22969943D01*
X22194285Y22969943D02*
X22241904Y22874705D01*
X22241904Y22874705D02*
X22241904Y22779467D01*
X22241904Y22779467D02*
X22194285Y22636610D01*
X22194285Y22636610D02*
X21622857Y22065181D01*
X21622857Y22065181D02*
X22241904Y22065181D01*
X4666666Y2935181D02*
X4666666Y2220896D01*
X4666666Y2220896D02*
X4619047Y2078039D01*
X4619047Y2078039D02*
X4523809Y1982800D01*
X4523809Y1982800D02*
X4380952Y1935181D01*
X4380952Y1935181D02*
X4285714Y1935181D01*
X5666666Y1935181D02*
X5095238Y1935181D01*
X5380952Y1935181D02*
X5380952Y2935181D01*
X5380952Y2935181D02*
X5285714Y2792324D01*
X5285714Y2792324D02*
X5190476Y2697086D01*
X5190476Y2697086D02*
X5095238Y2649467D01*
X18853333Y15800420D02*
X18805714Y15752800D01*
X18805714Y15752800D02*
X18662857Y15705181D01*
X18662857Y15705181D02*
X18567619Y15705181D01*
X18567619Y15705181D02*
X18424762Y15752800D01*
X18424762Y15752800D02*
X18329524Y15848039D01*
X18329524Y15848039D02*
X18281905Y15943277D01*
X18281905Y15943277D02*
X18234286Y16133753D01*
X18234286Y16133753D02*
X18234286Y16276610D01*
X18234286Y16276610D02*
X18281905Y16467086D01*
X18281905Y16467086D02*
X18329524Y16562324D01*
X18329524Y16562324D02*
X18424762Y16657562D01*
X18424762Y16657562D02*
X18567619Y16705181D01*
X18567619Y16705181D02*
X18662857Y16705181D01*
X18662857Y16705181D02*
X18805714Y16657562D01*
X18805714Y16657562D02*
X18853333Y16609943D01*
X19186667Y16705181D02*
X19853333Y16705181D01*
X19853333Y16705181D02*
X19424762Y15705181D01*
X26857142Y21140420D02*
X26809523Y21092800D01*
X26809523Y21092800D02*
X26666666Y21045181D01*
X26666666Y21045181D02*
X26571428Y21045181D01*
X26571428Y21045181D02*
X26428571Y21092800D01*
X26428571Y21092800D02*
X26333333Y21188039D01*
X26333333Y21188039D02*
X26285714Y21283277D01*
X26285714Y21283277D02*
X26238095Y21473753D01*
X26238095Y21473753D02*
X26238095Y21616610D01*
X26238095Y21616610D02*
X26285714Y21807086D01*
X26285714Y21807086D02*
X26333333Y21902324D01*
X26333333Y21902324D02*
X26428571Y21997562D01*
X26428571Y21997562D02*
X26571428Y22045181D01*
X26571428Y22045181D02*
X26666666Y22045181D01*
X26666666Y22045181D02*
X26809523Y21997562D01*
X26809523Y21997562D02*
X26857142Y21949943D01*
X27809523Y21045181D02*
X27238095Y21045181D01*
X27523809Y21045181D02*
X27523809Y22045181D01*
X27523809Y22045181D02*
X27428571Y21902324D01*
X27428571Y21902324D02*
X27333333Y21807086D01*
X27333333Y21807086D02*
X27238095Y21759467D01*
X28142857Y22045181D02*
X28761904Y22045181D01*
X28761904Y22045181D02*
X28428571Y21664229D01*
X28428571Y21664229D02*
X28571428Y21664229D01*
X28571428Y21664229D02*
X28666666Y21616610D01*
X28666666Y21616610D02*
X28714285Y21568991D01*
X28714285Y21568991D02*
X28761904Y21473753D01*
X28761904Y21473753D02*
X28761904Y21235658D01*
X28761904Y21235658D02*
X28714285Y21140420D01*
X28714285Y21140420D02*
X28666666Y21092800D01*
X28666666Y21092800D02*
X28571428Y21045181D01*
X28571428Y21045181D02*
X28285714Y21045181D01*
X28285714Y21045181D02*
X28190476Y21092800D01*
X28190476Y21092800D02*
X28142857Y21140420D01*
X17333333Y11140420D02*
X17285714Y11092800D01*
X17285714Y11092800D02*
X17142857Y11045181D01*
X17142857Y11045181D02*
X17047619Y11045181D01*
X17047619Y11045181D02*
X16904762Y11092800D01*
X16904762Y11092800D02*
X16809524Y11188039D01*
X16809524Y11188039D02*
X16761905Y11283277D01*
X16761905Y11283277D02*
X16714286Y11473753D01*
X16714286Y11473753D02*
X16714286Y11616610D01*
X16714286Y11616610D02*
X16761905Y11807086D01*
X16761905Y11807086D02*
X16809524Y11902324D01*
X16809524Y11902324D02*
X16904762Y11997562D01*
X16904762Y11997562D02*
X17047619Y12045181D01*
X17047619Y12045181D02*
X17142857Y12045181D01*
X17142857Y12045181D02*
X17285714Y11997562D01*
X17285714Y11997562D02*
X17333333Y11949943D01*
X18190476Y11711848D02*
X18190476Y11045181D01*
X17952381Y12092800D02*
X17714286Y11378515D01*
X17714286Y11378515D02*
X18333333Y11378515D01*
X24333333Y3045181D02*
X24000000Y3521372D01*
X23761905Y3045181D02*
X23761905Y4045181D01*
X23761905Y4045181D02*
X24142857Y4045181D01*
X24142857Y4045181D02*
X24238095Y3997562D01*
X24238095Y3997562D02*
X24285714Y3949943D01*
X24285714Y3949943D02*
X24333333Y3854705D01*
X24333333Y3854705D02*
X24333333Y3711848D01*
X24333333Y3711848D02*
X24285714Y3616610D01*
X24285714Y3616610D02*
X24238095Y3568991D01*
X24238095Y3568991D02*
X24142857Y3521372D01*
X24142857Y3521372D02*
X23761905Y3521372D01*
X25190476Y4045181D02*
X25000000Y4045181D01*
X25000000Y4045181D02*
X24904762Y3997562D01*
X24904762Y3997562D02*
X24857143Y3949943D01*
X24857143Y3949943D02*
X24761905Y3807086D01*
X24761905Y3807086D02*
X24714286Y3616610D01*
X24714286Y3616610D02*
X24714286Y3235658D01*
X24714286Y3235658D02*
X24761905Y3140420D01*
X24761905Y3140420D02*
X24809524Y3092800D01*
X24809524Y3092800D02*
X24904762Y3045181D01*
X24904762Y3045181D02*
X25095238Y3045181D01*
X25095238Y3045181D02*
X25190476Y3092800D01*
X25190476Y3092800D02*
X25238095Y3140420D01*
X25238095Y3140420D02*
X25285714Y3235658D01*
X25285714Y3235658D02*
X25285714Y3473753D01*
X25285714Y3473753D02*
X25238095Y3568991D01*
X25238095Y3568991D02*
X25190476Y3616610D01*
X25190476Y3616610D02*
X25095238Y3664229D01*
X25095238Y3664229D02*
X24904762Y3664229D01*
X24904762Y3664229D02*
X24809524Y3616610D01*
X24809524Y3616610D02*
X24761905Y3568991D01*
X24761905Y3568991D02*
X24714286Y3473753D01*
X31357142Y14640420D02*
X31309523Y14592800D01*
X31309523Y14592800D02*
X31166666Y14545181D01*
X31166666Y14545181D02*
X31071428Y14545181D01*
X31071428Y14545181D02*
X30928571Y14592800D01*
X30928571Y14592800D02*
X30833333Y14688039D01*
X30833333Y14688039D02*
X30785714Y14783277D01*
X30785714Y14783277D02*
X30738095Y14973753D01*
X30738095Y14973753D02*
X30738095Y15116610D01*
X30738095Y15116610D02*
X30785714Y15307086D01*
X30785714Y15307086D02*
X30833333Y15402324D01*
X30833333Y15402324D02*
X30928571Y15497562D01*
X30928571Y15497562D02*
X31071428Y15545181D01*
X31071428Y15545181D02*
X31166666Y15545181D01*
X31166666Y15545181D02*
X31309523Y15497562D01*
X31309523Y15497562D02*
X31357142Y15449943D01*
X31738095Y15449943D02*
X31785714Y15497562D01*
X31785714Y15497562D02*
X31880952Y15545181D01*
X31880952Y15545181D02*
X32119047Y15545181D01*
X32119047Y15545181D02*
X32214285Y15497562D01*
X32214285Y15497562D02*
X32261904Y15449943D01*
X32261904Y15449943D02*
X32309523Y15354705D01*
X32309523Y15354705D02*
X32309523Y15259467D01*
X32309523Y15259467D02*
X32261904Y15116610D01*
X32261904Y15116610D02*
X31690476Y14545181D01*
X31690476Y14545181D02*
X32309523Y14545181D01*
X33166666Y15211848D02*
X33166666Y14545181D01*
X32928571Y15592800D02*
X32690476Y14878515D01*
X32690476Y14878515D02*
X33309523Y14878515D01*
X44991905Y23085181D02*
X44991905Y24085181D01*
X44991905Y24085181D02*
X45230000Y24085181D01*
X45230000Y24085181D02*
X45372857Y24037562D01*
X45372857Y24037562D02*
X45468095Y23942324D01*
X45468095Y23942324D02*
X45515714Y23847086D01*
X45515714Y23847086D02*
X45563333Y23656610D01*
X45563333Y23656610D02*
X45563333Y23513753D01*
X45563333Y23513753D02*
X45515714Y23323277D01*
X45515714Y23323277D02*
X45468095Y23228039D01*
X45468095Y23228039D02*
X45372857Y23132800D01*
X45372857Y23132800D02*
X45230000Y23085181D01*
X45230000Y23085181D02*
X44991905Y23085181D01*
X46420476Y23751848D02*
X46420476Y23085181D01*
X46182381Y24132800D02*
X45944286Y23418515D01*
X45944286Y23418515D02*
X46563333Y23418515D01*
X38491905Y23085181D02*
X38491905Y24085181D01*
X38491905Y24085181D02*
X38730000Y24085181D01*
X38730000Y24085181D02*
X38872857Y24037562D01*
X38872857Y24037562D02*
X38968095Y23942324D01*
X38968095Y23942324D02*
X39015714Y23847086D01*
X39015714Y23847086D02*
X39063333Y23656610D01*
X39063333Y23656610D02*
X39063333Y23513753D01*
X39063333Y23513753D02*
X39015714Y23323277D01*
X39015714Y23323277D02*
X38968095Y23228039D01*
X38968095Y23228039D02*
X38872857Y23132800D01*
X38872857Y23132800D02*
X38730000Y23085181D01*
X38730000Y23085181D02*
X38491905Y23085181D01*
X39396667Y24085181D02*
X40015714Y24085181D01*
X40015714Y24085181D02*
X39682381Y23704229D01*
X39682381Y23704229D02*
X39825238Y23704229D01*
X39825238Y23704229D02*
X39920476Y23656610D01*
X39920476Y23656610D02*
X39968095Y23608991D01*
X39968095Y23608991D02*
X40015714Y23513753D01*
X40015714Y23513753D02*
X40015714Y23275658D01*
X40015714Y23275658D02*
X39968095Y23180420D01*
X39968095Y23180420D02*
X39920476Y23132800D01*
X39920476Y23132800D02*
X39825238Y23085181D01*
X39825238Y23085181D02*
X39539524Y23085181D01*
X39539524Y23085181D02*
X39444286Y23132800D01*
X39444286Y23132800D02*
X39396667Y23180420D01*
X22731905Y24545181D02*
X22731905Y25545181D01*
X22731905Y25545181D02*
X22970000Y25545181D01*
X22970000Y25545181D02*
X23112857Y25497562D01*
X23112857Y25497562D02*
X23208095Y25402324D01*
X23208095Y25402324D02*
X23255714Y25307086D01*
X23255714Y25307086D02*
X23303333Y25116610D01*
X23303333Y25116610D02*
X23303333Y24973753D01*
X23303333Y24973753D02*
X23255714Y24783277D01*
X23255714Y24783277D02*
X23208095Y24688039D01*
X23208095Y24688039D02*
X23112857Y24592800D01*
X23112857Y24592800D02*
X22970000Y24545181D01*
X22970000Y24545181D02*
X22731905Y24545181D01*
X24255714Y24545181D02*
X23684286Y24545181D01*
X23970000Y24545181D02*
X23970000Y25545181D01*
X23970000Y25545181D02*
X23874762Y25402324D01*
X23874762Y25402324D02*
X23779524Y25307086D01*
X23779524Y25307086D02*
X23684286Y25259467D01*
X8843333Y13215181D02*
X8510000Y13691372D01*
X8271905Y13215181D02*
X8271905Y14215181D01*
X8271905Y14215181D02*
X8652857Y14215181D01*
X8652857Y14215181D02*
X8748095Y14167562D01*
X8748095Y14167562D02*
X8795714Y14119943D01*
X8795714Y14119943D02*
X8843333Y14024705D01*
X8843333Y14024705D02*
X8843333Y13881848D01*
X8843333Y13881848D02*
X8795714Y13786610D01*
X8795714Y13786610D02*
X8748095Y13738991D01*
X8748095Y13738991D02*
X8652857Y13691372D01*
X8652857Y13691372D02*
X8271905Y13691372D01*
X9176667Y14215181D02*
X9795714Y14215181D01*
X9795714Y14215181D02*
X9462381Y13834229D01*
X9462381Y13834229D02*
X9605238Y13834229D01*
X9605238Y13834229D02*
X9700476Y13786610D01*
X9700476Y13786610D02*
X9748095Y13738991D01*
X9748095Y13738991D02*
X9795714Y13643753D01*
X9795714Y13643753D02*
X9795714Y13405658D01*
X9795714Y13405658D02*
X9748095Y13310420D01*
X9748095Y13310420D02*
X9700476Y13262800D01*
X9700476Y13262800D02*
X9605238Y13215181D01*
X9605238Y13215181D02*
X9319524Y13215181D01*
X9319524Y13215181D02*
X9224286Y13262800D01*
X9224286Y13262800D02*
X9176667Y13310420D01*
X32491905Y23085181D02*
X32491905Y24085181D01*
X32491905Y24085181D02*
X32730000Y24085181D01*
X32730000Y24085181D02*
X32872857Y24037562D01*
X32872857Y24037562D02*
X32968095Y23942324D01*
X32968095Y23942324D02*
X33015714Y23847086D01*
X33015714Y23847086D02*
X33063333Y23656610D01*
X33063333Y23656610D02*
X33063333Y23513753D01*
X33063333Y23513753D02*
X33015714Y23323277D01*
X33015714Y23323277D02*
X32968095Y23228039D01*
X32968095Y23228039D02*
X32872857Y23132800D01*
X32872857Y23132800D02*
X32730000Y23085181D01*
X32730000Y23085181D02*
X32491905Y23085181D01*
X33444286Y23989943D02*
X33491905Y24037562D01*
X33491905Y24037562D02*
X33587143Y24085181D01*
X33587143Y24085181D02*
X33825238Y24085181D01*
X33825238Y24085181D02*
X33920476Y24037562D01*
X33920476Y24037562D02*
X33968095Y23989943D01*
X33968095Y23989943D02*
X34015714Y23894705D01*
X34015714Y23894705D02*
X34015714Y23799467D01*
X34015714Y23799467D02*
X33968095Y23656610D01*
X33968095Y23656610D02*
X33396667Y23085181D01*
X33396667Y23085181D02*
X34015714Y23085181D01*
X40342261Y8899943D02*
X40247023Y8947562D01*
X40247023Y8947562D02*
X40151785Y9042800D01*
X40151785Y9042800D02*
X40008928Y9185658D01*
X40008928Y9185658D02*
X39913690Y9233277D01*
X39913690Y9233277D02*
X39818452Y9233277D01*
X39866071Y8995181D02*
X39770833Y9042800D01*
X39770833Y9042800D02*
X39675595Y9138039D01*
X39675595Y9138039D02*
X39627976Y9328515D01*
X39627976Y9328515D02*
X39627976Y9661848D01*
X39627976Y9661848D02*
X39675595Y9852324D01*
X39675595Y9852324D02*
X39770833Y9947562D01*
X39770833Y9947562D02*
X39866071Y9995181D01*
X39866071Y9995181D02*
X40056547Y9995181D01*
X40056547Y9995181D02*
X40151785Y9947562D01*
X40151785Y9947562D02*
X40247023Y9852324D01*
X40247023Y9852324D02*
X40294642Y9661848D01*
X40294642Y9661848D02*
X40294642Y9328515D01*
X40294642Y9328515D02*
X40247023Y9138039D01*
X40247023Y9138039D02*
X40151785Y9042800D01*
X40151785Y9042800D02*
X40056547Y8995181D01*
X40056547Y8995181D02*
X39866071Y8995181D01*
X41247023Y8995181D02*
X40675595Y8995181D01*
X40961309Y8995181D02*
X40961309Y9995181D01*
X40961309Y9995181D02*
X40866071Y9852324D01*
X40866071Y9852324D02*
X40770833Y9757086D01*
X40770833Y9757086D02*
X40675595Y9709467D01*
X46691666Y19745181D02*
X46691666Y19030896D01*
X46691666Y19030896D02*
X46644047Y18888039D01*
X46644047Y18888039D02*
X46548809Y18792800D01*
X46548809Y18792800D02*
X46405952Y18745181D01*
X46405952Y18745181D02*
X46310714Y18745181D01*
X47120238Y19649943D02*
X47167857Y19697562D01*
X47167857Y19697562D02*
X47263095Y19745181D01*
X47263095Y19745181D02*
X47501190Y19745181D01*
X47501190Y19745181D02*
X47596428Y19697562D01*
X47596428Y19697562D02*
X47644047Y19649943D01*
X47644047Y19649943D02*
X47691666Y19554705D01*
X47691666Y19554705D02*
X47691666Y19459467D01*
X47691666Y19459467D02*
X47644047Y19316610D01*
X47644047Y19316610D02*
X47072619Y18745181D01*
X47072619Y18745181D02*
X47691666Y18745181D01*
X35333333Y16545181D02*
X34857143Y16545181D01*
X34857143Y16545181D02*
X34857143Y17545181D01*
X35571429Y17545181D02*
X36190476Y17545181D01*
X36190476Y17545181D02*
X35857143Y17164229D01*
X35857143Y17164229D02*
X36000000Y17164229D01*
X36000000Y17164229D02*
X36095238Y17116610D01*
X36095238Y17116610D02*
X36142857Y17068991D01*
X36142857Y17068991D02*
X36190476Y16973753D01*
X36190476Y16973753D02*
X36190476Y16735658D01*
X36190476Y16735658D02*
X36142857Y16640420D01*
X36142857Y16640420D02*
X36095238Y16592800D01*
X36095238Y16592800D02*
X36000000Y16545181D01*
X36000000Y16545181D02*
X35714286Y16545181D01*
X35714286Y16545181D02*
X35619048Y16592800D01*
X35619048Y16592800D02*
X35571429Y16640420D01*
X13666667Y4692800D02*
X13809524Y4645181D01*
X13809524Y4645181D02*
X14047619Y4645181D01*
X14047619Y4645181D02*
X14142857Y4692800D01*
X14142857Y4692800D02*
X14190476Y4740420D01*
X14190476Y4740420D02*
X14238095Y4835658D01*
X14238095Y4835658D02*
X14238095Y4930896D01*
X14238095Y4930896D02*
X14190476Y5026134D01*
X14190476Y5026134D02*
X14142857Y5073753D01*
X14142857Y5073753D02*
X14047619Y5121372D01*
X14047619Y5121372D02*
X13857143Y5168991D01*
X13857143Y5168991D02*
X13761905Y5216610D01*
X13761905Y5216610D02*
X13714286Y5264229D01*
X13714286Y5264229D02*
X13666667Y5359467D01*
X13666667Y5359467D02*
X13666667Y5454705D01*
X13666667Y5454705D02*
X13714286Y5549943D01*
X13714286Y5549943D02*
X13761905Y5597562D01*
X13761905Y5597562D02*
X13857143Y5645181D01*
X13857143Y5645181D02*
X14095238Y5645181D01*
X14095238Y5645181D02*
X14238095Y5597562D01*
X14571429Y5645181D02*
X14809524Y4645181D01*
X14809524Y4645181D02*
X15000000Y5359467D01*
X15000000Y5359467D02*
X15190476Y4645181D01*
X15190476Y4645181D02*
X15428572Y5645181D01*
X16333333Y4645181D02*
X15761905Y4645181D01*
X16047619Y4645181D02*
X16047619Y5645181D01*
X16047619Y5645181D02*
X15952381Y5502324D01*
X15952381Y5502324D02*
X15857143Y5407086D01*
X15857143Y5407086D02*
X15761905Y5359467D01*
X43614819Y21357143D02*
X43138628Y21023810D01*
X43614819Y20785715D02*
X42614819Y20785715D01*
X42614819Y20785715D02*
X42614819Y21166667D01*
X42614819Y21166667D02*
X42662438Y21261905D01*
X42662438Y21261905D02*
X42710057Y21309524D01*
X42710057Y21309524D02*
X42805295Y21357143D01*
X42805295Y21357143D02*
X42948152Y21357143D01*
X42948152Y21357143D02*
X43043390Y21309524D01*
X43043390Y21309524D02*
X43091009Y21261905D01*
X43091009Y21261905D02*
X43138628Y21166667D01*
X43138628Y21166667D02*
X43138628Y20785715D01*
X43614819Y22309524D02*
X43614819Y21738096D01*
X43614819Y22023810D02*
X42614819Y22023810D01*
X42614819Y22023810D02*
X42757676Y21928572D01*
X42757676Y21928572D02*
X42852914Y21833334D01*
X42852914Y21833334D02*
X42900533Y21738096D01*
X42614819Y22928572D02*
X42614819Y23023810D01*
X42614819Y23023810D02*
X42662438Y23119048D01*
X42662438Y23119048D02*
X42710057Y23166667D01*
X42710057Y23166667D02*
X42805295Y23214286D01*
X42805295Y23214286D02*
X42995771Y23261905D01*
X42995771Y23261905D02*
X43233866Y23261905D01*
X43233866Y23261905D02*
X43424342Y23214286D01*
X43424342Y23214286D02*
X43519580Y23166667D01*
X43519580Y23166667D02*
X43567200Y23119048D01*
X43567200Y23119048D02*
X43614819Y23023810D01*
X43614819Y23023810D02*
X43614819Y22928572D01*
X43614819Y22928572D02*
X43567200Y22833334D01*
X43567200Y22833334D02*
X43519580Y22785715D01*
X43519580Y22785715D02*
X43424342Y22738096D01*
X43424342Y22738096D02*
X43233866Y22690477D01*
X43233866Y22690477D02*
X42995771Y22690477D01*
X42995771Y22690477D02*
X42805295Y22738096D01*
X42805295Y22738096D02*
X42710057Y22785715D01*
X42710057Y22785715D02*
X42662438Y22833334D01*
X42662438Y22833334D02*
X42614819Y22928572D01*
X30833333Y3545181D02*
X30500000Y4021372D01*
X30261905Y3545181D02*
X30261905Y4545181D01*
X30261905Y4545181D02*
X30642857Y4545181D01*
X30642857Y4545181D02*
X30738095Y4497562D01*
X30738095Y4497562D02*
X30785714Y4449943D01*
X30785714Y4449943D02*
X30833333Y4354705D01*
X30833333Y4354705D02*
X30833333Y4211848D01*
X30833333Y4211848D02*
X30785714Y4116610D01*
X30785714Y4116610D02*
X30738095Y4068991D01*
X30738095Y4068991D02*
X30642857Y4021372D01*
X30642857Y4021372D02*
X30261905Y4021372D01*
X31738095Y4545181D02*
X31261905Y4545181D01*
X31261905Y4545181D02*
X31214286Y4068991D01*
X31214286Y4068991D02*
X31261905Y4116610D01*
X31261905Y4116610D02*
X31357143Y4164229D01*
X31357143Y4164229D02*
X31595238Y4164229D01*
X31595238Y4164229D02*
X31690476Y4116610D01*
X31690476Y4116610D02*
X31738095Y4068991D01*
X31738095Y4068991D02*
X31785714Y3973753D01*
X31785714Y3973753D02*
X31785714Y3735658D01*
X31785714Y3735658D02*
X31738095Y3640420D01*
X31738095Y3640420D02*
X31690476Y3592800D01*
X31690476Y3592800D02*
X31595238Y3545181D01*
X31595238Y3545181D02*
X31357143Y3545181D01*
X31357143Y3545181D02*
X31261905Y3592800D01*
X31261905Y3592800D02*
X31214286Y3640420D01*
D16*
%TO.C,R2*%
X8856359Y16880000D02*
X9163641Y16880000D01*
X8856359Y16120000D02*
X9163641Y16120000D01*
%TO.C,Y2*%
X29790000Y21160000D02*
X29790000Y18740000D01*
X29790000Y18740000D02*
X32610000Y18740000D01*
%TO.C,U2*%
X12727500Y17110000D02*
X14547500Y17110000D01*
X12727500Y17060000D02*
X12727500Y17110000D01*
X12727500Y13990000D02*
X12727500Y14040000D01*
X14547500Y17110000D02*
X14547500Y17060000D01*
X14547500Y14040000D02*
X14547500Y13990000D01*
X14547500Y13990000D02*
X12727500Y13990000D01*
X12187500Y17060000D02*
X11947500Y17390000D01*
X12427500Y17390000D01*
X12187500Y17060000D01*
G36*
X12187500Y17060000D02*
G01*
X11947500Y17390000D01*
X12427500Y17390000D01*
X12187500Y17060000D01*
G37*
%TO.C,Y1*%
X20240000Y8360000D02*
X20240000Y6640000D01*
X20240000Y6640000D02*
X22760000Y6640000D01*
X22760000Y8360000D02*
X20240000Y8360000D01*
D17*
%TO.C,FLT1*%
X41050000Y16500000D02*
X41350000Y16500000D01*
X41350000Y15500000D02*
X41050000Y15500000D01*
X42350000Y16500000D02*
X42650000Y16500000D01*
X42350000Y15500000D02*
X42650000Y15500000D01*
D18*
X40250000Y16000000D02*
G75*
G02*
X40050000Y16000000I-100000J0D01*
G01*
X40050000Y16000000D02*
G75*
G02*
X40250000Y16000000I100000J0D01*
G01*
D16*
%TO.C,C2*%
X31634420Y13510000D02*
X31915580Y13510000D01*
X31634420Y12490000D02*
X31915580Y12490000D01*
%TO.C,BZ1*%
X54800000Y7000000D02*
G75*
G02*
X42600000Y7000000I-6100000J0D01*
G01*
X42600000Y7000000D02*
G75*
G02*
X54800000Y7000000I6100000J0D01*
G01*
%TO.C,C10*%
X31587836Y17360000D02*
X31372164Y17360000D01*
X31587836Y16640000D02*
X31372164Y16640000D01*
%TO.C,C8*%
X31087836Y9360000D02*
X30872164Y9360000D01*
X31087836Y8640000D02*
X30872164Y8640000D01*
%TO.C,J3*%
X3420000Y19270000D02*
X5120000Y19270000D01*
X3420000Y9930000D02*
X5120000Y9930000D01*
%TO.C,C6*%
X19587836Y12360000D02*
X19372164Y12360000D01*
X19587836Y11640000D02*
X19372164Y11640000D01*
%TO.C,C25*%
X37120000Y15627836D02*
X37120000Y15412164D01*
X37840000Y15627836D02*
X37840000Y15412164D01*
%TO.C,R7*%
X36610000Y9846359D02*
X36610000Y10153641D01*
X37370000Y9846359D02*
X37370000Y10153641D01*
%TO.C,C11*%
X23415580Y21510000D02*
X23134420Y21510000D01*
X23415580Y20490000D02*
X23134420Y20490000D01*
%TO.C,C9*%
X34087836Y18860000D02*
X33872164Y18860000D01*
X34087836Y18140000D02*
X33872164Y18140000D01*
%TO.C,C1*%
X21412164Y1860000D02*
X21627836Y1860000D01*
X21412164Y1140000D02*
X21627836Y1140000D01*
%TO.C,J4*%
X31890000Y2245000D02*
X31890000Y1910030D01*
X31890000Y1089970D02*
X31890000Y755000D01*
X34765000Y2245000D02*
X31890000Y2245000D01*
X34765000Y2245000D02*
X34765000Y2185565D01*
X34765000Y814435D02*
X34765000Y755000D01*
X34765000Y755000D02*
X31890000Y755000D01*
X35500000Y2245000D02*
X36235000Y2245000D01*
X36235000Y2245000D02*
X36235000Y1500000D01*
%TO.C,C16*%
X23140000Y7127836D02*
X23140000Y6912164D01*
X23860000Y7127836D02*
X23860000Y6912164D01*
%TO.C,C20*%
X18490000Y25084420D02*
X18490000Y25365580D01*
X19510000Y25084420D02*
X19510000Y25365580D01*
%TO.C,C3*%
X19627836Y10360000D02*
X19412164Y10360000D01*
X19627836Y9640000D02*
X19412164Y9640000D01*
%TO.C,C19*%
X12490000Y20634420D02*
X12490000Y20915580D01*
X13510000Y20634420D02*
X13510000Y20915580D01*
%TO.C,R8*%
X34836359Y22380000D02*
X35143641Y22380000D01*
X34836359Y21620000D02*
X35143641Y21620000D01*
%TO.C,C5*%
X31412164Y11860000D02*
X31627836Y11860000D01*
X31412164Y11140000D02*
X31627836Y11140000D01*
D17*
%TO.C,U1*%
X21140000Y17870000D02*
X21620000Y17870000D01*
X21140000Y17390000D02*
X21140000Y17870000D01*
X21140000Y10190000D02*
X21140000Y9710000D01*
X21140000Y9710000D02*
X21620000Y9710000D01*
X28820000Y9710000D02*
X29300000Y9710000D01*
X29300000Y17870000D02*
X28820000Y17870000D01*
X29300000Y17390000D02*
X29300000Y17870000D01*
X29300000Y9710000D02*
X29300000Y10190000D01*
D12*
X22120000Y8790000D02*
G75*
G02*
X21920000Y8790000I-100000J0D01*
G01*
X21920000Y8790000D02*
G75*
G02*
X22120000Y8790000I100000J0D01*
G01*
D16*
%TO.C,R1*%
X20856359Y4880000D02*
X21163641Y4880000D01*
X20856359Y4120000D02*
X21163641Y4120000D01*
%TO.C,C14*%
X30915580Y8010000D02*
X30634420Y8010000D01*
X30915580Y6990000D02*
X30634420Y6990000D01*
%TO.C,L2*%
X27037878Y23560000D02*
X27837122Y23560000D01*
X27037878Y22440000D02*
X27837122Y22440000D01*
%TO.C,R4*%
X20856359Y26380000D02*
X21163641Y26380000D01*
X20856359Y25620000D02*
X21163641Y25620000D01*
%TO.C,C21*%
X25872164Y2860000D02*
X26087836Y2860000D01*
X25872164Y2140000D02*
X26087836Y2140000D01*
%TO.C,R9*%
X38610000Y21153641D02*
X38610000Y20846359D01*
X39370000Y21153641D02*
X39370000Y20846359D01*
%TO.C,C15*%
X19140000Y7872164D02*
X19140000Y8087836D01*
X19860000Y7872164D02*
X19860000Y8087836D01*
D10*
%TO.C,U4*%
X26175000Y7325000D02*
X26175000Y7175000D01*
X26175000Y7325000D02*
X26325000Y7325000D01*
X26175000Y4625000D02*
X26175000Y4775000D01*
X26325000Y4625000D02*
X26175000Y4625000D01*
X28875000Y7335000D02*
X28725000Y7335000D01*
X28875000Y7325000D02*
X28875000Y7175000D01*
D16*
X28875000Y4265000D02*
X28875000Y4625000D01*
X29235000Y4625000D01*
X28875000Y4265000D01*
G36*
X28875000Y4265000D02*
G01*
X28875000Y4625000D01*
X29235000Y4625000D01*
X28875000Y4265000D01*
G37*
%TO.C,U3*%
X15727500Y23610000D02*
X17547500Y23610000D01*
X15727500Y23560000D02*
X15727500Y23610000D01*
X15727500Y20490000D02*
X15727500Y20540000D01*
X17547500Y23610000D02*
X17547500Y23560000D01*
X17547500Y22440000D02*
X17547500Y21660000D01*
X17547500Y20540000D02*
X17547500Y20490000D01*
X17547500Y20490000D02*
X15727500Y20490000D01*
X15187500Y23560000D02*
X14947500Y23890000D01*
X15427500Y23890000D01*
X15187500Y23560000D01*
G36*
X15187500Y23560000D02*
G01*
X14947500Y23890000D01*
X15427500Y23890000D01*
X15187500Y23560000D01*
G37*
%TO.C,C12*%
X23587836Y22860000D02*
X23372164Y22860000D01*
X23587836Y22140000D02*
X23372164Y22140000D01*
%TO.C,J1*%
X4255000Y4735000D02*
X4255000Y7610000D01*
X4314435Y4735000D02*
X4255000Y4735000D01*
X4589970Y7610000D02*
X4255000Y7610000D01*
X5745000Y7610000D02*
X5410030Y7610000D01*
X5745000Y4735000D02*
X5685565Y4735000D01*
X5745000Y4735000D02*
X5745000Y7610000D01*
X5745000Y4000000D02*
X5745000Y3265000D01*
X5745000Y3265000D02*
X5000000Y3265000D01*
%TO.C,C7*%
X18912164Y15360000D02*
X19127836Y15360000D01*
X18912164Y14640000D02*
X19127836Y14640000D01*
%TO.C,C13*%
X27634420Y20010000D02*
X27915580Y20010000D01*
X27634420Y18990000D02*
X27915580Y18990000D01*
%TO.C,C4*%
X19627836Y11360000D02*
X19412164Y11360000D01*
X19627836Y10640000D02*
X19412164Y10640000D01*
%TO.C,R6*%
X26356359Y3880000D02*
X26663641Y3880000D01*
X26356359Y3120000D02*
X26663641Y3120000D01*
%TO.C,C24*%
X30640000Y15627836D02*
X30640000Y15412164D01*
X31360000Y15627836D02*
X31360000Y15412164D01*
%TO.C,D4*%
X47290000Y27580000D02*
X47290000Y27736000D01*
X47290000Y25264000D02*
X47290000Y25420000D01*
X44058563Y27580000D02*
G75*
G02*
X47290000Y27735516I1671437J-1080000D01*
G01*
X44689039Y27580000D02*
G75*
G02*
X46770961Y27580000I1040961J-1080000D01*
G01*
X46770961Y25420000D02*
G75*
G02*
X44689039Y25420000I-1040961J1080000D01*
G01*
X47290000Y25264484D02*
G75*
G02*
X44058563Y25420000I-1560000J1235516D01*
G01*
%TO.C,D3*%
X40790000Y27580000D02*
X40790000Y27736000D01*
X40790000Y25264000D02*
X40790000Y25420000D01*
X37558563Y27580000D02*
G75*
G02*
X40790000Y27735516I1671437J-1080000D01*
G01*
X38189039Y27580000D02*
G75*
G02*
X40270961Y27580000I1040961J-1080000D01*
G01*
X40270961Y25420000D02*
G75*
G02*
X38189039Y25420000I-1040961J1080000D01*
G01*
X40790000Y25264484D02*
G75*
G02*
X37558563Y25420000I-1560000J1235516D01*
G01*
D10*
%TO.C,D1*%
X22125000Y24500000D02*
G75*
G02*
X22025000Y24500000I-50000J0D01*
G01*
X22025000Y24500000D02*
G75*
G02*
X22125000Y24500000I50000J0D01*
G01*
D16*
%TO.C,R3*%
X8856359Y12880000D02*
X9163641Y12880000D01*
X8856359Y12120000D02*
X9163641Y12120000D01*
%TO.C,D2*%
X34790000Y27580000D02*
X34790000Y27736000D01*
X34790000Y25264000D02*
X34790000Y25420000D01*
X31558563Y27580000D02*
G75*
G02*
X34790000Y27735516I1671437J-1080000D01*
G01*
X32189039Y27580000D02*
G75*
G02*
X34270961Y27580000I1040961J-1080000D01*
G01*
X34270961Y25420000D02*
G75*
G02*
X32189039Y25420000I-1040961J1080000D01*
G01*
X34790000Y25264484D02*
G75*
G02*
X31558563Y25420000I-1560000J1235516D01*
G01*
%TO.C,Q1*%
X39677500Y8610000D02*
X41197500Y8610000D01*
X39677500Y8560000D02*
X39677500Y8610000D01*
X39677500Y6660000D02*
X39677500Y7440000D01*
X39677500Y5490000D02*
X39677500Y5540000D01*
X41197500Y8610000D02*
X41197500Y7610000D01*
X41197500Y6490000D02*
X41197500Y5490000D01*
X41197500Y5490000D02*
X39677500Y5490000D01*
X39377500Y7100000D02*
X38897500Y7100000D01*
X39137500Y7430000D01*
X39377500Y7100000D01*
G36*
X39377500Y7100000D02*
G01*
X38897500Y7100000D01*
X39137500Y7430000D01*
X39377500Y7100000D01*
G37*
%TO.C,J2*%
X45665000Y17400000D02*
X45665000Y16760000D01*
X45665000Y16760000D02*
X45035000Y16760000D01*
X45665000Y14600000D02*
X45665000Y15240000D01*
X48385000Y17350000D02*
X48385000Y14650000D01*
%TO.C,SW1*%
X11940000Y4350000D02*
X18060000Y4350000D01*
X11940000Y650000D02*
X11940000Y4350000D01*
X18060000Y4350000D02*
X18060000Y650000D01*
X18060000Y650000D02*
X11940000Y650000D01*
%TO.C,R10*%
X41610000Y22153641D02*
X41610000Y21846359D01*
X42370000Y22153641D02*
X42370000Y21846359D01*
%TO.C,R5*%
X29846359Y3380000D02*
X30153641Y3380000D01*
X29846359Y2620000D02*
X30153641Y2620000D01*
%TD*%
M02*
