%TF.GenerationSoftware,KiCad,Pcbnew,9.0.6*%
%TF.CreationDate,2026-05-14T13:26:13+02:00*%
%TF.ProjectId,Hardware,48617264-7761-4726-952e-6b696361645f,rev?*%
%TF.SameCoordinates,PX7b80360PY518a060*%
%TF.FileFunction,Copper,L2,Inr*%
%TF.FilePolarity,Positive*%
%FSLAX46Y46*%
G04 Gerber Fmt 4.6, Leading zero omitted, Abs format (unit mm)*
G04 Created by KiCad (PCBNEW 9.0.6) date 2026-05-14 13:26:13*
%MOMM*%
%LPD*%
G01*
G04 APERTURE LIST*
%ADD10C,0.100000*%
%ADD11C,0.150000*%
%ADD12C,0.300000*%
%ADD13C,0.400000*%
%TA.AperFunction,ComponentPad*%
%ADD14R,2.000000X2.000000*%
%TD*%
%TA.AperFunction,ComponentPad*%
%ADD15C,2.000000*%
%TD*%
%TA.AperFunction,HeatsinkPad*%
%ADD16O,2.100000X1.000000*%
%TD*%
%TA.AperFunction,HeatsinkPad*%
%ADD17O,1.800000X1.000000*%
%TD*%
%TA.AperFunction,ComponentPad*%
%ADD18R,0.850000X0.850000*%
%TD*%
%TA.AperFunction,ComponentPad*%
%ADD19C,0.850000*%
%TD*%
%TA.AperFunction,ComponentPad*%
%ADD20R,1.800000X1.800000*%
%TD*%
%TA.AperFunction,ComponentPad*%
%ADD21C,1.800000*%
%TD*%
%TA.AperFunction,ViaPad*%
%ADD22C,0.600000*%
%TD*%
G04 APERTURE END LIST*
D10*
D11*
X47502200Y-80507200D02*
X155502200Y-80507200D01*
X155502200Y-112507200D01*
X47502200Y-112507200D01*
X47502200Y-80507200D01*
D10*
D11*
X-119500000Y75500000D02*
X157502200Y75500000D01*
X157502200Y-114507200D01*
X-119500000Y-114507200D01*
X-119500000Y75500000D01*
D10*
D11*
X-117500000Y73500000D02*
X155502200Y73500000D01*
X155502200Y-112507200D01*
X-117500000Y-112507200D01*
X-117500000Y73500000D01*
D10*
D11*
X-69500000Y73500000D02*
X-69500000Y75500000D01*
D10*
D11*
X-19500000Y73500000D02*
X-19500000Y75500000D01*
D10*
D11*
X30500000Y73500000D02*
X30500000Y75500000D01*
D10*
D11*
X80500000Y73500000D02*
X80500000Y75500000D01*
D10*
D11*
X130500000Y73500000D02*
X130500000Y75500000D01*
D10*
D11*
X-93410840Y73906396D02*
X-94153697Y73906396D01*
X-93782269Y73906396D02*
X-93782269Y75206396D01*
X-93782269Y75206396D02*
X-93906078Y75020681D01*
X-93906078Y75020681D02*
X-94029888Y74896872D01*
X-94029888Y74896872D02*
X-94153697Y74834967D01*
D10*
D11*
X-44153697Y75082586D02*
X-44091793Y75144491D01*
X-44091793Y75144491D02*
X-43967983Y75206396D01*
X-43967983Y75206396D02*
X-43658459Y75206396D01*
X-43658459Y75206396D02*
X-43534650Y75144491D01*
X-43534650Y75144491D02*
X-43472745Y75082586D01*
X-43472745Y75082586D02*
X-43410840Y74958777D01*
X-43410840Y74958777D02*
X-43410840Y74834967D01*
X-43410840Y74834967D02*
X-43472745Y74649253D01*
X-43472745Y74649253D02*
X-44215602Y73906396D01*
X-44215602Y73906396D02*
X-43410840Y73906396D01*
D10*
D11*
X5784398Y75206396D02*
X6589160Y75206396D01*
X6589160Y75206396D02*
X6155826Y74711158D01*
X6155826Y74711158D02*
X6341541Y74711158D01*
X6341541Y74711158D02*
X6465350Y74649253D01*
X6465350Y74649253D02*
X6527255Y74587348D01*
X6527255Y74587348D02*
X6589160Y74463539D01*
X6589160Y74463539D02*
X6589160Y74154015D01*
X6589160Y74154015D02*
X6527255Y74030205D01*
X6527255Y74030205D02*
X6465350Y73968300D01*
X6465350Y73968300D02*
X6341541Y73906396D01*
X6341541Y73906396D02*
X5970112Y73906396D01*
X5970112Y73906396D02*
X5846303Y73968300D01*
X5846303Y73968300D02*
X5784398Y74030205D01*
D10*
D11*
X56465350Y74773062D02*
X56465350Y73906396D01*
X56155826Y75268300D02*
X55846303Y74339729D01*
X55846303Y74339729D02*
X56651064Y74339729D01*
D10*
D11*
X106527255Y75206396D02*
X105908207Y75206396D01*
X105908207Y75206396D02*
X105846303Y74587348D01*
X105846303Y74587348D02*
X105908207Y74649253D01*
X105908207Y74649253D02*
X106032017Y74711158D01*
X106032017Y74711158D02*
X106341541Y74711158D01*
X106341541Y74711158D02*
X106465350Y74649253D01*
X106465350Y74649253D02*
X106527255Y74587348D01*
X106527255Y74587348D02*
X106589160Y74463539D01*
X106589160Y74463539D02*
X106589160Y74154015D01*
X106589160Y74154015D02*
X106527255Y74030205D01*
X106527255Y74030205D02*
X106465350Y73968300D01*
X106465350Y73968300D02*
X106341541Y73906396D01*
X106341541Y73906396D02*
X106032017Y73906396D01*
X106032017Y73906396D02*
X105908207Y73968300D01*
X105908207Y73968300D02*
X105846303Y74030205D01*
D10*
D11*
X156465350Y75206396D02*
X156217731Y75206396D01*
X156217731Y75206396D02*
X156093922Y75144491D01*
X156093922Y75144491D02*
X156032017Y75082586D01*
X156032017Y75082586D02*
X155908207Y74896872D01*
X155908207Y74896872D02*
X155846303Y74649253D01*
X155846303Y74649253D02*
X155846303Y74154015D01*
X155846303Y74154015D02*
X155908207Y74030205D01*
X155908207Y74030205D02*
X155970112Y73968300D01*
X155970112Y73968300D02*
X156093922Y73906396D01*
X156093922Y73906396D02*
X156341541Y73906396D01*
X156341541Y73906396D02*
X156465350Y73968300D01*
X156465350Y73968300D02*
X156527255Y74030205D01*
X156527255Y74030205D02*
X156589160Y74154015D01*
X156589160Y74154015D02*
X156589160Y74463539D01*
X156589160Y74463539D02*
X156527255Y74587348D01*
X156527255Y74587348D02*
X156465350Y74649253D01*
X156465350Y74649253D02*
X156341541Y74711158D01*
X156341541Y74711158D02*
X156093922Y74711158D01*
X156093922Y74711158D02*
X155970112Y74649253D01*
X155970112Y74649253D02*
X155908207Y74587348D01*
X155908207Y74587348D02*
X155846303Y74463539D01*
D10*
D11*
X-69500000Y-112507200D02*
X-69500000Y-114507200D01*
D10*
D11*
X-19500000Y-112507200D02*
X-19500000Y-114507200D01*
D10*
D11*
X30500000Y-112507200D02*
X30500000Y-114507200D01*
D10*
D11*
X80500000Y-112507200D02*
X80500000Y-114507200D01*
D10*
D11*
X130500000Y-112507200D02*
X130500000Y-114507200D01*
D10*
D11*
X-93410840Y-114100804D02*
X-94153697Y-114100804D01*
X-93782269Y-114100804D02*
X-93782269Y-112800804D01*
X-93782269Y-112800804D02*
X-93906078Y-112986519D01*
X-93906078Y-112986519D02*
X-94029888Y-113110328D01*
X-94029888Y-113110328D02*
X-94153697Y-113172233D01*
D10*
D11*
X-44153697Y-112924614D02*
X-44091793Y-112862709D01*
X-44091793Y-112862709D02*
X-43967983Y-112800804D01*
X-43967983Y-112800804D02*
X-43658459Y-112800804D01*
X-43658459Y-112800804D02*
X-43534650Y-112862709D01*
X-43534650Y-112862709D02*
X-43472745Y-112924614D01*
X-43472745Y-112924614D02*
X-43410840Y-113048423D01*
X-43410840Y-113048423D02*
X-43410840Y-113172233D01*
X-43410840Y-113172233D02*
X-43472745Y-113357947D01*
X-43472745Y-113357947D02*
X-44215602Y-114100804D01*
X-44215602Y-114100804D02*
X-43410840Y-114100804D01*
D10*
D11*
X5784398Y-112800804D02*
X6589160Y-112800804D01*
X6589160Y-112800804D02*
X6155826Y-113296042D01*
X6155826Y-113296042D02*
X6341541Y-113296042D01*
X6341541Y-113296042D02*
X6465350Y-113357947D01*
X6465350Y-113357947D02*
X6527255Y-113419852D01*
X6527255Y-113419852D02*
X6589160Y-113543661D01*
X6589160Y-113543661D02*
X6589160Y-113853185D01*
X6589160Y-113853185D02*
X6527255Y-113976995D01*
X6527255Y-113976995D02*
X6465350Y-114038900D01*
X6465350Y-114038900D02*
X6341541Y-114100804D01*
X6341541Y-114100804D02*
X5970112Y-114100804D01*
X5970112Y-114100804D02*
X5846303Y-114038900D01*
X5846303Y-114038900D02*
X5784398Y-113976995D01*
D10*
D11*
X56465350Y-113234138D02*
X56465350Y-114100804D01*
X56155826Y-112738900D02*
X55846303Y-113667471D01*
X55846303Y-113667471D02*
X56651064Y-113667471D01*
D10*
D11*
X106527255Y-112800804D02*
X105908207Y-112800804D01*
X105908207Y-112800804D02*
X105846303Y-113419852D01*
X105846303Y-113419852D02*
X105908207Y-113357947D01*
X105908207Y-113357947D02*
X106032017Y-113296042D01*
X106032017Y-113296042D02*
X106341541Y-113296042D01*
X106341541Y-113296042D02*
X106465350Y-113357947D01*
X106465350Y-113357947D02*
X106527255Y-113419852D01*
X106527255Y-113419852D02*
X106589160Y-113543661D01*
X106589160Y-113543661D02*
X106589160Y-113853185D01*
X106589160Y-113853185D02*
X106527255Y-113976995D01*
X106527255Y-113976995D02*
X106465350Y-114038900D01*
X106465350Y-114038900D02*
X106341541Y-114100804D01*
X106341541Y-114100804D02*
X106032017Y-114100804D01*
X106032017Y-114100804D02*
X105908207Y-114038900D01*
X105908207Y-114038900D02*
X105846303Y-113976995D01*
D10*
D11*
X156465350Y-112800804D02*
X156217731Y-112800804D01*
X156217731Y-112800804D02*
X156093922Y-112862709D01*
X156093922Y-112862709D02*
X156032017Y-112924614D01*
X156032017Y-112924614D02*
X155908207Y-113110328D01*
X155908207Y-113110328D02*
X155846303Y-113357947D01*
X155846303Y-113357947D02*
X155846303Y-113853185D01*
X155846303Y-113853185D02*
X155908207Y-113976995D01*
X155908207Y-113976995D02*
X155970112Y-114038900D01*
X155970112Y-114038900D02*
X156093922Y-114100804D01*
X156093922Y-114100804D02*
X156341541Y-114100804D01*
X156341541Y-114100804D02*
X156465350Y-114038900D01*
X156465350Y-114038900D02*
X156527255Y-113976995D01*
X156527255Y-113976995D02*
X156589160Y-113853185D01*
X156589160Y-113853185D02*
X156589160Y-113543661D01*
X156589160Y-113543661D02*
X156527255Y-113419852D01*
X156527255Y-113419852D02*
X156465350Y-113357947D01*
X156465350Y-113357947D02*
X156341541Y-113296042D01*
X156341541Y-113296042D02*
X156093922Y-113296042D01*
X156093922Y-113296042D02*
X155970112Y-113357947D01*
X155970112Y-113357947D02*
X155908207Y-113419852D01*
X155908207Y-113419852D02*
X155846303Y-113543661D01*
D10*
D11*
X-119500000Y25500000D02*
X-117500000Y25500000D01*
D10*
D11*
X-119500000Y-24500000D02*
X-117500000Y-24500000D01*
D10*
D11*
X-119500000Y-74500000D02*
X-117500000Y-74500000D01*
D10*
D11*
X-118809524Y50277824D02*
X-118190477Y50277824D01*
X-118933334Y49906396D02*
X-118500001Y51206396D01*
X-118500001Y51206396D02*
X-118066667Y49906396D01*
D10*
D11*
X-118407143Y587348D02*
X-118221429Y525443D01*
X-118221429Y525443D02*
X-118159524Y463539D01*
X-118159524Y463539D02*
X-118097620Y339729D01*
X-118097620Y339729D02*
X-118097620Y154015D01*
X-118097620Y154015D02*
X-118159524Y30205D01*
X-118159524Y30205D02*
X-118221429Y-31700D01*
X-118221429Y-31700D02*
X-118345239Y-93604D01*
X-118345239Y-93604D02*
X-118840477Y-93604D01*
X-118840477Y-93604D02*
X-118840477Y1206396D01*
X-118840477Y1206396D02*
X-118407143Y1206396D01*
X-118407143Y1206396D02*
X-118283334Y1144491D01*
X-118283334Y1144491D02*
X-118221429Y1082586D01*
X-118221429Y1082586D02*
X-118159524Y958777D01*
X-118159524Y958777D02*
X-118159524Y834967D01*
X-118159524Y834967D02*
X-118221429Y711158D01*
X-118221429Y711158D02*
X-118283334Y649253D01*
X-118283334Y649253D02*
X-118407143Y587348D01*
X-118407143Y587348D02*
X-118840477Y587348D01*
D10*
D11*
X-118097620Y-49969795D02*
X-118159524Y-50031700D01*
X-118159524Y-50031700D02*
X-118345239Y-50093604D01*
X-118345239Y-50093604D02*
X-118469048Y-50093604D01*
X-118469048Y-50093604D02*
X-118654762Y-50031700D01*
X-118654762Y-50031700D02*
X-118778572Y-49907890D01*
X-118778572Y-49907890D02*
X-118840477Y-49784080D01*
X-118840477Y-49784080D02*
X-118902381Y-49536461D01*
X-118902381Y-49536461D02*
X-118902381Y-49350747D01*
X-118902381Y-49350747D02*
X-118840477Y-49103128D01*
X-118840477Y-49103128D02*
X-118778572Y-48979319D01*
X-118778572Y-48979319D02*
X-118654762Y-48855509D01*
X-118654762Y-48855509D02*
X-118469048Y-48793604D01*
X-118469048Y-48793604D02*
X-118345239Y-48793604D01*
X-118345239Y-48793604D02*
X-118159524Y-48855509D01*
X-118159524Y-48855509D02*
X-118097620Y-48917414D01*
D10*
D11*
X-118840477Y-100093604D02*
X-118840477Y-98793604D01*
X-118840477Y-98793604D02*
X-118530953Y-98793604D01*
X-118530953Y-98793604D02*
X-118345239Y-98855509D01*
X-118345239Y-98855509D02*
X-118221429Y-98979319D01*
X-118221429Y-98979319D02*
X-118159524Y-99103128D01*
X-118159524Y-99103128D02*
X-118097620Y-99350747D01*
X-118097620Y-99350747D02*
X-118097620Y-99536461D01*
X-118097620Y-99536461D02*
X-118159524Y-99784080D01*
X-118159524Y-99784080D02*
X-118221429Y-99907890D01*
X-118221429Y-99907890D02*
X-118345239Y-100031700D01*
X-118345239Y-100031700D02*
X-118530953Y-100093604D01*
X-118530953Y-100093604D02*
X-118840477Y-100093604D01*
D10*
D11*
X157502200Y25500000D02*
X155502200Y25500000D01*
D10*
D11*
X157502200Y-24500000D02*
X155502200Y-24500000D01*
D10*
D11*
X157502200Y-74500000D02*
X155502200Y-74500000D01*
D10*
D11*
X156192676Y50277824D02*
X156811723Y50277824D01*
X156068866Y49906396D02*
X156502199Y51206396D01*
X156502199Y51206396D02*
X156935533Y49906396D01*
D10*
D11*
X156595057Y587348D02*
X156780771Y525443D01*
X156780771Y525443D02*
X156842676Y463539D01*
X156842676Y463539D02*
X156904580Y339729D01*
X156904580Y339729D02*
X156904580Y154015D01*
X156904580Y154015D02*
X156842676Y30205D01*
X156842676Y30205D02*
X156780771Y-31700D01*
X156780771Y-31700D02*
X156656961Y-93604D01*
X156656961Y-93604D02*
X156161723Y-93604D01*
X156161723Y-93604D02*
X156161723Y1206396D01*
X156161723Y1206396D02*
X156595057Y1206396D01*
X156595057Y1206396D02*
X156718866Y1144491D01*
X156718866Y1144491D02*
X156780771Y1082586D01*
X156780771Y1082586D02*
X156842676Y958777D01*
X156842676Y958777D02*
X156842676Y834967D01*
X156842676Y834967D02*
X156780771Y711158D01*
X156780771Y711158D02*
X156718866Y649253D01*
X156718866Y649253D02*
X156595057Y587348D01*
X156595057Y587348D02*
X156161723Y587348D01*
D10*
D11*
X156904580Y-49969795D02*
X156842676Y-50031700D01*
X156842676Y-50031700D02*
X156656961Y-50093604D01*
X156656961Y-50093604D02*
X156533152Y-50093604D01*
X156533152Y-50093604D02*
X156347438Y-50031700D01*
X156347438Y-50031700D02*
X156223628Y-49907890D01*
X156223628Y-49907890D02*
X156161723Y-49784080D01*
X156161723Y-49784080D02*
X156099819Y-49536461D01*
X156099819Y-49536461D02*
X156099819Y-49350747D01*
X156099819Y-49350747D02*
X156161723Y-49103128D01*
X156161723Y-49103128D02*
X156223628Y-48979319D01*
X156223628Y-48979319D02*
X156347438Y-48855509D01*
X156347438Y-48855509D02*
X156533152Y-48793604D01*
X156533152Y-48793604D02*
X156656961Y-48793604D01*
X156656961Y-48793604D02*
X156842676Y-48855509D01*
X156842676Y-48855509D02*
X156904580Y-48917414D01*
D10*
D11*
X156161723Y-100093604D02*
X156161723Y-98793604D01*
X156161723Y-98793604D02*
X156471247Y-98793604D01*
X156471247Y-98793604D02*
X156656961Y-98855509D01*
X156656961Y-98855509D02*
X156780771Y-98979319D01*
X156780771Y-98979319D02*
X156842676Y-99103128D01*
X156842676Y-99103128D02*
X156904580Y-99350747D01*
X156904580Y-99350747D02*
X156904580Y-99536461D01*
X156904580Y-99536461D02*
X156842676Y-99784080D01*
X156842676Y-99784080D02*
X156780771Y-99907890D01*
X156780771Y-99907890D02*
X156656961Y-100031700D01*
X156656961Y-100031700D02*
X156471247Y-100093604D01*
X156471247Y-100093604D02*
X156161723Y-100093604D01*
D10*
D11*
X70958026Y-108293328D02*
X70958026Y-106793328D01*
X70958026Y-106793328D02*
X71315169Y-106793328D01*
X71315169Y-106793328D02*
X71529455Y-106864757D01*
X71529455Y-106864757D02*
X71672312Y-107007614D01*
X71672312Y-107007614D02*
X71743741Y-107150471D01*
X71743741Y-107150471D02*
X71815169Y-107436185D01*
X71815169Y-107436185D02*
X71815169Y-107650471D01*
X71815169Y-107650471D02*
X71743741Y-107936185D01*
X71743741Y-107936185D02*
X71672312Y-108079042D01*
X71672312Y-108079042D02*
X71529455Y-108221900D01*
X71529455Y-108221900D02*
X71315169Y-108293328D01*
X71315169Y-108293328D02*
X70958026Y-108293328D01*
X73100884Y-108293328D02*
X73100884Y-107507614D01*
X73100884Y-107507614D02*
X73029455Y-107364757D01*
X73029455Y-107364757D02*
X72886598Y-107293328D01*
X72886598Y-107293328D02*
X72600884Y-107293328D01*
X72600884Y-107293328D02*
X72458026Y-107364757D01*
X73100884Y-108221900D02*
X72958026Y-108293328D01*
X72958026Y-108293328D02*
X72600884Y-108293328D01*
X72600884Y-108293328D02*
X72458026Y-108221900D01*
X72458026Y-108221900D02*
X72386598Y-108079042D01*
X72386598Y-108079042D02*
X72386598Y-107936185D01*
X72386598Y-107936185D02*
X72458026Y-107793328D01*
X72458026Y-107793328D02*
X72600884Y-107721900D01*
X72600884Y-107721900D02*
X72958026Y-107721900D01*
X72958026Y-107721900D02*
X73100884Y-107650471D01*
X73600884Y-107293328D02*
X74172312Y-107293328D01*
X73815169Y-106793328D02*
X73815169Y-108079042D01*
X73815169Y-108079042D02*
X73886598Y-108221900D01*
X73886598Y-108221900D02*
X74029455Y-108293328D01*
X74029455Y-108293328D02*
X74172312Y-108293328D01*
X75243741Y-108221900D02*
X75100884Y-108293328D01*
X75100884Y-108293328D02*
X74815170Y-108293328D01*
X74815170Y-108293328D02*
X74672312Y-108221900D01*
X74672312Y-108221900D02*
X74600884Y-108079042D01*
X74600884Y-108079042D02*
X74600884Y-107507614D01*
X74600884Y-107507614D02*
X74672312Y-107364757D01*
X74672312Y-107364757D02*
X74815170Y-107293328D01*
X74815170Y-107293328D02*
X75100884Y-107293328D01*
X75100884Y-107293328D02*
X75243741Y-107364757D01*
X75243741Y-107364757D02*
X75315170Y-107507614D01*
X75315170Y-107507614D02*
X75315170Y-107650471D01*
X75315170Y-107650471D02*
X74600884Y-107793328D01*
X75958026Y-108150471D02*
X76029455Y-108221900D01*
X76029455Y-108221900D02*
X75958026Y-108293328D01*
X75958026Y-108293328D02*
X75886598Y-108221900D01*
X75886598Y-108221900D02*
X75958026Y-108150471D01*
X75958026Y-108150471D02*
X75958026Y-108293328D01*
X75958026Y-107364757D02*
X76029455Y-107436185D01*
X76029455Y-107436185D02*
X75958026Y-107507614D01*
X75958026Y-107507614D02*
X75886598Y-107436185D01*
X75886598Y-107436185D02*
X75958026Y-107364757D01*
X75958026Y-107364757D02*
X75958026Y-107507614D01*
D10*
D11*
X47502200Y-109007200D02*
X155502200Y-109007200D01*
D10*
D11*
X48958026Y-111093328D02*
X48958026Y-109593328D01*
X49815169Y-111093328D02*
X49172312Y-110236185D01*
X49815169Y-109593328D02*
X48958026Y-110450471D01*
X50458026Y-111093328D02*
X50458026Y-110093328D01*
X50458026Y-109593328D02*
X50386598Y-109664757D01*
X50386598Y-109664757D02*
X50458026Y-109736185D01*
X50458026Y-109736185D02*
X50529455Y-109664757D01*
X50529455Y-109664757D02*
X50458026Y-109593328D01*
X50458026Y-109593328D02*
X50458026Y-109736185D01*
X52029455Y-110950471D02*
X51958027Y-111021900D01*
X51958027Y-111021900D02*
X51743741Y-111093328D01*
X51743741Y-111093328D02*
X51600884Y-111093328D01*
X51600884Y-111093328D02*
X51386598Y-111021900D01*
X51386598Y-111021900D02*
X51243741Y-110879042D01*
X51243741Y-110879042D02*
X51172312Y-110736185D01*
X51172312Y-110736185D02*
X51100884Y-110450471D01*
X51100884Y-110450471D02*
X51100884Y-110236185D01*
X51100884Y-110236185D02*
X51172312Y-109950471D01*
X51172312Y-109950471D02*
X51243741Y-109807614D01*
X51243741Y-109807614D02*
X51386598Y-109664757D01*
X51386598Y-109664757D02*
X51600884Y-109593328D01*
X51600884Y-109593328D02*
X51743741Y-109593328D01*
X51743741Y-109593328D02*
X51958027Y-109664757D01*
X51958027Y-109664757D02*
X52029455Y-109736185D01*
X53315170Y-111093328D02*
X53315170Y-110307614D01*
X53315170Y-110307614D02*
X53243741Y-110164757D01*
X53243741Y-110164757D02*
X53100884Y-110093328D01*
X53100884Y-110093328D02*
X52815170Y-110093328D01*
X52815170Y-110093328D02*
X52672312Y-110164757D01*
X53315170Y-111021900D02*
X53172312Y-111093328D01*
X53172312Y-111093328D02*
X52815170Y-111093328D01*
X52815170Y-111093328D02*
X52672312Y-111021900D01*
X52672312Y-111021900D02*
X52600884Y-110879042D01*
X52600884Y-110879042D02*
X52600884Y-110736185D01*
X52600884Y-110736185D02*
X52672312Y-110593328D01*
X52672312Y-110593328D02*
X52815170Y-110521900D01*
X52815170Y-110521900D02*
X53172312Y-110521900D01*
X53172312Y-110521900D02*
X53315170Y-110450471D01*
X54672313Y-111093328D02*
X54672313Y-109593328D01*
X54672313Y-111021900D02*
X54529455Y-111093328D01*
X54529455Y-111093328D02*
X54243741Y-111093328D01*
X54243741Y-111093328D02*
X54100884Y-111021900D01*
X54100884Y-111021900D02*
X54029455Y-110950471D01*
X54029455Y-110950471D02*
X53958027Y-110807614D01*
X53958027Y-110807614D02*
X53958027Y-110379042D01*
X53958027Y-110379042D02*
X54029455Y-110236185D01*
X54029455Y-110236185D02*
X54100884Y-110164757D01*
X54100884Y-110164757D02*
X54243741Y-110093328D01*
X54243741Y-110093328D02*
X54529455Y-110093328D01*
X54529455Y-110093328D02*
X54672313Y-110164757D01*
X56529455Y-110307614D02*
X57029455Y-110307614D01*
X57243741Y-111093328D02*
X56529455Y-111093328D01*
X56529455Y-111093328D02*
X56529455Y-109593328D01*
X56529455Y-109593328D02*
X57243741Y-109593328D01*
X57886598Y-110950471D02*
X57958027Y-111021900D01*
X57958027Y-111021900D02*
X57886598Y-111093328D01*
X57886598Y-111093328D02*
X57815170Y-111021900D01*
X57815170Y-111021900D02*
X57886598Y-110950471D01*
X57886598Y-110950471D02*
X57886598Y-111093328D01*
X58600884Y-111093328D02*
X58600884Y-109593328D01*
X58600884Y-109593328D02*
X58958027Y-109593328D01*
X58958027Y-109593328D02*
X59172313Y-109664757D01*
X59172313Y-109664757D02*
X59315170Y-109807614D01*
X59315170Y-109807614D02*
X59386599Y-109950471D01*
X59386599Y-109950471D02*
X59458027Y-110236185D01*
X59458027Y-110236185D02*
X59458027Y-110450471D01*
X59458027Y-110450471D02*
X59386599Y-110736185D01*
X59386599Y-110736185D02*
X59315170Y-110879042D01*
X59315170Y-110879042D02*
X59172313Y-111021900D01*
X59172313Y-111021900D02*
X58958027Y-111093328D01*
X58958027Y-111093328D02*
X58600884Y-111093328D01*
X60100884Y-110950471D02*
X60172313Y-111021900D01*
X60172313Y-111021900D02*
X60100884Y-111093328D01*
X60100884Y-111093328D02*
X60029456Y-111021900D01*
X60029456Y-111021900D02*
X60100884Y-110950471D01*
X60100884Y-110950471D02*
X60100884Y-111093328D01*
X60743742Y-110664757D02*
X61458028Y-110664757D01*
X60600885Y-111093328D02*
X61100885Y-109593328D01*
X61100885Y-109593328D02*
X61600885Y-111093328D01*
X62100884Y-110950471D02*
X62172313Y-111021900D01*
X62172313Y-111021900D02*
X62100884Y-111093328D01*
X62100884Y-111093328D02*
X62029456Y-111021900D01*
X62029456Y-111021900D02*
X62100884Y-110950471D01*
X62100884Y-110950471D02*
X62100884Y-111093328D01*
X64029456Y-111093328D02*
X64315170Y-111093328D01*
X64315170Y-111093328D02*
X64458027Y-111021900D01*
X64458027Y-111021900D02*
X64529456Y-110950471D01*
X64529456Y-110950471D02*
X64672313Y-110736185D01*
X64672313Y-110736185D02*
X64743742Y-110450471D01*
X64743742Y-110450471D02*
X64743742Y-109879042D01*
X64743742Y-109879042D02*
X64672313Y-109736185D01*
X64672313Y-109736185D02*
X64600885Y-109664757D01*
X64600885Y-109664757D02*
X64458027Y-109593328D01*
X64458027Y-109593328D02*
X64172313Y-109593328D01*
X64172313Y-109593328D02*
X64029456Y-109664757D01*
X64029456Y-109664757D02*
X63958027Y-109736185D01*
X63958027Y-109736185D02*
X63886599Y-109879042D01*
X63886599Y-109879042D02*
X63886599Y-110236185D01*
X63886599Y-110236185D02*
X63958027Y-110379042D01*
X63958027Y-110379042D02*
X64029456Y-110450471D01*
X64029456Y-110450471D02*
X64172313Y-110521900D01*
X64172313Y-110521900D02*
X64458027Y-110521900D01*
X64458027Y-110521900D02*
X64600885Y-110450471D01*
X64600885Y-110450471D02*
X64672313Y-110379042D01*
X64672313Y-110379042D02*
X64743742Y-110236185D01*
X65386598Y-110950471D02*
X65458027Y-111021900D01*
X65458027Y-111021900D02*
X65386598Y-111093328D01*
X65386598Y-111093328D02*
X65315170Y-111021900D01*
X65315170Y-111021900D02*
X65386598Y-110950471D01*
X65386598Y-110950471D02*
X65386598Y-111093328D01*
X66386599Y-109593328D02*
X66529456Y-109593328D01*
X66529456Y-109593328D02*
X66672313Y-109664757D01*
X66672313Y-109664757D02*
X66743742Y-109736185D01*
X66743742Y-109736185D02*
X66815170Y-109879042D01*
X66815170Y-109879042D02*
X66886599Y-110164757D01*
X66886599Y-110164757D02*
X66886599Y-110521900D01*
X66886599Y-110521900D02*
X66815170Y-110807614D01*
X66815170Y-110807614D02*
X66743742Y-110950471D01*
X66743742Y-110950471D02*
X66672313Y-111021900D01*
X66672313Y-111021900D02*
X66529456Y-111093328D01*
X66529456Y-111093328D02*
X66386599Y-111093328D01*
X66386599Y-111093328D02*
X66243742Y-111021900D01*
X66243742Y-111021900D02*
X66172313Y-110950471D01*
X66172313Y-110950471D02*
X66100884Y-110807614D01*
X66100884Y-110807614D02*
X66029456Y-110521900D01*
X66029456Y-110521900D02*
X66029456Y-110164757D01*
X66029456Y-110164757D02*
X66100884Y-109879042D01*
X66100884Y-109879042D02*
X66172313Y-109736185D01*
X66172313Y-109736185D02*
X66243742Y-109664757D01*
X66243742Y-109664757D02*
X66386599Y-109593328D01*
X67529455Y-110950471D02*
X67600884Y-111021900D01*
X67600884Y-111021900D02*
X67529455Y-111093328D01*
X67529455Y-111093328D02*
X67458027Y-111021900D01*
X67458027Y-111021900D02*
X67529455Y-110950471D01*
X67529455Y-110950471D02*
X67529455Y-111093328D01*
X68886599Y-109593328D02*
X68600884Y-109593328D01*
X68600884Y-109593328D02*
X68458027Y-109664757D01*
X68458027Y-109664757D02*
X68386599Y-109736185D01*
X68386599Y-109736185D02*
X68243741Y-109950471D01*
X68243741Y-109950471D02*
X68172313Y-110236185D01*
X68172313Y-110236185D02*
X68172313Y-110807614D01*
X68172313Y-110807614D02*
X68243741Y-110950471D01*
X68243741Y-110950471D02*
X68315170Y-111021900D01*
X68315170Y-111021900D02*
X68458027Y-111093328D01*
X68458027Y-111093328D02*
X68743741Y-111093328D01*
X68743741Y-111093328D02*
X68886599Y-111021900D01*
X68886599Y-111021900D02*
X68958027Y-110950471D01*
X68958027Y-110950471D02*
X69029456Y-110807614D01*
X69029456Y-110807614D02*
X69029456Y-110450471D01*
X69029456Y-110450471D02*
X68958027Y-110307614D01*
X68958027Y-110307614D02*
X68886599Y-110236185D01*
X68886599Y-110236185D02*
X68743741Y-110164757D01*
X68743741Y-110164757D02*
X68458027Y-110164757D01*
X68458027Y-110164757D02*
X68315170Y-110236185D01*
X68315170Y-110236185D02*
X68243741Y-110307614D01*
X68243741Y-110307614D02*
X68172313Y-110450471D01*
D10*
D11*
X47502200Y-106007200D02*
X155502200Y-106007200D01*
D10*
D12*
X134913853Y-108285528D02*
X134413853Y-107571242D01*
X134056710Y-108285528D02*
X134056710Y-106785528D01*
X134056710Y-106785528D02*
X134628139Y-106785528D01*
X134628139Y-106785528D02*
X134770996Y-106856957D01*
X134770996Y-106856957D02*
X134842425Y-106928385D01*
X134842425Y-106928385D02*
X134913853Y-107071242D01*
X134913853Y-107071242D02*
X134913853Y-107285528D01*
X134913853Y-107285528D02*
X134842425Y-107428385D01*
X134842425Y-107428385D02*
X134770996Y-107499814D01*
X134770996Y-107499814D02*
X134628139Y-107571242D01*
X134628139Y-107571242D02*
X134056710Y-107571242D01*
X136128139Y-108214100D02*
X135985282Y-108285528D01*
X135985282Y-108285528D02*
X135699568Y-108285528D01*
X135699568Y-108285528D02*
X135556710Y-108214100D01*
X135556710Y-108214100D02*
X135485282Y-108071242D01*
X135485282Y-108071242D02*
X135485282Y-107499814D01*
X135485282Y-107499814D02*
X135556710Y-107356957D01*
X135556710Y-107356957D02*
X135699568Y-107285528D01*
X135699568Y-107285528D02*
X135985282Y-107285528D01*
X135985282Y-107285528D02*
X136128139Y-107356957D01*
X136128139Y-107356957D02*
X136199568Y-107499814D01*
X136199568Y-107499814D02*
X136199568Y-107642671D01*
X136199568Y-107642671D02*
X135485282Y-107785528D01*
X136699567Y-107285528D02*
X137056710Y-108285528D01*
X137056710Y-108285528D02*
X137413853Y-107285528D01*
X137985281Y-108142671D02*
X138056710Y-108214100D01*
X138056710Y-108214100D02*
X137985281Y-108285528D01*
X137985281Y-108285528D02*
X137913853Y-108214100D01*
X137913853Y-108214100D02*
X137985281Y-108142671D01*
X137985281Y-108142671D02*
X137985281Y-108285528D01*
X137985281Y-107356957D02*
X138056710Y-107428385D01*
X138056710Y-107428385D02*
X137985281Y-107499814D01*
X137985281Y-107499814D02*
X137913853Y-107428385D01*
X137913853Y-107428385D02*
X137985281Y-107356957D01*
X137985281Y-107356957D02*
X137985281Y-107499814D01*
D10*
D11*
X48886598Y-108221900D02*
X49100884Y-108293328D01*
X49100884Y-108293328D02*
X49458026Y-108293328D01*
X49458026Y-108293328D02*
X49600884Y-108221900D01*
X49600884Y-108221900D02*
X49672312Y-108150471D01*
X49672312Y-108150471D02*
X49743741Y-108007614D01*
X49743741Y-108007614D02*
X49743741Y-107864757D01*
X49743741Y-107864757D02*
X49672312Y-107721900D01*
X49672312Y-107721900D02*
X49600884Y-107650471D01*
X49600884Y-107650471D02*
X49458026Y-107579042D01*
X49458026Y-107579042D02*
X49172312Y-107507614D01*
X49172312Y-107507614D02*
X49029455Y-107436185D01*
X49029455Y-107436185D02*
X48958026Y-107364757D01*
X48958026Y-107364757D02*
X48886598Y-107221900D01*
X48886598Y-107221900D02*
X48886598Y-107079042D01*
X48886598Y-107079042D02*
X48958026Y-106936185D01*
X48958026Y-106936185D02*
X49029455Y-106864757D01*
X49029455Y-106864757D02*
X49172312Y-106793328D01*
X49172312Y-106793328D02*
X49529455Y-106793328D01*
X49529455Y-106793328D02*
X49743741Y-106864757D01*
X50386597Y-108293328D02*
X50386597Y-107293328D01*
X50386597Y-106793328D02*
X50315169Y-106864757D01*
X50315169Y-106864757D02*
X50386597Y-106936185D01*
X50386597Y-106936185D02*
X50458026Y-106864757D01*
X50458026Y-106864757D02*
X50386597Y-106793328D01*
X50386597Y-106793328D02*
X50386597Y-106936185D01*
X50958026Y-107293328D02*
X51743741Y-107293328D01*
X51743741Y-107293328D02*
X50958026Y-108293328D01*
X50958026Y-108293328D02*
X51743741Y-108293328D01*
X52886598Y-108221900D02*
X52743741Y-108293328D01*
X52743741Y-108293328D02*
X52458027Y-108293328D01*
X52458027Y-108293328D02*
X52315169Y-108221900D01*
X52315169Y-108221900D02*
X52243741Y-108079042D01*
X52243741Y-108079042D02*
X52243741Y-107507614D01*
X52243741Y-107507614D02*
X52315169Y-107364757D01*
X52315169Y-107364757D02*
X52458027Y-107293328D01*
X52458027Y-107293328D02*
X52743741Y-107293328D01*
X52743741Y-107293328D02*
X52886598Y-107364757D01*
X52886598Y-107364757D02*
X52958027Y-107507614D01*
X52958027Y-107507614D02*
X52958027Y-107650471D01*
X52958027Y-107650471D02*
X52243741Y-107793328D01*
X53600883Y-108150471D02*
X53672312Y-108221900D01*
X53672312Y-108221900D02*
X53600883Y-108293328D01*
X53600883Y-108293328D02*
X53529455Y-108221900D01*
X53529455Y-108221900D02*
X53600883Y-108150471D01*
X53600883Y-108150471D02*
X53600883Y-108293328D01*
X53600883Y-107364757D02*
X53672312Y-107436185D01*
X53672312Y-107436185D02*
X53600883Y-107507614D01*
X53600883Y-107507614D02*
X53529455Y-107436185D01*
X53529455Y-107436185D02*
X53600883Y-107364757D01*
X53600883Y-107364757D02*
X53600883Y-107507614D01*
X55386598Y-107864757D02*
X56100884Y-107864757D01*
X55243741Y-108293328D02*
X55743741Y-106793328D01*
X55743741Y-106793328D02*
X56243741Y-108293328D01*
X57386598Y-107293328D02*
X57386598Y-108293328D01*
X57029455Y-106721900D02*
X56672312Y-107793328D01*
X56672312Y-107793328D02*
X57600883Y-107793328D01*
D10*
D11*
X133958026Y-111093328D02*
X133958026Y-109593328D01*
X135315170Y-111093328D02*
X135315170Y-109593328D01*
X135315170Y-111021900D02*
X135172312Y-111093328D01*
X135172312Y-111093328D02*
X134886598Y-111093328D01*
X134886598Y-111093328D02*
X134743741Y-111021900D01*
X134743741Y-111021900D02*
X134672312Y-110950471D01*
X134672312Y-110950471D02*
X134600884Y-110807614D01*
X134600884Y-110807614D02*
X134600884Y-110379042D01*
X134600884Y-110379042D02*
X134672312Y-110236185D01*
X134672312Y-110236185D02*
X134743741Y-110164757D01*
X134743741Y-110164757D02*
X134886598Y-110093328D01*
X134886598Y-110093328D02*
X135172312Y-110093328D01*
X135172312Y-110093328D02*
X135315170Y-110164757D01*
X136029455Y-110950471D02*
X136100884Y-111021900D01*
X136100884Y-111021900D02*
X136029455Y-111093328D01*
X136029455Y-111093328D02*
X135958027Y-111021900D01*
X135958027Y-111021900D02*
X136029455Y-110950471D01*
X136029455Y-110950471D02*
X136029455Y-111093328D01*
X136029455Y-110164757D02*
X136100884Y-110236185D01*
X136100884Y-110236185D02*
X136029455Y-110307614D01*
X136029455Y-110307614D02*
X135958027Y-110236185D01*
X135958027Y-110236185D02*
X136029455Y-110164757D01*
X136029455Y-110164757D02*
X136029455Y-110307614D01*
X137815170Y-109736185D02*
X137886598Y-109664757D01*
X137886598Y-109664757D02*
X138029456Y-109593328D01*
X138029456Y-109593328D02*
X138386598Y-109593328D01*
X138386598Y-109593328D02*
X138529456Y-109664757D01*
X138529456Y-109664757D02*
X138600884Y-109736185D01*
X138600884Y-109736185D02*
X138672313Y-109879042D01*
X138672313Y-109879042D02*
X138672313Y-110021900D01*
X138672313Y-110021900D02*
X138600884Y-110236185D01*
X138600884Y-110236185D02*
X137743741Y-111093328D01*
X137743741Y-111093328D02*
X138672313Y-111093328D01*
X140386598Y-109521900D02*
X139100884Y-111450471D01*
X141672313Y-111093328D02*
X140815170Y-111093328D01*
X141243741Y-111093328D02*
X141243741Y-109593328D01*
X141243741Y-109593328D02*
X141100884Y-109807614D01*
X141100884Y-109807614D02*
X140958027Y-109950471D01*
X140958027Y-109950471D02*
X140815170Y-110021900D01*
X143100884Y-111093328D02*
X142243741Y-111093328D01*
X142672312Y-111093328D02*
X142672312Y-109593328D01*
X142672312Y-109593328D02*
X142529455Y-109807614D01*
X142529455Y-109807614D02*
X142386598Y-109950471D01*
X142386598Y-109950471D02*
X142243741Y-110021900D01*
D10*
D11*
X47502200Y-102007200D02*
X155502200Y-102007200D01*
D10*
D13*
X49193928Y-102711638D02*
X50336785Y-102711638D01*
X49515357Y-104711638D02*
X49765357Y-102711638D01*
X50753452Y-104711638D02*
X50920119Y-103378304D01*
X51003452Y-102711638D02*
X50896309Y-102806876D01*
X50896309Y-102806876D02*
X50979643Y-102902114D01*
X50979643Y-102902114D02*
X51086786Y-102806876D01*
X51086786Y-102806876D02*
X51003452Y-102711638D01*
X51003452Y-102711638D02*
X50979643Y-102902114D01*
X51586786Y-103378304D02*
X52348690Y-103378304D01*
X51955833Y-102711638D02*
X51741548Y-104425923D01*
X51741548Y-104425923D02*
X51812976Y-104616400D01*
X51812976Y-104616400D02*
X51991548Y-104711638D01*
X51991548Y-104711638D02*
X52182024Y-104711638D01*
X53134405Y-104711638D02*
X52955833Y-104616400D01*
X52955833Y-104616400D02*
X52884405Y-104425923D01*
X52884405Y-104425923D02*
X53098690Y-102711638D01*
X54670119Y-104616400D02*
X54467738Y-104711638D01*
X54467738Y-104711638D02*
X54086785Y-104711638D01*
X54086785Y-104711638D02*
X53908214Y-104616400D01*
X53908214Y-104616400D02*
X53836785Y-104425923D01*
X53836785Y-104425923D02*
X53932024Y-103664019D01*
X53932024Y-103664019D02*
X54051071Y-103473542D01*
X54051071Y-103473542D02*
X54253452Y-103378304D01*
X54253452Y-103378304D02*
X54634404Y-103378304D01*
X54634404Y-103378304D02*
X54812976Y-103473542D01*
X54812976Y-103473542D02*
X54884404Y-103664019D01*
X54884404Y-103664019D02*
X54860595Y-103854495D01*
X54860595Y-103854495D02*
X53884404Y-104044971D01*
X55634405Y-104521161D02*
X55717738Y-104616400D01*
X55717738Y-104616400D02*
X55610595Y-104711638D01*
X55610595Y-104711638D02*
X55527262Y-104616400D01*
X55527262Y-104616400D02*
X55634405Y-104521161D01*
X55634405Y-104521161D02*
X55610595Y-104711638D01*
X55765357Y-103473542D02*
X55848690Y-103568780D01*
X55848690Y-103568780D02*
X55741548Y-103664019D01*
X55741548Y-103664019D02*
X55658214Y-103568780D01*
X55658214Y-103568780D02*
X55765357Y-103473542D01*
X55765357Y-103473542D02*
X55741548Y-103664019D01*
D10*
D11*
X49458026Y-100107614D02*
X48958026Y-100107614D01*
X48958026Y-100893328D02*
X48958026Y-99393328D01*
X48958026Y-99393328D02*
X49672312Y-99393328D01*
X50243740Y-100893328D02*
X50243740Y-99893328D01*
X50243740Y-99393328D02*
X50172312Y-99464757D01*
X50172312Y-99464757D02*
X50243740Y-99536185D01*
X50243740Y-99536185D02*
X50315169Y-99464757D01*
X50315169Y-99464757D02*
X50243740Y-99393328D01*
X50243740Y-99393328D02*
X50243740Y-99536185D01*
X51172312Y-100893328D02*
X51029455Y-100821900D01*
X51029455Y-100821900D02*
X50958026Y-100679042D01*
X50958026Y-100679042D02*
X50958026Y-99393328D01*
X52315169Y-100821900D02*
X52172312Y-100893328D01*
X52172312Y-100893328D02*
X51886598Y-100893328D01*
X51886598Y-100893328D02*
X51743740Y-100821900D01*
X51743740Y-100821900D02*
X51672312Y-100679042D01*
X51672312Y-100679042D02*
X51672312Y-100107614D01*
X51672312Y-100107614D02*
X51743740Y-99964757D01*
X51743740Y-99964757D02*
X51886598Y-99893328D01*
X51886598Y-99893328D02*
X52172312Y-99893328D01*
X52172312Y-99893328D02*
X52315169Y-99964757D01*
X52315169Y-99964757D02*
X52386598Y-100107614D01*
X52386598Y-100107614D02*
X52386598Y-100250471D01*
X52386598Y-100250471D02*
X51672312Y-100393328D01*
X53029454Y-100750471D02*
X53100883Y-100821900D01*
X53100883Y-100821900D02*
X53029454Y-100893328D01*
X53029454Y-100893328D02*
X52958026Y-100821900D01*
X52958026Y-100821900D02*
X53029454Y-100750471D01*
X53029454Y-100750471D02*
X53029454Y-100893328D01*
X53029454Y-99964757D02*
X53100883Y-100036185D01*
X53100883Y-100036185D02*
X53029454Y-100107614D01*
X53029454Y-100107614D02*
X52958026Y-100036185D01*
X52958026Y-100036185D02*
X53029454Y-99964757D01*
X53029454Y-99964757D02*
X53029454Y-100107614D01*
X54886597Y-100893328D02*
X54886597Y-99393328D01*
X54886597Y-100107614D02*
X55743740Y-100107614D01*
X55743740Y-100893328D02*
X55743740Y-99393328D01*
X57100884Y-100893328D02*
X57100884Y-100107614D01*
X57100884Y-100107614D02*
X57029455Y-99964757D01*
X57029455Y-99964757D02*
X56886598Y-99893328D01*
X56886598Y-99893328D02*
X56600884Y-99893328D01*
X56600884Y-99893328D02*
X56458026Y-99964757D01*
X57100884Y-100821900D02*
X56958026Y-100893328D01*
X56958026Y-100893328D02*
X56600884Y-100893328D01*
X56600884Y-100893328D02*
X56458026Y-100821900D01*
X56458026Y-100821900D02*
X56386598Y-100679042D01*
X56386598Y-100679042D02*
X56386598Y-100536185D01*
X56386598Y-100536185D02*
X56458026Y-100393328D01*
X56458026Y-100393328D02*
X56600884Y-100321900D01*
X56600884Y-100321900D02*
X56958026Y-100321900D01*
X56958026Y-100321900D02*
X57100884Y-100250471D01*
X57815169Y-100893328D02*
X57815169Y-99893328D01*
X57815169Y-100179042D02*
X57886598Y-100036185D01*
X57886598Y-100036185D02*
X57958027Y-99964757D01*
X57958027Y-99964757D02*
X58100884Y-99893328D01*
X58100884Y-99893328D02*
X58243741Y-99893328D01*
X59386598Y-100893328D02*
X59386598Y-99393328D01*
X59386598Y-100821900D02*
X59243740Y-100893328D01*
X59243740Y-100893328D02*
X58958026Y-100893328D01*
X58958026Y-100893328D02*
X58815169Y-100821900D01*
X58815169Y-100821900D02*
X58743740Y-100750471D01*
X58743740Y-100750471D02*
X58672312Y-100607614D01*
X58672312Y-100607614D02*
X58672312Y-100179042D01*
X58672312Y-100179042D02*
X58743740Y-100036185D01*
X58743740Y-100036185D02*
X58815169Y-99964757D01*
X58815169Y-99964757D02*
X58958026Y-99893328D01*
X58958026Y-99893328D02*
X59243740Y-99893328D01*
X59243740Y-99893328D02*
X59386598Y-99964757D01*
X59958026Y-99893328D02*
X60243741Y-100893328D01*
X60243741Y-100893328D02*
X60529455Y-100179042D01*
X60529455Y-100179042D02*
X60815169Y-100893328D01*
X60815169Y-100893328D02*
X61100883Y-99893328D01*
X62315170Y-100893328D02*
X62315170Y-100107614D01*
X62315170Y-100107614D02*
X62243741Y-99964757D01*
X62243741Y-99964757D02*
X62100884Y-99893328D01*
X62100884Y-99893328D02*
X61815170Y-99893328D01*
X61815170Y-99893328D02*
X61672312Y-99964757D01*
X62315170Y-100821900D02*
X62172312Y-100893328D01*
X62172312Y-100893328D02*
X61815170Y-100893328D01*
X61815170Y-100893328D02*
X61672312Y-100821900D01*
X61672312Y-100821900D02*
X61600884Y-100679042D01*
X61600884Y-100679042D02*
X61600884Y-100536185D01*
X61600884Y-100536185D02*
X61672312Y-100393328D01*
X61672312Y-100393328D02*
X61815170Y-100321900D01*
X61815170Y-100321900D02*
X62172312Y-100321900D01*
X62172312Y-100321900D02*
X62315170Y-100250471D01*
X63029455Y-100893328D02*
X63029455Y-99893328D01*
X63029455Y-100179042D02*
X63100884Y-100036185D01*
X63100884Y-100036185D02*
X63172313Y-99964757D01*
X63172313Y-99964757D02*
X63315170Y-99893328D01*
X63315170Y-99893328D02*
X63458027Y-99893328D01*
X64529455Y-100821900D02*
X64386598Y-100893328D01*
X64386598Y-100893328D02*
X64100884Y-100893328D01*
X64100884Y-100893328D02*
X63958026Y-100821900D01*
X63958026Y-100821900D02*
X63886598Y-100679042D01*
X63886598Y-100679042D02*
X63886598Y-100107614D01*
X63886598Y-100107614D02*
X63958026Y-99964757D01*
X63958026Y-99964757D02*
X64100884Y-99893328D01*
X64100884Y-99893328D02*
X64386598Y-99893328D01*
X64386598Y-99893328D02*
X64529455Y-99964757D01*
X64529455Y-99964757D02*
X64600884Y-100107614D01*
X64600884Y-100107614D02*
X64600884Y-100250471D01*
X64600884Y-100250471D02*
X63886598Y-100393328D01*
X65243740Y-100750471D02*
X65315169Y-100821900D01*
X65315169Y-100821900D02*
X65243740Y-100893328D01*
X65243740Y-100893328D02*
X65172312Y-100821900D01*
X65172312Y-100821900D02*
X65243740Y-100750471D01*
X65243740Y-100750471D02*
X65243740Y-100893328D01*
X65958026Y-100893328D02*
X65958026Y-99393328D01*
X66100884Y-100321900D02*
X66529455Y-100893328D01*
X66529455Y-99893328D02*
X65958026Y-100464757D01*
X67172312Y-100893328D02*
X67172312Y-99893328D01*
X67172312Y-99393328D02*
X67100884Y-99464757D01*
X67100884Y-99464757D02*
X67172312Y-99536185D01*
X67172312Y-99536185D02*
X67243741Y-99464757D01*
X67243741Y-99464757D02*
X67172312Y-99393328D01*
X67172312Y-99393328D02*
X67172312Y-99536185D01*
X68529456Y-100821900D02*
X68386598Y-100893328D01*
X68386598Y-100893328D02*
X68100884Y-100893328D01*
X68100884Y-100893328D02*
X67958027Y-100821900D01*
X67958027Y-100821900D02*
X67886598Y-100750471D01*
X67886598Y-100750471D02*
X67815170Y-100607614D01*
X67815170Y-100607614D02*
X67815170Y-100179042D01*
X67815170Y-100179042D02*
X67886598Y-100036185D01*
X67886598Y-100036185D02*
X67958027Y-99964757D01*
X67958027Y-99964757D02*
X68100884Y-99893328D01*
X68100884Y-99893328D02*
X68386598Y-99893328D01*
X68386598Y-99893328D02*
X68529456Y-99964757D01*
X69815170Y-100893328D02*
X69815170Y-100107614D01*
X69815170Y-100107614D02*
X69743741Y-99964757D01*
X69743741Y-99964757D02*
X69600884Y-99893328D01*
X69600884Y-99893328D02*
X69315170Y-99893328D01*
X69315170Y-99893328D02*
X69172312Y-99964757D01*
X69815170Y-100821900D02*
X69672312Y-100893328D01*
X69672312Y-100893328D02*
X69315170Y-100893328D01*
X69315170Y-100893328D02*
X69172312Y-100821900D01*
X69172312Y-100821900D02*
X69100884Y-100679042D01*
X69100884Y-100679042D02*
X69100884Y-100536185D01*
X69100884Y-100536185D02*
X69172312Y-100393328D01*
X69172312Y-100393328D02*
X69315170Y-100321900D01*
X69315170Y-100321900D02*
X69672312Y-100321900D01*
X69672312Y-100321900D02*
X69815170Y-100250471D01*
X71172313Y-100893328D02*
X71172313Y-99393328D01*
X71172313Y-100821900D02*
X71029455Y-100893328D01*
X71029455Y-100893328D02*
X70743741Y-100893328D01*
X70743741Y-100893328D02*
X70600884Y-100821900D01*
X70600884Y-100821900D02*
X70529455Y-100750471D01*
X70529455Y-100750471D02*
X70458027Y-100607614D01*
X70458027Y-100607614D02*
X70458027Y-100179042D01*
X70458027Y-100179042D02*
X70529455Y-100036185D01*
X70529455Y-100036185D02*
X70600884Y-99964757D01*
X70600884Y-99964757D02*
X70743741Y-99893328D01*
X70743741Y-99893328D02*
X71029455Y-99893328D01*
X71029455Y-99893328D02*
X71172313Y-99964757D01*
X71529456Y-101036185D02*
X72672313Y-101036185D01*
X73029455Y-99893328D02*
X73029455Y-101393328D01*
X73029455Y-99964757D02*
X73172313Y-99893328D01*
X73172313Y-99893328D02*
X73458027Y-99893328D01*
X73458027Y-99893328D02*
X73600884Y-99964757D01*
X73600884Y-99964757D02*
X73672313Y-100036185D01*
X73672313Y-100036185D02*
X73743741Y-100179042D01*
X73743741Y-100179042D02*
X73743741Y-100607614D01*
X73743741Y-100607614D02*
X73672313Y-100750471D01*
X73672313Y-100750471D02*
X73600884Y-100821900D01*
X73600884Y-100821900D02*
X73458027Y-100893328D01*
X73458027Y-100893328D02*
X73172313Y-100893328D01*
X73172313Y-100893328D02*
X73029455Y-100821900D01*
X75029456Y-100821900D02*
X74886598Y-100893328D01*
X74886598Y-100893328D02*
X74600884Y-100893328D01*
X74600884Y-100893328D02*
X74458027Y-100821900D01*
X74458027Y-100821900D02*
X74386598Y-100750471D01*
X74386598Y-100750471D02*
X74315170Y-100607614D01*
X74315170Y-100607614D02*
X74315170Y-100179042D01*
X74315170Y-100179042D02*
X74386598Y-100036185D01*
X74386598Y-100036185D02*
X74458027Y-99964757D01*
X74458027Y-99964757D02*
X74600884Y-99893328D01*
X74600884Y-99893328D02*
X74886598Y-99893328D01*
X74886598Y-99893328D02*
X75029456Y-99964757D01*
X75672312Y-100893328D02*
X75672312Y-99393328D01*
X75672312Y-99964757D02*
X75815170Y-99893328D01*
X75815170Y-99893328D02*
X76100884Y-99893328D01*
X76100884Y-99893328D02*
X76243741Y-99964757D01*
X76243741Y-99964757D02*
X76315170Y-100036185D01*
X76315170Y-100036185D02*
X76386598Y-100179042D01*
X76386598Y-100179042D02*
X76386598Y-100607614D01*
X76386598Y-100607614D02*
X76315170Y-100750471D01*
X76315170Y-100750471D02*
X76243741Y-100821900D01*
X76243741Y-100821900D02*
X76100884Y-100893328D01*
X76100884Y-100893328D02*
X75815170Y-100893328D01*
X75815170Y-100893328D02*
X75672312Y-100821900D01*
D10*
D11*
X47502200Y-96007200D02*
X155502200Y-96007200D01*
D10*
D11*
X48886598Y-98121900D02*
X49100884Y-98193328D01*
X49100884Y-98193328D02*
X49458026Y-98193328D01*
X49458026Y-98193328D02*
X49600884Y-98121900D01*
X49600884Y-98121900D02*
X49672312Y-98050471D01*
X49672312Y-98050471D02*
X49743741Y-97907614D01*
X49743741Y-97907614D02*
X49743741Y-97764757D01*
X49743741Y-97764757D02*
X49672312Y-97621900D01*
X49672312Y-97621900D02*
X49600884Y-97550471D01*
X49600884Y-97550471D02*
X49458026Y-97479042D01*
X49458026Y-97479042D02*
X49172312Y-97407614D01*
X49172312Y-97407614D02*
X49029455Y-97336185D01*
X49029455Y-97336185D02*
X48958026Y-97264757D01*
X48958026Y-97264757D02*
X48886598Y-97121900D01*
X48886598Y-97121900D02*
X48886598Y-96979042D01*
X48886598Y-96979042D02*
X48958026Y-96836185D01*
X48958026Y-96836185D02*
X49029455Y-96764757D01*
X49029455Y-96764757D02*
X49172312Y-96693328D01*
X49172312Y-96693328D02*
X49529455Y-96693328D01*
X49529455Y-96693328D02*
X49743741Y-96764757D01*
X50386597Y-98193328D02*
X50386597Y-96693328D01*
X51029455Y-98193328D02*
X51029455Y-97407614D01*
X51029455Y-97407614D02*
X50958026Y-97264757D01*
X50958026Y-97264757D02*
X50815169Y-97193328D01*
X50815169Y-97193328D02*
X50600883Y-97193328D01*
X50600883Y-97193328D02*
X50458026Y-97264757D01*
X50458026Y-97264757D02*
X50386597Y-97336185D01*
X52315169Y-98121900D02*
X52172312Y-98193328D01*
X52172312Y-98193328D02*
X51886598Y-98193328D01*
X51886598Y-98193328D02*
X51743740Y-98121900D01*
X51743740Y-98121900D02*
X51672312Y-97979042D01*
X51672312Y-97979042D02*
X51672312Y-97407614D01*
X51672312Y-97407614D02*
X51743740Y-97264757D01*
X51743740Y-97264757D02*
X51886598Y-97193328D01*
X51886598Y-97193328D02*
X52172312Y-97193328D01*
X52172312Y-97193328D02*
X52315169Y-97264757D01*
X52315169Y-97264757D02*
X52386598Y-97407614D01*
X52386598Y-97407614D02*
X52386598Y-97550471D01*
X52386598Y-97550471D02*
X51672312Y-97693328D01*
X53600883Y-98121900D02*
X53458026Y-98193328D01*
X53458026Y-98193328D02*
X53172312Y-98193328D01*
X53172312Y-98193328D02*
X53029454Y-98121900D01*
X53029454Y-98121900D02*
X52958026Y-97979042D01*
X52958026Y-97979042D02*
X52958026Y-97407614D01*
X52958026Y-97407614D02*
X53029454Y-97264757D01*
X53029454Y-97264757D02*
X53172312Y-97193328D01*
X53172312Y-97193328D02*
X53458026Y-97193328D01*
X53458026Y-97193328D02*
X53600883Y-97264757D01*
X53600883Y-97264757D02*
X53672312Y-97407614D01*
X53672312Y-97407614D02*
X53672312Y-97550471D01*
X53672312Y-97550471D02*
X52958026Y-97693328D01*
X54100883Y-97193328D02*
X54672311Y-97193328D01*
X54315168Y-96693328D02*
X54315168Y-97979042D01*
X54315168Y-97979042D02*
X54386597Y-98121900D01*
X54386597Y-98121900D02*
X54529454Y-98193328D01*
X54529454Y-98193328D02*
X54672311Y-98193328D01*
X55172311Y-98050471D02*
X55243740Y-98121900D01*
X55243740Y-98121900D02*
X55172311Y-98193328D01*
X55172311Y-98193328D02*
X55100883Y-98121900D01*
X55100883Y-98121900D02*
X55172311Y-98050471D01*
X55172311Y-98050471D02*
X55172311Y-98193328D01*
X55172311Y-97264757D02*
X55243740Y-97336185D01*
X55243740Y-97336185D02*
X55172311Y-97407614D01*
X55172311Y-97407614D02*
X55100883Y-97336185D01*
X55100883Y-97336185D02*
X55172311Y-97264757D01*
X55172311Y-97264757D02*
X55172311Y-97407614D01*
D10*
D11*
X67502200Y-106007200D02*
X67502200Y-109007200D01*
D10*
D11*
X131502200Y-106007200D02*
X131502200Y-112507200D01*
D14*
%TO.N,+3V3*%
%TO.C,BZ1*%
X52500000Y7000000D03*
D15*
%TO.N,Net-(BZ1--)*%
X44900000Y7000000D03*
%TD*%
D16*
%TO.N,GND*%
%TO.C,J3*%
X6425000Y18920000D03*
D17*
X2245000Y18920000D03*
D16*
X6425000Y10280000D03*
D17*
X2245000Y10280000D03*
%TD*%
D18*
%TO.N,+3V3*%
%TO.C,J4*%
X35500000Y1500000D03*
D19*
%TO.N,GND*%
X34500000Y1500000D03*
%TO.N,unconnected-(J4-Pin_3-Pad3)*%
X33500000Y1500000D03*
%TO.N,/MQ2_sensor*%
X32500000Y1500000D03*
%TD*%
D18*
%TO.N,+3V3*%
%TO.C,J1*%
X5000000Y4000000D03*
D19*
%TO.N,/SWDCLK*%
X5000000Y5000000D03*
%TO.N,GND*%
X5000000Y6000000D03*
%TO.N,/SWDIO*%
X5000000Y7000000D03*
%TD*%
D20*
%TO.N,Net-(D4-K)*%
%TO.C,D4*%
X47000000Y26500000D03*
D21*
%TO.N,/HOT_YELLOW*%
X44460000Y26500000D03*
%TD*%
D20*
%TO.N,Net-(D3-K)*%
%TO.C,D3*%
X40500000Y26500000D03*
D21*
%TO.N,/ORANGE_GOOD*%
X37960000Y26500000D03*
%TD*%
D20*
%TO.N,Net-(D2-K)*%
%TO.C,D2*%
X34500000Y26500000D03*
D21*
%TO.N,/COLD_BLUE*%
X31960000Y26500000D03*
%TD*%
D22*
%TO.N,+3V3*%
X19000000Y14000000D03*
X4000000Y4000000D03*
X36000000Y3000000D03*
X24500000Y2500000D03*
X27500000Y2500000D03*
X31000000Y1500000D03*
X29500000Y6500000D03*
X20500000Y9000000D03*
X30500000Y6500000D03*
X31000000Y18000000D03*
X24390246Y23609754D03*
X54500000Y11500000D03*
X32000000Y14000000D03*
X20500000Y23500000D03*
X28500000Y4000000D03*
%TO.N,/RESET*%
X26000000Y8500000D03*
X21000000Y3000000D03*
X26000000Y8500000D03*
%TO.N,GND*%
X11500000Y21500000D03*
X21000000Y20500000D03*
X39500000Y19500000D03*
X27500000Y6000000D03*
X27500000Y11500000D03*
X22500000Y16500000D03*
X18500000Y8000000D03*
X32000000Y15000000D03*
X46500000Y13500000D03*
X32500000Y7500000D03*
X47000000Y18500000D03*
X22500000Y11500000D03*
X29500000Y4500000D03*
X37000000Y14000000D03*
X8000000Y19000000D03*
X8500000Y10500000D03*
X24500000Y16500000D03*
X39000000Y5000000D03*
X33000000Y17000000D03*
X23000000Y2000000D03*
X24500000Y12500000D03*
X29000000Y20500000D03*
X18500000Y27000000D03*
X22500000Y6000000D03*
X41500000Y17500000D03*
X32500000Y8500000D03*
X24500000Y15500000D03*
X33000000Y11000000D03*
X18000000Y14500000D03*
X11500000Y15500000D03*
X33000000Y12000000D03*
X45500000Y13500000D03*
X11500000Y22500000D03*
X48000000Y18500000D03*
X28000000Y14000000D03*
X23000000Y26500000D03*
X42000000Y14500000D03*
X35000000Y19000000D03*
X10500000Y4000000D03*
X3500000Y6000000D03*
X45500000Y18500000D03*
X31000000Y21500000D03*
X19500000Y27000000D03*
X10500000Y17000000D03*
X23000000Y5000000D03*
X30000000Y21500000D03*
X22500000Y14000000D03*
X9500000Y2500000D03*
X33000000Y19500000D03*
X27500000Y16500000D03*
X18000000Y10000000D03*
X34500000Y3000000D03*
X35500000Y21000000D03*
X27500000Y1500000D03*
X24500000Y11500000D03*
X21500000Y21500000D03*
X10500000Y13500000D03*
X42000000Y20500000D03*
X33500000Y14000000D03*
X17000000Y22000000D03*
X47500000Y13500000D03*
%TO.N,/COLD_BLUE*%
X29500000Y27500000D03*
X22053532Y19000000D03*
%TO.N,/ORANGE_GOOD*%
X22969668Y19530332D03*
X36000000Y25000000D03*
%TO.N,/HOT_YELLOW*%
X42500000Y24500000D03*
X23500000Y19000000D03*
%TO.N,/PH3_BOOT*%
X23620000Y8500000D03*
X23620000Y8500000D03*
X23620000Y8500000D03*
X20000000Y6000000D03*
X20000000Y6000000D03*
%TD*%
%TA.AperFunction,Conductor*%
%TO.N,GND*%
G36*
X34286049Y2066807D02*
G01*
X34294213Y2059340D01*
X34499999Y1853555D01*
X34562818Y1916373D01*
X34624141Y1949858D01*
X34693833Y1944874D01*
X34749767Y1903003D01*
X34774184Y1837539D01*
X34774500Y1828692D01*
X34774500Y1171310D01*
X34754815Y1104271D01*
X34702011Y1058516D01*
X34632853Y1048572D01*
X34569297Y1077597D01*
X34562819Y1083629D01*
X34500001Y1146447D01*
X34294215Y940663D01*
X34232892Y907179D01*
X34163200Y912163D01*
X34107267Y954035D01*
X34082850Y1019499D01*
X34097702Y1087772D01*
X34103422Y1097222D01*
X34142929Y1156347D01*
X34197619Y1288380D01*
X34225500Y1428545D01*
X34225500Y1549728D01*
X34250000Y1549728D01*
X34250000Y1450272D01*
X34288060Y1358386D01*
X34358386Y1288060D01*
X34450272Y1250000D01*
X34549728Y1250000D01*
X34641614Y1288060D01*
X34711940Y1358386D01*
X34750000Y1450272D01*
X34750000Y1549728D01*
X34711940Y1641614D01*
X34641614Y1711940D01*
X34549728Y1750000D01*
X34450272Y1750000D01*
X34358386Y1711940D01*
X34288060Y1641614D01*
X34250000Y1549728D01*
X34225500Y1549728D01*
X34225500Y1571455D01*
X34225500Y1571458D01*
X34197620Y1711615D01*
X34197619Y1711619D01*
X34197619Y1711620D01*
X34142929Y1843653D01*
X34142928Y1843654D01*
X34142925Y1843660D01*
X34103430Y1902768D01*
X34082552Y1969445D01*
X34101036Y2036826D01*
X34153015Y2083516D01*
X34221985Y2094692D01*
X34286049Y2066807D01*
G37*
%TD.AperFunction*%
%TA.AperFunction,Conductor*%
G36*
X5536821Y6398962D02*
G01*
X5583511Y6346984D01*
X5594688Y6278014D01*
X5566803Y6213950D01*
X5559337Y6205785D01*
X5353553Y6000000D01*
X5353553Y5999999D01*
X5559336Y5794216D01*
X5592821Y5732893D01*
X5587837Y5663201D01*
X5545965Y5607268D01*
X5480501Y5582851D01*
X5412228Y5597703D01*
X5402764Y5603433D01*
X5343659Y5642926D01*
X5343650Y5642931D01*
X5211620Y5697619D01*
X5211614Y5697621D01*
X5071457Y5725500D01*
X5071455Y5725500D01*
X4928545Y5725500D01*
X4928543Y5725500D01*
X4788385Y5697621D01*
X4788379Y5697619D01*
X4656349Y5642931D01*
X4656342Y5642927D01*
X4597229Y5603429D01*
X4530551Y5582552D01*
X4463171Y5601037D01*
X4416481Y5653017D01*
X4405306Y5721987D01*
X4433192Y5786050D01*
X4440658Y5794214D01*
X4646446Y6000001D01*
X4596719Y6049728D01*
X4750000Y6049728D01*
X4750000Y5950272D01*
X4788060Y5858386D01*
X4858386Y5788060D01*
X4950272Y5750000D01*
X5049728Y5750000D01*
X5141614Y5788060D01*
X5211940Y5858386D01*
X5250000Y5950272D01*
X5250000Y6049728D01*
X5211940Y6141614D01*
X5141614Y6211940D01*
X5049728Y6250000D01*
X4950272Y6250000D01*
X4858386Y6211940D01*
X4788060Y6141614D01*
X4750000Y6049728D01*
X4596719Y6049728D01*
X4440660Y6205787D01*
X4407175Y6267110D01*
X4412159Y6336802D01*
X4454031Y6392735D01*
X4519495Y6417152D01*
X4587768Y6402300D01*
X4597232Y6396570D01*
X4656340Y6357075D01*
X4656346Y6357072D01*
X4656347Y6357071D01*
X4788380Y6302381D01*
X4788384Y6302381D01*
X4788385Y6302380D01*
X4928542Y6274500D01*
X4928545Y6274500D01*
X5071457Y6274500D01*
X5165751Y6293258D01*
X5211620Y6302381D01*
X5343653Y6357071D01*
X5402765Y6396569D01*
X5469440Y6417446D01*
X5536821Y6398962D01*
G37*
%TD.AperFunction*%
%TA.AperFunction,Conductor*%
G36*
X55142539Y28679815D02*
G01*
X55188294Y28627011D01*
X55199500Y28575500D01*
X55199500Y11948628D01*
X55179815Y11881589D01*
X55127011Y11835834D01*
X55057853Y11825890D01*
X54994297Y11854915D01*
X54986493Y11863196D01*
X54986267Y11862969D01*
X54868717Y11980519D01*
X54868709Y11980525D01*
X54731790Y12059574D01*
X54731786Y12059576D01*
X54731784Y12059577D01*
X54579057Y12100500D01*
X54420943Y12100500D01*
X54268216Y12059577D01*
X54268209Y12059574D01*
X54131290Y11980525D01*
X54131282Y11980519D01*
X54019481Y11868718D01*
X54019475Y11868710D01*
X53940426Y11731791D01*
X53940423Y11731784D01*
X53899500Y11579057D01*
X53899500Y11420943D01*
X53939766Y11270670D01*
X53940423Y11268217D01*
X53940426Y11268210D01*
X54019475Y11131291D01*
X54019479Y11131286D01*
X54019480Y11131284D01*
X54131284Y11019480D01*
X54131286Y11019479D01*
X54131290Y11019476D01*
X54268209Y10940427D01*
X54268216Y10940423D01*
X54420943Y10899500D01*
X54420945Y10899500D01*
X54579055Y10899500D01*
X54579057Y10899500D01*
X54731784Y10940423D01*
X54868716Y11019480D01*
X54980520Y11131284D01*
X54980520Y11131285D01*
X54986267Y11137031D01*
X54988288Y11135010D01*
X55033541Y11168058D01*
X55103287Y11172220D01*
X55164210Y11138013D01*
X55196969Y11076299D01*
X55199500Y11051373D01*
X55199500Y424500D01*
X55179815Y357461D01*
X55127011Y311706D01*
X55075500Y300500D01*
X424500Y300500D01*
X357461Y320185D01*
X311706Y372989D01*
X300500Y424500D01*
X300500Y1579057D01*
X30399500Y1579057D01*
X30399500Y1420943D01*
X30440423Y1268218D01*
X30440423Y1268217D01*
X30440426Y1268210D01*
X30519475Y1131291D01*
X30519479Y1131286D01*
X30519480Y1131284D01*
X30631284Y1019480D01*
X30631286Y1019479D01*
X30631290Y1019476D01*
X30710077Y973989D01*
X30768216Y940423D01*
X30920943Y899500D01*
X30920945Y899500D01*
X31079055Y899500D01*
X31079057Y899500D01*
X31231784Y940423D01*
X31368716Y1019480D01*
X31480520Y1131284D01*
X31559577Y1268216D01*
X31563939Y1284499D01*
X31600303Y1344158D01*
X31663149Y1374688D01*
X31732525Y1366394D01*
X31786403Y1321910D01*
X31799759Y1293888D01*
X31800050Y1294008D01*
X31802353Y1288447D01*
X31802372Y1288408D01*
X31802378Y1288387D01*
X31857069Y1156350D01*
X31857074Y1156341D01*
X31936467Y1037522D01*
X31936470Y1037518D01*
X32037517Y936471D01*
X32037521Y936468D01*
X32156340Y857075D01*
X32156349Y857070D01*
X32186258Y844682D01*
X32288380Y802381D01*
X32288384Y802381D01*
X32288385Y802380D01*
X32428542Y774500D01*
X32428545Y774500D01*
X32571457Y774500D01*
X32665751Y793258D01*
X32711620Y802381D01*
X32843653Y857071D01*
X32843660Y857076D01*
X32931109Y915507D01*
X32997786Y936385D01*
X33065167Y917901D01*
X33068891Y915507D01*
X33156340Y857075D01*
X33156349Y857070D01*
X33186258Y844682D01*
X33288380Y802381D01*
X33288384Y802381D01*
X33288385Y802380D01*
X33428542Y774500D01*
X33428545Y774500D01*
X33571457Y774500D01*
X33665751Y793258D01*
X33711620Y802381D01*
X33843653Y857071D01*
X33902761Y896567D01*
X33969438Y917445D01*
X34036818Y898961D01*
X34083509Y846983D01*
X34094687Y778013D01*
X34066802Y713949D01*
X34059335Y705785D01*
X34045050Y691501D01*
X34045050Y691500D01*
X34061849Y680275D01*
X34061855Y680272D01*
X34230182Y610549D01*
X34230194Y610546D01*
X34408890Y575001D01*
X34408894Y575000D01*
X34591106Y575000D01*
X34591109Y575001D01*
X34769805Y610546D01*
X34769813Y610548D01*
X34938151Y680276D01*
X34938154Y680277D01*
X34967008Y699559D01*
X34978265Y727439D01*
X35035298Y767800D01*
X35075504Y774501D01*
X35969864Y774501D01*
X35969879Y774503D01*
X35969882Y774503D01*
X35994987Y777414D01*
X35994988Y777415D01*
X35994991Y777415D01*
X36097765Y822794D01*
X36177206Y902235D01*
X36222585Y1005009D01*
X36225500Y1030135D01*
X36225499Y1969864D01*
X36225497Y1969883D01*
X36222586Y1994988D01*
X36222585Y1994990D01*
X36222585Y1994991D01*
X36177206Y2097765D01*
X36097765Y2177206D01*
X36088286Y2183699D01*
X36089208Y2185046D01*
X36045909Y2221623D01*
X36025384Y2288410D01*
X36044225Y2355692D01*
X36096450Y2402106D01*
X36117271Y2409740D01*
X36231784Y2440423D01*
X36368716Y2519480D01*
X36480520Y2631284D01*
X36559577Y2768216D01*
X36600500Y2920943D01*
X36600500Y3079057D01*
X36559577Y3231784D01*
X36534915Y3274501D01*
X36480524Y3368710D01*
X36480518Y3368718D01*
X36368717Y3480519D01*
X36368709Y3480525D01*
X36231790Y3559574D01*
X36231786Y3559576D01*
X36231784Y3559577D01*
X36079057Y3600500D01*
X35920943Y3600500D01*
X35768216Y3559577D01*
X35768209Y3559574D01*
X35631290Y3480525D01*
X35631282Y3480519D01*
X35519481Y3368718D01*
X35519475Y3368710D01*
X35440426Y3231791D01*
X35440423Y3231784D01*
X35399500Y3079057D01*
X35399500Y2920944D01*
X35440423Y2768217D01*
X35440426Y2768210D01*
X35519475Y2631291D01*
X35519479Y2631286D01*
X35519480Y2631284D01*
X35631284Y2519480D01*
X35631286Y2519479D01*
X35631290Y2519476D01*
X35739698Y2456887D01*
X35787914Y2406321D01*
X35801138Y2337714D01*
X35775170Y2272849D01*
X35718256Y2232320D01*
X35677699Y2225500D01*
X35075510Y2225500D01*
X35008471Y2245185D01*
X34962716Y2297989D01*
X34960966Y2304480D01*
X34938145Y2319729D01*
X34769817Y2389452D01*
X34769805Y2389455D01*
X34591109Y2425000D01*
X34408890Y2425000D01*
X34230194Y2389455D01*
X34230186Y2389453D01*
X34061848Y2319726D01*
X34045050Y2308502D01*
X34059337Y2294215D01*
X34092822Y2232892D01*
X34087838Y2163200D01*
X34045966Y2107267D01*
X33980502Y2082850D01*
X33912229Y2097702D01*
X33902765Y2103432D01*
X33843659Y2142926D01*
X33843650Y2142931D01*
X33711620Y2197619D01*
X33711614Y2197621D01*
X33571457Y2225500D01*
X33571455Y2225500D01*
X33428545Y2225500D01*
X33428543Y2225500D01*
X33288385Y2197621D01*
X33288379Y2197619D01*
X33156349Y2142931D01*
X33156342Y2142927D01*
X33068890Y2084493D01*
X33002213Y2063616D01*
X32934833Y2082101D01*
X32931110Y2084493D01*
X32843657Y2142927D01*
X32843650Y2142931D01*
X32711620Y2197619D01*
X32711614Y2197621D01*
X32571457Y2225500D01*
X32571455Y2225500D01*
X32428545Y2225500D01*
X32428543Y2225500D01*
X32288385Y2197621D01*
X32288379Y2197619D01*
X32156349Y2142931D01*
X32156340Y2142926D01*
X32037521Y2063533D01*
X32037517Y2063530D01*
X31936470Y1962483D01*
X31936467Y1962479D01*
X31857074Y1843660D01*
X31857069Y1843651D01*
X31802380Y1711619D01*
X31802371Y1711587D01*
X31802361Y1711573D01*
X31800050Y1705992D01*
X31798990Y1706431D01*
X31764066Y1653153D01*
X31700251Y1624704D01*
X31631185Y1635272D01*
X31578797Y1681502D01*
X31563939Y1715503D01*
X31559577Y1731784D01*
X31498520Y1837539D01*
X31480524Y1868710D01*
X31480518Y1868718D01*
X31368717Y1980519D01*
X31368709Y1980525D01*
X31231790Y2059574D01*
X31231786Y2059576D01*
X31231784Y2059577D01*
X31079057Y2100500D01*
X30920943Y2100500D01*
X30768216Y2059577D01*
X30768209Y2059574D01*
X30631290Y1980525D01*
X30631282Y1980519D01*
X30519481Y1868718D01*
X30519475Y1868710D01*
X30440426Y1731791D01*
X30440423Y1731784D01*
X30399500Y1579057D01*
X300500Y1579057D01*
X300500Y3079057D01*
X20399500Y3079057D01*
X20399500Y2920944D01*
X20440423Y2768217D01*
X20440426Y2768210D01*
X20519475Y2631291D01*
X20519479Y2631286D01*
X20519480Y2631284D01*
X20631284Y2519480D01*
X20631286Y2519479D01*
X20631290Y2519476D01*
X20739699Y2456887D01*
X20768216Y2440423D01*
X20920943Y2399500D01*
X20920945Y2399500D01*
X21079055Y2399500D01*
X21079057Y2399500D01*
X21231784Y2440423D01*
X21368716Y2519480D01*
X21428293Y2579057D01*
X23899500Y2579057D01*
X23899500Y2420943D01*
X23932446Y2297989D01*
X23940423Y2268217D01*
X23940426Y2268210D01*
X24019475Y2131291D01*
X24019479Y2131286D01*
X24019480Y2131284D01*
X24131284Y2019480D01*
X24131286Y2019479D01*
X24131290Y2019476D01*
X24268209Y1940427D01*
X24268216Y1940423D01*
X24420943Y1899500D01*
X24420945Y1899500D01*
X24579055Y1899500D01*
X24579057Y1899500D01*
X24731784Y1940423D01*
X24868716Y2019480D01*
X24980520Y2131284D01*
X25059577Y2268216D01*
X25100500Y2420943D01*
X25100500Y2579057D01*
X26899500Y2579057D01*
X26899500Y2420943D01*
X26932446Y2297989D01*
X26940423Y2268217D01*
X26940426Y2268210D01*
X27019475Y2131291D01*
X27019479Y2131286D01*
X27019480Y2131284D01*
X27131284Y2019480D01*
X27131286Y2019479D01*
X27131290Y2019476D01*
X27268209Y1940427D01*
X27268216Y1940423D01*
X27420943Y1899500D01*
X27420945Y1899500D01*
X27579055Y1899500D01*
X27579057Y1899500D01*
X27731784Y1940423D01*
X27868716Y2019480D01*
X27980520Y2131284D01*
X28059577Y2268216D01*
X28100500Y2420943D01*
X28100500Y2579057D01*
X28059577Y2731784D01*
X28038543Y2768217D01*
X27980524Y2868710D01*
X27980518Y2868718D01*
X27868717Y2980519D01*
X27868709Y2980525D01*
X27731790Y3059574D01*
X27731786Y3059576D01*
X27731784Y3059577D01*
X27579057Y3100500D01*
X27420943Y3100500D01*
X27268216Y3059577D01*
X27268209Y3059574D01*
X27131290Y2980525D01*
X27131282Y2980519D01*
X27019481Y2868718D01*
X27019475Y2868710D01*
X26940426Y2731791D01*
X26940423Y2731784D01*
X26899500Y2579057D01*
X25100500Y2579057D01*
X25059577Y2731784D01*
X25038543Y2768217D01*
X24980524Y2868710D01*
X24980518Y2868718D01*
X24868717Y2980519D01*
X24868709Y2980525D01*
X24731790Y3059574D01*
X24731786Y3059576D01*
X24731784Y3059577D01*
X24579057Y3100500D01*
X24420943Y3100500D01*
X24268216Y3059577D01*
X24268209Y3059574D01*
X24131290Y2980525D01*
X24131282Y2980519D01*
X24019481Y2868718D01*
X24019475Y2868710D01*
X23940426Y2731791D01*
X23940423Y2731784D01*
X23899500Y2579057D01*
X21428293Y2579057D01*
X21480520Y2631284D01*
X21484352Y2637922D01*
X21490855Y2649184D01*
X21538547Y2731791D01*
X21559577Y2768216D01*
X21600500Y2920943D01*
X21600500Y3079057D01*
X21559577Y3231784D01*
X21534915Y3274501D01*
X21480524Y3368710D01*
X21480518Y3368718D01*
X21368717Y3480519D01*
X21368709Y3480525D01*
X21231790Y3559574D01*
X21231786Y3559576D01*
X21231784Y3559577D01*
X21079057Y3600500D01*
X20920943Y3600500D01*
X20768216Y3559577D01*
X20768209Y3559574D01*
X20631290Y3480525D01*
X20631282Y3480519D01*
X20519481Y3368718D01*
X20519475Y3368710D01*
X20440426Y3231791D01*
X20440423Y3231784D01*
X20399500Y3079057D01*
X300500Y3079057D01*
X300500Y4079057D01*
X3399500Y4079057D01*
X3399500Y3920944D01*
X3440423Y3768217D01*
X3440426Y3768210D01*
X3519475Y3631291D01*
X3519479Y3631286D01*
X3519480Y3631284D01*
X3631284Y3519480D01*
X3631286Y3519479D01*
X3631290Y3519476D01*
X3698765Y3480520D01*
X3768216Y3440423D01*
X3920943Y3399500D01*
X3920945Y3399500D01*
X4079054Y3399500D01*
X4079057Y3399500D01*
X4204293Y3433057D01*
X4274141Y3431394D01*
X4324066Y3400963D01*
X4402235Y3322794D01*
X4505009Y3277415D01*
X4530135Y3274500D01*
X5469864Y3274501D01*
X5469879Y3274503D01*
X5469882Y3274503D01*
X5494987Y3277414D01*
X5494988Y3277415D01*
X5494991Y3277415D01*
X5597765Y3322794D01*
X5677206Y3402235D01*
X5722585Y3505009D01*
X5725500Y3530135D01*
X5725499Y4079057D01*
X27899500Y4079057D01*
X27899500Y3920944D01*
X27940423Y3768217D01*
X27940426Y3768210D01*
X28019475Y3631291D01*
X28019479Y3631286D01*
X28019480Y3631284D01*
X28131284Y3519480D01*
X28131286Y3519479D01*
X28131290Y3519476D01*
X28198765Y3480520D01*
X28268216Y3440423D01*
X28420943Y3399500D01*
X28420945Y3399500D01*
X28579055Y3399500D01*
X28579057Y3399500D01*
X28731784Y3440423D01*
X28868716Y3519480D01*
X28980520Y3631284D01*
X29059577Y3768216D01*
X29100500Y3920943D01*
X29100500Y4079057D01*
X29059577Y4231784D01*
X29059573Y4231791D01*
X28980524Y4368710D01*
X28980518Y4368718D01*
X28868717Y4480519D01*
X28868709Y4480525D01*
X28731790Y4559574D01*
X28731786Y4559576D01*
X28731784Y4559577D01*
X28579057Y4600500D01*
X28420943Y4600500D01*
X28268216Y4559577D01*
X28268209Y4559574D01*
X28131290Y4480525D01*
X28131282Y4480519D01*
X28019481Y4368718D01*
X28019475Y4368710D01*
X27940426Y4231791D01*
X27940423Y4231784D01*
X27899500Y4079057D01*
X5725499Y4079057D01*
X5725499Y4469864D01*
X5725497Y4469883D01*
X5722586Y4494988D01*
X5722585Y4494990D01*
X5722585Y4494991D01*
X5677206Y4597765D01*
X5677205Y4597766D01*
X5672565Y4608276D01*
X5674314Y4609049D01*
X5657055Y4662003D01*
X5666438Y4713105D01*
X5697619Y4788380D01*
X5725500Y4928545D01*
X5725500Y5071455D01*
X5725500Y5071458D01*
X5697620Y5211615D01*
X5697619Y5211616D01*
X5697619Y5211620D01*
X5642929Y5343653D01*
X5642926Y5343658D01*
X5642925Y5343660D01*
X5603432Y5402765D01*
X5582554Y5469442D01*
X5601038Y5536823D01*
X5653017Y5583513D01*
X5721987Y5594689D01*
X5786051Y5566804D01*
X5794215Y5559337D01*
X5808500Y5545052D01*
X5808500Y5545053D01*
X5819723Y5561846D01*
X5819724Y5561849D01*
X5889452Y5730187D01*
X5889454Y5730195D01*
X5924999Y5908891D01*
X5925000Y5908894D01*
X5925000Y6079057D01*
X19399500Y6079057D01*
X19399500Y5920943D01*
X19435645Y5786050D01*
X19440423Y5768217D01*
X19440426Y5768210D01*
X19519475Y5631291D01*
X19519479Y5631286D01*
X19519480Y5631284D01*
X19631284Y5519480D01*
X19631286Y5519479D01*
X19631290Y5519476D01*
X19768209Y5440427D01*
X19768216Y5440423D01*
X19920943Y5399500D01*
X19920945Y5399500D01*
X20079055Y5399500D01*
X20079057Y5399500D01*
X20231784Y5440423D01*
X20368716Y5519480D01*
X20480520Y5631284D01*
X20559577Y5768216D01*
X20600500Y5920943D01*
X20600500Y6079057D01*
X20559577Y6231784D01*
X20534915Y6274500D01*
X20480524Y6368710D01*
X20480518Y6368718D01*
X20368717Y6480519D01*
X20368716Y6480520D01*
X20231784Y6559577D01*
X20159084Y6579057D01*
X28899500Y6579057D01*
X28899500Y6420943D01*
X28931269Y6302382D01*
X28940423Y6268217D01*
X28940426Y6268210D01*
X29019475Y6131291D01*
X29019479Y6131286D01*
X29019480Y6131284D01*
X29131284Y6019480D01*
X29131286Y6019479D01*
X29131290Y6019476D01*
X29165026Y5999999D01*
X29268216Y5940423D01*
X29420943Y5899500D01*
X29420945Y5899500D01*
X29579055Y5899500D01*
X29579057Y5899500D01*
X29731784Y5940423D01*
X29868716Y6019480D01*
X29912319Y6063083D01*
X29973642Y6096568D01*
X30043334Y6091584D01*
X30087681Y6063083D01*
X30131284Y6019480D01*
X30131286Y6019479D01*
X30131290Y6019476D01*
X30165026Y5999999D01*
X30268216Y5940423D01*
X30420943Y5899500D01*
X30420945Y5899500D01*
X30579055Y5899500D01*
X30579057Y5899500D01*
X30731784Y5940423D01*
X30868716Y6019480D01*
X30980520Y6131284D01*
X31059577Y6268216D01*
X31100500Y6420943D01*
X31100500Y6579057D01*
X31059577Y6731784D01*
X31000000Y6834976D01*
X30980524Y6868710D01*
X30980518Y6868718D01*
X30868717Y6980519D01*
X30868716Y6980520D01*
X30835258Y6999837D01*
X30835256Y6999839D01*
X30731790Y7059574D01*
X30731786Y7059576D01*
X30731784Y7059577D01*
X30579057Y7100500D01*
X30420943Y7100500D01*
X30268216Y7059577D01*
X30268209Y7059574D01*
X30131290Y6980525D01*
X30131282Y6980519D01*
X30087681Y6936917D01*
X30026358Y6903432D01*
X29956666Y6908416D01*
X29912319Y6936917D01*
X29868717Y6980519D01*
X29868709Y6980525D01*
X29731790Y7059574D01*
X29731786Y7059576D01*
X29731784Y7059577D01*
X29579057Y7100500D01*
X29420943Y7100500D01*
X29268216Y7059577D01*
X29268209Y7059574D01*
X29131290Y6980525D01*
X29131282Y6980519D01*
X29019481Y6868718D01*
X29019475Y6868710D01*
X28940426Y6731791D01*
X28940423Y6731784D01*
X28899500Y6579057D01*
X20159084Y6579057D01*
X20079057Y6600500D01*
X19920943Y6600500D01*
X19768216Y6559577D01*
X19768209Y6559574D01*
X19631290Y6480525D01*
X19631282Y6480519D01*
X19519481Y6368718D01*
X19519475Y6368710D01*
X19440426Y6231791D01*
X19440423Y6231784D01*
X19399500Y6079057D01*
X5925000Y6079057D01*
X5925000Y6091106D01*
X5924999Y6091110D01*
X5889454Y6269806D01*
X5889451Y6269818D01*
X5819728Y6438145D01*
X5819725Y6438151D01*
X5808499Y6454950D01*
X5794215Y6440665D01*
X5732892Y6407181D01*
X5663200Y6412166D01*
X5607267Y6454037D01*
X5582851Y6519502D01*
X5597703Y6587775D01*
X5603434Y6597239D01*
X5642924Y6656340D01*
X5642925Y6656341D01*
X5642929Y6656347D01*
X5697619Y6788380D01*
X5713599Y6868716D01*
X5725500Y6928543D01*
X5725500Y7071458D01*
X5719355Y7102352D01*
X43599500Y7102352D01*
X43599500Y6897649D01*
X43631522Y6695466D01*
X43694781Y6500777D01*
X43787715Y6318387D01*
X43908028Y6152787D01*
X44052786Y6008029D01*
X44189241Y5908891D01*
X44218390Y5887713D01*
X44334607Y5828497D01*
X44400776Y5794782D01*
X44400778Y5794782D01*
X44400781Y5794780D01*
X44482537Y5768216D01*
X44595465Y5731523D01*
X44655673Y5721987D01*
X44797648Y5699500D01*
X44797649Y5699500D01*
X45002351Y5699500D01*
X45002352Y5699500D01*
X45204534Y5731523D01*
X45399219Y5794780D01*
X45581610Y5887713D01*
X45736160Y5999999D01*
X45747213Y6008029D01*
X45747215Y6008032D01*
X45747219Y6008034D01*
X45891966Y6152781D01*
X45891968Y6152785D01*
X45891971Y6152787D01*
X45975829Y6268210D01*
X46012287Y6318390D01*
X46105220Y6500781D01*
X46168477Y6695466D01*
X46200500Y6897648D01*
X46200500Y7102352D01*
X46168477Y7304534D01*
X46155766Y7343653D01*
X46139127Y7394863D01*
X46105220Y7499219D01*
X46105218Y7499222D01*
X46105218Y7499224D01*
X46071503Y7565393D01*
X46012287Y7681610D01*
X46000654Y7697621D01*
X45891971Y7847214D01*
X45747213Y7991972D01*
X45674405Y8044869D01*
X51199500Y8044869D01*
X51199500Y5955144D01*
X51199502Y5955118D01*
X51202413Y5930013D01*
X51202415Y5930009D01*
X51247793Y5827236D01*
X51247794Y5827235D01*
X51327235Y5747794D01*
X51430009Y5702415D01*
X51455135Y5699500D01*
X53544864Y5699501D01*
X53544879Y5699503D01*
X53544882Y5699503D01*
X53569987Y5702414D01*
X53569988Y5702415D01*
X53569991Y5702415D01*
X53672765Y5747794D01*
X53752206Y5827235D01*
X53797585Y5930009D01*
X53800500Y5955135D01*
X53800499Y8044864D01*
X53800497Y8044883D01*
X53797586Y8069988D01*
X53797585Y8069990D01*
X53797585Y8069991D01*
X53752206Y8172765D01*
X53672765Y8252206D01*
X53672763Y8252207D01*
X53569992Y8297585D01*
X53544865Y8300500D01*
X51455143Y8300500D01*
X51455117Y8300498D01*
X51430012Y8297587D01*
X51430008Y8297585D01*
X51327235Y8252207D01*
X51247794Y8172766D01*
X51202415Y8069994D01*
X51202415Y8069992D01*
X51199500Y8044869D01*
X45674405Y8044869D01*
X45581613Y8112285D01*
X45581612Y8112286D01*
X45581610Y8112287D01*
X45524653Y8141309D01*
X45399223Y8205219D01*
X45204534Y8268478D01*
X45020756Y8297585D01*
X45002352Y8300500D01*
X44797648Y8300500D01*
X44779244Y8297585D01*
X44595465Y8268478D01*
X44400776Y8205219D01*
X44218386Y8112285D01*
X44052786Y7991972D01*
X43908028Y7847214D01*
X43787715Y7681614D01*
X43694781Y7499224D01*
X43631522Y7304535D01*
X43599500Y7102352D01*
X5719355Y7102352D01*
X5697620Y7211615D01*
X5697619Y7211616D01*
X5697619Y7211620D01*
X5642929Y7343653D01*
X5642928Y7343654D01*
X5642925Y7343660D01*
X5563532Y7462479D01*
X5563529Y7462483D01*
X5462482Y7563530D01*
X5462478Y7563533D01*
X5343659Y7642926D01*
X5343650Y7642931D01*
X5211620Y7697619D01*
X5211614Y7697621D01*
X5071457Y7725500D01*
X5071455Y7725500D01*
X4928545Y7725500D01*
X4928543Y7725500D01*
X4788385Y7697621D01*
X4788379Y7697619D01*
X4656349Y7642931D01*
X4656340Y7642926D01*
X4537521Y7563533D01*
X4537517Y7563530D01*
X4436470Y7462483D01*
X4436467Y7462479D01*
X4357074Y7343660D01*
X4357069Y7343651D01*
X4302381Y7211621D01*
X4302379Y7211615D01*
X4274500Y7071458D01*
X4274500Y7071455D01*
X4274500Y6928545D01*
X4274500Y6928543D01*
X4274499Y6928543D01*
X4302379Y6788386D01*
X4302381Y6788380D01*
X4357069Y6656350D01*
X4357074Y6656341D01*
X4396568Y6597235D01*
X4417446Y6530558D01*
X4398962Y6463177D01*
X4346983Y6416487D01*
X4278013Y6405311D01*
X4213949Y6433196D01*
X4205785Y6440663D01*
X4191498Y6454950D01*
X4180274Y6438152D01*
X4110547Y6269814D01*
X4110545Y6269806D01*
X4075000Y6091110D01*
X4075000Y5908891D01*
X4110545Y5730195D01*
X4110548Y5730183D01*
X4180271Y5561855D01*
X4191498Y5545054D01*
X4205787Y5559342D01*
X4267110Y5592828D01*
X4336802Y5587844D01*
X4392735Y5545973D01*
X4417153Y5480509D01*
X4402302Y5412236D01*
X4396572Y5402772D01*
X4357073Y5343658D01*
X4357069Y5343651D01*
X4302381Y5211621D01*
X4302379Y5211615D01*
X4274500Y5071458D01*
X4274500Y5071455D01*
X4274500Y4928545D01*
X4274500Y4928543D01*
X4274499Y4928543D01*
X4302379Y4788386D01*
X4302382Y4788376D01*
X4321575Y4742040D01*
X4329044Y4672571D01*
X4297768Y4610092D01*
X4237679Y4574440D01*
X4174922Y4574813D01*
X4079057Y4600500D01*
X3920943Y4600500D01*
X3768216Y4559577D01*
X3768209Y4559574D01*
X3631290Y4480525D01*
X3631282Y4480519D01*
X3519481Y4368718D01*
X3519475Y4368710D01*
X3440426Y4231791D01*
X3440423Y4231784D01*
X3399500Y4079057D01*
X300500Y4079057D01*
X300500Y9079057D01*
X19899500Y9079057D01*
X19899500Y8920944D01*
X19940423Y8768217D01*
X19940426Y8768210D01*
X20019475Y8631291D01*
X20019479Y8631286D01*
X20019480Y8631284D01*
X20131284Y8519480D01*
X20131286Y8519479D01*
X20131290Y8519476D01*
X20268209Y8440427D01*
X20268216Y8440423D01*
X20420943Y8399500D01*
X20420945Y8399500D01*
X20579055Y8399500D01*
X20579057Y8399500D01*
X20731784Y8440423D01*
X20868716Y8519480D01*
X20928293Y8579057D01*
X23019500Y8579057D01*
X23019500Y8420943D01*
X23025246Y8399501D01*
X23060423Y8268217D01*
X23060426Y8268210D01*
X23139475Y8131291D01*
X23139479Y8131286D01*
X23139480Y8131284D01*
X23251284Y8019480D01*
X23251286Y8019479D01*
X23251290Y8019476D01*
X23388209Y7940427D01*
X23388216Y7940423D01*
X23540943Y7899500D01*
X23540945Y7899500D01*
X23699055Y7899500D01*
X23699057Y7899500D01*
X23851784Y7940423D01*
X23988716Y8019480D01*
X24100520Y8131284D01*
X24179577Y8268216D01*
X24220500Y8420943D01*
X24220500Y8579057D01*
X25399500Y8579057D01*
X25399500Y8420943D01*
X25405246Y8399501D01*
X25440423Y8268217D01*
X25440426Y8268210D01*
X25519475Y8131291D01*
X25519479Y8131286D01*
X25519480Y8131284D01*
X25631284Y8019480D01*
X25631286Y8019479D01*
X25631290Y8019476D01*
X25768209Y7940427D01*
X25768216Y7940423D01*
X25920943Y7899500D01*
X25920945Y7899500D01*
X26079055Y7899500D01*
X26079057Y7899500D01*
X26231784Y7940423D01*
X26368716Y8019480D01*
X26480520Y8131284D01*
X26559577Y8268216D01*
X26600500Y8420943D01*
X26600500Y8579057D01*
X26559577Y8731784D01*
X26538543Y8768217D01*
X26480524Y8868710D01*
X26480518Y8868718D01*
X26368717Y8980519D01*
X26368709Y8980525D01*
X26231790Y9059574D01*
X26231786Y9059576D01*
X26231784Y9059577D01*
X26079057Y9100500D01*
X25920943Y9100500D01*
X25768216Y9059577D01*
X25768209Y9059574D01*
X25631290Y8980525D01*
X25631282Y8980519D01*
X25519481Y8868718D01*
X25519475Y8868710D01*
X25440426Y8731791D01*
X25440423Y8731784D01*
X25399500Y8579057D01*
X24220500Y8579057D01*
X24179577Y8731784D01*
X24158543Y8768217D01*
X24100524Y8868710D01*
X24100518Y8868718D01*
X23988717Y8980519D01*
X23988709Y8980525D01*
X23851790Y9059574D01*
X23851786Y9059576D01*
X23851784Y9059577D01*
X23699057Y9100500D01*
X23540943Y9100500D01*
X23388216Y9059577D01*
X23388209Y9059574D01*
X23251290Y8980525D01*
X23251282Y8980519D01*
X23139481Y8868718D01*
X23139475Y8868710D01*
X23060426Y8731791D01*
X23060423Y8731784D01*
X23019500Y8579057D01*
X20928293Y8579057D01*
X20980520Y8631284D01*
X20984352Y8637922D01*
X20990855Y8649184D01*
X21038547Y8731791D01*
X21059577Y8768216D01*
X21100500Y8920943D01*
X21100500Y9079057D01*
X21059577Y9231784D01*
X21009552Y9318431D01*
X20980524Y9368710D01*
X20980518Y9368718D01*
X20868717Y9480519D01*
X20868709Y9480525D01*
X20731790Y9559574D01*
X20731786Y9559576D01*
X20731784Y9559577D01*
X20579057Y9600500D01*
X20420943Y9600500D01*
X20268216Y9559577D01*
X20268209Y9559574D01*
X20131290Y9480525D01*
X20131282Y9480519D01*
X20019481Y9368718D01*
X20019475Y9368710D01*
X19940426Y9231791D01*
X19940423Y9231784D01*
X19899500Y9079057D01*
X300500Y9079057D01*
X300500Y10530000D01*
X875138Y10530000D01*
X1678012Y10530000D01*
X1660795Y10520060D01*
X1604940Y10464205D01*
X1565444Y10395796D01*
X1545000Y10319496D01*
X1545000Y10240504D01*
X1565444Y10164204D01*
X1604940Y10095795D01*
X1660795Y10039940D01*
X1678012Y10030000D01*
X875138Y10030000D01*
X883430Y9988310D01*
X883430Y9988308D01*
X958807Y9806329D01*
X958814Y9806316D01*
X1068248Y9642538D01*
X1068251Y9642534D01*
X1207533Y9503252D01*
X1207537Y9503249D01*
X1371315Y9393815D01*
X1371328Y9393808D01*
X1553306Y9318431D01*
X1553318Y9318428D01*
X1746504Y9280001D01*
X1746508Y9280000D01*
X1995000Y9280000D01*
X1995000Y9980000D01*
X2495000Y9980000D01*
X2495000Y9280000D01*
X2743492Y9280000D01*
X2743495Y9280001D01*
X2936681Y9318428D01*
X2936693Y9318431D01*
X3118671Y9393808D01*
X3118684Y9393815D01*
X3282462Y9503249D01*
X3282466Y9503252D01*
X3421748Y9642534D01*
X3421751Y9642538D01*
X3531185Y9806316D01*
X3531192Y9806329D01*
X3606569Y9988308D01*
X3606569Y9988310D01*
X3614862Y10030000D01*
X2811988Y10030000D01*
X2829205Y10039940D01*
X2885060Y10095795D01*
X2924556Y10164204D01*
X2945000Y10240504D01*
X2945000Y10319496D01*
X2924556Y10395796D01*
X2885060Y10464205D01*
X2829205Y10520060D01*
X2811988Y10530000D01*
X3614862Y10530000D01*
X4905138Y10530000D01*
X5708012Y10530000D01*
X5690795Y10520060D01*
X5634940Y10464205D01*
X5595444Y10395796D01*
X5575000Y10319496D01*
X5575000Y10240504D01*
X5595444Y10164204D01*
X5634940Y10095795D01*
X5690795Y10039940D01*
X5708012Y10030000D01*
X4905138Y10030000D01*
X4913430Y9988310D01*
X4913430Y9988308D01*
X4988807Y9806329D01*
X4988814Y9806316D01*
X5098248Y9642538D01*
X5098251Y9642534D01*
X5237533Y9503252D01*
X5237537Y9503249D01*
X5401315Y9393815D01*
X5401328Y9393808D01*
X5583306Y9318431D01*
X5583318Y9318428D01*
X5776504Y9280001D01*
X5776508Y9280000D01*
X6175000Y9280000D01*
X6175000Y9980000D01*
X6675000Y9980000D01*
X6675000Y9280000D01*
X7073492Y9280000D01*
X7073495Y9280001D01*
X7266681Y9318428D01*
X7266693Y9318431D01*
X7448671Y9393808D01*
X7448684Y9393815D01*
X7612462Y9503249D01*
X7612466Y9503252D01*
X7751748Y9642534D01*
X7751751Y9642538D01*
X7861185Y9806316D01*
X7861192Y9806329D01*
X7936569Y9988308D01*
X7936569Y9988310D01*
X7944862Y10030000D01*
X7141988Y10030000D01*
X7159205Y10039940D01*
X7215060Y10095795D01*
X7254556Y10164204D01*
X7275000Y10240504D01*
X7275000Y10319496D01*
X7254556Y10395796D01*
X7215060Y10464205D01*
X7159205Y10520060D01*
X7141988Y10530000D01*
X7944862Y10530000D01*
X7936569Y10571691D01*
X7936569Y10571693D01*
X7861192Y10753672D01*
X7861185Y10753685D01*
X7751751Y10917463D01*
X7751748Y10917467D01*
X7612466Y11056749D01*
X7612462Y11056752D01*
X7448684Y11166186D01*
X7448671Y11166193D01*
X7266693Y11241570D01*
X7266681Y11241573D01*
X7073495Y11280000D01*
X6675000Y11280000D01*
X6675000Y10580000D01*
X6175000Y10580000D01*
X6175000Y11182418D01*
X6194685Y11249457D01*
X6211894Y11270670D01*
X6223220Y11281850D01*
X6244226Y11293977D01*
X6341023Y11390774D01*
X6409469Y11509326D01*
X6444900Y11641554D01*
X6444900Y11778446D01*
X6409469Y11910674D01*
X6341023Y12029226D01*
X6244226Y12126023D01*
X6209003Y12146359D01*
X6125677Y12194468D01*
X6125678Y12194468D01*
X6110051Y12198656D01*
X5993446Y12229900D01*
X5856554Y12229900D01*
X5739948Y12198656D01*
X5724322Y12194468D01*
X5605777Y12126025D01*
X5605771Y12126021D01*
X5508979Y12029229D01*
X5508975Y12029223D01*
X5440532Y11910678D01*
X5440531Y11910674D01*
X5405100Y11778446D01*
X5405100Y11641554D01*
X5440531Y11509326D01*
X5440532Y11509323D01*
X5488641Y11425997D01*
X5508977Y11390774D01*
X5508981Y11390770D01*
X5513924Y11384328D01*
X5511654Y11382587D01*
X5538512Y11333401D01*
X5533528Y11263709D01*
X5491656Y11207776D01*
X5464798Y11192482D01*
X5401328Y11166193D01*
X5401315Y11166186D01*
X5237537Y11056752D01*
X5237533Y11056749D01*
X5098251Y10917467D01*
X5098248Y10917463D01*
X4988814Y10753685D01*
X4988807Y10753672D01*
X4913430Y10571693D01*
X4913430Y10571691D01*
X4905138Y10530000D01*
X3614862Y10530000D01*
X3606569Y10571691D01*
X3606569Y10571693D01*
X3531192Y10753672D01*
X3531185Y10753685D01*
X3421751Y10917463D01*
X3421748Y10917467D01*
X3282466Y11056749D01*
X3282462Y11056752D01*
X3118684Y11166186D01*
X3118671Y11166193D01*
X2936693Y11241570D01*
X2936681Y11241573D01*
X2743495Y11280000D01*
X2495000Y11280000D01*
X2495000Y10580000D01*
X1995000Y10580000D01*
X1995000Y11280000D01*
X1746504Y11280000D01*
X1553318Y11241573D01*
X1553306Y11241570D01*
X1371328Y11166193D01*
X1371315Y11166186D01*
X1207537Y11056752D01*
X1207533Y11056749D01*
X1068251Y10917467D01*
X1068248Y10917463D01*
X958814Y10753685D01*
X958807Y10753672D01*
X883430Y10571693D01*
X883430Y10571691D01*
X875138Y10530000D01*
X300500Y10530000D01*
X300500Y14079057D01*
X18399500Y14079057D01*
X18399500Y13920944D01*
X18440423Y13768217D01*
X18440426Y13768210D01*
X18519475Y13631291D01*
X18519479Y13631286D01*
X18519480Y13631284D01*
X18631284Y13519480D01*
X18631286Y13519479D01*
X18631290Y13519476D01*
X18768209Y13440427D01*
X18768216Y13440423D01*
X18920943Y13399500D01*
X18920945Y13399500D01*
X19079055Y13399500D01*
X19079057Y13399500D01*
X19231784Y13440423D01*
X19368716Y13519480D01*
X19480520Y13631284D01*
X19559577Y13768216D01*
X19600500Y13920943D01*
X19600500Y14079057D01*
X31399500Y14079057D01*
X31399500Y13920944D01*
X31440423Y13768217D01*
X31440426Y13768210D01*
X31519475Y13631291D01*
X31519479Y13631286D01*
X31519480Y13631284D01*
X31631284Y13519480D01*
X31631286Y13519479D01*
X31631290Y13519476D01*
X31768209Y13440427D01*
X31768216Y13440423D01*
X31920943Y13399500D01*
X31920945Y13399500D01*
X32079055Y13399500D01*
X32079057Y13399500D01*
X32231784Y13440423D01*
X32368716Y13519480D01*
X32480520Y13631284D01*
X32559577Y13768216D01*
X32600500Y13920943D01*
X32600500Y14079057D01*
X32559577Y14231784D01*
X32559573Y14231791D01*
X32480524Y14368710D01*
X32480518Y14368718D01*
X32368717Y14480519D01*
X32368709Y14480525D01*
X32231790Y14559574D01*
X32231786Y14559576D01*
X32231784Y14559577D01*
X32079057Y14600500D01*
X31920943Y14600500D01*
X31768216Y14559577D01*
X31768209Y14559574D01*
X31631290Y14480525D01*
X31631282Y14480519D01*
X31519481Y14368718D01*
X31519475Y14368710D01*
X31440426Y14231791D01*
X31440423Y14231784D01*
X31399500Y14079057D01*
X19600500Y14079057D01*
X19559577Y14231784D01*
X19559573Y14231791D01*
X19480524Y14368710D01*
X19480518Y14368718D01*
X19368717Y14480519D01*
X19368709Y14480525D01*
X19231790Y14559574D01*
X19231786Y14559576D01*
X19231784Y14559577D01*
X19079057Y14600500D01*
X18920943Y14600500D01*
X18768216Y14559577D01*
X18768209Y14559574D01*
X18631290Y14480525D01*
X18631282Y14480519D01*
X18519481Y14368718D01*
X18519475Y14368710D01*
X18440426Y14231791D01*
X18440423Y14231784D01*
X18399500Y14079057D01*
X300500Y14079057D01*
X300500Y15050000D01*
X46035000Y15050000D01*
X48125000Y15050000D01*
X48125000Y16950000D01*
X46035000Y16950000D01*
X46035000Y15050000D01*
X300500Y15050000D01*
X300500Y19170000D01*
X875138Y19170000D01*
X1678012Y19170000D01*
X1660795Y19160060D01*
X1604940Y19104205D01*
X1565444Y19035796D01*
X1545000Y18959496D01*
X1545000Y18880504D01*
X1565444Y18804204D01*
X1604940Y18735795D01*
X1660795Y18679940D01*
X1678012Y18670000D01*
X875138Y18670000D01*
X883430Y18628310D01*
X883430Y18628308D01*
X958807Y18446329D01*
X958814Y18446316D01*
X1068248Y18282538D01*
X1068251Y18282534D01*
X1207533Y18143252D01*
X1207537Y18143249D01*
X1371315Y18033815D01*
X1371328Y18033808D01*
X1553306Y17958431D01*
X1553318Y17958428D01*
X1746504Y17920001D01*
X1746508Y17920000D01*
X1995000Y17920000D01*
X1995000Y18620000D01*
X2495000Y18620000D01*
X2495000Y17920000D01*
X2743492Y17920000D01*
X2743495Y17920001D01*
X2936681Y17958428D01*
X2936693Y17958431D01*
X3118671Y18033808D01*
X3118684Y18033815D01*
X3282462Y18143249D01*
X3282466Y18143252D01*
X3421748Y18282534D01*
X3421751Y18282538D01*
X3531185Y18446316D01*
X3531192Y18446329D01*
X3606569Y18628308D01*
X3606569Y18628310D01*
X3614862Y18670000D01*
X2811988Y18670000D01*
X2829205Y18679940D01*
X2885060Y18735795D01*
X2924556Y18804204D01*
X2945000Y18880504D01*
X2945000Y18959496D01*
X2924556Y19035796D01*
X2885060Y19104205D01*
X2829205Y19160060D01*
X2811988Y19170000D01*
X3614862Y19170000D01*
X4905138Y19170000D01*
X5708012Y19170000D01*
X5690795Y19160060D01*
X5634940Y19104205D01*
X5595444Y19035796D01*
X5575000Y18959496D01*
X5575000Y18880504D01*
X5595444Y18804204D01*
X5634940Y18735795D01*
X5690795Y18679940D01*
X5708012Y18670000D01*
X4905138Y18670000D01*
X4913430Y18628310D01*
X4913430Y18628308D01*
X4988807Y18446329D01*
X4988814Y18446316D01*
X5098248Y18282538D01*
X5098251Y18282534D01*
X5237533Y18143252D01*
X5237537Y18143249D01*
X5401315Y18033815D01*
X5401322Y18033811D01*
X5464797Y18007520D01*
X5519201Y17963680D01*
X5541267Y17897386D01*
X5523989Y17829686D01*
X5513411Y17816066D01*
X5513924Y17815672D01*
X5508975Y17809223D01*
X5440532Y17690678D01*
X5440531Y17690674D01*
X5405100Y17558446D01*
X5405100Y17421554D01*
X5440531Y17289326D01*
X5440532Y17289323D01*
X5488641Y17205997D01*
X5508977Y17170774D01*
X5605774Y17073977D01*
X5689103Y17025867D01*
X5724322Y17005533D01*
X5724323Y17005533D01*
X5724326Y17005531D01*
X5856554Y16970100D01*
X5856556Y16970100D01*
X5993444Y16970100D01*
X5993446Y16970100D01*
X6125674Y17005531D01*
X6244226Y17073977D01*
X6341023Y17170774D01*
X6409469Y17289326D01*
X6444900Y17421554D01*
X6444900Y17558446D01*
X6409469Y17690674D01*
X6341023Y17809226D01*
X6244226Y17906023D01*
X6236997Y17910197D01*
X6188784Y17960762D01*
X6175000Y18017582D01*
X6175000Y18620000D01*
X6675000Y18620000D01*
X6675000Y17920000D01*
X7073492Y17920000D01*
X7073495Y17920001D01*
X7266681Y17958428D01*
X7266693Y17958431D01*
X7448671Y18033808D01*
X7448684Y18033815D01*
X7516393Y18079057D01*
X30399500Y18079057D01*
X30399500Y17920943D01*
X30429435Y17809226D01*
X30440423Y17768217D01*
X30440426Y17768210D01*
X30519475Y17631291D01*
X30519479Y17631286D01*
X30519480Y17631284D01*
X30631284Y17519480D01*
X30631286Y17519479D01*
X30631290Y17519476D01*
X30768209Y17440427D01*
X30768216Y17440423D01*
X30920943Y17399500D01*
X30920945Y17399500D01*
X31079055Y17399500D01*
X31079057Y17399500D01*
X31231784Y17440423D01*
X31368716Y17519480D01*
X31480520Y17631284D01*
X31559577Y17768216D01*
X31600500Y17920943D01*
X31600500Y18079057D01*
X31559577Y18231784D01*
X31530277Y18282534D01*
X31480524Y18368710D01*
X31480518Y18368718D01*
X31368717Y18480519D01*
X31368709Y18480525D01*
X31231790Y18559574D01*
X31231786Y18559576D01*
X31231784Y18559577D01*
X31079057Y18600500D01*
X30920943Y18600500D01*
X30768216Y18559577D01*
X30768209Y18559574D01*
X30631290Y18480525D01*
X30631282Y18480519D01*
X30519481Y18368718D01*
X30519475Y18368710D01*
X30440426Y18231791D01*
X30440423Y18231784D01*
X30399500Y18079057D01*
X7516393Y18079057D01*
X7612462Y18143249D01*
X7612466Y18143252D01*
X7644080Y18174865D01*
X7751748Y18282534D01*
X7751751Y18282538D01*
X7861185Y18446316D01*
X7861192Y18446329D01*
X7936569Y18628308D01*
X7936569Y18628310D01*
X7944862Y18670000D01*
X7141988Y18670000D01*
X7159205Y18679940D01*
X7215060Y18735795D01*
X7254556Y18804204D01*
X7275000Y18880504D01*
X7275000Y18959496D01*
X7254556Y19035796D01*
X7229579Y19079057D01*
X21453032Y19079057D01*
X21453032Y18920943D01*
X21467056Y18868607D01*
X21493955Y18768217D01*
X21493958Y18768210D01*
X21573007Y18631291D01*
X21573011Y18631286D01*
X21573012Y18631284D01*
X21684816Y18519480D01*
X21684818Y18519479D01*
X21684822Y18519476D01*
X21752297Y18480520D01*
X21821748Y18440423D01*
X21974475Y18399500D01*
X21974477Y18399500D01*
X22132587Y18399500D01*
X22132589Y18399500D01*
X22285316Y18440423D01*
X22422248Y18519480D01*
X22534052Y18631284D01*
X22613109Y18768216D01*
X22640009Y18868609D01*
X22644720Y18876339D01*
X22645795Y18885326D01*
X22662617Y18905701D01*
X22676373Y18928268D01*
X22684516Y18932225D01*
X22690280Y18939204D01*
X22715449Y18947251D01*
X22739220Y18958797D01*
X22749968Y18958286D01*
X22756832Y18960479D01*
X22791868Y18956290D01*
X22828472Y18946482D01*
X22888130Y18910119D01*
X22916151Y18858802D01*
X22940423Y18768217D01*
X22940426Y18768210D01*
X23019475Y18631291D01*
X23019479Y18631286D01*
X23019480Y18631284D01*
X23131284Y18519480D01*
X23131286Y18519479D01*
X23131290Y18519476D01*
X23198765Y18480520D01*
X23268216Y18440423D01*
X23420943Y18399500D01*
X23420945Y18399500D01*
X23579055Y18399500D01*
X23579057Y18399500D01*
X23731784Y18440423D01*
X23868716Y18519480D01*
X23980520Y18631284D01*
X24059577Y18768216D01*
X24100500Y18920943D01*
X24100500Y19079057D01*
X24059577Y19231784D01*
X24059573Y19231791D01*
X23980524Y19368710D01*
X23980518Y19368718D01*
X23868717Y19480519D01*
X23868709Y19480525D01*
X23731790Y19559574D01*
X23731786Y19559576D01*
X23731784Y19559577D01*
X23641196Y19583850D01*
X23581537Y19620214D01*
X23553518Y19671527D01*
X23529245Y19762116D01*
X23529241Y19762123D01*
X23450192Y19899042D01*
X23450186Y19899050D01*
X23338385Y20010851D01*
X23338377Y20010857D01*
X23201458Y20089906D01*
X23201454Y20089908D01*
X23201452Y20089909D01*
X23048725Y20130832D01*
X22890611Y20130832D01*
X22737884Y20089909D01*
X22737877Y20089906D01*
X22600958Y20010857D01*
X22600950Y20010851D01*
X22489149Y19899050D01*
X22489143Y19899042D01*
X22410094Y19762123D01*
X22410092Y19762119D01*
X22383191Y19661724D01*
X22346825Y19602064D01*
X22283978Y19571536D01*
X22231324Y19574044D01*
X22132589Y19600500D01*
X21974475Y19600500D01*
X21821748Y19559577D01*
X21821741Y19559574D01*
X21684822Y19480525D01*
X21684814Y19480519D01*
X21573013Y19368718D01*
X21573007Y19368710D01*
X21493958Y19231791D01*
X21493955Y19231784D01*
X21453032Y19079057D01*
X7229579Y19079057D01*
X7215060Y19104205D01*
X7159205Y19160060D01*
X7141988Y19170000D01*
X7944862Y19170000D01*
X7936569Y19211691D01*
X7936569Y19211693D01*
X7861192Y19393672D01*
X7861185Y19393685D01*
X7751751Y19557463D01*
X7751748Y19557467D01*
X7612466Y19696749D01*
X7612462Y19696752D01*
X7448684Y19806186D01*
X7448671Y19806193D01*
X7266693Y19881570D01*
X7266681Y19881573D01*
X7073495Y19920000D01*
X6675000Y19920000D01*
X6675000Y19220000D01*
X6175000Y19220000D01*
X6175000Y19920000D01*
X5776504Y19920000D01*
X5583318Y19881573D01*
X5583306Y19881570D01*
X5401328Y19806193D01*
X5401315Y19806186D01*
X5237537Y19696752D01*
X5237533Y19696749D01*
X5098251Y19557467D01*
X5098248Y19557463D01*
X4988814Y19393685D01*
X4988807Y19393672D01*
X4913430Y19211693D01*
X4913430Y19211691D01*
X4905138Y19170000D01*
X3614862Y19170000D01*
X3606569Y19211691D01*
X3606569Y19211693D01*
X3531192Y19393672D01*
X3531185Y19393685D01*
X3421751Y19557463D01*
X3421748Y19557467D01*
X3282466Y19696749D01*
X3282462Y19696752D01*
X3118684Y19806186D01*
X3118671Y19806193D01*
X2936693Y19881570D01*
X2936681Y19881573D01*
X2743495Y19920000D01*
X2495000Y19920000D01*
X2495000Y19220000D01*
X1995000Y19220000D01*
X1995000Y19920000D01*
X1746504Y19920000D01*
X1553318Y19881573D01*
X1553306Y19881570D01*
X1371328Y19806193D01*
X1371315Y19806186D01*
X1207537Y19696752D01*
X1207533Y19696749D01*
X1068251Y19557467D01*
X1068248Y19557463D01*
X958814Y19393685D01*
X958807Y19393672D01*
X883430Y19211693D01*
X883430Y19211691D01*
X875138Y19170000D01*
X300500Y19170000D01*
X300500Y23579057D01*
X19899500Y23579057D01*
X19899500Y23420943D01*
X19911015Y23377971D01*
X19940423Y23268217D01*
X19940426Y23268210D01*
X20019475Y23131291D01*
X20019479Y23131286D01*
X20019480Y23131284D01*
X20131284Y23019480D01*
X20131286Y23019479D01*
X20131290Y23019476D01*
X20268209Y22940427D01*
X20268216Y22940423D01*
X20420943Y22899500D01*
X20420945Y22899500D01*
X20579055Y22899500D01*
X20579057Y22899500D01*
X20731784Y22940423D01*
X20868716Y23019480D01*
X20980520Y23131284D01*
X21059577Y23268216D01*
X21100500Y23420943D01*
X21100500Y23579057D01*
X21071092Y23688811D01*
X23789746Y23688811D01*
X23789746Y23530697D01*
X23819155Y23420943D01*
X23830669Y23377971D01*
X23830672Y23377964D01*
X23909721Y23241045D01*
X23909725Y23241040D01*
X23909726Y23241038D01*
X24021530Y23129234D01*
X24021532Y23129233D01*
X24021536Y23129230D01*
X24158455Y23050181D01*
X24158462Y23050177D01*
X24311189Y23009254D01*
X24311191Y23009254D01*
X24469301Y23009254D01*
X24469303Y23009254D01*
X24622030Y23050177D01*
X24758962Y23129234D01*
X24870766Y23241038D01*
X24949823Y23377970D01*
X24990746Y23530697D01*
X24990746Y23688811D01*
X24949823Y23841538D01*
X24949819Y23841545D01*
X24870770Y23978464D01*
X24870764Y23978472D01*
X24758963Y24090273D01*
X24758955Y24090279D01*
X24622036Y24169328D01*
X24622032Y24169330D01*
X24622030Y24169331D01*
X24469303Y24210254D01*
X24311189Y24210254D01*
X24158462Y24169331D01*
X24158455Y24169328D01*
X24021536Y24090279D01*
X24021528Y24090273D01*
X23909727Y23978472D01*
X23909721Y23978464D01*
X23830672Y23841545D01*
X23830669Y23841538D01*
X23789746Y23688811D01*
X21071092Y23688811D01*
X21059577Y23731784D01*
X21059573Y23731791D01*
X20980524Y23868710D01*
X20980518Y23868718D01*
X20868717Y23980519D01*
X20868709Y23980525D01*
X20731790Y24059574D01*
X20731786Y24059576D01*
X20731784Y24059577D01*
X20579057Y24100500D01*
X20420943Y24100500D01*
X20268216Y24059577D01*
X20268209Y24059574D01*
X20131290Y23980525D01*
X20131282Y23980519D01*
X20019481Y23868718D01*
X20019475Y23868710D01*
X19940426Y23731791D01*
X19940424Y23731786D01*
X19940423Y23731784D01*
X19899500Y23579057D01*
X300500Y23579057D01*
X300500Y26594487D01*
X30759500Y26594487D01*
X30759500Y26405514D01*
X30789059Y26218882D01*
X30847454Y26039164D01*
X30933239Y25870803D01*
X30933240Y25870801D01*
X31044310Y25717927D01*
X31177927Y25584310D01*
X31330801Y25473240D01*
X31410347Y25432710D01*
X31499163Y25387455D01*
X31499165Y25387455D01*
X31499168Y25387453D01*
X31556853Y25368710D01*
X31678881Y25329060D01*
X31865514Y25299500D01*
X31865519Y25299500D01*
X32054486Y25299500D01*
X32241118Y25329060D01*
X32420832Y25387453D01*
X32589199Y25473240D01*
X32742073Y25584310D01*
X32875690Y25717927D01*
X32986760Y25870801D01*
X33065015Y26024387D01*
X33112989Y26075183D01*
X33180810Y26091978D01*
X33246945Y26069441D01*
X33290397Y26014726D01*
X33299500Y25968092D01*
X33299500Y25555144D01*
X33299502Y25555118D01*
X33302413Y25530013D01*
X33302415Y25530009D01*
X33347793Y25427236D01*
X33347794Y25427235D01*
X33427235Y25347794D01*
X33530009Y25302415D01*
X33555135Y25299500D01*
X35296968Y25299501D01*
X35364007Y25279816D01*
X35409762Y25227013D01*
X35419706Y25157854D01*
X35416743Y25143408D01*
X35399500Y25079057D01*
X35399500Y24920944D01*
X35440423Y24768217D01*
X35440426Y24768210D01*
X35519475Y24631291D01*
X35519479Y24631286D01*
X35519480Y24631284D01*
X35631284Y24519480D01*
X35631286Y24519479D01*
X35631290Y24519476D01*
X35768209Y24440427D01*
X35768216Y24440423D01*
X35920943Y24399500D01*
X35920945Y24399500D01*
X36079055Y24399500D01*
X36079057Y24399500D01*
X36231784Y24440423D01*
X36368716Y24519480D01*
X36428293Y24579057D01*
X41899500Y24579057D01*
X41899500Y24420943D01*
X41905246Y24399501D01*
X41940423Y24268217D01*
X41940426Y24268210D01*
X42019475Y24131291D01*
X42019479Y24131286D01*
X42019480Y24131284D01*
X42131284Y24019480D01*
X42131286Y24019479D01*
X42131290Y24019476D01*
X42202316Y23978470D01*
X42268216Y23940423D01*
X42420943Y23899500D01*
X42420945Y23899500D01*
X42579055Y23899500D01*
X42579057Y23899500D01*
X42731784Y23940423D01*
X42868716Y24019480D01*
X42980520Y24131284D01*
X43059577Y24268216D01*
X43100500Y24420943D01*
X43100500Y24579057D01*
X43059577Y24731784D01*
X43038543Y24768217D01*
X42980524Y24868710D01*
X42980518Y24868718D01*
X42868717Y24980519D01*
X42868709Y24980525D01*
X42731790Y25059574D01*
X42731786Y25059576D01*
X42731784Y25059577D01*
X42579057Y25100500D01*
X42420943Y25100500D01*
X42268216Y25059577D01*
X42268209Y25059574D01*
X42131290Y24980525D01*
X42131282Y24980519D01*
X42019481Y24868718D01*
X42019475Y24868710D01*
X41940426Y24731791D01*
X41940423Y24731784D01*
X41899500Y24579057D01*
X36428293Y24579057D01*
X36480520Y24631284D01*
X36484352Y24637922D01*
X36490855Y24649184D01*
X36538547Y24731791D01*
X36559577Y24768216D01*
X36600500Y24920943D01*
X36600500Y25079057D01*
X36559577Y25231784D01*
X36514963Y25309059D01*
X36480524Y25368710D01*
X36480518Y25368718D01*
X36368717Y25480519D01*
X36368709Y25480525D01*
X36231790Y25559574D01*
X36231786Y25559576D01*
X36231784Y25559577D01*
X36079057Y25600500D01*
X35920943Y25600500D01*
X35920941Y25600500D01*
X35856591Y25583258D01*
X35786741Y25584922D01*
X35728879Y25624085D01*
X35701376Y25688314D01*
X35700499Y25703018D01*
X35700499Y26594487D01*
X36759500Y26594487D01*
X36759500Y26405514D01*
X36789059Y26218882D01*
X36847454Y26039164D01*
X36933239Y25870803D01*
X36933240Y25870801D01*
X37044310Y25717927D01*
X37177927Y25584310D01*
X37330801Y25473240D01*
X37410347Y25432710D01*
X37499163Y25387455D01*
X37499165Y25387455D01*
X37499168Y25387453D01*
X37556853Y25368710D01*
X37678881Y25329060D01*
X37865514Y25299500D01*
X37865519Y25299500D01*
X38054486Y25299500D01*
X38241118Y25329060D01*
X38420832Y25387453D01*
X38589199Y25473240D01*
X38742073Y25584310D01*
X38875690Y25717927D01*
X38986760Y25870801D01*
X39065015Y26024387D01*
X39112989Y26075183D01*
X39180810Y26091978D01*
X39246945Y26069441D01*
X39290397Y26014726D01*
X39299500Y25968092D01*
X39299500Y25555144D01*
X39299502Y25555118D01*
X39302413Y25530013D01*
X39302415Y25530009D01*
X39347793Y25427236D01*
X39347794Y25427235D01*
X39427235Y25347794D01*
X39530009Y25302415D01*
X39555135Y25299500D01*
X41444864Y25299501D01*
X41444879Y25299503D01*
X41444882Y25299503D01*
X41469987Y25302414D01*
X41469988Y25302415D01*
X41469991Y25302415D01*
X41572765Y25347794D01*
X41652206Y25427235D01*
X41697585Y25530009D01*
X41700500Y25555135D01*
X41700499Y26594487D01*
X43259500Y26594487D01*
X43259500Y26405514D01*
X43289059Y26218882D01*
X43347454Y26039164D01*
X43433239Y25870803D01*
X43433240Y25870801D01*
X43544310Y25717927D01*
X43677927Y25584310D01*
X43830801Y25473240D01*
X43910347Y25432710D01*
X43999163Y25387455D01*
X43999165Y25387455D01*
X43999168Y25387453D01*
X44056853Y25368710D01*
X44178881Y25329060D01*
X44365514Y25299500D01*
X44365519Y25299500D01*
X44554486Y25299500D01*
X44741118Y25329060D01*
X44920832Y25387453D01*
X45089199Y25473240D01*
X45242073Y25584310D01*
X45375690Y25717927D01*
X45486760Y25870801D01*
X45565015Y26024387D01*
X45612989Y26075183D01*
X45680810Y26091978D01*
X45746945Y26069441D01*
X45790397Y26014726D01*
X45799500Y25968092D01*
X45799500Y25555144D01*
X45799502Y25555118D01*
X45802413Y25530013D01*
X45802415Y25530009D01*
X45847793Y25427236D01*
X45847794Y25427235D01*
X45927235Y25347794D01*
X46030009Y25302415D01*
X46055135Y25299500D01*
X47944864Y25299501D01*
X47944879Y25299503D01*
X47944882Y25299503D01*
X47969987Y25302414D01*
X47969988Y25302415D01*
X47969991Y25302415D01*
X48072765Y25347794D01*
X48152206Y25427235D01*
X48197585Y25530009D01*
X48200500Y25555135D01*
X48200499Y27444864D01*
X48200497Y27444883D01*
X48197586Y27469988D01*
X48197585Y27469990D01*
X48197585Y27469991D01*
X48152206Y27572765D01*
X48072765Y27652206D01*
X48072763Y27652207D01*
X47969992Y27697585D01*
X47944865Y27700500D01*
X46055143Y27700500D01*
X46055117Y27700498D01*
X46030012Y27697587D01*
X46030008Y27697585D01*
X45927235Y27652207D01*
X45847794Y27572766D01*
X45802415Y27469994D01*
X45802415Y27469992D01*
X45799500Y27444869D01*
X45799500Y27031910D01*
X45779815Y26964871D01*
X45727011Y26919116D01*
X45657853Y26909172D01*
X45594297Y26938197D01*
X45565015Y26975615D01*
X45486759Y27129200D01*
X45485240Y27131291D01*
X45375690Y27282073D01*
X45242073Y27415690D01*
X45089199Y27526760D01*
X44920836Y27612546D01*
X44741118Y27670941D01*
X44554486Y27700500D01*
X44554481Y27700500D01*
X44365519Y27700500D01*
X44365514Y27700500D01*
X44178881Y27670941D01*
X43999163Y27612546D01*
X43830800Y27526760D01*
X43752661Y27469988D01*
X43677927Y27415690D01*
X43677925Y27415688D01*
X43677924Y27415688D01*
X43544312Y27282076D01*
X43544312Y27282075D01*
X43544310Y27282073D01*
X43534238Y27268210D01*
X43433240Y27129200D01*
X43347454Y26960837D01*
X43289059Y26781119D01*
X43259500Y26594487D01*
X41700499Y26594487D01*
X41700499Y27444864D01*
X41700497Y27444883D01*
X41697586Y27469988D01*
X41697585Y27469990D01*
X41697585Y27469991D01*
X41652206Y27572765D01*
X41572765Y27652206D01*
X41572763Y27652207D01*
X41469992Y27697585D01*
X41444865Y27700500D01*
X39555143Y27700500D01*
X39555117Y27700498D01*
X39530012Y27697587D01*
X39530008Y27697585D01*
X39427235Y27652207D01*
X39347794Y27572766D01*
X39302415Y27469994D01*
X39302415Y27469992D01*
X39299500Y27444869D01*
X39299500Y27031910D01*
X39279815Y26964871D01*
X39227011Y26919116D01*
X39157853Y26909172D01*
X39094297Y26938197D01*
X39065015Y26975615D01*
X38986759Y27129200D01*
X38985240Y27131291D01*
X38875690Y27282073D01*
X38742073Y27415690D01*
X38589199Y27526760D01*
X38420836Y27612546D01*
X38241118Y27670941D01*
X38054486Y27700500D01*
X38054481Y27700500D01*
X37865519Y27700500D01*
X37865514Y27700500D01*
X37678881Y27670941D01*
X37499163Y27612546D01*
X37330800Y27526760D01*
X37252661Y27469988D01*
X37177927Y27415690D01*
X37177925Y27415688D01*
X37177924Y27415688D01*
X37044312Y27282076D01*
X37044312Y27282075D01*
X37044310Y27282073D01*
X37034238Y27268210D01*
X36933240Y27129200D01*
X36847454Y26960837D01*
X36789059Y26781119D01*
X36759500Y26594487D01*
X35700499Y26594487D01*
X35700499Y27444864D01*
X35700497Y27444883D01*
X35697586Y27469988D01*
X35697585Y27469990D01*
X35697585Y27469991D01*
X35652206Y27572765D01*
X35572765Y27652206D01*
X35572763Y27652207D01*
X35469992Y27697585D01*
X35444865Y27700500D01*
X33555143Y27700500D01*
X33555117Y27700498D01*
X33530012Y27697587D01*
X33530008Y27697585D01*
X33427235Y27652207D01*
X33347794Y27572766D01*
X33302415Y27469994D01*
X33302415Y27469992D01*
X33299500Y27444869D01*
X33299500Y27031910D01*
X33279815Y26964871D01*
X33227011Y26919116D01*
X33157853Y26909172D01*
X33094297Y26938197D01*
X33065015Y26975615D01*
X32986759Y27129200D01*
X32985240Y27131291D01*
X32875690Y27282073D01*
X32742073Y27415690D01*
X32589199Y27526760D01*
X32420836Y27612546D01*
X32241118Y27670941D01*
X32054486Y27700500D01*
X32054481Y27700500D01*
X31865519Y27700500D01*
X31865514Y27700500D01*
X31678881Y27670941D01*
X31499163Y27612546D01*
X31330800Y27526760D01*
X31252661Y27469988D01*
X31177927Y27415690D01*
X31177925Y27415688D01*
X31177924Y27415688D01*
X31044312Y27282076D01*
X31044312Y27282075D01*
X31044310Y27282073D01*
X31034238Y27268210D01*
X30933240Y27129200D01*
X30847454Y26960837D01*
X30789059Y26781119D01*
X30759500Y26594487D01*
X300500Y26594487D01*
X300500Y27579057D01*
X28899500Y27579057D01*
X28899500Y27420943D01*
X28936710Y27282075D01*
X28940423Y27268217D01*
X28940426Y27268210D01*
X29019475Y27131291D01*
X29019479Y27131286D01*
X29019480Y27131284D01*
X29131284Y27019480D01*
X29131286Y27019479D01*
X29131290Y27019476D01*
X29232866Y26960832D01*
X29268216Y26940423D01*
X29420943Y26899500D01*
X29420945Y26899500D01*
X29579055Y26899500D01*
X29579057Y26899500D01*
X29731784Y26940423D01*
X29868716Y27019480D01*
X29980520Y27131284D01*
X30059577Y27268216D01*
X30100500Y27420943D01*
X30100500Y27579057D01*
X30059577Y27731784D01*
X30059573Y27731791D01*
X29980524Y27868710D01*
X29980518Y27868718D01*
X29868717Y27980519D01*
X29868709Y27980525D01*
X29731790Y28059574D01*
X29731786Y28059576D01*
X29731784Y28059577D01*
X29579057Y28100500D01*
X29420943Y28100500D01*
X29268216Y28059577D01*
X29268209Y28059574D01*
X29131290Y27980525D01*
X29131282Y27980519D01*
X29019481Y27868718D01*
X29019475Y27868710D01*
X28940426Y27731791D01*
X28940423Y27731784D01*
X28899500Y27579057D01*
X300500Y27579057D01*
X300500Y28575500D01*
X320185Y28642539D01*
X372989Y28688294D01*
X424500Y28699500D01*
X55075500Y28699500D01*
X55142539Y28679815D01*
G37*
%TD.AperFunction*%
%TD*%
M02*
