%TF.GenerationSoftware,KiCad,Pcbnew,9.0.6*%
%TF.CreationDate,2026-05-14T13:26:13+02:00*%
%TF.ProjectId,Hardware,48617264-7761-4726-952e-6b696361645f,rev?*%
%TF.SameCoordinates,PX7b80360PY518a060*%
%TF.FileFunction,Paste,Bot*%
%TF.FilePolarity,Positive*%
%FSLAX46Y46*%
G04 Gerber Fmt 4.6, Leading zero omitted, Abs format (unit mm)*
G04 Created by KiCad (PCBNEW 9.0.6) date 2026-05-14 13:26:13*
%MOMM*%
%LPD*%
G01*
G04 APERTURE LIST*
%ADD10C,0.100000*%
%ADD11C,0.150000*%
%ADD12C,0.300000*%
%ADD13C,0.400000*%
G04 APERTURE END LIST*
D10*
D11*
X47502200Y-80507200D02*
X155502200Y-80507200D01*
X155502200Y-112507200D01*
X47502200Y-112507200D01*
X47502200Y-80507200D01*
D10*
D11*
X-119500000Y75500000D02*
X157502200Y75500000D01*
X157502200Y-114507200D01*
X-119500000Y-114507200D01*
X-119500000Y75500000D01*
D10*
D11*
X-117500000Y73500000D02*
X155502200Y73500000D01*
X155502200Y-112507200D01*
X-117500000Y-112507200D01*
X-117500000Y73500000D01*
D10*
D11*
X-69500000Y73500000D02*
X-69500000Y75500000D01*
D10*
D11*
X-19500000Y73500000D02*
X-19500000Y75500000D01*
D10*
D11*
X30500000Y73500000D02*
X30500000Y75500000D01*
D10*
D11*
X80500000Y73500000D02*
X80500000Y75500000D01*
D10*
D11*
X130500000Y73500000D02*
X130500000Y75500000D01*
D10*
D11*
X-93410840Y73906396D02*
X-94153697Y73906396D01*
X-93782269Y73906396D02*
X-93782269Y75206396D01*
X-93782269Y75206396D02*
X-93906078Y75020681D01*
X-93906078Y75020681D02*
X-94029888Y74896872D01*
X-94029888Y74896872D02*
X-94153697Y74834967D01*
D10*
D11*
X-44153697Y75082586D02*
X-44091793Y75144491D01*
X-44091793Y75144491D02*
X-43967983Y75206396D01*
X-43967983Y75206396D02*
X-43658459Y75206396D01*
X-43658459Y75206396D02*
X-43534650Y75144491D01*
X-43534650Y75144491D02*
X-43472745Y75082586D01*
X-43472745Y75082586D02*
X-43410840Y74958777D01*
X-43410840Y74958777D02*
X-43410840Y74834967D01*
X-43410840Y74834967D02*
X-43472745Y74649253D01*
X-43472745Y74649253D02*
X-44215602Y73906396D01*
X-44215602Y73906396D02*
X-43410840Y73906396D01*
D10*
D11*
X5784398Y75206396D02*
X6589160Y75206396D01*
X6589160Y75206396D02*
X6155826Y74711158D01*
X6155826Y74711158D02*
X6341541Y74711158D01*
X6341541Y74711158D02*
X6465350Y74649253D01*
X6465350Y74649253D02*
X6527255Y74587348D01*
X6527255Y74587348D02*
X6589160Y74463539D01*
X6589160Y74463539D02*
X6589160Y74154015D01*
X6589160Y74154015D02*
X6527255Y74030205D01*
X6527255Y74030205D02*
X6465350Y73968300D01*
X6465350Y73968300D02*
X6341541Y73906396D01*
X6341541Y73906396D02*
X5970112Y73906396D01*
X5970112Y73906396D02*
X5846303Y73968300D01*
X5846303Y73968300D02*
X5784398Y74030205D01*
D10*
D11*
X56465350Y74773062D02*
X56465350Y73906396D01*
X56155826Y75268300D02*
X55846303Y74339729D01*
X55846303Y74339729D02*
X56651064Y74339729D01*
D10*
D11*
X106527255Y75206396D02*
X105908207Y75206396D01*
X105908207Y75206396D02*
X105846303Y74587348D01*
X105846303Y74587348D02*
X105908207Y74649253D01*
X105908207Y74649253D02*
X106032017Y74711158D01*
X106032017Y74711158D02*
X106341541Y74711158D01*
X106341541Y74711158D02*
X106465350Y74649253D01*
X106465350Y74649253D02*
X106527255Y74587348D01*
X106527255Y74587348D02*
X106589160Y74463539D01*
X106589160Y74463539D02*
X106589160Y74154015D01*
X106589160Y74154015D02*
X106527255Y74030205D01*
X106527255Y74030205D02*
X106465350Y73968300D01*
X106465350Y73968300D02*
X106341541Y73906396D01*
X106341541Y73906396D02*
X106032017Y73906396D01*
X106032017Y73906396D02*
X105908207Y73968300D01*
X105908207Y73968300D02*
X105846303Y74030205D01*
D10*
D11*
X156465350Y75206396D02*
X156217731Y75206396D01*
X156217731Y75206396D02*
X156093922Y75144491D01*
X156093922Y75144491D02*
X156032017Y75082586D01*
X156032017Y75082586D02*
X155908207Y74896872D01*
X155908207Y74896872D02*
X155846303Y74649253D01*
X155846303Y74649253D02*
X155846303Y74154015D01*
X155846303Y74154015D02*
X155908207Y74030205D01*
X155908207Y74030205D02*
X155970112Y73968300D01*
X155970112Y73968300D02*
X156093922Y73906396D01*
X156093922Y73906396D02*
X156341541Y73906396D01*
X156341541Y73906396D02*
X156465350Y73968300D01*
X156465350Y73968300D02*
X156527255Y74030205D01*
X156527255Y74030205D02*
X156589160Y74154015D01*
X156589160Y74154015D02*
X156589160Y74463539D01*
X156589160Y74463539D02*
X156527255Y74587348D01*
X156527255Y74587348D02*
X156465350Y74649253D01*
X156465350Y74649253D02*
X156341541Y74711158D01*
X156341541Y74711158D02*
X156093922Y74711158D01*
X156093922Y74711158D02*
X155970112Y74649253D01*
X155970112Y74649253D02*
X155908207Y74587348D01*
X155908207Y74587348D02*
X155846303Y74463539D01*
D10*
D11*
X-69500000Y-112507200D02*
X-69500000Y-114507200D01*
D10*
D11*
X-19500000Y-112507200D02*
X-19500000Y-114507200D01*
D10*
D11*
X30500000Y-112507200D02*
X30500000Y-114507200D01*
D10*
D11*
X80500000Y-112507200D02*
X80500000Y-114507200D01*
D10*
D11*
X130500000Y-112507200D02*
X130500000Y-114507200D01*
D10*
D11*
X-93410840Y-114100804D02*
X-94153697Y-114100804D01*
X-93782269Y-114100804D02*
X-93782269Y-112800804D01*
X-93782269Y-112800804D02*
X-93906078Y-112986519D01*
X-93906078Y-112986519D02*
X-94029888Y-113110328D01*
X-94029888Y-113110328D02*
X-94153697Y-113172233D01*
D10*
D11*
X-44153697Y-112924614D02*
X-44091793Y-112862709D01*
X-44091793Y-112862709D02*
X-43967983Y-112800804D01*
X-43967983Y-112800804D02*
X-43658459Y-112800804D01*
X-43658459Y-112800804D02*
X-43534650Y-112862709D01*
X-43534650Y-112862709D02*
X-43472745Y-112924614D01*
X-43472745Y-112924614D02*
X-43410840Y-113048423D01*
X-43410840Y-113048423D02*
X-43410840Y-113172233D01*
X-43410840Y-113172233D02*
X-43472745Y-113357947D01*
X-43472745Y-113357947D02*
X-44215602Y-114100804D01*
X-44215602Y-114100804D02*
X-43410840Y-114100804D01*
D10*
D11*
X5784398Y-112800804D02*
X6589160Y-112800804D01*
X6589160Y-112800804D02*
X6155826Y-113296042D01*
X6155826Y-113296042D02*
X6341541Y-113296042D01*
X6341541Y-113296042D02*
X6465350Y-113357947D01*
X6465350Y-113357947D02*
X6527255Y-113419852D01*
X6527255Y-113419852D02*
X6589160Y-113543661D01*
X6589160Y-113543661D02*
X6589160Y-113853185D01*
X6589160Y-113853185D02*
X6527255Y-113976995D01*
X6527255Y-113976995D02*
X6465350Y-114038900D01*
X6465350Y-114038900D02*
X6341541Y-114100804D01*
X6341541Y-114100804D02*
X5970112Y-114100804D01*
X5970112Y-114100804D02*
X5846303Y-114038900D01*
X5846303Y-114038900D02*
X5784398Y-113976995D01*
D10*
D11*
X56465350Y-113234138D02*
X56465350Y-114100804D01*
X56155826Y-112738900D02*
X55846303Y-113667471D01*
X55846303Y-113667471D02*
X56651064Y-113667471D01*
D10*
D11*
X106527255Y-112800804D02*
X105908207Y-112800804D01*
X105908207Y-112800804D02*
X105846303Y-113419852D01*
X105846303Y-113419852D02*
X105908207Y-113357947D01*
X105908207Y-113357947D02*
X106032017Y-113296042D01*
X106032017Y-113296042D02*
X106341541Y-113296042D01*
X106341541Y-113296042D02*
X106465350Y-113357947D01*
X106465350Y-113357947D02*
X106527255Y-113419852D01*
X106527255Y-113419852D02*
X106589160Y-113543661D01*
X106589160Y-113543661D02*
X106589160Y-113853185D01*
X106589160Y-113853185D02*
X106527255Y-113976995D01*
X106527255Y-113976995D02*
X106465350Y-114038900D01*
X106465350Y-114038900D02*
X106341541Y-114100804D01*
X106341541Y-114100804D02*
X106032017Y-114100804D01*
X106032017Y-114100804D02*
X105908207Y-114038900D01*
X105908207Y-114038900D02*
X105846303Y-113976995D01*
D10*
D11*
X156465350Y-112800804D02*
X156217731Y-112800804D01*
X156217731Y-112800804D02*
X156093922Y-112862709D01*
X156093922Y-112862709D02*
X156032017Y-112924614D01*
X156032017Y-112924614D02*
X155908207Y-113110328D01*
X155908207Y-113110328D02*
X155846303Y-113357947D01*
X155846303Y-113357947D02*
X155846303Y-113853185D01*
X155846303Y-113853185D02*
X155908207Y-113976995D01*
X155908207Y-113976995D02*
X155970112Y-114038900D01*
X155970112Y-114038900D02*
X156093922Y-114100804D01*
X156093922Y-114100804D02*
X156341541Y-114100804D01*
X156341541Y-114100804D02*
X156465350Y-114038900D01*
X156465350Y-114038900D02*
X156527255Y-113976995D01*
X156527255Y-113976995D02*
X156589160Y-113853185D01*
X156589160Y-113853185D02*
X156589160Y-113543661D01*
X156589160Y-113543661D02*
X156527255Y-113419852D01*
X156527255Y-113419852D02*
X156465350Y-113357947D01*
X156465350Y-113357947D02*
X156341541Y-113296042D01*
X156341541Y-113296042D02*
X156093922Y-113296042D01*
X156093922Y-113296042D02*
X155970112Y-113357947D01*
X155970112Y-113357947D02*
X155908207Y-113419852D01*
X155908207Y-113419852D02*
X155846303Y-113543661D01*
D10*
D11*
X-119500000Y25500000D02*
X-117500000Y25500000D01*
D10*
D11*
X-119500000Y-24500000D02*
X-117500000Y-24500000D01*
D10*
D11*
X-119500000Y-74500000D02*
X-117500000Y-74500000D01*
D10*
D11*
X-118809524Y50277824D02*
X-118190477Y50277824D01*
X-118933334Y49906396D02*
X-118500001Y51206396D01*
X-118500001Y51206396D02*
X-118066667Y49906396D01*
D10*
D11*
X-118407143Y587348D02*
X-118221429Y525443D01*
X-118221429Y525443D02*
X-118159524Y463539D01*
X-118159524Y463539D02*
X-118097620Y339729D01*
X-118097620Y339729D02*
X-118097620Y154015D01*
X-118097620Y154015D02*
X-118159524Y30205D01*
X-118159524Y30205D02*
X-118221429Y-31700D01*
X-118221429Y-31700D02*
X-118345239Y-93604D01*
X-118345239Y-93604D02*
X-118840477Y-93604D01*
X-118840477Y-93604D02*
X-118840477Y1206396D01*
X-118840477Y1206396D02*
X-118407143Y1206396D01*
X-118407143Y1206396D02*
X-118283334Y1144491D01*
X-118283334Y1144491D02*
X-118221429Y1082586D01*
X-118221429Y1082586D02*
X-118159524Y958777D01*
X-118159524Y958777D02*
X-118159524Y834967D01*
X-118159524Y834967D02*
X-118221429Y711158D01*
X-118221429Y711158D02*
X-118283334Y649253D01*
X-118283334Y649253D02*
X-118407143Y587348D01*
X-118407143Y587348D02*
X-118840477Y587348D01*
D10*
D11*
X-118097620Y-49969795D02*
X-118159524Y-50031700D01*
X-118159524Y-50031700D02*
X-118345239Y-50093604D01*
X-118345239Y-50093604D02*
X-118469048Y-50093604D01*
X-118469048Y-50093604D02*
X-118654762Y-50031700D01*
X-118654762Y-50031700D02*
X-118778572Y-49907890D01*
X-118778572Y-49907890D02*
X-118840477Y-49784080D01*
X-118840477Y-49784080D02*
X-118902381Y-49536461D01*
X-118902381Y-49536461D02*
X-118902381Y-49350747D01*
X-118902381Y-49350747D02*
X-118840477Y-49103128D01*
X-118840477Y-49103128D02*
X-118778572Y-48979319D01*
X-118778572Y-48979319D02*
X-118654762Y-48855509D01*
X-118654762Y-48855509D02*
X-118469048Y-48793604D01*
X-118469048Y-48793604D02*
X-118345239Y-48793604D01*
X-118345239Y-48793604D02*
X-118159524Y-48855509D01*
X-118159524Y-48855509D02*
X-118097620Y-48917414D01*
D10*
D11*
X-118840477Y-100093604D02*
X-118840477Y-98793604D01*
X-118840477Y-98793604D02*
X-118530953Y-98793604D01*
X-118530953Y-98793604D02*
X-118345239Y-98855509D01*
X-118345239Y-98855509D02*
X-118221429Y-98979319D01*
X-118221429Y-98979319D02*
X-118159524Y-99103128D01*
X-118159524Y-99103128D02*
X-118097620Y-99350747D01*
X-118097620Y-99350747D02*
X-118097620Y-99536461D01*
X-118097620Y-99536461D02*
X-118159524Y-99784080D01*
X-118159524Y-99784080D02*
X-118221429Y-99907890D01*
X-118221429Y-99907890D02*
X-118345239Y-100031700D01*
X-118345239Y-100031700D02*
X-118530953Y-100093604D01*
X-118530953Y-100093604D02*
X-118840477Y-100093604D01*
D10*
D11*
X157502200Y25500000D02*
X155502200Y25500000D01*
D10*
D11*
X157502200Y-24500000D02*
X155502200Y-24500000D01*
D10*
D11*
X157502200Y-74500000D02*
X155502200Y-74500000D01*
D10*
D11*
X156192676Y50277824D02*
X156811723Y50277824D01*
X156068866Y49906396D02*
X156502199Y51206396D01*
X156502199Y51206396D02*
X156935533Y49906396D01*
D10*
D11*
X156595057Y587348D02*
X156780771Y525443D01*
X156780771Y525443D02*
X156842676Y463539D01*
X156842676Y463539D02*
X156904580Y339729D01*
X156904580Y339729D02*
X156904580Y154015D01*
X156904580Y154015D02*
X156842676Y30205D01*
X156842676Y30205D02*
X156780771Y-31700D01*
X156780771Y-31700D02*
X156656961Y-93604D01*
X156656961Y-93604D02*
X156161723Y-93604D01*
X156161723Y-93604D02*
X156161723Y1206396D01*
X156161723Y1206396D02*
X156595057Y1206396D01*
X156595057Y1206396D02*
X156718866Y1144491D01*
X156718866Y1144491D02*
X156780771Y1082586D01*
X156780771Y1082586D02*
X156842676Y958777D01*
X156842676Y958777D02*
X156842676Y834967D01*
X156842676Y834967D02*
X156780771Y711158D01*
X156780771Y711158D02*
X156718866Y649253D01*
X156718866Y649253D02*
X156595057Y587348D01*
X156595057Y587348D02*
X156161723Y587348D01*
D10*
D11*
X156904580Y-49969795D02*
X156842676Y-50031700D01*
X156842676Y-50031700D02*
X156656961Y-50093604D01*
X156656961Y-50093604D02*
X156533152Y-50093604D01*
X156533152Y-50093604D02*
X156347438Y-50031700D01*
X156347438Y-50031700D02*
X156223628Y-49907890D01*
X156223628Y-49907890D02*
X156161723Y-49784080D01*
X156161723Y-49784080D02*
X156099819Y-49536461D01*
X156099819Y-49536461D02*
X156099819Y-49350747D01*
X156099819Y-49350747D02*
X156161723Y-49103128D01*
X156161723Y-49103128D02*
X156223628Y-48979319D01*
X156223628Y-48979319D02*
X156347438Y-48855509D01*
X156347438Y-48855509D02*
X156533152Y-48793604D01*
X156533152Y-48793604D02*
X156656961Y-48793604D01*
X156656961Y-48793604D02*
X156842676Y-48855509D01*
X156842676Y-48855509D02*
X156904580Y-48917414D01*
D10*
D11*
X156161723Y-100093604D02*
X156161723Y-98793604D01*
X156161723Y-98793604D02*
X156471247Y-98793604D01*
X156471247Y-98793604D02*
X156656961Y-98855509D01*
X156656961Y-98855509D02*
X156780771Y-98979319D01*
X156780771Y-98979319D02*
X156842676Y-99103128D01*
X156842676Y-99103128D02*
X156904580Y-99350747D01*
X156904580Y-99350747D02*
X156904580Y-99536461D01*
X156904580Y-99536461D02*
X156842676Y-99784080D01*
X156842676Y-99784080D02*
X156780771Y-99907890D01*
X156780771Y-99907890D02*
X156656961Y-100031700D01*
X156656961Y-100031700D02*
X156471247Y-100093604D01*
X156471247Y-100093604D02*
X156161723Y-100093604D01*
D10*
D11*
X70958026Y-108293328D02*
X70958026Y-106793328D01*
X70958026Y-106793328D02*
X71315169Y-106793328D01*
X71315169Y-106793328D02*
X71529455Y-106864757D01*
X71529455Y-106864757D02*
X71672312Y-107007614D01*
X71672312Y-107007614D02*
X71743741Y-107150471D01*
X71743741Y-107150471D02*
X71815169Y-107436185D01*
X71815169Y-107436185D02*
X71815169Y-107650471D01*
X71815169Y-107650471D02*
X71743741Y-107936185D01*
X71743741Y-107936185D02*
X71672312Y-108079042D01*
X71672312Y-108079042D02*
X71529455Y-108221900D01*
X71529455Y-108221900D02*
X71315169Y-108293328D01*
X71315169Y-108293328D02*
X70958026Y-108293328D01*
X73100884Y-108293328D02*
X73100884Y-107507614D01*
X73100884Y-107507614D02*
X73029455Y-107364757D01*
X73029455Y-107364757D02*
X72886598Y-107293328D01*
X72886598Y-107293328D02*
X72600884Y-107293328D01*
X72600884Y-107293328D02*
X72458026Y-107364757D01*
X73100884Y-108221900D02*
X72958026Y-108293328D01*
X72958026Y-108293328D02*
X72600884Y-108293328D01*
X72600884Y-108293328D02*
X72458026Y-108221900D01*
X72458026Y-108221900D02*
X72386598Y-108079042D01*
X72386598Y-108079042D02*
X72386598Y-107936185D01*
X72386598Y-107936185D02*
X72458026Y-107793328D01*
X72458026Y-107793328D02*
X72600884Y-107721900D01*
X72600884Y-107721900D02*
X72958026Y-107721900D01*
X72958026Y-107721900D02*
X73100884Y-107650471D01*
X73600884Y-107293328D02*
X74172312Y-107293328D01*
X73815169Y-106793328D02*
X73815169Y-108079042D01*
X73815169Y-108079042D02*
X73886598Y-108221900D01*
X73886598Y-108221900D02*
X74029455Y-108293328D01*
X74029455Y-108293328D02*
X74172312Y-108293328D01*
X75243741Y-108221900D02*
X75100884Y-108293328D01*
X75100884Y-108293328D02*
X74815170Y-108293328D01*
X74815170Y-108293328D02*
X74672312Y-108221900D01*
X74672312Y-108221900D02*
X74600884Y-108079042D01*
X74600884Y-108079042D02*
X74600884Y-107507614D01*
X74600884Y-107507614D02*
X74672312Y-107364757D01*
X74672312Y-107364757D02*
X74815170Y-107293328D01*
X74815170Y-107293328D02*
X75100884Y-107293328D01*
X75100884Y-107293328D02*
X75243741Y-107364757D01*
X75243741Y-107364757D02*
X75315170Y-107507614D01*
X75315170Y-107507614D02*
X75315170Y-107650471D01*
X75315170Y-107650471D02*
X74600884Y-107793328D01*
X75958026Y-108150471D02*
X76029455Y-108221900D01*
X76029455Y-108221900D02*
X75958026Y-108293328D01*
X75958026Y-108293328D02*
X75886598Y-108221900D01*
X75886598Y-108221900D02*
X75958026Y-108150471D01*
X75958026Y-108150471D02*
X75958026Y-108293328D01*
X75958026Y-107364757D02*
X76029455Y-107436185D01*
X76029455Y-107436185D02*
X75958026Y-107507614D01*
X75958026Y-107507614D02*
X75886598Y-107436185D01*
X75886598Y-107436185D02*
X75958026Y-107364757D01*
X75958026Y-107364757D02*
X75958026Y-107507614D01*
D10*
D11*
X47502200Y-109007200D02*
X155502200Y-109007200D01*
D10*
D11*
X48958026Y-111093328D02*
X48958026Y-109593328D01*
X49815169Y-111093328D02*
X49172312Y-110236185D01*
X49815169Y-109593328D02*
X48958026Y-110450471D01*
X50458026Y-111093328D02*
X50458026Y-110093328D01*
X50458026Y-109593328D02*
X50386598Y-109664757D01*
X50386598Y-109664757D02*
X50458026Y-109736185D01*
X50458026Y-109736185D02*
X50529455Y-109664757D01*
X50529455Y-109664757D02*
X50458026Y-109593328D01*
X50458026Y-109593328D02*
X50458026Y-109736185D01*
X52029455Y-110950471D02*
X51958027Y-111021900D01*
X51958027Y-111021900D02*
X51743741Y-111093328D01*
X51743741Y-111093328D02*
X51600884Y-111093328D01*
X51600884Y-111093328D02*
X51386598Y-111021900D01*
X51386598Y-111021900D02*
X51243741Y-110879042D01*
X51243741Y-110879042D02*
X51172312Y-110736185D01*
X51172312Y-110736185D02*
X51100884Y-110450471D01*
X51100884Y-110450471D02*
X51100884Y-110236185D01*
X51100884Y-110236185D02*
X51172312Y-109950471D01*
X51172312Y-109950471D02*
X51243741Y-109807614D01*
X51243741Y-109807614D02*
X51386598Y-109664757D01*
X51386598Y-109664757D02*
X51600884Y-109593328D01*
X51600884Y-109593328D02*
X51743741Y-109593328D01*
X51743741Y-109593328D02*
X51958027Y-109664757D01*
X51958027Y-109664757D02*
X52029455Y-109736185D01*
X53315170Y-111093328D02*
X53315170Y-110307614D01*
X53315170Y-110307614D02*
X53243741Y-110164757D01*
X53243741Y-110164757D02*
X53100884Y-110093328D01*
X53100884Y-110093328D02*
X52815170Y-110093328D01*
X52815170Y-110093328D02*
X52672312Y-110164757D01*
X53315170Y-111021900D02*
X53172312Y-111093328D01*
X53172312Y-111093328D02*
X52815170Y-111093328D01*
X52815170Y-111093328D02*
X52672312Y-111021900D01*
X52672312Y-111021900D02*
X52600884Y-110879042D01*
X52600884Y-110879042D02*
X52600884Y-110736185D01*
X52600884Y-110736185D02*
X52672312Y-110593328D01*
X52672312Y-110593328D02*
X52815170Y-110521900D01*
X52815170Y-110521900D02*
X53172312Y-110521900D01*
X53172312Y-110521900D02*
X53315170Y-110450471D01*
X54672313Y-111093328D02*
X54672313Y-109593328D01*
X54672313Y-111021900D02*
X54529455Y-111093328D01*
X54529455Y-111093328D02*
X54243741Y-111093328D01*
X54243741Y-111093328D02*
X54100884Y-111021900D01*
X54100884Y-111021900D02*
X54029455Y-110950471D01*
X54029455Y-110950471D02*
X53958027Y-110807614D01*
X53958027Y-110807614D02*
X53958027Y-110379042D01*
X53958027Y-110379042D02*
X54029455Y-110236185D01*
X54029455Y-110236185D02*
X54100884Y-110164757D01*
X54100884Y-110164757D02*
X54243741Y-110093328D01*
X54243741Y-110093328D02*
X54529455Y-110093328D01*
X54529455Y-110093328D02*
X54672313Y-110164757D01*
X56529455Y-110307614D02*
X57029455Y-110307614D01*
X57243741Y-111093328D02*
X56529455Y-111093328D01*
X56529455Y-111093328D02*
X56529455Y-109593328D01*
X56529455Y-109593328D02*
X57243741Y-109593328D01*
X57886598Y-110950471D02*
X57958027Y-111021900D01*
X57958027Y-111021900D02*
X57886598Y-111093328D01*
X57886598Y-111093328D02*
X57815170Y-111021900D01*
X57815170Y-111021900D02*
X57886598Y-110950471D01*
X57886598Y-110950471D02*
X57886598Y-111093328D01*
X58600884Y-111093328D02*
X58600884Y-109593328D01*
X58600884Y-109593328D02*
X58958027Y-109593328D01*
X58958027Y-109593328D02*
X59172313Y-109664757D01*
X59172313Y-109664757D02*
X59315170Y-109807614D01*
X59315170Y-109807614D02*
X59386599Y-109950471D01*
X59386599Y-109950471D02*
X59458027Y-110236185D01*
X59458027Y-110236185D02*
X59458027Y-110450471D01*
X59458027Y-110450471D02*
X59386599Y-110736185D01*
X59386599Y-110736185D02*
X59315170Y-110879042D01*
X59315170Y-110879042D02*
X59172313Y-111021900D01*
X59172313Y-111021900D02*
X58958027Y-111093328D01*
X58958027Y-111093328D02*
X58600884Y-111093328D01*
X60100884Y-110950471D02*
X60172313Y-111021900D01*
X60172313Y-111021900D02*
X60100884Y-111093328D01*
X60100884Y-111093328D02*
X60029456Y-111021900D01*
X60029456Y-111021900D02*
X60100884Y-110950471D01*
X60100884Y-110950471D02*
X60100884Y-111093328D01*
X60743742Y-110664757D02*
X61458028Y-110664757D01*
X60600885Y-111093328D02*
X61100885Y-109593328D01*
X61100885Y-109593328D02*
X61600885Y-111093328D01*
X62100884Y-110950471D02*
X62172313Y-111021900D01*
X62172313Y-111021900D02*
X62100884Y-111093328D01*
X62100884Y-111093328D02*
X62029456Y-111021900D01*
X62029456Y-111021900D02*
X62100884Y-110950471D01*
X62100884Y-110950471D02*
X62100884Y-111093328D01*
X64029456Y-111093328D02*
X64315170Y-111093328D01*
X64315170Y-111093328D02*
X64458027Y-111021900D01*
X64458027Y-111021900D02*
X64529456Y-110950471D01*
X64529456Y-110950471D02*
X64672313Y-110736185D01*
X64672313Y-110736185D02*
X64743742Y-110450471D01*
X64743742Y-110450471D02*
X64743742Y-109879042D01*
X64743742Y-109879042D02*
X64672313Y-109736185D01*
X64672313Y-109736185D02*
X64600885Y-109664757D01*
X64600885Y-109664757D02*
X64458027Y-109593328D01*
X64458027Y-109593328D02*
X64172313Y-109593328D01*
X64172313Y-109593328D02*
X64029456Y-109664757D01*
X64029456Y-109664757D02*
X63958027Y-109736185D01*
X63958027Y-109736185D02*
X63886599Y-109879042D01*
X63886599Y-109879042D02*
X63886599Y-110236185D01*
X63886599Y-110236185D02*
X63958027Y-110379042D01*
X63958027Y-110379042D02*
X64029456Y-110450471D01*
X64029456Y-110450471D02*
X64172313Y-110521900D01*
X64172313Y-110521900D02*
X64458027Y-110521900D01*
X64458027Y-110521900D02*
X64600885Y-110450471D01*
X64600885Y-110450471D02*
X64672313Y-110379042D01*
X64672313Y-110379042D02*
X64743742Y-110236185D01*
X65386598Y-110950471D02*
X65458027Y-111021900D01*
X65458027Y-111021900D02*
X65386598Y-111093328D01*
X65386598Y-111093328D02*
X65315170Y-111021900D01*
X65315170Y-111021900D02*
X65386598Y-110950471D01*
X65386598Y-110950471D02*
X65386598Y-111093328D01*
X66386599Y-109593328D02*
X66529456Y-109593328D01*
X66529456Y-109593328D02*
X66672313Y-109664757D01*
X66672313Y-109664757D02*
X66743742Y-109736185D01*
X66743742Y-109736185D02*
X66815170Y-109879042D01*
X66815170Y-109879042D02*
X66886599Y-110164757D01*
X66886599Y-110164757D02*
X66886599Y-110521900D01*
X66886599Y-110521900D02*
X66815170Y-110807614D01*
X66815170Y-110807614D02*
X66743742Y-110950471D01*
X66743742Y-110950471D02*
X66672313Y-111021900D01*
X66672313Y-111021900D02*
X66529456Y-111093328D01*
X66529456Y-111093328D02*
X66386599Y-111093328D01*
X66386599Y-111093328D02*
X66243742Y-111021900D01*
X66243742Y-111021900D02*
X66172313Y-110950471D01*
X66172313Y-110950471D02*
X66100884Y-110807614D01*
X66100884Y-110807614D02*
X66029456Y-110521900D01*
X66029456Y-110521900D02*
X66029456Y-110164757D01*
X66029456Y-110164757D02*
X66100884Y-109879042D01*
X66100884Y-109879042D02*
X66172313Y-109736185D01*
X66172313Y-109736185D02*
X66243742Y-109664757D01*
X66243742Y-109664757D02*
X66386599Y-109593328D01*
X67529455Y-110950471D02*
X67600884Y-111021900D01*
X67600884Y-111021900D02*
X67529455Y-111093328D01*
X67529455Y-111093328D02*
X67458027Y-111021900D01*
X67458027Y-111021900D02*
X67529455Y-110950471D01*
X67529455Y-110950471D02*
X67529455Y-111093328D01*
X68886599Y-109593328D02*
X68600884Y-109593328D01*
X68600884Y-109593328D02*
X68458027Y-109664757D01*
X68458027Y-109664757D02*
X68386599Y-109736185D01*
X68386599Y-109736185D02*
X68243741Y-109950471D01*
X68243741Y-109950471D02*
X68172313Y-110236185D01*
X68172313Y-110236185D02*
X68172313Y-110807614D01*
X68172313Y-110807614D02*
X68243741Y-110950471D01*
X68243741Y-110950471D02*
X68315170Y-111021900D01*
X68315170Y-111021900D02*
X68458027Y-111093328D01*
X68458027Y-111093328D02*
X68743741Y-111093328D01*
X68743741Y-111093328D02*
X68886599Y-111021900D01*
X68886599Y-111021900D02*
X68958027Y-110950471D01*
X68958027Y-110950471D02*
X69029456Y-110807614D01*
X69029456Y-110807614D02*
X69029456Y-110450471D01*
X69029456Y-110450471D02*
X68958027Y-110307614D01*
X68958027Y-110307614D02*
X68886599Y-110236185D01*
X68886599Y-110236185D02*
X68743741Y-110164757D01*
X68743741Y-110164757D02*
X68458027Y-110164757D01*
X68458027Y-110164757D02*
X68315170Y-110236185D01*
X68315170Y-110236185D02*
X68243741Y-110307614D01*
X68243741Y-110307614D02*
X68172313Y-110450471D01*
D10*
D11*
X47502200Y-106007200D02*
X155502200Y-106007200D01*
D10*
D12*
X134913853Y-108285528D02*
X134413853Y-107571242D01*
X134056710Y-108285528D02*
X134056710Y-106785528D01*
X134056710Y-106785528D02*
X134628139Y-106785528D01*
X134628139Y-106785528D02*
X134770996Y-106856957D01*
X134770996Y-106856957D02*
X134842425Y-106928385D01*
X134842425Y-106928385D02*
X134913853Y-107071242D01*
X134913853Y-107071242D02*
X134913853Y-107285528D01*
X134913853Y-107285528D02*
X134842425Y-107428385D01*
X134842425Y-107428385D02*
X134770996Y-107499814D01*
X134770996Y-107499814D02*
X134628139Y-107571242D01*
X134628139Y-107571242D02*
X134056710Y-107571242D01*
X136128139Y-108214100D02*
X135985282Y-108285528D01*
X135985282Y-108285528D02*
X135699568Y-108285528D01*
X135699568Y-108285528D02*
X135556710Y-108214100D01*
X135556710Y-108214100D02*
X135485282Y-108071242D01*
X135485282Y-108071242D02*
X135485282Y-107499814D01*
X135485282Y-107499814D02*
X135556710Y-107356957D01*
X135556710Y-107356957D02*
X135699568Y-107285528D01*
X135699568Y-107285528D02*
X135985282Y-107285528D01*
X135985282Y-107285528D02*
X136128139Y-107356957D01*
X136128139Y-107356957D02*
X136199568Y-107499814D01*
X136199568Y-107499814D02*
X136199568Y-107642671D01*
X136199568Y-107642671D02*
X135485282Y-107785528D01*
X136699567Y-107285528D02*
X137056710Y-108285528D01*
X137056710Y-108285528D02*
X137413853Y-107285528D01*
X137985281Y-108142671D02*
X138056710Y-108214100D01*
X138056710Y-108214100D02*
X137985281Y-108285528D01*
X137985281Y-108285528D02*
X137913853Y-108214100D01*
X137913853Y-108214100D02*
X137985281Y-108142671D01*
X137985281Y-108142671D02*
X137985281Y-108285528D01*
X137985281Y-107356957D02*
X138056710Y-107428385D01*
X138056710Y-107428385D02*
X137985281Y-107499814D01*
X137985281Y-107499814D02*
X137913853Y-107428385D01*
X137913853Y-107428385D02*
X137985281Y-107356957D01*
X137985281Y-107356957D02*
X137985281Y-107499814D01*
D10*
D11*
X48886598Y-108221900D02*
X49100884Y-108293328D01*
X49100884Y-108293328D02*
X49458026Y-108293328D01*
X49458026Y-108293328D02*
X49600884Y-108221900D01*
X49600884Y-108221900D02*
X49672312Y-108150471D01*
X49672312Y-108150471D02*
X49743741Y-108007614D01*
X49743741Y-108007614D02*
X49743741Y-107864757D01*
X49743741Y-107864757D02*
X49672312Y-107721900D01*
X49672312Y-107721900D02*
X49600884Y-107650471D01*
X49600884Y-107650471D02*
X49458026Y-107579042D01*
X49458026Y-107579042D02*
X49172312Y-107507614D01*
X49172312Y-107507614D02*
X49029455Y-107436185D01*
X49029455Y-107436185D02*
X48958026Y-107364757D01*
X48958026Y-107364757D02*
X48886598Y-107221900D01*
X48886598Y-107221900D02*
X48886598Y-107079042D01*
X48886598Y-107079042D02*
X48958026Y-106936185D01*
X48958026Y-106936185D02*
X49029455Y-106864757D01*
X49029455Y-106864757D02*
X49172312Y-106793328D01*
X49172312Y-106793328D02*
X49529455Y-106793328D01*
X49529455Y-106793328D02*
X49743741Y-106864757D01*
X50386597Y-108293328D02*
X50386597Y-107293328D01*
X50386597Y-106793328D02*
X50315169Y-106864757D01*
X50315169Y-106864757D02*
X50386597Y-106936185D01*
X50386597Y-106936185D02*
X50458026Y-106864757D01*
X50458026Y-106864757D02*
X50386597Y-106793328D01*
X50386597Y-106793328D02*
X50386597Y-106936185D01*
X50958026Y-107293328D02*
X51743741Y-107293328D01*
X51743741Y-107293328D02*
X50958026Y-108293328D01*
X50958026Y-108293328D02*
X51743741Y-108293328D01*
X52886598Y-108221900D02*
X52743741Y-108293328D01*
X52743741Y-108293328D02*
X52458027Y-108293328D01*
X52458027Y-108293328D02*
X52315169Y-108221900D01*
X52315169Y-108221900D02*
X52243741Y-108079042D01*
X52243741Y-108079042D02*
X52243741Y-107507614D01*
X52243741Y-107507614D02*
X52315169Y-107364757D01*
X52315169Y-107364757D02*
X52458027Y-107293328D01*
X52458027Y-107293328D02*
X52743741Y-107293328D01*
X52743741Y-107293328D02*
X52886598Y-107364757D01*
X52886598Y-107364757D02*
X52958027Y-107507614D01*
X52958027Y-107507614D02*
X52958027Y-107650471D01*
X52958027Y-107650471D02*
X52243741Y-107793328D01*
X53600883Y-108150471D02*
X53672312Y-108221900D01*
X53672312Y-108221900D02*
X53600883Y-108293328D01*
X53600883Y-108293328D02*
X53529455Y-108221900D01*
X53529455Y-108221900D02*
X53600883Y-108150471D01*
X53600883Y-108150471D02*
X53600883Y-108293328D01*
X53600883Y-107364757D02*
X53672312Y-107436185D01*
X53672312Y-107436185D02*
X53600883Y-107507614D01*
X53600883Y-107507614D02*
X53529455Y-107436185D01*
X53529455Y-107436185D02*
X53600883Y-107364757D01*
X53600883Y-107364757D02*
X53600883Y-107507614D01*
X55386598Y-107864757D02*
X56100884Y-107864757D01*
X55243741Y-108293328D02*
X55743741Y-106793328D01*
X55743741Y-106793328D02*
X56243741Y-108293328D01*
X57386598Y-107293328D02*
X57386598Y-108293328D01*
X57029455Y-106721900D02*
X56672312Y-107793328D01*
X56672312Y-107793328D02*
X57600883Y-107793328D01*
D10*
D11*
X133958026Y-111093328D02*
X133958026Y-109593328D01*
X135315170Y-111093328D02*
X135315170Y-109593328D01*
X135315170Y-111021900D02*
X135172312Y-111093328D01*
X135172312Y-111093328D02*
X134886598Y-111093328D01*
X134886598Y-111093328D02*
X134743741Y-111021900D01*
X134743741Y-111021900D02*
X134672312Y-110950471D01*
X134672312Y-110950471D02*
X134600884Y-110807614D01*
X134600884Y-110807614D02*
X134600884Y-110379042D01*
X134600884Y-110379042D02*
X134672312Y-110236185D01*
X134672312Y-110236185D02*
X134743741Y-110164757D01*
X134743741Y-110164757D02*
X134886598Y-110093328D01*
X134886598Y-110093328D02*
X135172312Y-110093328D01*
X135172312Y-110093328D02*
X135315170Y-110164757D01*
X136029455Y-110950471D02*
X136100884Y-111021900D01*
X136100884Y-111021900D02*
X136029455Y-111093328D01*
X136029455Y-111093328D02*
X135958027Y-111021900D01*
X135958027Y-111021900D02*
X136029455Y-110950471D01*
X136029455Y-110950471D02*
X136029455Y-111093328D01*
X136029455Y-110164757D02*
X136100884Y-110236185D01*
X136100884Y-110236185D02*
X136029455Y-110307614D01*
X136029455Y-110307614D02*
X135958027Y-110236185D01*
X135958027Y-110236185D02*
X136029455Y-110164757D01*
X136029455Y-110164757D02*
X136029455Y-110307614D01*
X138529456Y-109593328D02*
X138243741Y-109593328D01*
X138243741Y-109593328D02*
X138100884Y-109664757D01*
X138100884Y-109664757D02*
X138029456Y-109736185D01*
X138029456Y-109736185D02*
X137886598Y-109950471D01*
X137886598Y-109950471D02*
X137815170Y-110236185D01*
X137815170Y-110236185D02*
X137815170Y-110807614D01*
X137815170Y-110807614D02*
X137886598Y-110950471D01*
X137886598Y-110950471D02*
X137958027Y-111021900D01*
X137958027Y-111021900D02*
X138100884Y-111093328D01*
X138100884Y-111093328D02*
X138386598Y-111093328D01*
X138386598Y-111093328D02*
X138529456Y-111021900D01*
X138529456Y-111021900D02*
X138600884Y-110950471D01*
X138600884Y-110950471D02*
X138672313Y-110807614D01*
X138672313Y-110807614D02*
X138672313Y-110450471D01*
X138672313Y-110450471D02*
X138600884Y-110307614D01*
X138600884Y-110307614D02*
X138529456Y-110236185D01*
X138529456Y-110236185D02*
X138386598Y-110164757D01*
X138386598Y-110164757D02*
X138100884Y-110164757D01*
X138100884Y-110164757D02*
X137958027Y-110236185D01*
X137958027Y-110236185D02*
X137886598Y-110307614D01*
X137886598Y-110307614D02*
X137815170Y-110450471D01*
X140386598Y-109521900D02*
X139100884Y-111450471D01*
X141672313Y-111093328D02*
X140815170Y-111093328D01*
X141243741Y-111093328D02*
X141243741Y-109593328D01*
X141243741Y-109593328D02*
X141100884Y-109807614D01*
X141100884Y-109807614D02*
X140958027Y-109950471D01*
X140958027Y-109950471D02*
X140815170Y-110021900D01*
X143100884Y-111093328D02*
X142243741Y-111093328D01*
X142672312Y-111093328D02*
X142672312Y-109593328D01*
X142672312Y-109593328D02*
X142529455Y-109807614D01*
X142529455Y-109807614D02*
X142386598Y-109950471D01*
X142386598Y-109950471D02*
X142243741Y-110021900D01*
D10*
D11*
X47502200Y-102007200D02*
X155502200Y-102007200D01*
D10*
D13*
X49193928Y-102711638D02*
X50336785Y-102711638D01*
X49515357Y-104711638D02*
X49765357Y-102711638D01*
X50753452Y-104711638D02*
X50920119Y-103378304D01*
X51003452Y-102711638D02*
X50896309Y-102806876D01*
X50896309Y-102806876D02*
X50979643Y-102902114D01*
X50979643Y-102902114D02*
X51086786Y-102806876D01*
X51086786Y-102806876D02*
X51003452Y-102711638D01*
X51003452Y-102711638D02*
X50979643Y-102902114D01*
X51586786Y-103378304D02*
X52348690Y-103378304D01*
X51955833Y-102711638D02*
X51741548Y-104425923D01*
X51741548Y-104425923D02*
X51812976Y-104616400D01*
X51812976Y-104616400D02*
X51991548Y-104711638D01*
X51991548Y-104711638D02*
X52182024Y-104711638D01*
X53134405Y-104711638D02*
X52955833Y-104616400D01*
X52955833Y-104616400D02*
X52884405Y-104425923D01*
X52884405Y-104425923D02*
X53098690Y-102711638D01*
X54670119Y-104616400D02*
X54467738Y-104711638D01*
X54467738Y-104711638D02*
X54086785Y-104711638D01*
X54086785Y-104711638D02*
X53908214Y-104616400D01*
X53908214Y-104616400D02*
X53836785Y-104425923D01*
X53836785Y-104425923D02*
X53932024Y-103664019D01*
X53932024Y-103664019D02*
X54051071Y-103473542D01*
X54051071Y-103473542D02*
X54253452Y-103378304D01*
X54253452Y-103378304D02*
X54634404Y-103378304D01*
X54634404Y-103378304D02*
X54812976Y-103473542D01*
X54812976Y-103473542D02*
X54884404Y-103664019D01*
X54884404Y-103664019D02*
X54860595Y-103854495D01*
X54860595Y-103854495D02*
X53884404Y-104044971D01*
X55634405Y-104521161D02*
X55717738Y-104616400D01*
X55717738Y-104616400D02*
X55610595Y-104711638D01*
X55610595Y-104711638D02*
X55527262Y-104616400D01*
X55527262Y-104616400D02*
X55634405Y-104521161D01*
X55634405Y-104521161D02*
X55610595Y-104711638D01*
X55765357Y-103473542D02*
X55848690Y-103568780D01*
X55848690Y-103568780D02*
X55741548Y-103664019D01*
X55741548Y-103664019D02*
X55658214Y-103568780D01*
X55658214Y-103568780D02*
X55765357Y-103473542D01*
X55765357Y-103473542D02*
X55741548Y-103664019D01*
D10*
D11*
X49458026Y-100107614D02*
X48958026Y-100107614D01*
X48958026Y-100893328D02*
X48958026Y-99393328D01*
X48958026Y-99393328D02*
X49672312Y-99393328D01*
X50243740Y-100893328D02*
X50243740Y-99893328D01*
X50243740Y-99393328D02*
X50172312Y-99464757D01*
X50172312Y-99464757D02*
X50243740Y-99536185D01*
X50243740Y-99536185D02*
X50315169Y-99464757D01*
X50315169Y-99464757D02*
X50243740Y-99393328D01*
X50243740Y-99393328D02*
X50243740Y-99536185D01*
X51172312Y-100893328D02*
X51029455Y-100821900D01*
X51029455Y-100821900D02*
X50958026Y-100679042D01*
X50958026Y-100679042D02*
X50958026Y-99393328D01*
X52315169Y-100821900D02*
X52172312Y-100893328D01*
X52172312Y-100893328D02*
X51886598Y-100893328D01*
X51886598Y-100893328D02*
X51743740Y-100821900D01*
X51743740Y-100821900D02*
X51672312Y-100679042D01*
X51672312Y-100679042D02*
X51672312Y-100107614D01*
X51672312Y-100107614D02*
X51743740Y-99964757D01*
X51743740Y-99964757D02*
X51886598Y-99893328D01*
X51886598Y-99893328D02*
X52172312Y-99893328D01*
X52172312Y-99893328D02*
X52315169Y-99964757D01*
X52315169Y-99964757D02*
X52386598Y-100107614D01*
X52386598Y-100107614D02*
X52386598Y-100250471D01*
X52386598Y-100250471D02*
X51672312Y-100393328D01*
X53029454Y-100750471D02*
X53100883Y-100821900D01*
X53100883Y-100821900D02*
X53029454Y-100893328D01*
X53029454Y-100893328D02*
X52958026Y-100821900D01*
X52958026Y-100821900D02*
X53029454Y-100750471D01*
X53029454Y-100750471D02*
X53029454Y-100893328D01*
X53029454Y-99964757D02*
X53100883Y-100036185D01*
X53100883Y-100036185D02*
X53029454Y-100107614D01*
X53029454Y-100107614D02*
X52958026Y-100036185D01*
X52958026Y-100036185D02*
X53029454Y-99964757D01*
X53029454Y-99964757D02*
X53029454Y-100107614D01*
X54886597Y-100893328D02*
X54886597Y-99393328D01*
X54886597Y-100107614D02*
X55743740Y-100107614D01*
X55743740Y-100893328D02*
X55743740Y-99393328D01*
X57100884Y-100893328D02*
X57100884Y-100107614D01*
X57100884Y-100107614D02*
X57029455Y-99964757D01*
X57029455Y-99964757D02*
X56886598Y-99893328D01*
X56886598Y-99893328D02*
X56600884Y-99893328D01*
X56600884Y-99893328D02*
X56458026Y-99964757D01*
X57100884Y-100821900D02*
X56958026Y-100893328D01*
X56958026Y-100893328D02*
X56600884Y-100893328D01*
X56600884Y-100893328D02*
X56458026Y-100821900D01*
X56458026Y-100821900D02*
X56386598Y-100679042D01*
X56386598Y-100679042D02*
X56386598Y-100536185D01*
X56386598Y-100536185D02*
X56458026Y-100393328D01*
X56458026Y-100393328D02*
X56600884Y-100321900D01*
X56600884Y-100321900D02*
X56958026Y-100321900D01*
X56958026Y-100321900D02*
X57100884Y-100250471D01*
X57815169Y-100893328D02*
X57815169Y-99893328D01*
X57815169Y-100179042D02*
X57886598Y-100036185D01*
X57886598Y-100036185D02*
X57958027Y-99964757D01*
X57958027Y-99964757D02*
X58100884Y-99893328D01*
X58100884Y-99893328D02*
X58243741Y-99893328D01*
X59386598Y-100893328D02*
X59386598Y-99393328D01*
X59386598Y-100821900D02*
X59243740Y-100893328D01*
X59243740Y-100893328D02*
X58958026Y-100893328D01*
X58958026Y-100893328D02*
X58815169Y-100821900D01*
X58815169Y-100821900D02*
X58743740Y-100750471D01*
X58743740Y-100750471D02*
X58672312Y-100607614D01*
X58672312Y-100607614D02*
X58672312Y-100179042D01*
X58672312Y-100179042D02*
X58743740Y-100036185D01*
X58743740Y-100036185D02*
X58815169Y-99964757D01*
X58815169Y-99964757D02*
X58958026Y-99893328D01*
X58958026Y-99893328D02*
X59243740Y-99893328D01*
X59243740Y-99893328D02*
X59386598Y-99964757D01*
X59958026Y-99893328D02*
X60243741Y-100893328D01*
X60243741Y-100893328D02*
X60529455Y-100179042D01*
X60529455Y-100179042D02*
X60815169Y-100893328D01*
X60815169Y-100893328D02*
X61100883Y-99893328D01*
X62315170Y-100893328D02*
X62315170Y-100107614D01*
X62315170Y-100107614D02*
X62243741Y-99964757D01*
X62243741Y-99964757D02*
X62100884Y-99893328D01*
X62100884Y-99893328D02*
X61815170Y-99893328D01*
X61815170Y-99893328D02*
X61672312Y-99964757D01*
X62315170Y-100821900D02*
X62172312Y-100893328D01*
X62172312Y-100893328D02*
X61815170Y-100893328D01*
X61815170Y-100893328D02*
X61672312Y-100821900D01*
X61672312Y-100821900D02*
X61600884Y-100679042D01*
X61600884Y-100679042D02*
X61600884Y-100536185D01*
X61600884Y-100536185D02*
X61672312Y-100393328D01*
X61672312Y-100393328D02*
X61815170Y-100321900D01*
X61815170Y-100321900D02*
X62172312Y-100321900D01*
X62172312Y-100321900D02*
X62315170Y-100250471D01*
X63029455Y-100893328D02*
X63029455Y-99893328D01*
X63029455Y-100179042D02*
X63100884Y-100036185D01*
X63100884Y-100036185D02*
X63172313Y-99964757D01*
X63172313Y-99964757D02*
X63315170Y-99893328D01*
X63315170Y-99893328D02*
X63458027Y-99893328D01*
X64529455Y-100821900D02*
X64386598Y-100893328D01*
X64386598Y-100893328D02*
X64100884Y-100893328D01*
X64100884Y-100893328D02*
X63958026Y-100821900D01*
X63958026Y-100821900D02*
X63886598Y-100679042D01*
X63886598Y-100679042D02*
X63886598Y-100107614D01*
X63886598Y-100107614D02*
X63958026Y-99964757D01*
X63958026Y-99964757D02*
X64100884Y-99893328D01*
X64100884Y-99893328D02*
X64386598Y-99893328D01*
X64386598Y-99893328D02*
X64529455Y-99964757D01*
X64529455Y-99964757D02*
X64600884Y-100107614D01*
X64600884Y-100107614D02*
X64600884Y-100250471D01*
X64600884Y-100250471D02*
X63886598Y-100393328D01*
X65243740Y-100750471D02*
X65315169Y-100821900D01*
X65315169Y-100821900D02*
X65243740Y-100893328D01*
X65243740Y-100893328D02*
X65172312Y-100821900D01*
X65172312Y-100821900D02*
X65243740Y-100750471D01*
X65243740Y-100750471D02*
X65243740Y-100893328D01*
X65958026Y-100893328D02*
X65958026Y-99393328D01*
X66100884Y-100321900D02*
X66529455Y-100893328D01*
X66529455Y-99893328D02*
X65958026Y-100464757D01*
X67172312Y-100893328D02*
X67172312Y-99893328D01*
X67172312Y-99393328D02*
X67100884Y-99464757D01*
X67100884Y-99464757D02*
X67172312Y-99536185D01*
X67172312Y-99536185D02*
X67243741Y-99464757D01*
X67243741Y-99464757D02*
X67172312Y-99393328D01*
X67172312Y-99393328D02*
X67172312Y-99536185D01*
X68529456Y-100821900D02*
X68386598Y-100893328D01*
X68386598Y-100893328D02*
X68100884Y-100893328D01*
X68100884Y-100893328D02*
X67958027Y-100821900D01*
X67958027Y-100821900D02*
X67886598Y-100750471D01*
X67886598Y-100750471D02*
X67815170Y-100607614D01*
X67815170Y-100607614D02*
X67815170Y-100179042D01*
X67815170Y-100179042D02*
X67886598Y-100036185D01*
X67886598Y-100036185D02*
X67958027Y-99964757D01*
X67958027Y-99964757D02*
X68100884Y-99893328D01*
X68100884Y-99893328D02*
X68386598Y-99893328D01*
X68386598Y-99893328D02*
X68529456Y-99964757D01*
X69815170Y-100893328D02*
X69815170Y-100107614D01*
X69815170Y-100107614D02*
X69743741Y-99964757D01*
X69743741Y-99964757D02*
X69600884Y-99893328D01*
X69600884Y-99893328D02*
X69315170Y-99893328D01*
X69315170Y-99893328D02*
X69172312Y-99964757D01*
X69815170Y-100821900D02*
X69672312Y-100893328D01*
X69672312Y-100893328D02*
X69315170Y-100893328D01*
X69315170Y-100893328D02*
X69172312Y-100821900D01*
X69172312Y-100821900D02*
X69100884Y-100679042D01*
X69100884Y-100679042D02*
X69100884Y-100536185D01*
X69100884Y-100536185D02*
X69172312Y-100393328D01*
X69172312Y-100393328D02*
X69315170Y-100321900D01*
X69315170Y-100321900D02*
X69672312Y-100321900D01*
X69672312Y-100321900D02*
X69815170Y-100250471D01*
X71172313Y-100893328D02*
X71172313Y-99393328D01*
X71172313Y-100821900D02*
X71029455Y-100893328D01*
X71029455Y-100893328D02*
X70743741Y-100893328D01*
X70743741Y-100893328D02*
X70600884Y-100821900D01*
X70600884Y-100821900D02*
X70529455Y-100750471D01*
X70529455Y-100750471D02*
X70458027Y-100607614D01*
X70458027Y-100607614D02*
X70458027Y-100179042D01*
X70458027Y-100179042D02*
X70529455Y-100036185D01*
X70529455Y-100036185D02*
X70600884Y-99964757D01*
X70600884Y-99964757D02*
X70743741Y-99893328D01*
X70743741Y-99893328D02*
X71029455Y-99893328D01*
X71029455Y-99893328D02*
X71172313Y-99964757D01*
X71529456Y-101036185D02*
X72672313Y-101036185D01*
X73029455Y-99893328D02*
X73029455Y-101393328D01*
X73029455Y-99964757D02*
X73172313Y-99893328D01*
X73172313Y-99893328D02*
X73458027Y-99893328D01*
X73458027Y-99893328D02*
X73600884Y-99964757D01*
X73600884Y-99964757D02*
X73672313Y-100036185D01*
X73672313Y-100036185D02*
X73743741Y-100179042D01*
X73743741Y-100179042D02*
X73743741Y-100607614D01*
X73743741Y-100607614D02*
X73672313Y-100750471D01*
X73672313Y-100750471D02*
X73600884Y-100821900D01*
X73600884Y-100821900D02*
X73458027Y-100893328D01*
X73458027Y-100893328D02*
X73172313Y-100893328D01*
X73172313Y-100893328D02*
X73029455Y-100821900D01*
X75029456Y-100821900D02*
X74886598Y-100893328D01*
X74886598Y-100893328D02*
X74600884Y-100893328D01*
X74600884Y-100893328D02*
X74458027Y-100821900D01*
X74458027Y-100821900D02*
X74386598Y-100750471D01*
X74386598Y-100750471D02*
X74315170Y-100607614D01*
X74315170Y-100607614D02*
X74315170Y-100179042D01*
X74315170Y-100179042D02*
X74386598Y-100036185D01*
X74386598Y-100036185D02*
X74458027Y-99964757D01*
X74458027Y-99964757D02*
X74600884Y-99893328D01*
X74600884Y-99893328D02*
X74886598Y-99893328D01*
X74886598Y-99893328D02*
X75029456Y-99964757D01*
X75672312Y-100893328D02*
X75672312Y-99393328D01*
X75672312Y-99964757D02*
X75815170Y-99893328D01*
X75815170Y-99893328D02*
X76100884Y-99893328D01*
X76100884Y-99893328D02*
X76243741Y-99964757D01*
X76243741Y-99964757D02*
X76315170Y-100036185D01*
X76315170Y-100036185D02*
X76386598Y-100179042D01*
X76386598Y-100179042D02*
X76386598Y-100607614D01*
X76386598Y-100607614D02*
X76315170Y-100750471D01*
X76315170Y-100750471D02*
X76243741Y-100821900D01*
X76243741Y-100821900D02*
X76100884Y-100893328D01*
X76100884Y-100893328D02*
X75815170Y-100893328D01*
X75815170Y-100893328D02*
X75672312Y-100821900D01*
D10*
D11*
X47502200Y-96007200D02*
X155502200Y-96007200D01*
D10*
D11*
X48886598Y-98121900D02*
X49100884Y-98193328D01*
X49100884Y-98193328D02*
X49458026Y-98193328D01*
X49458026Y-98193328D02*
X49600884Y-98121900D01*
X49600884Y-98121900D02*
X49672312Y-98050471D01*
X49672312Y-98050471D02*
X49743741Y-97907614D01*
X49743741Y-97907614D02*
X49743741Y-97764757D01*
X49743741Y-97764757D02*
X49672312Y-97621900D01*
X49672312Y-97621900D02*
X49600884Y-97550471D01*
X49600884Y-97550471D02*
X49458026Y-97479042D01*
X49458026Y-97479042D02*
X49172312Y-97407614D01*
X49172312Y-97407614D02*
X49029455Y-97336185D01*
X49029455Y-97336185D02*
X48958026Y-97264757D01*
X48958026Y-97264757D02*
X48886598Y-97121900D01*
X48886598Y-97121900D02*
X48886598Y-96979042D01*
X48886598Y-96979042D02*
X48958026Y-96836185D01*
X48958026Y-96836185D02*
X49029455Y-96764757D01*
X49029455Y-96764757D02*
X49172312Y-96693328D01*
X49172312Y-96693328D02*
X49529455Y-96693328D01*
X49529455Y-96693328D02*
X49743741Y-96764757D01*
X50386597Y-98193328D02*
X50386597Y-96693328D01*
X51029455Y-98193328D02*
X51029455Y-97407614D01*
X51029455Y-97407614D02*
X50958026Y-97264757D01*
X50958026Y-97264757D02*
X50815169Y-97193328D01*
X50815169Y-97193328D02*
X50600883Y-97193328D01*
X50600883Y-97193328D02*
X50458026Y-97264757D01*
X50458026Y-97264757D02*
X50386597Y-97336185D01*
X52315169Y-98121900D02*
X52172312Y-98193328D01*
X52172312Y-98193328D02*
X51886598Y-98193328D01*
X51886598Y-98193328D02*
X51743740Y-98121900D01*
X51743740Y-98121900D02*
X51672312Y-97979042D01*
X51672312Y-97979042D02*
X51672312Y-97407614D01*
X51672312Y-97407614D02*
X51743740Y-97264757D01*
X51743740Y-97264757D02*
X51886598Y-97193328D01*
X51886598Y-97193328D02*
X52172312Y-97193328D01*
X52172312Y-97193328D02*
X52315169Y-97264757D01*
X52315169Y-97264757D02*
X52386598Y-97407614D01*
X52386598Y-97407614D02*
X52386598Y-97550471D01*
X52386598Y-97550471D02*
X51672312Y-97693328D01*
X53600883Y-98121900D02*
X53458026Y-98193328D01*
X53458026Y-98193328D02*
X53172312Y-98193328D01*
X53172312Y-98193328D02*
X53029454Y-98121900D01*
X53029454Y-98121900D02*
X52958026Y-97979042D01*
X52958026Y-97979042D02*
X52958026Y-97407614D01*
X52958026Y-97407614D02*
X53029454Y-97264757D01*
X53029454Y-97264757D02*
X53172312Y-97193328D01*
X53172312Y-97193328D02*
X53458026Y-97193328D01*
X53458026Y-97193328D02*
X53600883Y-97264757D01*
X53600883Y-97264757D02*
X53672312Y-97407614D01*
X53672312Y-97407614D02*
X53672312Y-97550471D01*
X53672312Y-97550471D02*
X52958026Y-97693328D01*
X54100883Y-97193328D02*
X54672311Y-97193328D01*
X54315168Y-96693328D02*
X54315168Y-97979042D01*
X54315168Y-97979042D02*
X54386597Y-98121900D01*
X54386597Y-98121900D02*
X54529454Y-98193328D01*
X54529454Y-98193328D02*
X54672311Y-98193328D01*
X55172311Y-98050471D02*
X55243740Y-98121900D01*
X55243740Y-98121900D02*
X55172311Y-98193328D01*
X55172311Y-98193328D02*
X55100883Y-98121900D01*
X55100883Y-98121900D02*
X55172311Y-98050471D01*
X55172311Y-98050471D02*
X55172311Y-98193328D01*
X55172311Y-97264757D02*
X55243740Y-97336185D01*
X55243740Y-97336185D02*
X55172311Y-97407614D01*
X55172311Y-97407614D02*
X55100883Y-97336185D01*
X55100883Y-97336185D02*
X55172311Y-97264757D01*
X55172311Y-97264757D02*
X55172311Y-97407614D01*
D10*
D11*
X67502200Y-106007200D02*
X67502200Y-109007200D01*
D10*
D11*
X131502200Y-106007200D02*
X131502200Y-112507200D01*
M02*
