M48
; DRILL file {KiCad 9.0.6} date 2026-05-14T13:25:40+0200
; FORMAT={-:-/ absolute / metric / decimal}
; #@! TF.CreationDate,2026-05-14T13:25:40+02:00
; #@! TF.GenerationSoftware,Kicad,Pcbnew,9.0.6
; #@! TF.FileFunction,Plated,1,4,PTH
FMAT,2
METRIC
; #@! TA.AperFunction,Plated,PTH,ViaDrill
T1C0.300
; #@! TA.AperFunction,Plated,PTH,ComponentDrill
T2C0.500
; #@! TA.AperFunction,Plated,PTH,ComponentDrill
T3C0.600
; #@! TA.AperFunction,Plated,PTH,ComponentDrill
T4C0.900
; #@! TA.AperFunction,Plated,PTH,ComponentDrill
T5C1.000
%
G90
G05
T1
X3.5Y6.0
X4.0Y4.0
X8.0Y19.0
X8.5Y10.5
X9.5Y2.5
X10.5Y17.0
X10.5Y13.5
X10.5Y4.0
X11.5Y22.5
X11.5Y21.5
X11.5Y15.5
X17.0Y22.0
X18.0Y14.5
X18.0Y10.0
X18.5Y27.0
X18.5Y8.0
X19.0Y14.0
X19.5Y27.0
X20.0Y6.0
X20.0Y6.0
X20.5Y23.5
X20.5Y9.0
X21.0Y20.5
X21.0Y3.0
X21.5Y21.5
X22.054Y19.0
X22.5Y16.5
X22.5Y14.0
X22.5Y11.5
X22.5Y6.0
X22.97Y19.53
X23.0Y26.5
X23.0Y5.0
X23.0Y2.0
X23.5Y19.0
X23.62Y8.5
X23.62Y8.5
X23.62Y8.5
X24.39Y23.61
X24.5Y16.5
X24.5Y15.5
X24.5Y12.5
X24.5Y11.5
X24.5Y2.5
X26.0Y8.5
X26.0Y8.5
X27.5Y16.5
X27.5Y11.5
X27.5Y6.0
X27.5Y2.5
X27.5Y1.5
X28.0Y14.0
X28.5Y4.0
X29.0Y20.5
X29.5Y27.5
X29.5Y6.5
X29.5Y4.5
X30.0Y21.5
X30.5Y6.5
X31.0Y21.5
X31.0Y18.0
X31.0Y1.5
X32.0Y15.0
X32.0Y14.0
X32.5Y8.5
X32.5Y7.5
X33.0Y19.5
X33.0Y17.0
X33.0Y12.0
X33.0Y11.0
X33.5Y14.0
X34.5Y3.0
X35.0Y19.0
X35.5Y21.0
X36.0Y25.0
X36.0Y3.0
X37.0Y14.0
X39.0Y5.0
X39.5Y19.5
X41.5Y17.5
X42.0Y20.5
X42.0Y14.5
X42.5Y24.5
X45.5Y18.5
X45.5Y13.5
X46.5Y13.5
X47.0Y18.5
X47.5Y13.5
X48.0Y18.5
X54.5Y11.5
T2
X5.0Y7.0
X5.0Y6.0
X5.0Y5.0
X5.0Y4.0
X32.5Y1.5
X33.5Y1.5
X34.5Y1.5
X35.5Y1.5
T4
X31.96Y26.5
X34.5Y26.5
X37.96Y26.5
X40.5Y26.5
X44.46Y26.5
X47.0Y26.5
T5
X44.9Y7.0
X52.5Y7.0
T3
G00X2.645Y18.92
M15
G01X1.845Y18.92
M16
G05
G00X2.645Y10.28
M15
G01X1.845Y10.28
M16
G05
G00X6.975Y18.92
M15
G01X5.875Y18.92
M16
G05
G00X6.975Y10.28
M15
G01X5.875Y10.28
M16
G05
M30
