%TF.GenerationSoftware,KiCad,Pcbnew,9.0.6*%
%TF.CreationDate,2026-05-14T13:25:40+02:00*%
%TF.ProjectId,Hardware,48617264-7761-4726-952e-6b696361645f,rev?*%
%TF.SameCoordinates,PX7b80360PY518a060*%
%TF.FileFunction,Drillmap*%
%TF.FilePolarity,Positive*%
%FSLAX45Y45*%
G04 Gerber Fmt 4.5, Leading zero omitted, Abs format (unit mm)*
G04 Created by KiCad (PCBNEW 9.0.6) date 2026-05-14 13:25:40*
%MOMM*%
%LPD*%
G01*
G04 APERTURE LIST*
%ADD10C,0.050000*%
%ADD11C,0.200000*%
%ADD12C,0.100000*%
G04 APERTURE END LIST*
D10*
X0Y2900000D02*
X5550000Y2900000D01*
X5550000Y0D01*
X0Y0D01*
X0Y2900000D01*
D11*
D12*
X335000Y615000D02*
X365000Y585000D01*
X365000Y615000D02*
X335000Y585000D01*
X385000Y415000D02*
X415000Y385000D01*
X415000Y415000D02*
X385000Y385000D01*
X785000Y1915000D02*
X815000Y1885000D01*
X815000Y1915000D02*
X785000Y1885000D01*
X835000Y1065000D02*
X865000Y1035000D01*
X865000Y1065000D02*
X835000Y1035000D01*
X935000Y265000D02*
X965000Y235000D01*
X965000Y265000D02*
X935000Y235000D01*
X1035000Y1715000D02*
X1065000Y1685000D01*
X1065000Y1715000D02*
X1035000Y1685000D01*
X1035000Y1365000D02*
X1065000Y1335000D01*
X1065000Y1365000D02*
X1035000Y1335000D01*
X1035000Y415000D02*
X1065000Y385000D01*
X1065000Y415000D02*
X1035000Y385000D01*
X1135000Y2265000D02*
X1165000Y2235000D01*
X1165000Y2265000D02*
X1135000Y2235000D01*
X1135000Y2165000D02*
X1165000Y2135000D01*
X1165000Y2165000D02*
X1135000Y2135000D01*
X1135000Y1565000D02*
X1165000Y1535000D01*
X1165000Y1565000D02*
X1135000Y1535000D01*
X1685000Y2215000D02*
X1715000Y2185000D01*
X1715000Y2215000D02*
X1685000Y2185000D01*
X1785000Y1465000D02*
X1815000Y1435000D01*
X1815000Y1465000D02*
X1785000Y1435000D01*
X1785000Y1015000D02*
X1815000Y985000D01*
X1815000Y1015000D02*
X1785000Y985000D01*
X1835000Y2715000D02*
X1865000Y2685000D01*
X1865000Y2715000D02*
X1835000Y2685000D01*
X1835000Y815000D02*
X1865000Y785000D01*
X1865000Y815000D02*
X1835000Y785000D01*
X1885000Y1415000D02*
X1915000Y1385000D01*
X1915000Y1415000D02*
X1885000Y1385000D01*
X1935000Y2715000D02*
X1965000Y2685000D01*
X1965000Y2715000D02*
X1935000Y2685000D01*
X1985000Y615000D02*
X2015000Y585000D01*
X2015000Y615000D02*
X1985000Y585000D01*
X1985000Y615000D02*
X2015000Y585000D01*
X2015000Y615000D02*
X1985000Y585000D01*
X2035000Y2365000D02*
X2065000Y2335000D01*
X2065000Y2365000D02*
X2035000Y2335000D01*
X2035000Y915000D02*
X2065000Y885000D01*
X2065000Y915000D02*
X2035000Y885000D01*
X2085000Y2065000D02*
X2115000Y2035000D01*
X2115000Y2065000D02*
X2085000Y2035000D01*
X2085000Y315000D02*
X2115000Y285000D01*
X2115000Y315000D02*
X2085000Y285000D01*
X2135000Y2165000D02*
X2165000Y2135000D01*
X2165000Y2165000D02*
X2135000Y2135000D01*
X2190353Y1915000D02*
X2220353Y1885000D01*
X2220353Y1915000D02*
X2190353Y1885000D01*
X2235000Y1665000D02*
X2265000Y1635000D01*
X2265000Y1665000D02*
X2235000Y1635000D01*
X2235000Y1415000D02*
X2265000Y1385000D01*
X2265000Y1415000D02*
X2235000Y1385000D01*
X2235000Y1165000D02*
X2265000Y1135000D01*
X2265000Y1165000D02*
X2235000Y1135000D01*
X2235000Y615000D02*
X2265000Y585000D01*
X2265000Y615000D02*
X2235000Y585000D01*
X2281967Y1968033D02*
X2311967Y1938033D01*
X2311967Y1968033D02*
X2281967Y1938033D01*
X2285000Y2665000D02*
X2315000Y2635000D01*
X2315000Y2665000D02*
X2285000Y2635000D01*
X2285000Y515000D02*
X2315000Y485000D01*
X2315000Y515000D02*
X2285000Y485000D01*
X2285000Y215000D02*
X2315000Y185000D01*
X2315000Y215000D02*
X2285000Y185000D01*
X2335000Y1915000D02*
X2365000Y1885000D01*
X2365000Y1915000D02*
X2335000Y1885000D01*
X2347000Y865000D02*
X2377000Y835000D01*
X2377000Y865000D02*
X2347000Y835000D01*
X2347000Y865000D02*
X2377000Y835000D01*
X2377000Y865000D02*
X2347000Y835000D01*
X2347000Y865000D02*
X2377000Y835000D01*
X2377000Y865000D02*
X2347000Y835000D01*
X2424025Y2375975D02*
X2454025Y2345975D01*
X2454025Y2375975D02*
X2424025Y2345975D01*
X2435000Y1665000D02*
X2465000Y1635000D01*
X2465000Y1665000D02*
X2435000Y1635000D01*
X2435000Y1565000D02*
X2465000Y1535000D01*
X2465000Y1565000D02*
X2435000Y1535000D01*
X2435000Y1265000D02*
X2465000Y1235000D01*
X2465000Y1265000D02*
X2435000Y1235000D01*
X2435000Y1165000D02*
X2465000Y1135000D01*
X2465000Y1165000D02*
X2435000Y1135000D01*
X2435000Y265000D02*
X2465000Y235000D01*
X2465000Y265000D02*
X2435000Y235000D01*
X2585000Y865000D02*
X2615000Y835000D01*
X2615000Y865000D02*
X2585000Y835000D01*
X2585000Y865000D02*
X2615000Y835000D01*
X2615000Y865000D02*
X2585000Y835000D01*
X2735000Y1665000D02*
X2765000Y1635000D01*
X2765000Y1665000D02*
X2735000Y1635000D01*
X2735000Y1165000D02*
X2765000Y1135000D01*
X2765000Y1165000D02*
X2735000Y1135000D01*
X2735000Y615000D02*
X2765000Y585000D01*
X2765000Y615000D02*
X2735000Y585000D01*
X2735000Y265000D02*
X2765000Y235000D01*
X2765000Y265000D02*
X2735000Y235000D01*
X2735000Y165000D02*
X2765000Y135000D01*
X2765000Y165000D02*
X2735000Y135000D01*
X2785000Y1415000D02*
X2815000Y1385000D01*
X2815000Y1415000D02*
X2785000Y1385000D01*
X2835000Y415000D02*
X2865000Y385000D01*
X2865000Y415000D02*
X2835000Y385000D01*
X2885000Y2065000D02*
X2915000Y2035000D01*
X2915000Y2065000D02*
X2885000Y2035000D01*
X2935000Y2765000D02*
X2965000Y2735000D01*
X2965000Y2765000D02*
X2935000Y2735000D01*
X2935000Y665000D02*
X2965000Y635000D01*
X2965000Y665000D02*
X2935000Y635000D01*
X2935000Y465000D02*
X2965000Y435000D01*
X2965000Y465000D02*
X2935000Y435000D01*
X2985000Y2165000D02*
X3015000Y2135000D01*
X3015000Y2165000D02*
X2985000Y2135000D01*
X3035000Y665000D02*
X3065000Y635000D01*
X3065000Y665000D02*
X3035000Y635000D01*
X3085000Y2165000D02*
X3115000Y2135000D01*
X3115000Y2165000D02*
X3085000Y2135000D01*
X3085000Y1815000D02*
X3115000Y1785000D01*
X3115000Y1815000D02*
X3085000Y1785000D01*
X3085000Y165000D02*
X3115000Y135000D01*
X3115000Y165000D02*
X3085000Y135000D01*
X3185000Y1515000D02*
X3215000Y1485000D01*
X3215000Y1515000D02*
X3185000Y1485000D01*
X3185000Y1415000D02*
X3215000Y1385000D01*
X3215000Y1415000D02*
X3185000Y1385000D01*
X3235000Y865000D02*
X3265000Y835000D01*
X3265000Y865000D02*
X3235000Y835000D01*
X3235000Y765000D02*
X3265000Y735000D01*
X3265000Y765000D02*
X3235000Y735000D01*
X3285000Y1965000D02*
X3315000Y1935000D01*
X3315000Y1965000D02*
X3285000Y1935000D01*
X3285000Y1715000D02*
X3315000Y1685000D01*
X3315000Y1715000D02*
X3285000Y1685000D01*
X3285000Y1215000D02*
X3315000Y1185000D01*
X3315000Y1215000D02*
X3285000Y1185000D01*
X3285000Y1115000D02*
X3315000Y1085000D01*
X3315000Y1115000D02*
X3285000Y1085000D01*
X3335000Y1415000D02*
X3365000Y1385000D01*
X3365000Y1415000D02*
X3335000Y1385000D01*
X3435000Y315000D02*
X3465000Y285000D01*
X3465000Y315000D02*
X3435000Y285000D01*
X3485000Y1915000D02*
X3515000Y1885000D01*
X3515000Y1915000D02*
X3485000Y1885000D01*
X3535000Y2115000D02*
X3565000Y2085000D01*
X3565000Y2115000D02*
X3535000Y2085000D01*
X3585000Y2515000D02*
X3615000Y2485000D01*
X3615000Y2515000D02*
X3585000Y2485000D01*
X3585000Y315000D02*
X3615000Y285000D01*
X3615000Y315000D02*
X3585000Y285000D01*
X3685000Y1415000D02*
X3715000Y1385000D01*
X3715000Y1415000D02*
X3685000Y1385000D01*
X3885000Y515000D02*
X3915000Y485000D01*
X3915000Y515000D02*
X3885000Y485000D01*
X3935000Y1965000D02*
X3965000Y1935000D01*
X3965000Y1965000D02*
X3935000Y1935000D01*
X4135000Y1765000D02*
X4165000Y1735000D01*
X4165000Y1765000D02*
X4135000Y1735000D01*
X4185000Y2065000D02*
X4215000Y2035000D01*
X4215000Y2065000D02*
X4185000Y2035000D01*
X4185000Y1465000D02*
X4215000Y1435000D01*
X4215000Y1465000D02*
X4185000Y1435000D01*
X4235000Y2465000D02*
X4265000Y2435000D01*
X4265000Y2465000D02*
X4235000Y2435000D01*
X4535000Y1865000D02*
X4565000Y1835000D01*
X4565000Y1865000D02*
X4535000Y1835000D01*
X4535000Y1365000D02*
X4565000Y1335000D01*
X4565000Y1365000D02*
X4535000Y1335000D01*
X4635000Y1365000D02*
X4665000Y1335000D01*
X4665000Y1365000D02*
X4635000Y1335000D01*
X4685000Y1865000D02*
X4715000Y1835000D01*
X4715000Y1865000D02*
X4685000Y1835000D01*
X4735000Y1365000D02*
X4765000Y1335000D01*
X4765000Y1365000D02*
X4735000Y1335000D01*
X4785000Y1865000D02*
X4815000Y1835000D01*
X4815000Y1865000D02*
X4785000Y1835000D01*
X5435000Y1165000D02*
X5465000Y1135000D01*
X5465000Y1165000D02*
X5435000Y1135000D01*
X525000Y700000D02*
G75*
G02*
X475000Y700000I-25000J0D01*
G01*
X475000Y700000D02*
G75*
G02*
X525000Y700000I25000J0D01*
G01*
X525000Y600000D02*
G75*
G02*
X475000Y600000I-25000J0D01*
G01*
X475000Y600000D02*
G75*
G02*
X525000Y600000I25000J0D01*
G01*
X525000Y500000D02*
G75*
G02*
X475000Y500000I-25000J0D01*
G01*
X475000Y500000D02*
G75*
G02*
X525000Y500000I25000J0D01*
G01*
X525000Y400000D02*
G75*
G02*
X475000Y400000I-25000J0D01*
G01*
X475000Y400000D02*
G75*
G02*
X525000Y400000I25000J0D01*
G01*
X3275000Y150000D02*
G75*
G02*
X3225000Y150000I-25000J0D01*
G01*
X3225000Y150000D02*
G75*
G02*
X3275000Y150000I25000J0D01*
G01*
X3375000Y150000D02*
G75*
G02*
X3325000Y150000I-25000J0D01*
G01*
X3325000Y150000D02*
G75*
G02*
X3375000Y150000I25000J0D01*
G01*
X3475000Y150000D02*
G75*
G02*
X3425000Y150000I-25000J0D01*
G01*
X3425000Y150000D02*
G75*
G02*
X3475000Y150000I25000J0D01*
G01*
X3575000Y150000D02*
G75*
G02*
X3525000Y150000I-25000J0D01*
G01*
X3525000Y150000D02*
G75*
G02*
X3575000Y150000I25000J0D01*
G01*
X224500Y1922000D02*
X224500Y1862000D01*
X194500Y1892000D02*
X254500Y1892000D01*
X264500Y1922000D02*
X184500Y1922000D01*
X184500Y1862000D02*
G75*
G02*
X184500Y1922000I0J30000D01*
G01*
X184500Y1862000D02*
X264500Y1862000D01*
X264500Y1862000D02*
G75*
G03*
X264500Y1922000I0J30000D01*
G01*
X224500Y1058000D02*
X224500Y998000D01*
X194500Y1028000D02*
X254500Y1028000D01*
X264500Y1058000D02*
X184500Y1058000D01*
X184500Y998000D02*
G75*
G02*
X184500Y1058000I0J30000D01*
G01*
X184500Y998000D02*
X264500Y998000D01*
X264500Y998000D02*
G75*
G03*
X264500Y1058000I0J30000D01*
G01*
X642500Y1922000D02*
X642500Y1862000D01*
X612500Y1892000D02*
X672500Y1892000D01*
X697500Y1922000D02*
X587500Y1922000D01*
X587500Y1862000D02*
G75*
G02*
X587500Y1922000I0J30000D01*
G01*
X587500Y1862000D02*
X697500Y1862000D01*
X697500Y1862000D02*
G75*
G03*
X697500Y1922000I0J30000D01*
G01*
X642500Y1058000D02*
X642500Y998000D01*
X612500Y1028000D02*
X672500Y1028000D01*
X697500Y1058000D02*
X587500Y1058000D01*
X587500Y998000D02*
G75*
G02*
X587500Y1058000I0J30000D01*
G01*
X587500Y998000D02*
X697500Y998000D01*
X697500Y998000D02*
G75*
G03*
X697500Y1058000I0J30000D01*
G01*
X3227820Y2618180D02*
X3227820Y2681820D01*
X3164180Y2681820D01*
X3164180Y2618180D01*
X3227820Y2618180D01*
X3481820Y2618180D02*
X3481820Y2681820D01*
X3418180Y2681820D01*
X3418180Y2618180D01*
X3481820Y2618180D01*
X3827820Y2618180D02*
X3827820Y2681820D01*
X3764180Y2681820D01*
X3764180Y2618180D01*
X3827820Y2618180D01*
X4081820Y2618180D02*
X4081820Y2681820D01*
X4018180Y2681820D01*
X4018180Y2618180D01*
X4081820Y2618180D01*
X4477820Y2618180D02*
X4477820Y2681820D01*
X4414180Y2681820D01*
X4414180Y2618180D01*
X4477820Y2618180D01*
X4731820Y2618180D02*
X4731820Y2681820D01*
X4668180Y2681820D01*
X4668180Y2618180D01*
X4731820Y2618180D01*
X4490000Y650000D02*
X4540000Y700000D01*
X4490000Y750000D01*
X4440000Y700000D01*
X4490000Y650000D01*
X5250000Y650000D02*
X5300000Y700000D01*
X5250000Y750000D01*
X5200000Y700000D01*
X5250000Y650000D01*
D11*
X258277Y-313984D02*
X258277Y-113984D01*
X258277Y-113984D02*
X305896Y-113984D01*
X305896Y-113984D02*
X334467Y-123508D01*
X334467Y-123508D02*
X353515Y-142555D01*
X353515Y-142555D02*
X363039Y-161603D01*
X363039Y-161603D02*
X372562Y-199698D01*
X372562Y-199698D02*
X372562Y-228269D01*
X372562Y-228269D02*
X363039Y-266365D01*
X363039Y-266365D02*
X353515Y-285412D01*
X353515Y-285412D02*
X334467Y-304460D01*
X334467Y-304460D02*
X305896Y-313984D01*
X305896Y-313984D02*
X258277Y-313984D01*
X458277Y-313984D02*
X458277Y-180650D01*
X458277Y-218746D02*
X467801Y-199698D01*
X467801Y-199698D02*
X477324Y-190174D01*
X477324Y-190174D02*
X496372Y-180650D01*
X496372Y-180650D02*
X515420Y-180650D01*
X582086Y-313984D02*
X582086Y-180650D01*
X582086Y-113984D02*
X572563Y-123508D01*
X572563Y-123508D02*
X582086Y-133031D01*
X582086Y-133031D02*
X591610Y-123508D01*
X591610Y-123508D02*
X582086Y-113984D01*
X582086Y-113984D02*
X582086Y-133031D01*
X705896Y-313984D02*
X686848Y-304460D01*
X686848Y-304460D02*
X677324Y-285412D01*
X677324Y-285412D02*
X677324Y-113984D01*
X810658Y-313984D02*
X791610Y-304460D01*
X791610Y-304460D02*
X782086Y-285412D01*
X782086Y-285412D02*
X782086Y-113984D01*
X1039229Y-313984D02*
X1039229Y-113984D01*
X1039229Y-113984D02*
X1105896Y-256841D01*
X1105896Y-256841D02*
X1172563Y-113984D01*
X1172563Y-113984D02*
X1172563Y-313984D01*
X1353515Y-313984D02*
X1353515Y-209222D01*
X1353515Y-209222D02*
X1343991Y-190174D01*
X1343991Y-190174D02*
X1324944Y-180650D01*
X1324944Y-180650D02*
X1286848Y-180650D01*
X1286848Y-180650D02*
X1267801Y-190174D01*
X1353515Y-304460D02*
X1334467Y-313984D01*
X1334467Y-313984D02*
X1286848Y-313984D01*
X1286848Y-313984D02*
X1267801Y-304460D01*
X1267801Y-304460D02*
X1258277Y-285412D01*
X1258277Y-285412D02*
X1258277Y-266365D01*
X1258277Y-266365D02*
X1267801Y-247317D01*
X1267801Y-247317D02*
X1286848Y-237793D01*
X1286848Y-237793D02*
X1334467Y-237793D01*
X1334467Y-237793D02*
X1353515Y-228269D01*
X1448753Y-180650D02*
X1448753Y-380650D01*
X1448753Y-190174D02*
X1467801Y-180650D01*
X1467801Y-180650D02*
X1505896Y-180650D01*
X1505896Y-180650D02*
X1524943Y-190174D01*
X1524943Y-190174D02*
X1534467Y-199698D01*
X1534467Y-199698D02*
X1543991Y-218746D01*
X1543991Y-218746D02*
X1543991Y-275889D01*
X1543991Y-275889D02*
X1534467Y-294936D01*
X1534467Y-294936D02*
X1524943Y-304460D01*
X1524943Y-304460D02*
X1505896Y-313984D01*
X1505896Y-313984D02*
X1467801Y-313984D01*
X1467801Y-313984D02*
X1448753Y-304460D01*
X1629705Y-294936D02*
X1639229Y-304460D01*
X1639229Y-304460D02*
X1629705Y-313984D01*
X1629705Y-313984D02*
X1620182Y-304460D01*
X1620182Y-304460D02*
X1629705Y-294936D01*
X1629705Y-294936D02*
X1629705Y-313984D01*
X1629705Y-190174D02*
X1639229Y-199698D01*
X1639229Y-199698D02*
X1629705Y-209222D01*
X1629705Y-209222D02*
X1620182Y-199698D01*
X1620182Y-199698D02*
X1629705Y-190174D01*
X1629705Y-190174D02*
X1629705Y-209222D01*
D12*
X-32500Y-627500D02*
X-2500Y-657500D01*
X-2500Y-627500D02*
X-32500Y-657500D01*
D11*
X296372Y-533984D02*
X315420Y-533984D01*
X315420Y-533984D02*
X334467Y-543508D01*
X334467Y-543508D02*
X343991Y-553031D01*
X343991Y-553031D02*
X353515Y-572079D01*
X353515Y-572079D02*
X363039Y-610174D01*
X363039Y-610174D02*
X363039Y-657793D01*
X363039Y-657793D02*
X353515Y-695889D01*
X353515Y-695889D02*
X343991Y-714936D01*
X343991Y-714936D02*
X334467Y-724460D01*
X334467Y-724460D02*
X315420Y-733984D01*
X315420Y-733984D02*
X296372Y-733984D01*
X296372Y-733984D02*
X277324Y-724460D01*
X277324Y-724460D02*
X267801Y-714936D01*
X267801Y-714936D02*
X258277Y-695889D01*
X258277Y-695889D02*
X248753Y-657793D01*
X248753Y-657793D02*
X248753Y-610174D01*
X248753Y-610174D02*
X258277Y-572079D01*
X258277Y-572079D02*
X267801Y-553031D01*
X267801Y-553031D02*
X277324Y-543508D01*
X277324Y-543508D02*
X296372Y-533984D01*
X448753Y-714936D02*
X458277Y-724460D01*
X458277Y-724460D02*
X448753Y-733984D01*
X448753Y-733984D02*
X439229Y-724460D01*
X439229Y-724460D02*
X448753Y-714936D01*
X448753Y-714936D02*
X448753Y-733984D01*
X524944Y-533984D02*
X648753Y-533984D01*
X648753Y-533984D02*
X582086Y-610174D01*
X582086Y-610174D02*
X610658Y-610174D01*
X610658Y-610174D02*
X629705Y-619698D01*
X629705Y-619698D02*
X639229Y-629222D01*
X639229Y-629222D02*
X648753Y-648270D01*
X648753Y-648270D02*
X648753Y-695889D01*
X648753Y-695889D02*
X639229Y-714936D01*
X639229Y-714936D02*
X629705Y-724460D01*
X629705Y-724460D02*
X610658Y-733984D01*
X610658Y-733984D02*
X553515Y-733984D01*
X553515Y-733984D02*
X534467Y-724460D01*
X534467Y-724460D02*
X524944Y-714936D01*
X772562Y-533984D02*
X791610Y-533984D01*
X791610Y-533984D02*
X810658Y-543508D01*
X810658Y-543508D02*
X820182Y-553031D01*
X820182Y-553031D02*
X829705Y-572079D01*
X829705Y-572079D02*
X839229Y-610174D01*
X839229Y-610174D02*
X839229Y-657793D01*
X839229Y-657793D02*
X829705Y-695889D01*
X829705Y-695889D02*
X820182Y-714936D01*
X820182Y-714936D02*
X810658Y-724460D01*
X810658Y-724460D02*
X791610Y-733984D01*
X791610Y-733984D02*
X772562Y-733984D01*
X772562Y-733984D02*
X753515Y-724460D01*
X753515Y-724460D02*
X743991Y-714936D01*
X743991Y-714936D02*
X734467Y-695889D01*
X734467Y-695889D02*
X724943Y-657793D01*
X724943Y-657793D02*
X724943Y-610174D01*
X724943Y-610174D02*
X734467Y-572079D01*
X734467Y-572079D02*
X743991Y-553031D01*
X743991Y-553031D02*
X753515Y-543508D01*
X753515Y-543508D02*
X772562Y-533984D01*
X963039Y-533984D02*
X982086Y-533984D01*
X982086Y-533984D02*
X1001134Y-543508D01*
X1001134Y-543508D02*
X1010658Y-553031D01*
X1010658Y-553031D02*
X1020182Y-572079D01*
X1020182Y-572079D02*
X1029705Y-610174D01*
X1029705Y-610174D02*
X1029705Y-657793D01*
X1029705Y-657793D02*
X1020182Y-695889D01*
X1020182Y-695889D02*
X1010658Y-714936D01*
X1010658Y-714936D02*
X1001134Y-724460D01*
X1001134Y-724460D02*
X982086Y-733984D01*
X982086Y-733984D02*
X963039Y-733984D01*
X963039Y-733984D02*
X943991Y-724460D01*
X943991Y-724460D02*
X934467Y-714936D01*
X934467Y-714936D02*
X924943Y-695889D01*
X924943Y-695889D02*
X915420Y-657793D01*
X915420Y-657793D02*
X915420Y-610174D01*
X915420Y-610174D02*
X924943Y-572079D01*
X924943Y-572079D02*
X934467Y-553031D01*
X934467Y-553031D02*
X943991Y-543508D01*
X943991Y-543508D02*
X963039Y-533984D01*
X1115420Y-733984D02*
X1115420Y-600650D01*
X1115420Y-619698D02*
X1124944Y-610174D01*
X1124944Y-610174D02*
X1143991Y-600650D01*
X1143991Y-600650D02*
X1172563Y-600650D01*
X1172563Y-600650D02*
X1191610Y-610174D01*
X1191610Y-610174D02*
X1201134Y-629222D01*
X1201134Y-629222D02*
X1201134Y-733984D01*
X1201134Y-629222D02*
X1210658Y-610174D01*
X1210658Y-610174D02*
X1229705Y-600650D01*
X1229705Y-600650D02*
X1258277Y-600650D01*
X1258277Y-600650D02*
X1277325Y-610174D01*
X1277325Y-610174D02*
X1286848Y-629222D01*
X1286848Y-629222D02*
X1286848Y-733984D01*
X1382086Y-733984D02*
X1382086Y-600650D01*
X1382086Y-619698D02*
X1391610Y-610174D01*
X1391610Y-610174D02*
X1410658Y-600650D01*
X1410658Y-600650D02*
X1439229Y-600650D01*
X1439229Y-600650D02*
X1458277Y-610174D01*
X1458277Y-610174D02*
X1467801Y-629222D01*
X1467801Y-629222D02*
X1467801Y-733984D01*
X1467801Y-629222D02*
X1477324Y-610174D01*
X1477324Y-610174D02*
X1496372Y-600650D01*
X1496372Y-600650D02*
X1524943Y-600650D01*
X1524943Y-600650D02*
X1543991Y-610174D01*
X1543991Y-610174D02*
X1553515Y-629222D01*
X1553515Y-629222D02*
X1553515Y-733984D01*
X1943991Y-524460D02*
X1772563Y-781603D01*
X2201134Y-533984D02*
X2220182Y-533984D01*
X2220182Y-533984D02*
X2239229Y-543508D01*
X2239229Y-543508D02*
X2248753Y-553031D01*
X2248753Y-553031D02*
X2258277Y-572079D01*
X2258277Y-572079D02*
X2267801Y-610174D01*
X2267801Y-610174D02*
X2267801Y-657793D01*
X2267801Y-657793D02*
X2258277Y-695889D01*
X2258277Y-695889D02*
X2248753Y-714936D01*
X2248753Y-714936D02*
X2239229Y-724460D01*
X2239229Y-724460D02*
X2220182Y-733984D01*
X2220182Y-733984D02*
X2201134Y-733984D01*
X2201134Y-733984D02*
X2182087Y-724460D01*
X2182087Y-724460D02*
X2172563Y-714936D01*
X2172563Y-714936D02*
X2163039Y-695889D01*
X2163039Y-695889D02*
X2153515Y-657793D01*
X2153515Y-657793D02*
X2153515Y-610174D01*
X2153515Y-610174D02*
X2163039Y-572079D01*
X2163039Y-572079D02*
X2172563Y-553031D01*
X2172563Y-553031D02*
X2182087Y-543508D01*
X2182087Y-543508D02*
X2201134Y-533984D01*
X2353515Y-714936D02*
X2363039Y-724460D01*
X2363039Y-724460D02*
X2353515Y-733984D01*
X2353515Y-733984D02*
X2343991Y-724460D01*
X2343991Y-724460D02*
X2353515Y-714936D01*
X2353515Y-714936D02*
X2353515Y-733984D01*
X2486848Y-533984D02*
X2505896Y-533984D01*
X2505896Y-533984D02*
X2524944Y-543508D01*
X2524944Y-543508D02*
X2534468Y-553031D01*
X2534468Y-553031D02*
X2543991Y-572079D01*
X2543991Y-572079D02*
X2553515Y-610174D01*
X2553515Y-610174D02*
X2553515Y-657793D01*
X2553515Y-657793D02*
X2543991Y-695889D01*
X2543991Y-695889D02*
X2534468Y-714936D01*
X2534468Y-714936D02*
X2524944Y-724460D01*
X2524944Y-724460D02*
X2505896Y-733984D01*
X2505896Y-733984D02*
X2486848Y-733984D01*
X2486848Y-733984D02*
X2467801Y-724460D01*
X2467801Y-724460D02*
X2458277Y-714936D01*
X2458277Y-714936D02*
X2448753Y-695889D01*
X2448753Y-695889D02*
X2439229Y-657793D01*
X2439229Y-657793D02*
X2439229Y-610174D01*
X2439229Y-610174D02*
X2448753Y-572079D01*
X2448753Y-572079D02*
X2458277Y-553031D01*
X2458277Y-553031D02*
X2467801Y-543508D01*
X2467801Y-543508D02*
X2486848Y-533984D01*
X2743991Y-733984D02*
X2629706Y-733984D01*
X2686848Y-733984D02*
X2686848Y-533984D01*
X2686848Y-533984D02*
X2667801Y-562555D01*
X2667801Y-562555D02*
X2648753Y-581603D01*
X2648753Y-581603D02*
X2629706Y-591127D01*
X2934467Y-733984D02*
X2820182Y-733984D01*
X2877325Y-733984D02*
X2877325Y-533984D01*
X2877325Y-533984D02*
X2858277Y-562555D01*
X2858277Y-562555D02*
X2839229Y-581603D01*
X2839229Y-581603D02*
X2820182Y-591127D01*
X3048753Y-619698D02*
X3029706Y-610174D01*
X3029706Y-610174D02*
X3020182Y-600650D01*
X3020182Y-600650D02*
X3010658Y-581603D01*
X3010658Y-581603D02*
X3010658Y-572079D01*
X3010658Y-572079D02*
X3020182Y-553031D01*
X3020182Y-553031D02*
X3029706Y-543508D01*
X3029706Y-543508D02*
X3048753Y-533984D01*
X3048753Y-533984D02*
X3086848Y-533984D01*
X3086848Y-533984D02*
X3105896Y-543508D01*
X3105896Y-543508D02*
X3115420Y-553031D01*
X3115420Y-553031D02*
X3124944Y-572079D01*
X3124944Y-572079D02*
X3124944Y-581603D01*
X3124944Y-581603D02*
X3115420Y-600650D01*
X3115420Y-600650D02*
X3105896Y-610174D01*
X3105896Y-610174D02*
X3086848Y-619698D01*
X3086848Y-619698D02*
X3048753Y-619698D01*
X3048753Y-619698D02*
X3029706Y-629222D01*
X3029706Y-629222D02*
X3020182Y-638746D01*
X3020182Y-638746D02*
X3010658Y-657793D01*
X3010658Y-657793D02*
X3010658Y-695889D01*
X3010658Y-695889D02*
X3020182Y-714936D01*
X3020182Y-714936D02*
X3029706Y-724460D01*
X3029706Y-724460D02*
X3048753Y-733984D01*
X3048753Y-733984D02*
X3086848Y-733984D01*
X3086848Y-733984D02*
X3105896Y-724460D01*
X3105896Y-724460D02*
X3115420Y-714936D01*
X3115420Y-714936D02*
X3124944Y-695889D01*
X3124944Y-695889D02*
X3124944Y-657793D01*
X3124944Y-657793D02*
X3115420Y-638746D01*
X3115420Y-638746D02*
X3105896Y-629222D01*
X3105896Y-629222D02*
X3086848Y-619698D01*
X3201134Y-533984D02*
X3201134Y-572079D01*
X3277325Y-533984D02*
X3277325Y-572079D01*
X3572563Y-810174D02*
X3563039Y-800650D01*
X3563039Y-800650D02*
X3543991Y-772079D01*
X3543991Y-772079D02*
X3534468Y-753031D01*
X3534468Y-753031D02*
X3524944Y-724460D01*
X3524944Y-724460D02*
X3515420Y-676841D01*
X3515420Y-676841D02*
X3515420Y-638746D01*
X3515420Y-638746D02*
X3524944Y-591127D01*
X3524944Y-591127D02*
X3534468Y-562555D01*
X3534468Y-562555D02*
X3543991Y-543508D01*
X3543991Y-543508D02*
X3563039Y-514936D01*
X3563039Y-514936D02*
X3572563Y-505412D01*
X3658277Y-733984D02*
X3696372Y-733984D01*
X3696372Y-733984D02*
X3715420Y-724460D01*
X3715420Y-724460D02*
X3724944Y-714936D01*
X3724944Y-714936D02*
X3743991Y-686365D01*
X3743991Y-686365D02*
X3753515Y-648270D01*
X3753515Y-648270D02*
X3753515Y-572079D01*
X3753515Y-572079D02*
X3743991Y-553031D01*
X3743991Y-553031D02*
X3734468Y-543508D01*
X3734468Y-543508D02*
X3715420Y-533984D01*
X3715420Y-533984D02*
X3677325Y-533984D01*
X3677325Y-533984D02*
X3658277Y-543508D01*
X3658277Y-543508D02*
X3648753Y-553031D01*
X3648753Y-553031D02*
X3639229Y-572079D01*
X3639229Y-572079D02*
X3639229Y-619698D01*
X3639229Y-619698D02*
X3648753Y-638746D01*
X3648753Y-638746D02*
X3658277Y-648270D01*
X3658277Y-648270D02*
X3677325Y-657793D01*
X3677325Y-657793D02*
X3715420Y-657793D01*
X3715420Y-657793D02*
X3734468Y-648270D01*
X3734468Y-648270D02*
X3743991Y-638746D01*
X3743991Y-638746D02*
X3753515Y-619698D01*
X3877325Y-533984D02*
X3896372Y-533984D01*
X3896372Y-533984D02*
X3915420Y-543508D01*
X3915420Y-543508D02*
X3924944Y-553031D01*
X3924944Y-553031D02*
X3934468Y-572079D01*
X3934468Y-572079D02*
X3943991Y-610174D01*
X3943991Y-610174D02*
X3943991Y-657793D01*
X3943991Y-657793D02*
X3934468Y-695889D01*
X3934468Y-695889D02*
X3924944Y-714936D01*
X3924944Y-714936D02*
X3915420Y-724460D01*
X3915420Y-724460D02*
X3896372Y-733984D01*
X3896372Y-733984D02*
X3877325Y-733984D01*
X3877325Y-733984D02*
X3858277Y-724460D01*
X3858277Y-724460D02*
X3848753Y-714936D01*
X3848753Y-714936D02*
X3839229Y-695889D01*
X3839229Y-695889D02*
X3829706Y-657793D01*
X3829706Y-657793D02*
X3829706Y-610174D01*
X3829706Y-610174D02*
X3839229Y-572079D01*
X3839229Y-572079D02*
X3848753Y-553031D01*
X3848753Y-553031D02*
X3858277Y-543508D01*
X3858277Y-543508D02*
X3877325Y-533984D01*
X4182087Y-733984D02*
X4182087Y-533984D01*
X4267801Y-733984D02*
X4267801Y-629222D01*
X4267801Y-629222D02*
X4258277Y-610174D01*
X4258277Y-610174D02*
X4239230Y-600650D01*
X4239230Y-600650D02*
X4210658Y-600650D01*
X4210658Y-600650D02*
X4191610Y-610174D01*
X4191610Y-610174D02*
X4182087Y-619698D01*
X4391611Y-733984D02*
X4372563Y-724460D01*
X4372563Y-724460D02*
X4363039Y-714936D01*
X4363039Y-714936D02*
X4353515Y-695889D01*
X4353515Y-695889D02*
X4353515Y-638746D01*
X4353515Y-638746D02*
X4363039Y-619698D01*
X4363039Y-619698D02*
X4372563Y-610174D01*
X4372563Y-610174D02*
X4391611Y-600650D01*
X4391611Y-600650D02*
X4420182Y-600650D01*
X4420182Y-600650D02*
X4439230Y-610174D01*
X4439230Y-610174D02*
X4448753Y-619698D01*
X4448753Y-619698D02*
X4458277Y-638746D01*
X4458277Y-638746D02*
X4458277Y-695889D01*
X4458277Y-695889D02*
X4448753Y-714936D01*
X4448753Y-714936D02*
X4439230Y-724460D01*
X4439230Y-724460D02*
X4420182Y-733984D01*
X4420182Y-733984D02*
X4391611Y-733984D01*
X4572563Y-733984D02*
X4553515Y-724460D01*
X4553515Y-724460D02*
X4543992Y-705412D01*
X4543992Y-705412D02*
X4543992Y-533984D01*
X4724944Y-724460D02*
X4705896Y-733984D01*
X4705896Y-733984D02*
X4667801Y-733984D01*
X4667801Y-733984D02*
X4648753Y-724460D01*
X4648753Y-724460D02*
X4639230Y-705412D01*
X4639230Y-705412D02*
X4639230Y-629222D01*
X4639230Y-629222D02*
X4648753Y-610174D01*
X4648753Y-610174D02*
X4667801Y-600650D01*
X4667801Y-600650D02*
X4705896Y-600650D01*
X4705896Y-600650D02*
X4724944Y-610174D01*
X4724944Y-610174D02*
X4734468Y-629222D01*
X4734468Y-629222D02*
X4734468Y-648270D01*
X4734468Y-648270D02*
X4639230Y-667317D01*
X4810658Y-724460D02*
X4829706Y-733984D01*
X4829706Y-733984D02*
X4867801Y-733984D01*
X4867801Y-733984D02*
X4886849Y-724460D01*
X4886849Y-724460D02*
X4896373Y-705412D01*
X4896373Y-705412D02*
X4896373Y-695889D01*
X4896373Y-695889D02*
X4886849Y-676841D01*
X4886849Y-676841D02*
X4867801Y-667317D01*
X4867801Y-667317D02*
X4839230Y-667317D01*
X4839230Y-667317D02*
X4820182Y-657793D01*
X4820182Y-657793D02*
X4810658Y-638746D01*
X4810658Y-638746D02*
X4810658Y-629222D01*
X4810658Y-629222D02*
X4820182Y-610174D01*
X4820182Y-610174D02*
X4839230Y-600650D01*
X4839230Y-600650D02*
X4867801Y-600650D01*
X4867801Y-600650D02*
X4886849Y-610174D01*
X4963039Y-810174D02*
X4972563Y-800650D01*
X4972563Y-800650D02*
X4991611Y-772079D01*
X4991611Y-772079D02*
X5001134Y-753031D01*
X5001134Y-753031D02*
X5010658Y-724460D01*
X5010658Y-724460D02*
X5020182Y-676841D01*
X5020182Y-676841D02*
X5020182Y-638746D01*
X5020182Y-638746D02*
X5010658Y-591127D01*
X5010658Y-591127D02*
X5001134Y-562555D01*
X5001134Y-562555D02*
X4991611Y-543508D01*
X4991611Y-543508D02*
X4972563Y-514936D01*
X4972563Y-514936D02*
X4963039Y-505412D01*
D12*
X-2500Y-906500D02*
G75*
G02*
X-52500Y-906500I-25000J0D01*
G01*
X-52500Y-906500D02*
G75*
G02*
X-2500Y-906500I25000J0D01*
G01*
D11*
X296372Y-797984D02*
X315420Y-797984D01*
X315420Y-797984D02*
X334467Y-807508D01*
X334467Y-807508D02*
X343991Y-817031D01*
X343991Y-817031D02*
X353515Y-836079D01*
X353515Y-836079D02*
X363039Y-874174D01*
X363039Y-874174D02*
X363039Y-921793D01*
X363039Y-921793D02*
X353515Y-959888D01*
X353515Y-959888D02*
X343991Y-978936D01*
X343991Y-978936D02*
X334467Y-988460D01*
X334467Y-988460D02*
X315420Y-997984D01*
X315420Y-997984D02*
X296372Y-997984D01*
X296372Y-997984D02*
X277324Y-988460D01*
X277324Y-988460D02*
X267801Y-978936D01*
X267801Y-978936D02*
X258277Y-959888D01*
X258277Y-959888D02*
X248753Y-921793D01*
X248753Y-921793D02*
X248753Y-874174D01*
X248753Y-874174D02*
X258277Y-836079D01*
X258277Y-836079D02*
X267801Y-817031D01*
X267801Y-817031D02*
X277324Y-807508D01*
X277324Y-807508D02*
X296372Y-797984D01*
X448753Y-978936D02*
X458277Y-988460D01*
X458277Y-988460D02*
X448753Y-997984D01*
X448753Y-997984D02*
X439229Y-988460D01*
X439229Y-988460D02*
X448753Y-978936D01*
X448753Y-978936D02*
X448753Y-997984D01*
X639229Y-797984D02*
X543991Y-797984D01*
X543991Y-797984D02*
X534467Y-893222D01*
X534467Y-893222D02*
X543991Y-883698D01*
X543991Y-883698D02*
X563039Y-874174D01*
X563039Y-874174D02*
X610658Y-874174D01*
X610658Y-874174D02*
X629705Y-883698D01*
X629705Y-883698D02*
X639229Y-893222D01*
X639229Y-893222D02*
X648753Y-912269D01*
X648753Y-912269D02*
X648753Y-959888D01*
X648753Y-959888D02*
X639229Y-978936D01*
X639229Y-978936D02*
X629705Y-988460D01*
X629705Y-988460D02*
X610658Y-997984D01*
X610658Y-997984D02*
X563039Y-997984D01*
X563039Y-997984D02*
X543991Y-988460D01*
X543991Y-988460D02*
X534467Y-978936D01*
X772562Y-797984D02*
X791610Y-797984D01*
X791610Y-797984D02*
X810658Y-807508D01*
X810658Y-807508D02*
X820182Y-817031D01*
X820182Y-817031D02*
X829705Y-836079D01*
X829705Y-836079D02*
X839229Y-874174D01*
X839229Y-874174D02*
X839229Y-921793D01*
X839229Y-921793D02*
X829705Y-959888D01*
X829705Y-959888D02*
X820182Y-978936D01*
X820182Y-978936D02*
X810658Y-988460D01*
X810658Y-988460D02*
X791610Y-997984D01*
X791610Y-997984D02*
X772562Y-997984D01*
X772562Y-997984D02*
X753515Y-988460D01*
X753515Y-988460D02*
X743991Y-978936D01*
X743991Y-978936D02*
X734467Y-959888D01*
X734467Y-959888D02*
X724943Y-921793D01*
X724943Y-921793D02*
X724943Y-874174D01*
X724943Y-874174D02*
X734467Y-836079D01*
X734467Y-836079D02*
X743991Y-817031D01*
X743991Y-817031D02*
X753515Y-807508D01*
X753515Y-807508D02*
X772562Y-797984D01*
X963039Y-797984D02*
X982086Y-797984D01*
X982086Y-797984D02*
X1001134Y-807508D01*
X1001134Y-807508D02*
X1010658Y-817031D01*
X1010658Y-817031D02*
X1020182Y-836079D01*
X1020182Y-836079D02*
X1029705Y-874174D01*
X1029705Y-874174D02*
X1029705Y-921793D01*
X1029705Y-921793D02*
X1020182Y-959888D01*
X1020182Y-959888D02*
X1010658Y-978936D01*
X1010658Y-978936D02*
X1001134Y-988460D01*
X1001134Y-988460D02*
X982086Y-997984D01*
X982086Y-997984D02*
X963039Y-997984D01*
X963039Y-997984D02*
X943991Y-988460D01*
X943991Y-988460D02*
X934467Y-978936D01*
X934467Y-978936D02*
X924943Y-959888D01*
X924943Y-959888D02*
X915420Y-921793D01*
X915420Y-921793D02*
X915420Y-874174D01*
X915420Y-874174D02*
X924943Y-836079D01*
X924943Y-836079D02*
X934467Y-817031D01*
X934467Y-817031D02*
X943991Y-807508D01*
X943991Y-807508D02*
X963039Y-797984D01*
X1115420Y-997984D02*
X1115420Y-864650D01*
X1115420Y-883698D02*
X1124944Y-874174D01*
X1124944Y-874174D02*
X1143991Y-864650D01*
X1143991Y-864650D02*
X1172563Y-864650D01*
X1172563Y-864650D02*
X1191610Y-874174D01*
X1191610Y-874174D02*
X1201134Y-893222D01*
X1201134Y-893222D02*
X1201134Y-997984D01*
X1201134Y-893222D02*
X1210658Y-874174D01*
X1210658Y-874174D02*
X1229705Y-864650D01*
X1229705Y-864650D02*
X1258277Y-864650D01*
X1258277Y-864650D02*
X1277325Y-874174D01*
X1277325Y-874174D02*
X1286848Y-893222D01*
X1286848Y-893222D02*
X1286848Y-997984D01*
X1382086Y-997984D02*
X1382086Y-864650D01*
X1382086Y-883698D02*
X1391610Y-874174D01*
X1391610Y-874174D02*
X1410658Y-864650D01*
X1410658Y-864650D02*
X1439229Y-864650D01*
X1439229Y-864650D02*
X1458277Y-874174D01*
X1458277Y-874174D02*
X1467801Y-893222D01*
X1467801Y-893222D02*
X1467801Y-997984D01*
X1467801Y-893222D02*
X1477324Y-874174D01*
X1477324Y-874174D02*
X1496372Y-864650D01*
X1496372Y-864650D02*
X1524943Y-864650D01*
X1524943Y-864650D02*
X1543991Y-874174D01*
X1543991Y-874174D02*
X1553515Y-893222D01*
X1553515Y-893222D02*
X1553515Y-997984D01*
X1943991Y-788460D02*
X1772563Y-1045603D01*
X2201134Y-797984D02*
X2220182Y-797984D01*
X2220182Y-797984D02*
X2239229Y-807508D01*
X2239229Y-807508D02*
X2248753Y-817031D01*
X2248753Y-817031D02*
X2258277Y-836079D01*
X2258277Y-836079D02*
X2267801Y-874174D01*
X2267801Y-874174D02*
X2267801Y-921793D01*
X2267801Y-921793D02*
X2258277Y-959888D01*
X2258277Y-959888D02*
X2248753Y-978936D01*
X2248753Y-978936D02*
X2239229Y-988460D01*
X2239229Y-988460D02*
X2220182Y-997984D01*
X2220182Y-997984D02*
X2201134Y-997984D01*
X2201134Y-997984D02*
X2182087Y-988460D01*
X2182087Y-988460D02*
X2172563Y-978936D01*
X2172563Y-978936D02*
X2163039Y-959888D01*
X2163039Y-959888D02*
X2153515Y-921793D01*
X2153515Y-921793D02*
X2153515Y-874174D01*
X2153515Y-874174D02*
X2163039Y-836079D01*
X2163039Y-836079D02*
X2172563Y-817031D01*
X2172563Y-817031D02*
X2182087Y-807508D01*
X2182087Y-807508D02*
X2201134Y-797984D01*
X2353515Y-978936D02*
X2363039Y-988460D01*
X2363039Y-988460D02*
X2353515Y-997984D01*
X2353515Y-997984D02*
X2343991Y-988460D01*
X2343991Y-988460D02*
X2353515Y-978936D01*
X2353515Y-978936D02*
X2353515Y-997984D01*
X2486848Y-797984D02*
X2505896Y-797984D01*
X2505896Y-797984D02*
X2524944Y-807508D01*
X2524944Y-807508D02*
X2534468Y-817031D01*
X2534468Y-817031D02*
X2543991Y-836079D01*
X2543991Y-836079D02*
X2553515Y-874174D01*
X2553515Y-874174D02*
X2553515Y-921793D01*
X2553515Y-921793D02*
X2543991Y-959888D01*
X2543991Y-959888D02*
X2534468Y-978936D01*
X2534468Y-978936D02*
X2524944Y-988460D01*
X2524944Y-988460D02*
X2505896Y-997984D01*
X2505896Y-997984D02*
X2486848Y-997984D01*
X2486848Y-997984D02*
X2467801Y-988460D01*
X2467801Y-988460D02*
X2458277Y-978936D01*
X2458277Y-978936D02*
X2448753Y-959888D01*
X2448753Y-959888D02*
X2439229Y-921793D01*
X2439229Y-921793D02*
X2439229Y-874174D01*
X2439229Y-874174D02*
X2448753Y-836079D01*
X2448753Y-836079D02*
X2458277Y-817031D01*
X2458277Y-817031D02*
X2467801Y-807508D01*
X2467801Y-807508D02*
X2486848Y-797984D01*
X2743991Y-997984D02*
X2629706Y-997984D01*
X2686848Y-997984D02*
X2686848Y-797984D01*
X2686848Y-797984D02*
X2667801Y-826555D01*
X2667801Y-826555D02*
X2648753Y-845603D01*
X2648753Y-845603D02*
X2629706Y-855127D01*
X2839229Y-997984D02*
X2877325Y-997984D01*
X2877325Y-997984D02*
X2896372Y-988460D01*
X2896372Y-988460D02*
X2905896Y-978936D01*
X2905896Y-978936D02*
X2924944Y-950365D01*
X2924944Y-950365D02*
X2934467Y-912269D01*
X2934467Y-912269D02*
X2934467Y-836079D01*
X2934467Y-836079D02*
X2924944Y-817031D01*
X2924944Y-817031D02*
X2915420Y-807508D01*
X2915420Y-807508D02*
X2896372Y-797984D01*
X2896372Y-797984D02*
X2858277Y-797984D01*
X2858277Y-797984D02*
X2839229Y-807508D01*
X2839229Y-807508D02*
X2829706Y-817031D01*
X2829706Y-817031D02*
X2820182Y-836079D01*
X2820182Y-836079D02*
X2820182Y-883698D01*
X2820182Y-883698D02*
X2829706Y-902746D01*
X2829706Y-902746D02*
X2839229Y-912269D01*
X2839229Y-912269D02*
X2858277Y-921793D01*
X2858277Y-921793D02*
X2896372Y-921793D01*
X2896372Y-921793D02*
X2915420Y-912269D01*
X2915420Y-912269D02*
X2924944Y-902746D01*
X2924944Y-902746D02*
X2934467Y-883698D01*
X3001134Y-797984D02*
X3134467Y-797984D01*
X3134467Y-797984D02*
X3048753Y-997984D01*
X3201134Y-797984D02*
X3201134Y-836079D01*
X3277325Y-797984D02*
X3277325Y-836079D01*
X3572563Y-1074174D02*
X3563039Y-1064650D01*
X3563039Y-1064650D02*
X3543991Y-1036079D01*
X3543991Y-1036079D02*
X3534468Y-1017031D01*
X3534468Y-1017031D02*
X3524944Y-988460D01*
X3524944Y-988460D02*
X3515420Y-940841D01*
X3515420Y-940841D02*
X3515420Y-902746D01*
X3515420Y-902746D02*
X3524944Y-855127D01*
X3524944Y-855127D02*
X3534468Y-826555D01*
X3534468Y-826555D02*
X3543991Y-807508D01*
X3543991Y-807508D02*
X3563039Y-778936D01*
X3563039Y-778936D02*
X3572563Y-769412D01*
X3677325Y-883698D02*
X3658277Y-874174D01*
X3658277Y-874174D02*
X3648753Y-864650D01*
X3648753Y-864650D02*
X3639229Y-845603D01*
X3639229Y-845603D02*
X3639229Y-836079D01*
X3639229Y-836079D02*
X3648753Y-817031D01*
X3648753Y-817031D02*
X3658277Y-807508D01*
X3658277Y-807508D02*
X3677325Y-797984D01*
X3677325Y-797984D02*
X3715420Y-797984D01*
X3715420Y-797984D02*
X3734468Y-807508D01*
X3734468Y-807508D02*
X3743991Y-817031D01*
X3743991Y-817031D02*
X3753515Y-836079D01*
X3753515Y-836079D02*
X3753515Y-845603D01*
X3753515Y-845603D02*
X3743991Y-864650D01*
X3743991Y-864650D02*
X3734468Y-874174D01*
X3734468Y-874174D02*
X3715420Y-883698D01*
X3715420Y-883698D02*
X3677325Y-883698D01*
X3677325Y-883698D02*
X3658277Y-893222D01*
X3658277Y-893222D02*
X3648753Y-902746D01*
X3648753Y-902746D02*
X3639229Y-921793D01*
X3639229Y-921793D02*
X3639229Y-959888D01*
X3639229Y-959888D02*
X3648753Y-978936D01*
X3648753Y-978936D02*
X3658277Y-988460D01*
X3658277Y-988460D02*
X3677325Y-997984D01*
X3677325Y-997984D02*
X3715420Y-997984D01*
X3715420Y-997984D02*
X3734468Y-988460D01*
X3734468Y-988460D02*
X3743991Y-978936D01*
X3743991Y-978936D02*
X3753515Y-959888D01*
X3753515Y-959888D02*
X3753515Y-921793D01*
X3753515Y-921793D02*
X3743991Y-902746D01*
X3743991Y-902746D02*
X3734468Y-893222D01*
X3734468Y-893222D02*
X3715420Y-883698D01*
X3991610Y-997984D02*
X3991610Y-797984D01*
X4077325Y-997984D02*
X4077325Y-893222D01*
X4077325Y-893222D02*
X4067801Y-874174D01*
X4067801Y-874174D02*
X4048753Y-864650D01*
X4048753Y-864650D02*
X4020182Y-864650D01*
X4020182Y-864650D02*
X4001134Y-874174D01*
X4001134Y-874174D02*
X3991610Y-883698D01*
X4201134Y-997984D02*
X4182087Y-988460D01*
X4182087Y-988460D02*
X4172563Y-978936D01*
X4172563Y-978936D02*
X4163039Y-959888D01*
X4163039Y-959888D02*
X4163039Y-902746D01*
X4163039Y-902746D02*
X4172563Y-883698D01*
X4172563Y-883698D02*
X4182087Y-874174D01*
X4182087Y-874174D02*
X4201134Y-864650D01*
X4201134Y-864650D02*
X4229706Y-864650D01*
X4229706Y-864650D02*
X4248753Y-874174D01*
X4248753Y-874174D02*
X4258277Y-883698D01*
X4258277Y-883698D02*
X4267801Y-902746D01*
X4267801Y-902746D02*
X4267801Y-959888D01*
X4267801Y-959888D02*
X4258277Y-978936D01*
X4258277Y-978936D02*
X4248753Y-988460D01*
X4248753Y-988460D02*
X4229706Y-997984D01*
X4229706Y-997984D02*
X4201134Y-997984D01*
X4382087Y-997984D02*
X4363039Y-988460D01*
X4363039Y-988460D02*
X4353515Y-969412D01*
X4353515Y-969412D02*
X4353515Y-797984D01*
X4534468Y-988460D02*
X4515420Y-997984D01*
X4515420Y-997984D02*
X4477325Y-997984D01*
X4477325Y-997984D02*
X4458277Y-988460D01*
X4458277Y-988460D02*
X4448753Y-969412D01*
X4448753Y-969412D02*
X4448753Y-893222D01*
X4448753Y-893222D02*
X4458277Y-874174D01*
X4458277Y-874174D02*
X4477325Y-864650D01*
X4477325Y-864650D02*
X4515420Y-864650D01*
X4515420Y-864650D02*
X4534468Y-874174D01*
X4534468Y-874174D02*
X4543992Y-893222D01*
X4543992Y-893222D02*
X4543992Y-912269D01*
X4543992Y-912269D02*
X4448753Y-931317D01*
X4620182Y-988460D02*
X4639230Y-997984D01*
X4639230Y-997984D02*
X4677325Y-997984D01*
X4677325Y-997984D02*
X4696373Y-988460D01*
X4696373Y-988460D02*
X4705896Y-969412D01*
X4705896Y-969412D02*
X4705896Y-959888D01*
X4705896Y-959888D02*
X4696373Y-940841D01*
X4696373Y-940841D02*
X4677325Y-931317D01*
X4677325Y-931317D02*
X4648753Y-931317D01*
X4648753Y-931317D02*
X4629706Y-921793D01*
X4629706Y-921793D02*
X4620182Y-902746D01*
X4620182Y-902746D02*
X4620182Y-893222D01*
X4620182Y-893222D02*
X4629706Y-874174D01*
X4629706Y-874174D02*
X4648753Y-864650D01*
X4648753Y-864650D02*
X4677325Y-864650D01*
X4677325Y-864650D02*
X4696373Y-874174D01*
X4772563Y-1074174D02*
X4782087Y-1064650D01*
X4782087Y-1064650D02*
X4801134Y-1036079D01*
X4801134Y-1036079D02*
X4810658Y-1017031D01*
X4810658Y-1017031D02*
X4820182Y-988460D01*
X4820182Y-988460D02*
X4829706Y-940841D01*
X4829706Y-940841D02*
X4829706Y-902746D01*
X4829706Y-902746D02*
X4820182Y-855127D01*
X4820182Y-855127D02*
X4810658Y-826555D01*
X4810658Y-826555D02*
X4801134Y-807508D01*
X4801134Y-807508D02*
X4782087Y-778936D01*
X4782087Y-778936D02*
X4772563Y-769412D01*
D12*
X-32500Y-1140500D02*
X-32500Y-1200500D01*
X-62500Y-1170500D02*
X-2500Y-1170500D01*
D11*
X296372Y-1061984D02*
X315420Y-1061984D01*
X315420Y-1061984D02*
X334467Y-1071508D01*
X334467Y-1071508D02*
X343991Y-1081031D01*
X343991Y-1081031D02*
X353515Y-1100079D01*
X353515Y-1100079D02*
X363039Y-1138174D01*
X363039Y-1138174D02*
X363039Y-1185793D01*
X363039Y-1185793D02*
X353515Y-1223889D01*
X353515Y-1223889D02*
X343991Y-1242936D01*
X343991Y-1242936D02*
X334467Y-1252460D01*
X334467Y-1252460D02*
X315420Y-1261984D01*
X315420Y-1261984D02*
X296372Y-1261984D01*
X296372Y-1261984D02*
X277324Y-1252460D01*
X277324Y-1252460D02*
X267801Y-1242936D01*
X267801Y-1242936D02*
X258277Y-1223889D01*
X258277Y-1223889D02*
X248753Y-1185793D01*
X248753Y-1185793D02*
X248753Y-1138174D01*
X248753Y-1138174D02*
X258277Y-1100079D01*
X258277Y-1100079D02*
X267801Y-1081031D01*
X267801Y-1081031D02*
X277324Y-1071508D01*
X277324Y-1071508D02*
X296372Y-1061984D01*
X448753Y-1242936D02*
X458277Y-1252460D01*
X458277Y-1252460D02*
X448753Y-1261984D01*
X448753Y-1261984D02*
X439229Y-1252460D01*
X439229Y-1252460D02*
X448753Y-1242936D01*
X448753Y-1242936D02*
X448753Y-1261984D01*
X629705Y-1061984D02*
X591610Y-1061984D01*
X591610Y-1061984D02*
X572563Y-1071508D01*
X572563Y-1071508D02*
X563039Y-1081031D01*
X563039Y-1081031D02*
X543991Y-1109603D01*
X543991Y-1109603D02*
X534467Y-1147698D01*
X534467Y-1147698D02*
X534467Y-1223889D01*
X534467Y-1223889D02*
X543991Y-1242936D01*
X543991Y-1242936D02*
X553515Y-1252460D01*
X553515Y-1252460D02*
X572563Y-1261984D01*
X572563Y-1261984D02*
X610658Y-1261984D01*
X610658Y-1261984D02*
X629705Y-1252460D01*
X629705Y-1252460D02*
X639229Y-1242936D01*
X639229Y-1242936D02*
X648753Y-1223889D01*
X648753Y-1223889D02*
X648753Y-1176270D01*
X648753Y-1176270D02*
X639229Y-1157222D01*
X639229Y-1157222D02*
X629705Y-1147698D01*
X629705Y-1147698D02*
X610658Y-1138174D01*
X610658Y-1138174D02*
X572563Y-1138174D01*
X572563Y-1138174D02*
X553515Y-1147698D01*
X553515Y-1147698D02*
X543991Y-1157222D01*
X543991Y-1157222D02*
X534467Y-1176270D01*
X772562Y-1061984D02*
X791610Y-1061984D01*
X791610Y-1061984D02*
X810658Y-1071508D01*
X810658Y-1071508D02*
X820182Y-1081031D01*
X820182Y-1081031D02*
X829705Y-1100079D01*
X829705Y-1100079D02*
X839229Y-1138174D01*
X839229Y-1138174D02*
X839229Y-1185793D01*
X839229Y-1185793D02*
X829705Y-1223889D01*
X829705Y-1223889D02*
X820182Y-1242936D01*
X820182Y-1242936D02*
X810658Y-1252460D01*
X810658Y-1252460D02*
X791610Y-1261984D01*
X791610Y-1261984D02*
X772562Y-1261984D01*
X772562Y-1261984D02*
X753515Y-1252460D01*
X753515Y-1252460D02*
X743991Y-1242936D01*
X743991Y-1242936D02*
X734467Y-1223889D01*
X734467Y-1223889D02*
X724943Y-1185793D01*
X724943Y-1185793D02*
X724943Y-1138174D01*
X724943Y-1138174D02*
X734467Y-1100079D01*
X734467Y-1100079D02*
X743991Y-1081031D01*
X743991Y-1081031D02*
X753515Y-1071508D01*
X753515Y-1071508D02*
X772562Y-1061984D01*
X963039Y-1061984D02*
X982086Y-1061984D01*
X982086Y-1061984D02*
X1001134Y-1071508D01*
X1001134Y-1071508D02*
X1010658Y-1081031D01*
X1010658Y-1081031D02*
X1020182Y-1100079D01*
X1020182Y-1100079D02*
X1029705Y-1138174D01*
X1029705Y-1138174D02*
X1029705Y-1185793D01*
X1029705Y-1185793D02*
X1020182Y-1223889D01*
X1020182Y-1223889D02*
X1010658Y-1242936D01*
X1010658Y-1242936D02*
X1001134Y-1252460D01*
X1001134Y-1252460D02*
X982086Y-1261984D01*
X982086Y-1261984D02*
X963039Y-1261984D01*
X963039Y-1261984D02*
X943991Y-1252460D01*
X943991Y-1252460D02*
X934467Y-1242936D01*
X934467Y-1242936D02*
X924943Y-1223889D01*
X924943Y-1223889D02*
X915420Y-1185793D01*
X915420Y-1185793D02*
X915420Y-1138174D01*
X915420Y-1138174D02*
X924943Y-1100079D01*
X924943Y-1100079D02*
X934467Y-1081031D01*
X934467Y-1081031D02*
X943991Y-1071508D01*
X943991Y-1071508D02*
X963039Y-1061984D01*
X1115420Y-1261984D02*
X1115420Y-1128650D01*
X1115420Y-1147698D02*
X1124944Y-1138174D01*
X1124944Y-1138174D02*
X1143991Y-1128650D01*
X1143991Y-1128650D02*
X1172563Y-1128650D01*
X1172563Y-1128650D02*
X1191610Y-1138174D01*
X1191610Y-1138174D02*
X1201134Y-1157222D01*
X1201134Y-1157222D02*
X1201134Y-1261984D01*
X1201134Y-1157222D02*
X1210658Y-1138174D01*
X1210658Y-1138174D02*
X1229705Y-1128650D01*
X1229705Y-1128650D02*
X1258277Y-1128650D01*
X1258277Y-1128650D02*
X1277325Y-1138174D01*
X1277325Y-1138174D02*
X1286848Y-1157222D01*
X1286848Y-1157222D02*
X1286848Y-1261984D01*
X1382086Y-1261984D02*
X1382086Y-1128650D01*
X1382086Y-1147698D02*
X1391610Y-1138174D01*
X1391610Y-1138174D02*
X1410658Y-1128650D01*
X1410658Y-1128650D02*
X1439229Y-1128650D01*
X1439229Y-1128650D02*
X1458277Y-1138174D01*
X1458277Y-1138174D02*
X1467801Y-1157222D01*
X1467801Y-1157222D02*
X1467801Y-1261984D01*
X1467801Y-1157222D02*
X1477324Y-1138174D01*
X1477324Y-1138174D02*
X1496372Y-1128650D01*
X1496372Y-1128650D02*
X1524943Y-1128650D01*
X1524943Y-1128650D02*
X1543991Y-1138174D01*
X1543991Y-1138174D02*
X1553515Y-1157222D01*
X1553515Y-1157222D02*
X1553515Y-1261984D01*
X1943991Y-1052460D02*
X1772563Y-1309603D01*
X2201134Y-1061984D02*
X2220182Y-1061984D01*
X2220182Y-1061984D02*
X2239229Y-1071508D01*
X2239229Y-1071508D02*
X2248753Y-1081031D01*
X2248753Y-1081031D02*
X2258277Y-1100079D01*
X2258277Y-1100079D02*
X2267801Y-1138174D01*
X2267801Y-1138174D02*
X2267801Y-1185793D01*
X2267801Y-1185793D02*
X2258277Y-1223889D01*
X2258277Y-1223889D02*
X2248753Y-1242936D01*
X2248753Y-1242936D02*
X2239229Y-1252460D01*
X2239229Y-1252460D02*
X2220182Y-1261984D01*
X2220182Y-1261984D02*
X2201134Y-1261984D01*
X2201134Y-1261984D02*
X2182087Y-1252460D01*
X2182087Y-1252460D02*
X2172563Y-1242936D01*
X2172563Y-1242936D02*
X2163039Y-1223889D01*
X2163039Y-1223889D02*
X2153515Y-1185793D01*
X2153515Y-1185793D02*
X2153515Y-1138174D01*
X2153515Y-1138174D02*
X2163039Y-1100079D01*
X2163039Y-1100079D02*
X2172563Y-1081031D01*
X2172563Y-1081031D02*
X2182087Y-1071508D01*
X2182087Y-1071508D02*
X2201134Y-1061984D01*
X2353515Y-1242936D02*
X2363039Y-1252460D01*
X2363039Y-1252460D02*
X2353515Y-1261984D01*
X2353515Y-1261984D02*
X2343991Y-1252460D01*
X2343991Y-1252460D02*
X2353515Y-1242936D01*
X2353515Y-1242936D02*
X2353515Y-1261984D01*
X2486848Y-1061984D02*
X2505896Y-1061984D01*
X2505896Y-1061984D02*
X2524944Y-1071508D01*
X2524944Y-1071508D02*
X2534468Y-1081031D01*
X2534468Y-1081031D02*
X2543991Y-1100079D01*
X2543991Y-1100079D02*
X2553515Y-1138174D01*
X2553515Y-1138174D02*
X2553515Y-1185793D01*
X2553515Y-1185793D02*
X2543991Y-1223889D01*
X2543991Y-1223889D02*
X2534468Y-1242936D01*
X2534468Y-1242936D02*
X2524944Y-1252460D01*
X2524944Y-1252460D02*
X2505896Y-1261984D01*
X2505896Y-1261984D02*
X2486848Y-1261984D01*
X2486848Y-1261984D02*
X2467801Y-1252460D01*
X2467801Y-1252460D02*
X2458277Y-1242936D01*
X2458277Y-1242936D02*
X2448753Y-1223889D01*
X2448753Y-1223889D02*
X2439229Y-1185793D01*
X2439229Y-1185793D02*
X2439229Y-1138174D01*
X2439229Y-1138174D02*
X2448753Y-1100079D01*
X2448753Y-1100079D02*
X2458277Y-1081031D01*
X2458277Y-1081031D02*
X2467801Y-1071508D01*
X2467801Y-1071508D02*
X2486848Y-1061984D01*
X2629706Y-1081031D02*
X2639229Y-1071508D01*
X2639229Y-1071508D02*
X2658277Y-1061984D01*
X2658277Y-1061984D02*
X2705896Y-1061984D01*
X2705896Y-1061984D02*
X2724944Y-1071508D01*
X2724944Y-1071508D02*
X2734468Y-1081031D01*
X2734468Y-1081031D02*
X2743991Y-1100079D01*
X2743991Y-1100079D02*
X2743991Y-1119127D01*
X2743991Y-1119127D02*
X2734468Y-1147698D01*
X2734468Y-1147698D02*
X2620182Y-1261984D01*
X2620182Y-1261984D02*
X2743991Y-1261984D01*
X2810658Y-1061984D02*
X2934467Y-1061984D01*
X2934467Y-1061984D02*
X2867801Y-1138174D01*
X2867801Y-1138174D02*
X2896372Y-1138174D01*
X2896372Y-1138174D02*
X2915420Y-1147698D01*
X2915420Y-1147698D02*
X2924944Y-1157222D01*
X2924944Y-1157222D02*
X2934467Y-1176270D01*
X2934467Y-1176270D02*
X2934467Y-1223889D01*
X2934467Y-1223889D02*
X2924944Y-1242936D01*
X2924944Y-1242936D02*
X2915420Y-1252460D01*
X2915420Y-1252460D02*
X2896372Y-1261984D01*
X2896372Y-1261984D02*
X2839229Y-1261984D01*
X2839229Y-1261984D02*
X2820182Y-1252460D01*
X2820182Y-1252460D02*
X2810658Y-1242936D01*
X3105896Y-1061984D02*
X3067801Y-1061984D01*
X3067801Y-1061984D02*
X3048753Y-1071508D01*
X3048753Y-1071508D02*
X3039229Y-1081031D01*
X3039229Y-1081031D02*
X3020182Y-1109603D01*
X3020182Y-1109603D02*
X3010658Y-1147698D01*
X3010658Y-1147698D02*
X3010658Y-1223889D01*
X3010658Y-1223889D02*
X3020182Y-1242936D01*
X3020182Y-1242936D02*
X3029706Y-1252460D01*
X3029706Y-1252460D02*
X3048753Y-1261984D01*
X3048753Y-1261984D02*
X3086848Y-1261984D01*
X3086848Y-1261984D02*
X3105896Y-1252460D01*
X3105896Y-1252460D02*
X3115420Y-1242936D01*
X3115420Y-1242936D02*
X3124944Y-1223889D01*
X3124944Y-1223889D02*
X3124944Y-1176270D01*
X3124944Y-1176270D02*
X3115420Y-1157222D01*
X3115420Y-1157222D02*
X3105896Y-1147698D01*
X3105896Y-1147698D02*
X3086848Y-1138174D01*
X3086848Y-1138174D02*
X3048753Y-1138174D01*
X3048753Y-1138174D02*
X3029706Y-1147698D01*
X3029706Y-1147698D02*
X3020182Y-1157222D01*
X3020182Y-1157222D02*
X3010658Y-1176270D01*
X3201134Y-1061984D02*
X3201134Y-1100079D01*
X3277325Y-1061984D02*
X3277325Y-1100079D01*
X3572563Y-1338174D02*
X3563039Y-1328650D01*
X3563039Y-1328650D02*
X3543991Y-1300079D01*
X3543991Y-1300079D02*
X3534468Y-1281031D01*
X3534468Y-1281031D02*
X3524944Y-1252460D01*
X3524944Y-1252460D02*
X3515420Y-1204841D01*
X3515420Y-1204841D02*
X3515420Y-1166746D01*
X3515420Y-1166746D02*
X3524944Y-1119127D01*
X3524944Y-1119127D02*
X3534468Y-1090555D01*
X3534468Y-1090555D02*
X3543991Y-1071508D01*
X3543991Y-1071508D02*
X3563039Y-1042936D01*
X3563039Y-1042936D02*
X3572563Y-1033412D01*
X3686848Y-1061984D02*
X3705896Y-1061984D01*
X3705896Y-1061984D02*
X3724944Y-1071508D01*
X3724944Y-1071508D02*
X3734468Y-1081031D01*
X3734468Y-1081031D02*
X3743991Y-1100079D01*
X3743991Y-1100079D02*
X3753515Y-1138174D01*
X3753515Y-1138174D02*
X3753515Y-1185793D01*
X3753515Y-1185793D02*
X3743991Y-1223889D01*
X3743991Y-1223889D02*
X3734468Y-1242936D01*
X3734468Y-1242936D02*
X3724944Y-1252460D01*
X3724944Y-1252460D02*
X3705896Y-1261984D01*
X3705896Y-1261984D02*
X3686848Y-1261984D01*
X3686848Y-1261984D02*
X3667801Y-1252460D01*
X3667801Y-1252460D02*
X3658277Y-1242936D01*
X3658277Y-1242936D02*
X3648753Y-1223889D01*
X3648753Y-1223889D02*
X3639229Y-1185793D01*
X3639229Y-1185793D02*
X3639229Y-1138174D01*
X3639229Y-1138174D02*
X3648753Y-1100079D01*
X3648753Y-1100079D02*
X3658277Y-1081031D01*
X3658277Y-1081031D02*
X3667801Y-1071508D01*
X3667801Y-1071508D02*
X3686848Y-1061984D01*
X3991610Y-1261984D02*
X3991610Y-1061984D01*
X4077325Y-1261984D02*
X4077325Y-1157222D01*
X4077325Y-1157222D02*
X4067801Y-1138174D01*
X4067801Y-1138174D02*
X4048753Y-1128650D01*
X4048753Y-1128650D02*
X4020182Y-1128650D01*
X4020182Y-1128650D02*
X4001134Y-1138174D01*
X4001134Y-1138174D02*
X3991610Y-1147698D01*
X4201134Y-1261984D02*
X4182087Y-1252460D01*
X4182087Y-1252460D02*
X4172563Y-1242936D01*
X4172563Y-1242936D02*
X4163039Y-1223889D01*
X4163039Y-1223889D02*
X4163039Y-1166746D01*
X4163039Y-1166746D02*
X4172563Y-1147698D01*
X4172563Y-1147698D02*
X4182087Y-1138174D01*
X4182087Y-1138174D02*
X4201134Y-1128650D01*
X4201134Y-1128650D02*
X4229706Y-1128650D01*
X4229706Y-1128650D02*
X4248753Y-1138174D01*
X4248753Y-1138174D02*
X4258277Y-1147698D01*
X4258277Y-1147698D02*
X4267801Y-1166746D01*
X4267801Y-1166746D02*
X4267801Y-1223889D01*
X4267801Y-1223889D02*
X4258277Y-1242936D01*
X4258277Y-1242936D02*
X4248753Y-1252460D01*
X4248753Y-1252460D02*
X4229706Y-1261984D01*
X4229706Y-1261984D02*
X4201134Y-1261984D01*
X4382087Y-1261984D02*
X4363039Y-1252460D01*
X4363039Y-1252460D02*
X4353515Y-1233412D01*
X4353515Y-1233412D02*
X4353515Y-1061984D01*
X4534468Y-1252460D02*
X4515420Y-1261984D01*
X4515420Y-1261984D02*
X4477325Y-1261984D01*
X4477325Y-1261984D02*
X4458277Y-1252460D01*
X4458277Y-1252460D02*
X4448753Y-1233412D01*
X4448753Y-1233412D02*
X4448753Y-1157222D01*
X4448753Y-1157222D02*
X4458277Y-1138174D01*
X4458277Y-1138174D02*
X4477325Y-1128650D01*
X4477325Y-1128650D02*
X4515420Y-1128650D01*
X4515420Y-1128650D02*
X4534468Y-1138174D01*
X4534468Y-1138174D02*
X4543992Y-1157222D01*
X4543992Y-1157222D02*
X4543992Y-1176270D01*
X4543992Y-1176270D02*
X4448753Y-1195317D01*
X4620182Y-1252460D02*
X4639230Y-1261984D01*
X4639230Y-1261984D02*
X4677325Y-1261984D01*
X4677325Y-1261984D02*
X4696373Y-1252460D01*
X4696373Y-1252460D02*
X4705896Y-1233412D01*
X4705896Y-1233412D02*
X4705896Y-1223889D01*
X4705896Y-1223889D02*
X4696373Y-1204841D01*
X4696373Y-1204841D02*
X4677325Y-1195317D01*
X4677325Y-1195317D02*
X4648753Y-1195317D01*
X4648753Y-1195317D02*
X4629706Y-1185793D01*
X4629706Y-1185793D02*
X4620182Y-1166746D01*
X4620182Y-1166746D02*
X4620182Y-1157222D01*
X4620182Y-1157222D02*
X4629706Y-1138174D01*
X4629706Y-1138174D02*
X4648753Y-1128650D01*
X4648753Y-1128650D02*
X4677325Y-1128650D01*
X4677325Y-1128650D02*
X4696373Y-1138174D01*
X4943992Y-1185793D02*
X5096373Y-1185793D01*
X5020182Y-1261984D02*
X5020182Y-1109603D01*
X5429706Y-1128650D02*
X5429706Y-1261984D01*
X5382087Y-1052460D02*
X5334468Y-1195317D01*
X5334468Y-1195317D02*
X5458277Y-1195317D01*
X5677325Y-1252460D02*
X5696373Y-1261984D01*
X5696373Y-1261984D02*
X5734468Y-1261984D01*
X5734468Y-1261984D02*
X5753515Y-1252460D01*
X5753515Y-1252460D02*
X5763039Y-1233412D01*
X5763039Y-1233412D02*
X5763039Y-1223889D01*
X5763039Y-1223889D02*
X5753515Y-1204841D01*
X5753515Y-1204841D02*
X5734468Y-1195317D01*
X5734468Y-1195317D02*
X5705896Y-1195317D01*
X5705896Y-1195317D02*
X5686849Y-1185793D01*
X5686849Y-1185793D02*
X5677325Y-1166746D01*
X5677325Y-1166746D02*
X5677325Y-1157222D01*
X5677325Y-1157222D02*
X5686849Y-1138174D01*
X5686849Y-1138174D02*
X5705896Y-1128650D01*
X5705896Y-1128650D02*
X5734468Y-1128650D01*
X5734468Y-1128650D02*
X5753515Y-1138174D01*
X5877325Y-1261984D02*
X5858277Y-1252460D01*
X5858277Y-1252460D02*
X5848754Y-1233412D01*
X5848754Y-1233412D02*
X5848754Y-1061984D01*
X5982087Y-1261984D02*
X5963039Y-1252460D01*
X5963039Y-1252460D02*
X5953515Y-1242936D01*
X5953515Y-1242936D02*
X5943992Y-1223889D01*
X5943992Y-1223889D02*
X5943992Y-1166746D01*
X5943992Y-1166746D02*
X5953515Y-1147698D01*
X5953515Y-1147698D02*
X5963039Y-1138174D01*
X5963039Y-1138174D02*
X5982087Y-1128650D01*
X5982087Y-1128650D02*
X6010658Y-1128650D01*
X6010658Y-1128650D02*
X6029706Y-1138174D01*
X6029706Y-1138174D02*
X6039230Y-1147698D01*
X6039230Y-1147698D02*
X6048754Y-1166746D01*
X6048754Y-1166746D02*
X6048754Y-1223889D01*
X6048754Y-1223889D02*
X6039230Y-1242936D01*
X6039230Y-1242936D02*
X6029706Y-1252460D01*
X6029706Y-1252460D02*
X6010658Y-1261984D01*
X6010658Y-1261984D02*
X5982087Y-1261984D01*
X6105896Y-1128650D02*
X6182087Y-1128650D01*
X6134468Y-1061984D02*
X6134468Y-1233412D01*
X6134468Y-1233412D02*
X6143992Y-1252460D01*
X6143992Y-1252460D02*
X6163039Y-1261984D01*
X6163039Y-1261984D02*
X6182087Y-1261984D01*
X6239230Y-1252460D02*
X6258277Y-1261984D01*
X6258277Y-1261984D02*
X6296373Y-1261984D01*
X6296373Y-1261984D02*
X6315420Y-1252460D01*
X6315420Y-1252460D02*
X6324944Y-1233412D01*
X6324944Y-1233412D02*
X6324944Y-1223889D01*
X6324944Y-1223889D02*
X6315420Y-1204841D01*
X6315420Y-1204841D02*
X6296373Y-1195317D01*
X6296373Y-1195317D02*
X6267801Y-1195317D01*
X6267801Y-1195317D02*
X6248754Y-1185793D01*
X6248754Y-1185793D02*
X6239230Y-1166746D01*
X6239230Y-1166746D02*
X6239230Y-1157222D01*
X6239230Y-1157222D02*
X6248754Y-1138174D01*
X6248754Y-1138174D02*
X6267801Y-1128650D01*
X6267801Y-1128650D02*
X6296373Y-1128650D01*
X6296373Y-1128650D02*
X6315420Y-1138174D01*
X6391611Y-1338174D02*
X6401135Y-1328650D01*
X6401135Y-1328650D02*
X6420182Y-1300079D01*
X6420182Y-1300079D02*
X6429706Y-1281031D01*
X6429706Y-1281031D02*
X6439230Y-1252460D01*
X6439230Y-1252460D02*
X6448754Y-1204841D01*
X6448754Y-1204841D02*
X6448754Y-1166746D01*
X6448754Y-1166746D02*
X6439230Y-1119127D01*
X6439230Y-1119127D02*
X6429706Y-1090555D01*
X6429706Y-1090555D02*
X6420182Y-1071508D01*
X6420182Y-1071508D02*
X6401135Y-1042936D01*
X6401135Y-1042936D02*
X6391611Y-1033412D01*
D12*
X-15680Y-1466320D02*
X-15680Y-1402680D01*
X-79320Y-1402680D01*
X-79320Y-1466320D01*
X-15680Y-1466320D01*
D11*
X296372Y-1325984D02*
X315420Y-1325984D01*
X315420Y-1325984D02*
X334467Y-1335508D01*
X334467Y-1335508D02*
X343991Y-1345031D01*
X343991Y-1345031D02*
X353515Y-1364079D01*
X353515Y-1364079D02*
X363039Y-1402174D01*
X363039Y-1402174D02*
X363039Y-1449793D01*
X363039Y-1449793D02*
X353515Y-1487888D01*
X353515Y-1487888D02*
X343991Y-1506936D01*
X343991Y-1506936D02*
X334467Y-1516460D01*
X334467Y-1516460D02*
X315420Y-1525984D01*
X315420Y-1525984D02*
X296372Y-1525984D01*
X296372Y-1525984D02*
X277324Y-1516460D01*
X277324Y-1516460D02*
X267801Y-1506936D01*
X267801Y-1506936D02*
X258277Y-1487888D01*
X258277Y-1487888D02*
X248753Y-1449793D01*
X248753Y-1449793D02*
X248753Y-1402174D01*
X248753Y-1402174D02*
X258277Y-1364079D01*
X258277Y-1364079D02*
X267801Y-1345031D01*
X267801Y-1345031D02*
X277324Y-1335508D01*
X277324Y-1335508D02*
X296372Y-1325984D01*
X448753Y-1506936D02*
X458277Y-1516460D01*
X458277Y-1516460D02*
X448753Y-1525984D01*
X448753Y-1525984D02*
X439229Y-1516460D01*
X439229Y-1516460D02*
X448753Y-1506936D01*
X448753Y-1506936D02*
X448753Y-1525984D01*
X553515Y-1525984D02*
X591610Y-1525984D01*
X591610Y-1525984D02*
X610658Y-1516460D01*
X610658Y-1516460D02*
X620182Y-1506936D01*
X620182Y-1506936D02*
X639229Y-1478365D01*
X639229Y-1478365D02*
X648753Y-1440269D01*
X648753Y-1440269D02*
X648753Y-1364079D01*
X648753Y-1364079D02*
X639229Y-1345031D01*
X639229Y-1345031D02*
X629705Y-1335508D01*
X629705Y-1335508D02*
X610658Y-1325984D01*
X610658Y-1325984D02*
X572563Y-1325984D01*
X572563Y-1325984D02*
X553515Y-1335508D01*
X553515Y-1335508D02*
X543991Y-1345031D01*
X543991Y-1345031D02*
X534467Y-1364079D01*
X534467Y-1364079D02*
X534467Y-1411698D01*
X534467Y-1411698D02*
X543991Y-1430746D01*
X543991Y-1430746D02*
X553515Y-1440269D01*
X553515Y-1440269D02*
X572563Y-1449793D01*
X572563Y-1449793D02*
X610658Y-1449793D01*
X610658Y-1449793D02*
X629705Y-1440269D01*
X629705Y-1440269D02*
X639229Y-1430746D01*
X639229Y-1430746D02*
X648753Y-1411698D01*
X772562Y-1325984D02*
X791610Y-1325984D01*
X791610Y-1325984D02*
X810658Y-1335508D01*
X810658Y-1335508D02*
X820182Y-1345031D01*
X820182Y-1345031D02*
X829705Y-1364079D01*
X829705Y-1364079D02*
X839229Y-1402174D01*
X839229Y-1402174D02*
X839229Y-1449793D01*
X839229Y-1449793D02*
X829705Y-1487888D01*
X829705Y-1487888D02*
X820182Y-1506936D01*
X820182Y-1506936D02*
X810658Y-1516460D01*
X810658Y-1516460D02*
X791610Y-1525984D01*
X791610Y-1525984D02*
X772562Y-1525984D01*
X772562Y-1525984D02*
X753515Y-1516460D01*
X753515Y-1516460D02*
X743991Y-1506936D01*
X743991Y-1506936D02*
X734467Y-1487888D01*
X734467Y-1487888D02*
X724943Y-1449793D01*
X724943Y-1449793D02*
X724943Y-1402174D01*
X724943Y-1402174D02*
X734467Y-1364079D01*
X734467Y-1364079D02*
X743991Y-1345031D01*
X743991Y-1345031D02*
X753515Y-1335508D01*
X753515Y-1335508D02*
X772562Y-1325984D01*
X963039Y-1325984D02*
X982086Y-1325984D01*
X982086Y-1325984D02*
X1001134Y-1335508D01*
X1001134Y-1335508D02*
X1010658Y-1345031D01*
X1010658Y-1345031D02*
X1020182Y-1364079D01*
X1020182Y-1364079D02*
X1029705Y-1402174D01*
X1029705Y-1402174D02*
X1029705Y-1449793D01*
X1029705Y-1449793D02*
X1020182Y-1487888D01*
X1020182Y-1487888D02*
X1010658Y-1506936D01*
X1010658Y-1506936D02*
X1001134Y-1516460D01*
X1001134Y-1516460D02*
X982086Y-1525984D01*
X982086Y-1525984D02*
X963039Y-1525984D01*
X963039Y-1525984D02*
X943991Y-1516460D01*
X943991Y-1516460D02*
X934467Y-1506936D01*
X934467Y-1506936D02*
X924943Y-1487888D01*
X924943Y-1487888D02*
X915420Y-1449793D01*
X915420Y-1449793D02*
X915420Y-1402174D01*
X915420Y-1402174D02*
X924943Y-1364079D01*
X924943Y-1364079D02*
X934467Y-1345031D01*
X934467Y-1345031D02*
X943991Y-1335508D01*
X943991Y-1335508D02*
X963039Y-1325984D01*
X1115420Y-1525984D02*
X1115420Y-1392650D01*
X1115420Y-1411698D02*
X1124944Y-1402174D01*
X1124944Y-1402174D02*
X1143991Y-1392650D01*
X1143991Y-1392650D02*
X1172563Y-1392650D01*
X1172563Y-1392650D02*
X1191610Y-1402174D01*
X1191610Y-1402174D02*
X1201134Y-1421222D01*
X1201134Y-1421222D02*
X1201134Y-1525984D01*
X1201134Y-1421222D02*
X1210658Y-1402174D01*
X1210658Y-1402174D02*
X1229705Y-1392650D01*
X1229705Y-1392650D02*
X1258277Y-1392650D01*
X1258277Y-1392650D02*
X1277325Y-1402174D01*
X1277325Y-1402174D02*
X1286848Y-1421222D01*
X1286848Y-1421222D02*
X1286848Y-1525984D01*
X1382086Y-1525984D02*
X1382086Y-1392650D01*
X1382086Y-1411698D02*
X1391610Y-1402174D01*
X1391610Y-1402174D02*
X1410658Y-1392650D01*
X1410658Y-1392650D02*
X1439229Y-1392650D01*
X1439229Y-1392650D02*
X1458277Y-1402174D01*
X1458277Y-1402174D02*
X1467801Y-1421222D01*
X1467801Y-1421222D02*
X1467801Y-1525984D01*
X1467801Y-1421222D02*
X1477324Y-1402174D01*
X1477324Y-1402174D02*
X1496372Y-1392650D01*
X1496372Y-1392650D02*
X1524943Y-1392650D01*
X1524943Y-1392650D02*
X1543991Y-1402174D01*
X1543991Y-1402174D02*
X1553515Y-1421222D01*
X1553515Y-1421222D02*
X1553515Y-1525984D01*
X1943991Y-1316460D02*
X1772563Y-1573603D01*
X2201134Y-1325984D02*
X2220182Y-1325984D01*
X2220182Y-1325984D02*
X2239229Y-1335508D01*
X2239229Y-1335508D02*
X2248753Y-1345031D01*
X2248753Y-1345031D02*
X2258277Y-1364079D01*
X2258277Y-1364079D02*
X2267801Y-1402174D01*
X2267801Y-1402174D02*
X2267801Y-1449793D01*
X2267801Y-1449793D02*
X2258277Y-1487888D01*
X2258277Y-1487888D02*
X2248753Y-1506936D01*
X2248753Y-1506936D02*
X2239229Y-1516460D01*
X2239229Y-1516460D02*
X2220182Y-1525984D01*
X2220182Y-1525984D02*
X2201134Y-1525984D01*
X2201134Y-1525984D02*
X2182087Y-1516460D01*
X2182087Y-1516460D02*
X2172563Y-1506936D01*
X2172563Y-1506936D02*
X2163039Y-1487888D01*
X2163039Y-1487888D02*
X2153515Y-1449793D01*
X2153515Y-1449793D02*
X2153515Y-1402174D01*
X2153515Y-1402174D02*
X2163039Y-1364079D01*
X2163039Y-1364079D02*
X2172563Y-1345031D01*
X2172563Y-1345031D02*
X2182087Y-1335508D01*
X2182087Y-1335508D02*
X2201134Y-1325984D01*
X2353515Y-1506936D02*
X2363039Y-1516460D01*
X2363039Y-1516460D02*
X2353515Y-1525984D01*
X2353515Y-1525984D02*
X2343991Y-1516460D01*
X2343991Y-1516460D02*
X2353515Y-1506936D01*
X2353515Y-1506936D02*
X2353515Y-1525984D01*
X2486848Y-1325984D02*
X2505896Y-1325984D01*
X2505896Y-1325984D02*
X2524944Y-1335508D01*
X2524944Y-1335508D02*
X2534468Y-1345031D01*
X2534468Y-1345031D02*
X2543991Y-1364079D01*
X2543991Y-1364079D02*
X2553515Y-1402174D01*
X2553515Y-1402174D02*
X2553515Y-1449793D01*
X2553515Y-1449793D02*
X2543991Y-1487888D01*
X2543991Y-1487888D02*
X2534468Y-1506936D01*
X2534468Y-1506936D02*
X2524944Y-1516460D01*
X2524944Y-1516460D02*
X2505896Y-1525984D01*
X2505896Y-1525984D02*
X2486848Y-1525984D01*
X2486848Y-1525984D02*
X2467801Y-1516460D01*
X2467801Y-1516460D02*
X2458277Y-1506936D01*
X2458277Y-1506936D02*
X2448753Y-1487888D01*
X2448753Y-1487888D02*
X2439229Y-1449793D01*
X2439229Y-1449793D02*
X2439229Y-1402174D01*
X2439229Y-1402174D02*
X2448753Y-1364079D01*
X2448753Y-1364079D02*
X2458277Y-1345031D01*
X2458277Y-1345031D02*
X2467801Y-1335508D01*
X2467801Y-1335508D02*
X2486848Y-1325984D01*
X2620182Y-1325984D02*
X2743991Y-1325984D01*
X2743991Y-1325984D02*
X2677325Y-1402174D01*
X2677325Y-1402174D02*
X2705896Y-1402174D01*
X2705896Y-1402174D02*
X2724944Y-1411698D01*
X2724944Y-1411698D02*
X2734468Y-1421222D01*
X2734468Y-1421222D02*
X2743991Y-1440269D01*
X2743991Y-1440269D02*
X2743991Y-1487888D01*
X2743991Y-1487888D02*
X2734468Y-1506936D01*
X2734468Y-1506936D02*
X2724944Y-1516460D01*
X2724944Y-1516460D02*
X2705896Y-1525984D01*
X2705896Y-1525984D02*
X2648753Y-1525984D01*
X2648753Y-1525984D02*
X2629706Y-1516460D01*
X2629706Y-1516460D02*
X2620182Y-1506936D01*
X2924944Y-1325984D02*
X2829706Y-1325984D01*
X2829706Y-1325984D02*
X2820182Y-1421222D01*
X2820182Y-1421222D02*
X2829706Y-1411698D01*
X2829706Y-1411698D02*
X2848753Y-1402174D01*
X2848753Y-1402174D02*
X2896372Y-1402174D01*
X2896372Y-1402174D02*
X2915420Y-1411698D01*
X2915420Y-1411698D02*
X2924944Y-1421222D01*
X2924944Y-1421222D02*
X2934467Y-1440269D01*
X2934467Y-1440269D02*
X2934467Y-1487888D01*
X2934467Y-1487888D02*
X2924944Y-1506936D01*
X2924944Y-1506936D02*
X2915420Y-1516460D01*
X2915420Y-1516460D02*
X2896372Y-1525984D01*
X2896372Y-1525984D02*
X2848753Y-1525984D01*
X2848753Y-1525984D02*
X2829706Y-1516460D01*
X2829706Y-1516460D02*
X2820182Y-1506936D01*
X3105896Y-1392650D02*
X3105896Y-1525984D01*
X3058277Y-1316460D02*
X3010658Y-1459317D01*
X3010658Y-1459317D02*
X3134467Y-1459317D01*
X3201134Y-1325984D02*
X3201134Y-1364079D01*
X3277325Y-1325984D02*
X3277325Y-1364079D01*
X3572563Y-1602174D02*
X3563039Y-1592650D01*
X3563039Y-1592650D02*
X3543991Y-1564079D01*
X3543991Y-1564079D02*
X3534468Y-1545031D01*
X3534468Y-1545031D02*
X3524944Y-1516460D01*
X3524944Y-1516460D02*
X3515420Y-1468841D01*
X3515420Y-1468841D02*
X3515420Y-1430746D01*
X3515420Y-1430746D02*
X3524944Y-1383127D01*
X3524944Y-1383127D02*
X3534468Y-1354555D01*
X3534468Y-1354555D02*
X3543991Y-1335508D01*
X3543991Y-1335508D02*
X3563039Y-1306936D01*
X3563039Y-1306936D02*
X3572563Y-1297412D01*
X3734468Y-1325984D02*
X3696372Y-1325984D01*
X3696372Y-1325984D02*
X3677325Y-1335508D01*
X3677325Y-1335508D02*
X3667801Y-1345031D01*
X3667801Y-1345031D02*
X3648753Y-1373603D01*
X3648753Y-1373603D02*
X3639229Y-1411698D01*
X3639229Y-1411698D02*
X3639229Y-1487888D01*
X3639229Y-1487888D02*
X3648753Y-1506936D01*
X3648753Y-1506936D02*
X3658277Y-1516460D01*
X3658277Y-1516460D02*
X3677325Y-1525984D01*
X3677325Y-1525984D02*
X3715420Y-1525984D01*
X3715420Y-1525984D02*
X3734468Y-1516460D01*
X3734468Y-1516460D02*
X3743991Y-1506936D01*
X3743991Y-1506936D02*
X3753515Y-1487888D01*
X3753515Y-1487888D02*
X3753515Y-1440269D01*
X3753515Y-1440269D02*
X3743991Y-1421222D01*
X3743991Y-1421222D02*
X3734468Y-1411698D01*
X3734468Y-1411698D02*
X3715420Y-1402174D01*
X3715420Y-1402174D02*
X3677325Y-1402174D01*
X3677325Y-1402174D02*
X3658277Y-1411698D01*
X3658277Y-1411698D02*
X3648753Y-1421222D01*
X3648753Y-1421222D02*
X3639229Y-1440269D01*
X3991610Y-1525984D02*
X3991610Y-1325984D01*
X4077325Y-1525984D02*
X4077325Y-1421222D01*
X4077325Y-1421222D02*
X4067801Y-1402174D01*
X4067801Y-1402174D02*
X4048753Y-1392650D01*
X4048753Y-1392650D02*
X4020182Y-1392650D01*
X4020182Y-1392650D02*
X4001134Y-1402174D01*
X4001134Y-1402174D02*
X3991610Y-1411698D01*
X4201134Y-1525984D02*
X4182087Y-1516460D01*
X4182087Y-1516460D02*
X4172563Y-1506936D01*
X4172563Y-1506936D02*
X4163039Y-1487888D01*
X4163039Y-1487888D02*
X4163039Y-1430746D01*
X4163039Y-1430746D02*
X4172563Y-1411698D01*
X4172563Y-1411698D02*
X4182087Y-1402174D01*
X4182087Y-1402174D02*
X4201134Y-1392650D01*
X4201134Y-1392650D02*
X4229706Y-1392650D01*
X4229706Y-1392650D02*
X4248753Y-1402174D01*
X4248753Y-1402174D02*
X4258277Y-1411698D01*
X4258277Y-1411698D02*
X4267801Y-1430746D01*
X4267801Y-1430746D02*
X4267801Y-1487888D01*
X4267801Y-1487888D02*
X4258277Y-1506936D01*
X4258277Y-1506936D02*
X4248753Y-1516460D01*
X4248753Y-1516460D02*
X4229706Y-1525984D01*
X4229706Y-1525984D02*
X4201134Y-1525984D01*
X4382087Y-1525984D02*
X4363039Y-1516460D01*
X4363039Y-1516460D02*
X4353515Y-1497412D01*
X4353515Y-1497412D02*
X4353515Y-1325984D01*
X4534468Y-1516460D02*
X4515420Y-1525984D01*
X4515420Y-1525984D02*
X4477325Y-1525984D01*
X4477325Y-1525984D02*
X4458277Y-1516460D01*
X4458277Y-1516460D02*
X4448753Y-1497412D01*
X4448753Y-1497412D02*
X4448753Y-1421222D01*
X4448753Y-1421222D02*
X4458277Y-1402174D01*
X4458277Y-1402174D02*
X4477325Y-1392650D01*
X4477325Y-1392650D02*
X4515420Y-1392650D01*
X4515420Y-1392650D02*
X4534468Y-1402174D01*
X4534468Y-1402174D02*
X4543992Y-1421222D01*
X4543992Y-1421222D02*
X4543992Y-1440269D01*
X4543992Y-1440269D02*
X4448753Y-1459317D01*
X4620182Y-1516460D02*
X4639230Y-1525984D01*
X4639230Y-1525984D02*
X4677325Y-1525984D01*
X4677325Y-1525984D02*
X4696373Y-1516460D01*
X4696373Y-1516460D02*
X4705896Y-1497412D01*
X4705896Y-1497412D02*
X4705896Y-1487888D01*
X4705896Y-1487888D02*
X4696373Y-1468841D01*
X4696373Y-1468841D02*
X4677325Y-1459317D01*
X4677325Y-1459317D02*
X4648753Y-1459317D01*
X4648753Y-1459317D02*
X4629706Y-1449793D01*
X4629706Y-1449793D02*
X4620182Y-1430746D01*
X4620182Y-1430746D02*
X4620182Y-1421222D01*
X4620182Y-1421222D02*
X4629706Y-1402174D01*
X4629706Y-1402174D02*
X4648753Y-1392650D01*
X4648753Y-1392650D02*
X4677325Y-1392650D01*
X4677325Y-1392650D02*
X4696373Y-1402174D01*
X4772563Y-1602174D02*
X4782087Y-1592650D01*
X4782087Y-1592650D02*
X4801134Y-1564079D01*
X4801134Y-1564079D02*
X4810658Y-1545031D01*
X4810658Y-1545031D02*
X4820182Y-1516460D01*
X4820182Y-1516460D02*
X4829706Y-1468841D01*
X4829706Y-1468841D02*
X4829706Y-1430746D01*
X4829706Y-1430746D02*
X4820182Y-1383127D01*
X4820182Y-1383127D02*
X4810658Y-1354555D01*
X4810658Y-1354555D02*
X4801134Y-1335508D01*
X4801134Y-1335508D02*
X4782087Y-1306936D01*
X4782087Y-1306936D02*
X4772563Y-1297412D01*
D12*
X-52500Y-1748500D02*
X-2500Y-1698500D01*
X-52500Y-1648500D01*
X-102500Y-1698500D01*
X-52500Y-1748500D01*
D11*
X363039Y-1789984D02*
X248753Y-1789984D01*
X305896Y-1789984D02*
X305896Y-1589984D01*
X305896Y-1589984D02*
X286848Y-1618555D01*
X286848Y-1618555D02*
X267801Y-1637603D01*
X267801Y-1637603D02*
X248753Y-1647127D01*
X448753Y-1770936D02*
X458277Y-1780460D01*
X458277Y-1780460D02*
X448753Y-1789984D01*
X448753Y-1789984D02*
X439229Y-1780460D01*
X439229Y-1780460D02*
X448753Y-1770936D01*
X448753Y-1770936D02*
X448753Y-1789984D01*
X582086Y-1589984D02*
X601134Y-1589984D01*
X601134Y-1589984D02*
X620182Y-1599508D01*
X620182Y-1599508D02*
X629705Y-1609031D01*
X629705Y-1609031D02*
X639229Y-1628079D01*
X639229Y-1628079D02*
X648753Y-1666174D01*
X648753Y-1666174D02*
X648753Y-1713793D01*
X648753Y-1713793D02*
X639229Y-1751888D01*
X639229Y-1751888D02*
X629705Y-1770936D01*
X629705Y-1770936D02*
X620182Y-1780460D01*
X620182Y-1780460D02*
X601134Y-1789984D01*
X601134Y-1789984D02*
X582086Y-1789984D01*
X582086Y-1789984D02*
X563039Y-1780460D01*
X563039Y-1780460D02*
X553515Y-1770936D01*
X553515Y-1770936D02*
X543991Y-1751888D01*
X543991Y-1751888D02*
X534467Y-1713793D01*
X534467Y-1713793D02*
X534467Y-1666174D01*
X534467Y-1666174D02*
X543991Y-1628079D01*
X543991Y-1628079D02*
X553515Y-1609031D01*
X553515Y-1609031D02*
X563039Y-1599508D01*
X563039Y-1599508D02*
X582086Y-1589984D01*
X772562Y-1589984D02*
X791610Y-1589984D01*
X791610Y-1589984D02*
X810658Y-1599508D01*
X810658Y-1599508D02*
X820182Y-1609031D01*
X820182Y-1609031D02*
X829705Y-1628079D01*
X829705Y-1628079D02*
X839229Y-1666174D01*
X839229Y-1666174D02*
X839229Y-1713793D01*
X839229Y-1713793D02*
X829705Y-1751888D01*
X829705Y-1751888D02*
X820182Y-1770936D01*
X820182Y-1770936D02*
X810658Y-1780460D01*
X810658Y-1780460D02*
X791610Y-1789984D01*
X791610Y-1789984D02*
X772562Y-1789984D01*
X772562Y-1789984D02*
X753515Y-1780460D01*
X753515Y-1780460D02*
X743991Y-1770936D01*
X743991Y-1770936D02*
X734467Y-1751888D01*
X734467Y-1751888D02*
X724943Y-1713793D01*
X724943Y-1713793D02*
X724943Y-1666174D01*
X724943Y-1666174D02*
X734467Y-1628079D01*
X734467Y-1628079D02*
X743991Y-1609031D01*
X743991Y-1609031D02*
X753515Y-1599508D01*
X753515Y-1599508D02*
X772562Y-1589984D01*
X963039Y-1589984D02*
X982086Y-1589984D01*
X982086Y-1589984D02*
X1001134Y-1599508D01*
X1001134Y-1599508D02*
X1010658Y-1609031D01*
X1010658Y-1609031D02*
X1020182Y-1628079D01*
X1020182Y-1628079D02*
X1029705Y-1666174D01*
X1029705Y-1666174D02*
X1029705Y-1713793D01*
X1029705Y-1713793D02*
X1020182Y-1751888D01*
X1020182Y-1751888D02*
X1010658Y-1770936D01*
X1010658Y-1770936D02*
X1001134Y-1780460D01*
X1001134Y-1780460D02*
X982086Y-1789984D01*
X982086Y-1789984D02*
X963039Y-1789984D01*
X963039Y-1789984D02*
X943991Y-1780460D01*
X943991Y-1780460D02*
X934467Y-1770936D01*
X934467Y-1770936D02*
X924943Y-1751888D01*
X924943Y-1751888D02*
X915420Y-1713793D01*
X915420Y-1713793D02*
X915420Y-1666174D01*
X915420Y-1666174D02*
X924943Y-1628079D01*
X924943Y-1628079D02*
X934467Y-1609031D01*
X934467Y-1609031D02*
X943991Y-1599508D01*
X943991Y-1599508D02*
X963039Y-1589984D01*
X1115420Y-1789984D02*
X1115420Y-1656650D01*
X1115420Y-1675698D02*
X1124944Y-1666174D01*
X1124944Y-1666174D02*
X1143991Y-1656650D01*
X1143991Y-1656650D02*
X1172563Y-1656650D01*
X1172563Y-1656650D02*
X1191610Y-1666174D01*
X1191610Y-1666174D02*
X1201134Y-1685222D01*
X1201134Y-1685222D02*
X1201134Y-1789984D01*
X1201134Y-1685222D02*
X1210658Y-1666174D01*
X1210658Y-1666174D02*
X1229705Y-1656650D01*
X1229705Y-1656650D02*
X1258277Y-1656650D01*
X1258277Y-1656650D02*
X1277325Y-1666174D01*
X1277325Y-1666174D02*
X1286848Y-1685222D01*
X1286848Y-1685222D02*
X1286848Y-1789984D01*
X1382086Y-1789984D02*
X1382086Y-1656650D01*
X1382086Y-1675698D02*
X1391610Y-1666174D01*
X1391610Y-1666174D02*
X1410658Y-1656650D01*
X1410658Y-1656650D02*
X1439229Y-1656650D01*
X1439229Y-1656650D02*
X1458277Y-1666174D01*
X1458277Y-1666174D02*
X1467801Y-1685222D01*
X1467801Y-1685222D02*
X1467801Y-1789984D01*
X1467801Y-1685222D02*
X1477324Y-1666174D01*
X1477324Y-1666174D02*
X1496372Y-1656650D01*
X1496372Y-1656650D02*
X1524943Y-1656650D01*
X1524943Y-1656650D02*
X1543991Y-1666174D01*
X1543991Y-1666174D02*
X1553515Y-1685222D01*
X1553515Y-1685222D02*
X1553515Y-1789984D01*
X1943991Y-1580460D02*
X1772563Y-1837603D01*
X2201134Y-1589984D02*
X2220182Y-1589984D01*
X2220182Y-1589984D02*
X2239229Y-1599508D01*
X2239229Y-1599508D02*
X2248753Y-1609031D01*
X2248753Y-1609031D02*
X2258277Y-1628079D01*
X2258277Y-1628079D02*
X2267801Y-1666174D01*
X2267801Y-1666174D02*
X2267801Y-1713793D01*
X2267801Y-1713793D02*
X2258277Y-1751888D01*
X2258277Y-1751888D02*
X2248753Y-1770936D01*
X2248753Y-1770936D02*
X2239229Y-1780460D01*
X2239229Y-1780460D02*
X2220182Y-1789984D01*
X2220182Y-1789984D02*
X2201134Y-1789984D01*
X2201134Y-1789984D02*
X2182087Y-1780460D01*
X2182087Y-1780460D02*
X2172563Y-1770936D01*
X2172563Y-1770936D02*
X2163039Y-1751888D01*
X2163039Y-1751888D02*
X2153515Y-1713793D01*
X2153515Y-1713793D02*
X2153515Y-1666174D01*
X2153515Y-1666174D02*
X2163039Y-1628079D01*
X2163039Y-1628079D02*
X2172563Y-1609031D01*
X2172563Y-1609031D02*
X2182087Y-1599508D01*
X2182087Y-1599508D02*
X2201134Y-1589984D01*
X2353515Y-1770936D02*
X2363039Y-1780460D01*
X2363039Y-1780460D02*
X2353515Y-1789984D01*
X2353515Y-1789984D02*
X2343991Y-1780460D01*
X2343991Y-1780460D02*
X2353515Y-1770936D01*
X2353515Y-1770936D02*
X2353515Y-1789984D01*
X2486848Y-1589984D02*
X2505896Y-1589984D01*
X2505896Y-1589984D02*
X2524944Y-1599508D01*
X2524944Y-1599508D02*
X2534468Y-1609031D01*
X2534468Y-1609031D02*
X2543991Y-1628079D01*
X2543991Y-1628079D02*
X2553515Y-1666174D01*
X2553515Y-1666174D02*
X2553515Y-1713793D01*
X2553515Y-1713793D02*
X2543991Y-1751888D01*
X2543991Y-1751888D02*
X2534468Y-1770936D01*
X2534468Y-1770936D02*
X2524944Y-1780460D01*
X2524944Y-1780460D02*
X2505896Y-1789984D01*
X2505896Y-1789984D02*
X2486848Y-1789984D01*
X2486848Y-1789984D02*
X2467801Y-1780460D01*
X2467801Y-1780460D02*
X2458277Y-1770936D01*
X2458277Y-1770936D02*
X2448753Y-1751888D01*
X2448753Y-1751888D02*
X2439229Y-1713793D01*
X2439229Y-1713793D02*
X2439229Y-1666174D01*
X2439229Y-1666174D02*
X2448753Y-1628079D01*
X2448753Y-1628079D02*
X2458277Y-1609031D01*
X2458277Y-1609031D02*
X2467801Y-1599508D01*
X2467801Y-1599508D02*
X2486848Y-1589984D01*
X2620182Y-1589984D02*
X2743991Y-1589984D01*
X2743991Y-1589984D02*
X2677325Y-1666174D01*
X2677325Y-1666174D02*
X2705896Y-1666174D01*
X2705896Y-1666174D02*
X2724944Y-1675698D01*
X2724944Y-1675698D02*
X2734468Y-1685222D01*
X2734468Y-1685222D02*
X2743991Y-1704269D01*
X2743991Y-1704269D02*
X2743991Y-1751888D01*
X2743991Y-1751888D02*
X2734468Y-1770936D01*
X2734468Y-1770936D02*
X2724944Y-1780460D01*
X2724944Y-1780460D02*
X2705896Y-1789984D01*
X2705896Y-1789984D02*
X2648753Y-1789984D01*
X2648753Y-1789984D02*
X2629706Y-1780460D01*
X2629706Y-1780460D02*
X2620182Y-1770936D01*
X2839229Y-1789984D02*
X2877325Y-1789984D01*
X2877325Y-1789984D02*
X2896372Y-1780460D01*
X2896372Y-1780460D02*
X2905896Y-1770936D01*
X2905896Y-1770936D02*
X2924944Y-1742365D01*
X2924944Y-1742365D02*
X2934467Y-1704269D01*
X2934467Y-1704269D02*
X2934467Y-1628079D01*
X2934467Y-1628079D02*
X2924944Y-1609031D01*
X2924944Y-1609031D02*
X2915420Y-1599508D01*
X2915420Y-1599508D02*
X2896372Y-1589984D01*
X2896372Y-1589984D02*
X2858277Y-1589984D01*
X2858277Y-1589984D02*
X2839229Y-1599508D01*
X2839229Y-1599508D02*
X2829706Y-1609031D01*
X2829706Y-1609031D02*
X2820182Y-1628079D01*
X2820182Y-1628079D02*
X2820182Y-1675698D01*
X2820182Y-1675698D02*
X2829706Y-1694746D01*
X2829706Y-1694746D02*
X2839229Y-1704269D01*
X2839229Y-1704269D02*
X2858277Y-1713793D01*
X2858277Y-1713793D02*
X2896372Y-1713793D01*
X2896372Y-1713793D02*
X2915420Y-1704269D01*
X2915420Y-1704269D02*
X2924944Y-1694746D01*
X2924944Y-1694746D02*
X2934467Y-1675698D01*
X3105896Y-1656650D02*
X3105896Y-1789984D01*
X3058277Y-1580460D02*
X3010658Y-1723317D01*
X3010658Y-1723317D02*
X3134467Y-1723317D01*
X3201134Y-1589984D02*
X3201134Y-1628079D01*
X3277325Y-1589984D02*
X3277325Y-1628079D01*
X3572563Y-1866174D02*
X3563039Y-1856650D01*
X3563039Y-1856650D02*
X3543991Y-1828079D01*
X3543991Y-1828079D02*
X3534468Y-1809031D01*
X3534468Y-1809031D02*
X3524944Y-1780460D01*
X3524944Y-1780460D02*
X3515420Y-1732841D01*
X3515420Y-1732841D02*
X3515420Y-1694746D01*
X3515420Y-1694746D02*
X3524944Y-1647127D01*
X3524944Y-1647127D02*
X3534468Y-1618555D01*
X3534468Y-1618555D02*
X3543991Y-1599508D01*
X3543991Y-1599508D02*
X3563039Y-1570936D01*
X3563039Y-1570936D02*
X3572563Y-1561412D01*
X3639229Y-1609031D02*
X3648753Y-1599508D01*
X3648753Y-1599508D02*
X3667801Y-1589984D01*
X3667801Y-1589984D02*
X3715420Y-1589984D01*
X3715420Y-1589984D02*
X3734468Y-1599508D01*
X3734468Y-1599508D02*
X3743991Y-1609031D01*
X3743991Y-1609031D02*
X3753515Y-1628079D01*
X3753515Y-1628079D02*
X3753515Y-1647127D01*
X3753515Y-1647127D02*
X3743991Y-1675698D01*
X3743991Y-1675698D02*
X3629706Y-1789984D01*
X3629706Y-1789984D02*
X3753515Y-1789984D01*
X3991610Y-1789984D02*
X3991610Y-1589984D01*
X4077325Y-1789984D02*
X4077325Y-1685222D01*
X4077325Y-1685222D02*
X4067801Y-1666174D01*
X4067801Y-1666174D02*
X4048753Y-1656650D01*
X4048753Y-1656650D02*
X4020182Y-1656650D01*
X4020182Y-1656650D02*
X4001134Y-1666174D01*
X4001134Y-1666174D02*
X3991610Y-1675698D01*
X4201134Y-1789984D02*
X4182087Y-1780460D01*
X4182087Y-1780460D02*
X4172563Y-1770936D01*
X4172563Y-1770936D02*
X4163039Y-1751888D01*
X4163039Y-1751888D02*
X4163039Y-1694746D01*
X4163039Y-1694746D02*
X4172563Y-1675698D01*
X4172563Y-1675698D02*
X4182087Y-1666174D01*
X4182087Y-1666174D02*
X4201134Y-1656650D01*
X4201134Y-1656650D02*
X4229706Y-1656650D01*
X4229706Y-1656650D02*
X4248753Y-1666174D01*
X4248753Y-1666174D02*
X4258277Y-1675698D01*
X4258277Y-1675698D02*
X4267801Y-1694746D01*
X4267801Y-1694746D02*
X4267801Y-1751888D01*
X4267801Y-1751888D02*
X4258277Y-1770936D01*
X4258277Y-1770936D02*
X4248753Y-1780460D01*
X4248753Y-1780460D02*
X4229706Y-1789984D01*
X4229706Y-1789984D02*
X4201134Y-1789984D01*
X4382087Y-1789984D02*
X4363039Y-1780460D01*
X4363039Y-1780460D02*
X4353515Y-1761412D01*
X4353515Y-1761412D02*
X4353515Y-1589984D01*
X4534468Y-1780460D02*
X4515420Y-1789984D01*
X4515420Y-1789984D02*
X4477325Y-1789984D01*
X4477325Y-1789984D02*
X4458277Y-1780460D01*
X4458277Y-1780460D02*
X4448753Y-1761412D01*
X4448753Y-1761412D02*
X4448753Y-1685222D01*
X4448753Y-1685222D02*
X4458277Y-1666174D01*
X4458277Y-1666174D02*
X4477325Y-1656650D01*
X4477325Y-1656650D02*
X4515420Y-1656650D01*
X4515420Y-1656650D02*
X4534468Y-1666174D01*
X4534468Y-1666174D02*
X4543992Y-1685222D01*
X4543992Y-1685222D02*
X4543992Y-1704269D01*
X4543992Y-1704269D02*
X4448753Y-1723317D01*
X4620182Y-1780460D02*
X4639230Y-1789984D01*
X4639230Y-1789984D02*
X4677325Y-1789984D01*
X4677325Y-1789984D02*
X4696373Y-1780460D01*
X4696373Y-1780460D02*
X4705896Y-1761412D01*
X4705896Y-1761412D02*
X4705896Y-1751888D01*
X4705896Y-1751888D02*
X4696373Y-1732841D01*
X4696373Y-1732841D02*
X4677325Y-1723317D01*
X4677325Y-1723317D02*
X4648753Y-1723317D01*
X4648753Y-1723317D02*
X4629706Y-1713793D01*
X4629706Y-1713793D02*
X4620182Y-1694746D01*
X4620182Y-1694746D02*
X4620182Y-1685222D01*
X4620182Y-1685222D02*
X4629706Y-1666174D01*
X4629706Y-1666174D02*
X4648753Y-1656650D01*
X4648753Y-1656650D02*
X4677325Y-1656650D01*
X4677325Y-1656650D02*
X4696373Y-1666174D01*
X4772563Y-1866174D02*
X4782087Y-1856650D01*
X4782087Y-1856650D02*
X4801134Y-1828079D01*
X4801134Y-1828079D02*
X4810658Y-1809031D01*
X4810658Y-1809031D02*
X4820182Y-1780460D01*
X4820182Y-1780460D02*
X4829706Y-1732841D01*
X4829706Y-1732841D02*
X4829706Y-1694746D01*
X4829706Y-1694746D02*
X4820182Y-1647127D01*
X4820182Y-1647127D02*
X4810658Y-1618555D01*
X4810658Y-1618555D02*
X4801134Y-1599508D01*
X4801134Y-1599508D02*
X4782087Y-1570936D01*
X4782087Y-1570936D02*
X4772563Y-1561412D01*
M02*
