%TF.GenerationSoftware,KiCad,Pcbnew,9.0.6*%
%TF.CreationDate,2026-05-15T23:17:31+02:00*%
%TF.ProjectId,Hardware,48617264-7761-4726-952e-6b696361645f,rev?*%
%TF.SameCoordinates,PX7b80360PY5466720*%
%TF.FileFunction,Copper,L1,Top*%
%TF.FilePolarity,Positive*%
%FSLAX46Y46*%
G04 Gerber Fmt 4.6, Leading zero omitted, Abs format (unit mm)*
G04 Created by KiCad (PCBNEW 9.0.6) date 2026-05-15 23:17:31*
%MOMM*%
%LPD*%
G01*
G04 APERTURE LIST*
G04 Aperture macros list*
%AMRoundRect*
0 Rectangle with rounded corners*
0 $1 Rounding radius*
0 $2 $3 $4 $5 $6 $7 $8 $9 X,Y pos of 4 corners*
0 Add a 4 corners polygon primitive as box body*
4,1,4,$2,$3,$4,$5,$6,$7,$8,$9,$2,$3,0*
0 Add four circle primitives for the rounded corners*
1,1,$1+$1,$2,$3*
1,1,$1+$1,$4,$5*
1,1,$1+$1,$6,$7*
1,1,$1+$1,$8,$9*
0 Add four rect primitives between the rounded corners*
20,1,$1+$1,$2,$3,$4,$5,0*
20,1,$1+$1,$4,$5,$6,$7,0*
20,1,$1+$1,$6,$7,$8,$9,0*
20,1,$1+$1,$8,$9,$2,$3,0*%
G04 Aperture macros list end*
%ADD10C,0.100000*%
%ADD11C,0.150000*%
%ADD12C,0.300000*%
%ADD13C,0.400000*%
%TA.AperFunction,SMDPad,CuDef*%
%ADD14RoundRect,0.140000X0.140000X0.170000X-0.140000X0.170000X-0.140000X-0.170000X0.140000X-0.170000X0*%
%TD*%
%TA.AperFunction,ComponentPad*%
%ADD15R,1.700000X1.700000*%
%TD*%
%TA.AperFunction,ComponentPad*%
%ADD16C,1.700000*%
%TD*%
%TA.AperFunction,SMDPad,CuDef*%
%ADD17RoundRect,0.135000X-0.135000X-0.185000X0.135000X-0.185000X0.135000X0.185000X-0.135000X0.185000X0*%
%TD*%
%TA.AperFunction,SMDPad,CuDef*%
%ADD18RoundRect,0.200000X-0.250000X-0.200000X0.250000X-0.200000X0.250000X0.200000X-0.250000X0.200000X0*%
%TD*%
%TA.AperFunction,SMDPad,CuDef*%
%ADD19RoundRect,0.150000X-0.512500X-0.150000X0.512500X-0.150000X0.512500X0.150000X-0.512500X0.150000X0*%
%TD*%
%TA.AperFunction,SMDPad,CuDef*%
%ADD20RoundRect,0.150000X-0.150000X-0.400000X0.150000X-0.400000X0.150000X0.400000X-0.150000X0.400000X0*%
%TD*%
%TA.AperFunction,SMDPad,CuDef*%
%ADD21R,0.500000X0.800000*%
%TD*%
%TA.AperFunction,SMDPad,CuDef*%
%ADD22R,0.500000X0.600000*%
%TD*%
%TA.AperFunction,SMDPad,CuDef*%
%ADD23RoundRect,0.225000X-0.225000X-0.250000X0.225000X-0.250000X0.225000X0.250000X-0.225000X0.250000X0*%
%TD*%
%TA.AperFunction,ComponentPad*%
%ADD24R,2.000000X2.000000*%
%TD*%
%TA.AperFunction,ComponentPad*%
%ADD25C,2.000000*%
%TD*%
%TA.AperFunction,SMDPad,CuDef*%
%ADD26RoundRect,0.150000X-0.425000X0.150000X-0.425000X-0.150000X0.425000X-0.150000X0.425000X0.150000X0*%
%TD*%
%TA.AperFunction,SMDPad,CuDef*%
%ADD27RoundRect,0.075000X-0.500000X0.075000X-0.500000X-0.075000X0.500000X-0.075000X0.500000X0.075000X0*%
%TD*%
%TA.AperFunction,HeatsinkPad*%
%ADD28O,2.100000X1.000000*%
%TD*%
%TA.AperFunction,HeatsinkPad*%
%ADD29O,1.800000X1.000000*%
%TD*%
%TA.AperFunction,SMDPad,CuDef*%
%ADD30RoundRect,0.140000X-0.170000X0.140000X-0.170000X-0.140000X0.170000X-0.140000X0.170000X0.140000X0*%
%TD*%
%TA.AperFunction,SMDPad,CuDef*%
%ADD31RoundRect,0.135000X0.185000X-0.135000X0.185000X0.135000X-0.185000X0.135000X-0.185000X-0.135000X0*%
%TD*%
%TA.AperFunction,SMDPad,CuDef*%
%ADD32RoundRect,0.225000X0.225000X0.250000X-0.225000X0.250000X-0.225000X-0.250000X0.225000X-0.250000X0*%
%TD*%
%TA.AperFunction,SMDPad,CuDef*%
%ADD33RoundRect,0.147500X0.172500X-0.147500X0.172500X0.147500X-0.172500X0.147500X-0.172500X-0.147500X0*%
%TD*%
%TA.AperFunction,SMDPad,CuDef*%
%ADD34RoundRect,0.140000X-0.140000X-0.170000X0.140000X-0.170000X0.140000X0.170000X-0.140000X0.170000X0*%
%TD*%
%TA.AperFunction,SMDPad,CuDef*%
%ADD35RoundRect,0.225000X0.250000X-0.225000X0.250000X0.225000X-0.250000X0.225000X-0.250000X-0.225000X0*%
%TD*%
%TA.AperFunction,SMDPad,CuDef*%
%ADD36R,0.220000X0.970000*%
%TD*%
%TA.AperFunction,SMDPad,CuDef*%
%ADD37R,0.970000X0.220000*%
%TD*%
%TA.AperFunction,SMDPad,CuDef*%
%ADD38R,6.400000X6.400000*%
%TD*%
%TA.AperFunction,SMDPad,CuDef*%
%ADD39RoundRect,0.218750X-0.218750X-0.381250X0.218750X-0.381250X0.218750X0.381250X-0.218750X0.381250X0*%
%TD*%
%TA.AperFunction,SMDPad,CuDef*%
%ADD40RoundRect,0.135000X-0.185000X0.135000X-0.185000X-0.135000X0.185000X-0.135000X0.185000X0.135000X0*%
%TD*%
%TA.AperFunction,SMDPad,CuDef*%
%ADD41RoundRect,0.140000X0.170000X-0.140000X0.170000X0.140000X-0.170000X0.140000X-0.170000X-0.140000X0*%
%TD*%
%TA.AperFunction,SMDPad,CuDef*%
%ADD42R,0.350000X0.500000*%
%TD*%
%TA.AperFunction,ComponentPad*%
%ADD43R,1.800000X1.800000*%
%TD*%
%TA.AperFunction,ComponentPad*%
%ADD44C,1.800000*%
%TD*%
%TA.AperFunction,SMDPad,CuDef*%
%ADD45RoundRect,0.147500X0.147500X0.172500X-0.147500X0.172500X-0.147500X-0.172500X0.147500X-0.172500X0*%
%TD*%
%TA.AperFunction,SMDPad,CuDef*%
%ADD46RoundRect,0.150000X-0.587500X-0.150000X0.587500X-0.150000X0.587500X0.150000X-0.587500X0.150000X0*%
%TD*%
%TA.AperFunction,SMDPad,CuDef*%
%ADD47RoundRect,0.250000X-0.275000X-0.250000X0.275000X-0.250000X0.275000X0.250000X-0.275000X0.250000X0*%
%TD*%
%TA.AperFunction,SMDPad,CuDef*%
%ADD48RoundRect,0.250000X-0.850000X-0.275000X0.850000X-0.275000X0.850000X0.275000X-0.850000X0.275000X0*%
%TD*%
%TA.AperFunction,SMDPad,CuDef*%
%ADD49RoundRect,0.147500X-0.147500X-0.172500X0.147500X-0.172500X0.147500X0.172500X-0.147500X0.172500X0*%
%TD*%
%TA.AperFunction,SMDPad,CuDef*%
%ADD50R,1.500000X1.500000*%
%TD*%
%TA.AperFunction,ViaPad*%
%ADD51C,0.600000*%
%TD*%
%TA.AperFunction,Conductor*%
%ADD52C,0.500000*%
%TD*%
%TA.AperFunction,Conductor*%
%ADD53C,0.164700*%
%TD*%
%TA.AperFunction,Conductor*%
%ADD54C,1.000000*%
%TD*%
%TA.AperFunction,Conductor*%
%ADD55C,0.190000*%
%TD*%
G04 APERTURE END LIST*
D10*
D11*
X47502200Y-77507200D02*
X155502200Y-77507200D01*
X155502200Y-109507200D01*
X47502200Y-109507200D01*
X47502200Y-77507200D01*
D10*
D11*
X-119500000Y78500000D02*
X157502200Y78500000D01*
X157502200Y-111507200D01*
X-119500000Y-111507200D01*
X-119500000Y78500000D01*
D10*
D11*
X-117500000Y76500000D02*
X155502200Y76500000D01*
X155502200Y-109507200D01*
X-117500000Y-109507200D01*
X-117500000Y76500000D01*
D10*
D11*
X-69500000Y76500000D02*
X-69500000Y78500000D01*
D10*
D11*
X-19500000Y76500000D02*
X-19500000Y78500000D01*
D10*
D11*
X30500000Y76500000D02*
X30500000Y78500000D01*
D10*
D11*
X80500000Y76500000D02*
X80500000Y78500000D01*
D10*
D11*
X130500000Y76500000D02*
X130500000Y78500000D01*
D10*
D11*
X-93410840Y76906396D02*
X-94153697Y76906396D01*
X-93782269Y76906396D02*
X-93782269Y78206396D01*
X-93782269Y78206396D02*
X-93906078Y78020681D01*
X-93906078Y78020681D02*
X-94029888Y77896872D01*
X-94029888Y77896872D02*
X-94153697Y77834967D01*
D10*
D11*
X-44153697Y78082586D02*
X-44091793Y78144491D01*
X-44091793Y78144491D02*
X-43967983Y78206396D01*
X-43967983Y78206396D02*
X-43658459Y78206396D01*
X-43658459Y78206396D02*
X-43534650Y78144491D01*
X-43534650Y78144491D02*
X-43472745Y78082586D01*
X-43472745Y78082586D02*
X-43410840Y77958777D01*
X-43410840Y77958777D02*
X-43410840Y77834967D01*
X-43410840Y77834967D02*
X-43472745Y77649253D01*
X-43472745Y77649253D02*
X-44215602Y76906396D01*
X-44215602Y76906396D02*
X-43410840Y76906396D01*
D10*
D11*
X5784398Y78206396D02*
X6589160Y78206396D01*
X6589160Y78206396D02*
X6155826Y77711158D01*
X6155826Y77711158D02*
X6341541Y77711158D01*
X6341541Y77711158D02*
X6465350Y77649253D01*
X6465350Y77649253D02*
X6527255Y77587348D01*
X6527255Y77587348D02*
X6589160Y77463539D01*
X6589160Y77463539D02*
X6589160Y77154015D01*
X6589160Y77154015D02*
X6527255Y77030205D01*
X6527255Y77030205D02*
X6465350Y76968300D01*
X6465350Y76968300D02*
X6341541Y76906396D01*
X6341541Y76906396D02*
X5970112Y76906396D01*
X5970112Y76906396D02*
X5846303Y76968300D01*
X5846303Y76968300D02*
X5784398Y77030205D01*
D10*
D11*
X56465350Y77773062D02*
X56465350Y76906396D01*
X56155826Y78268300D02*
X55846303Y77339729D01*
X55846303Y77339729D02*
X56651064Y77339729D01*
D10*
D11*
X106527255Y78206396D02*
X105908207Y78206396D01*
X105908207Y78206396D02*
X105846303Y77587348D01*
X105846303Y77587348D02*
X105908207Y77649253D01*
X105908207Y77649253D02*
X106032017Y77711158D01*
X106032017Y77711158D02*
X106341541Y77711158D01*
X106341541Y77711158D02*
X106465350Y77649253D01*
X106465350Y77649253D02*
X106527255Y77587348D01*
X106527255Y77587348D02*
X106589160Y77463539D01*
X106589160Y77463539D02*
X106589160Y77154015D01*
X106589160Y77154015D02*
X106527255Y77030205D01*
X106527255Y77030205D02*
X106465350Y76968300D01*
X106465350Y76968300D02*
X106341541Y76906396D01*
X106341541Y76906396D02*
X106032017Y76906396D01*
X106032017Y76906396D02*
X105908207Y76968300D01*
X105908207Y76968300D02*
X105846303Y77030205D01*
D10*
D11*
X156465350Y78206396D02*
X156217731Y78206396D01*
X156217731Y78206396D02*
X156093922Y78144491D01*
X156093922Y78144491D02*
X156032017Y78082586D01*
X156032017Y78082586D02*
X155908207Y77896872D01*
X155908207Y77896872D02*
X155846303Y77649253D01*
X155846303Y77649253D02*
X155846303Y77154015D01*
X155846303Y77154015D02*
X155908207Y77030205D01*
X155908207Y77030205D02*
X155970112Y76968300D01*
X155970112Y76968300D02*
X156093922Y76906396D01*
X156093922Y76906396D02*
X156341541Y76906396D01*
X156341541Y76906396D02*
X156465350Y76968300D01*
X156465350Y76968300D02*
X156527255Y77030205D01*
X156527255Y77030205D02*
X156589160Y77154015D01*
X156589160Y77154015D02*
X156589160Y77463539D01*
X156589160Y77463539D02*
X156527255Y77587348D01*
X156527255Y77587348D02*
X156465350Y77649253D01*
X156465350Y77649253D02*
X156341541Y77711158D01*
X156341541Y77711158D02*
X156093922Y77711158D01*
X156093922Y77711158D02*
X155970112Y77649253D01*
X155970112Y77649253D02*
X155908207Y77587348D01*
X155908207Y77587348D02*
X155846303Y77463539D01*
D10*
D11*
X-69500000Y-109507200D02*
X-69500000Y-111507200D01*
D10*
D11*
X-19500000Y-109507200D02*
X-19500000Y-111507200D01*
D10*
D11*
X30500000Y-109507200D02*
X30500000Y-111507200D01*
D10*
D11*
X80500000Y-109507200D02*
X80500000Y-111507200D01*
D10*
D11*
X130500000Y-109507200D02*
X130500000Y-111507200D01*
D10*
D11*
X-93410840Y-111100804D02*
X-94153697Y-111100804D01*
X-93782269Y-111100804D02*
X-93782269Y-109800804D01*
X-93782269Y-109800804D02*
X-93906078Y-109986519D01*
X-93906078Y-109986519D02*
X-94029888Y-110110328D01*
X-94029888Y-110110328D02*
X-94153697Y-110172233D01*
D10*
D11*
X-44153697Y-109924614D02*
X-44091793Y-109862709D01*
X-44091793Y-109862709D02*
X-43967983Y-109800804D01*
X-43967983Y-109800804D02*
X-43658459Y-109800804D01*
X-43658459Y-109800804D02*
X-43534650Y-109862709D01*
X-43534650Y-109862709D02*
X-43472745Y-109924614D01*
X-43472745Y-109924614D02*
X-43410840Y-110048423D01*
X-43410840Y-110048423D02*
X-43410840Y-110172233D01*
X-43410840Y-110172233D02*
X-43472745Y-110357947D01*
X-43472745Y-110357947D02*
X-44215602Y-111100804D01*
X-44215602Y-111100804D02*
X-43410840Y-111100804D01*
D10*
D11*
X5784398Y-109800804D02*
X6589160Y-109800804D01*
X6589160Y-109800804D02*
X6155826Y-110296042D01*
X6155826Y-110296042D02*
X6341541Y-110296042D01*
X6341541Y-110296042D02*
X6465350Y-110357947D01*
X6465350Y-110357947D02*
X6527255Y-110419852D01*
X6527255Y-110419852D02*
X6589160Y-110543661D01*
X6589160Y-110543661D02*
X6589160Y-110853185D01*
X6589160Y-110853185D02*
X6527255Y-110976995D01*
X6527255Y-110976995D02*
X6465350Y-111038900D01*
X6465350Y-111038900D02*
X6341541Y-111100804D01*
X6341541Y-111100804D02*
X5970112Y-111100804D01*
X5970112Y-111100804D02*
X5846303Y-111038900D01*
X5846303Y-111038900D02*
X5784398Y-110976995D01*
D10*
D11*
X56465350Y-110234138D02*
X56465350Y-111100804D01*
X56155826Y-109738900D02*
X55846303Y-110667471D01*
X55846303Y-110667471D02*
X56651064Y-110667471D01*
D10*
D11*
X106527255Y-109800804D02*
X105908207Y-109800804D01*
X105908207Y-109800804D02*
X105846303Y-110419852D01*
X105846303Y-110419852D02*
X105908207Y-110357947D01*
X105908207Y-110357947D02*
X106032017Y-110296042D01*
X106032017Y-110296042D02*
X106341541Y-110296042D01*
X106341541Y-110296042D02*
X106465350Y-110357947D01*
X106465350Y-110357947D02*
X106527255Y-110419852D01*
X106527255Y-110419852D02*
X106589160Y-110543661D01*
X106589160Y-110543661D02*
X106589160Y-110853185D01*
X106589160Y-110853185D02*
X106527255Y-110976995D01*
X106527255Y-110976995D02*
X106465350Y-111038900D01*
X106465350Y-111038900D02*
X106341541Y-111100804D01*
X106341541Y-111100804D02*
X106032017Y-111100804D01*
X106032017Y-111100804D02*
X105908207Y-111038900D01*
X105908207Y-111038900D02*
X105846303Y-110976995D01*
D10*
D11*
X156465350Y-109800804D02*
X156217731Y-109800804D01*
X156217731Y-109800804D02*
X156093922Y-109862709D01*
X156093922Y-109862709D02*
X156032017Y-109924614D01*
X156032017Y-109924614D02*
X155908207Y-110110328D01*
X155908207Y-110110328D02*
X155846303Y-110357947D01*
X155846303Y-110357947D02*
X155846303Y-110853185D01*
X155846303Y-110853185D02*
X155908207Y-110976995D01*
X155908207Y-110976995D02*
X155970112Y-111038900D01*
X155970112Y-111038900D02*
X156093922Y-111100804D01*
X156093922Y-111100804D02*
X156341541Y-111100804D01*
X156341541Y-111100804D02*
X156465350Y-111038900D01*
X156465350Y-111038900D02*
X156527255Y-110976995D01*
X156527255Y-110976995D02*
X156589160Y-110853185D01*
X156589160Y-110853185D02*
X156589160Y-110543661D01*
X156589160Y-110543661D02*
X156527255Y-110419852D01*
X156527255Y-110419852D02*
X156465350Y-110357947D01*
X156465350Y-110357947D02*
X156341541Y-110296042D01*
X156341541Y-110296042D02*
X156093922Y-110296042D01*
X156093922Y-110296042D02*
X155970112Y-110357947D01*
X155970112Y-110357947D02*
X155908207Y-110419852D01*
X155908207Y-110419852D02*
X155846303Y-110543661D01*
D10*
D11*
X-119500000Y28500000D02*
X-117500000Y28500000D01*
D10*
D11*
X-119500000Y-21500000D02*
X-117500000Y-21500000D01*
D10*
D11*
X-119500000Y-71500000D02*
X-117500000Y-71500000D01*
D10*
D11*
X-118809524Y53277824D02*
X-118190477Y53277824D01*
X-118933334Y52906396D02*
X-118500001Y54206396D01*
X-118500001Y54206396D02*
X-118066667Y52906396D01*
D10*
D11*
X-118407143Y3587348D02*
X-118221429Y3525443D01*
X-118221429Y3525443D02*
X-118159524Y3463539D01*
X-118159524Y3463539D02*
X-118097620Y3339729D01*
X-118097620Y3339729D02*
X-118097620Y3154015D01*
X-118097620Y3154015D02*
X-118159524Y3030205D01*
X-118159524Y3030205D02*
X-118221429Y2968300D01*
X-118221429Y2968300D02*
X-118345239Y2906396D01*
X-118345239Y2906396D02*
X-118840477Y2906396D01*
X-118840477Y2906396D02*
X-118840477Y4206396D01*
X-118840477Y4206396D02*
X-118407143Y4206396D01*
X-118407143Y4206396D02*
X-118283334Y4144491D01*
X-118283334Y4144491D02*
X-118221429Y4082586D01*
X-118221429Y4082586D02*
X-118159524Y3958777D01*
X-118159524Y3958777D02*
X-118159524Y3834967D01*
X-118159524Y3834967D02*
X-118221429Y3711158D01*
X-118221429Y3711158D02*
X-118283334Y3649253D01*
X-118283334Y3649253D02*
X-118407143Y3587348D01*
X-118407143Y3587348D02*
X-118840477Y3587348D01*
D10*
D11*
X-118097620Y-46969795D02*
X-118159524Y-47031700D01*
X-118159524Y-47031700D02*
X-118345239Y-47093604D01*
X-118345239Y-47093604D02*
X-118469048Y-47093604D01*
X-118469048Y-47093604D02*
X-118654762Y-47031700D01*
X-118654762Y-47031700D02*
X-118778572Y-46907890D01*
X-118778572Y-46907890D02*
X-118840477Y-46784080D01*
X-118840477Y-46784080D02*
X-118902381Y-46536461D01*
X-118902381Y-46536461D02*
X-118902381Y-46350747D01*
X-118902381Y-46350747D02*
X-118840477Y-46103128D01*
X-118840477Y-46103128D02*
X-118778572Y-45979319D01*
X-118778572Y-45979319D02*
X-118654762Y-45855509D01*
X-118654762Y-45855509D02*
X-118469048Y-45793604D01*
X-118469048Y-45793604D02*
X-118345239Y-45793604D01*
X-118345239Y-45793604D02*
X-118159524Y-45855509D01*
X-118159524Y-45855509D02*
X-118097620Y-45917414D01*
D10*
D11*
X-118840477Y-97093604D02*
X-118840477Y-95793604D01*
X-118840477Y-95793604D02*
X-118530953Y-95793604D01*
X-118530953Y-95793604D02*
X-118345239Y-95855509D01*
X-118345239Y-95855509D02*
X-118221429Y-95979319D01*
X-118221429Y-95979319D02*
X-118159524Y-96103128D01*
X-118159524Y-96103128D02*
X-118097620Y-96350747D01*
X-118097620Y-96350747D02*
X-118097620Y-96536461D01*
X-118097620Y-96536461D02*
X-118159524Y-96784080D01*
X-118159524Y-96784080D02*
X-118221429Y-96907890D01*
X-118221429Y-96907890D02*
X-118345239Y-97031700D01*
X-118345239Y-97031700D02*
X-118530953Y-97093604D01*
X-118530953Y-97093604D02*
X-118840477Y-97093604D01*
D10*
D11*
X157502200Y28500000D02*
X155502200Y28500000D01*
D10*
D11*
X157502200Y-21500000D02*
X155502200Y-21500000D01*
D10*
D11*
X157502200Y-71500000D02*
X155502200Y-71500000D01*
D10*
D11*
X156192676Y53277824D02*
X156811723Y53277824D01*
X156068866Y52906396D02*
X156502199Y54206396D01*
X156502199Y54206396D02*
X156935533Y52906396D01*
D10*
D11*
X156595057Y3587348D02*
X156780771Y3525443D01*
X156780771Y3525443D02*
X156842676Y3463539D01*
X156842676Y3463539D02*
X156904580Y3339729D01*
X156904580Y3339729D02*
X156904580Y3154015D01*
X156904580Y3154015D02*
X156842676Y3030205D01*
X156842676Y3030205D02*
X156780771Y2968300D01*
X156780771Y2968300D02*
X156656961Y2906396D01*
X156656961Y2906396D02*
X156161723Y2906396D01*
X156161723Y2906396D02*
X156161723Y4206396D01*
X156161723Y4206396D02*
X156595057Y4206396D01*
X156595057Y4206396D02*
X156718866Y4144491D01*
X156718866Y4144491D02*
X156780771Y4082586D01*
X156780771Y4082586D02*
X156842676Y3958777D01*
X156842676Y3958777D02*
X156842676Y3834967D01*
X156842676Y3834967D02*
X156780771Y3711158D01*
X156780771Y3711158D02*
X156718866Y3649253D01*
X156718866Y3649253D02*
X156595057Y3587348D01*
X156595057Y3587348D02*
X156161723Y3587348D01*
D10*
D11*
X156904580Y-46969795D02*
X156842676Y-47031700D01*
X156842676Y-47031700D02*
X156656961Y-47093604D01*
X156656961Y-47093604D02*
X156533152Y-47093604D01*
X156533152Y-47093604D02*
X156347438Y-47031700D01*
X156347438Y-47031700D02*
X156223628Y-46907890D01*
X156223628Y-46907890D02*
X156161723Y-46784080D01*
X156161723Y-46784080D02*
X156099819Y-46536461D01*
X156099819Y-46536461D02*
X156099819Y-46350747D01*
X156099819Y-46350747D02*
X156161723Y-46103128D01*
X156161723Y-46103128D02*
X156223628Y-45979319D01*
X156223628Y-45979319D02*
X156347438Y-45855509D01*
X156347438Y-45855509D02*
X156533152Y-45793604D01*
X156533152Y-45793604D02*
X156656961Y-45793604D01*
X156656961Y-45793604D02*
X156842676Y-45855509D01*
X156842676Y-45855509D02*
X156904580Y-45917414D01*
D10*
D11*
X156161723Y-97093604D02*
X156161723Y-95793604D01*
X156161723Y-95793604D02*
X156471247Y-95793604D01*
X156471247Y-95793604D02*
X156656961Y-95855509D01*
X156656961Y-95855509D02*
X156780771Y-95979319D01*
X156780771Y-95979319D02*
X156842676Y-96103128D01*
X156842676Y-96103128D02*
X156904580Y-96350747D01*
X156904580Y-96350747D02*
X156904580Y-96536461D01*
X156904580Y-96536461D02*
X156842676Y-96784080D01*
X156842676Y-96784080D02*
X156780771Y-96907890D01*
X156780771Y-96907890D02*
X156656961Y-97031700D01*
X156656961Y-97031700D02*
X156471247Y-97093604D01*
X156471247Y-97093604D02*
X156161723Y-97093604D01*
D10*
D11*
X70958026Y-105293328D02*
X70958026Y-103793328D01*
X70958026Y-103793328D02*
X71315169Y-103793328D01*
X71315169Y-103793328D02*
X71529455Y-103864757D01*
X71529455Y-103864757D02*
X71672312Y-104007614D01*
X71672312Y-104007614D02*
X71743741Y-104150471D01*
X71743741Y-104150471D02*
X71815169Y-104436185D01*
X71815169Y-104436185D02*
X71815169Y-104650471D01*
X71815169Y-104650471D02*
X71743741Y-104936185D01*
X71743741Y-104936185D02*
X71672312Y-105079042D01*
X71672312Y-105079042D02*
X71529455Y-105221900D01*
X71529455Y-105221900D02*
X71315169Y-105293328D01*
X71315169Y-105293328D02*
X70958026Y-105293328D01*
X73100884Y-105293328D02*
X73100884Y-104507614D01*
X73100884Y-104507614D02*
X73029455Y-104364757D01*
X73029455Y-104364757D02*
X72886598Y-104293328D01*
X72886598Y-104293328D02*
X72600884Y-104293328D01*
X72600884Y-104293328D02*
X72458026Y-104364757D01*
X73100884Y-105221900D02*
X72958026Y-105293328D01*
X72958026Y-105293328D02*
X72600884Y-105293328D01*
X72600884Y-105293328D02*
X72458026Y-105221900D01*
X72458026Y-105221900D02*
X72386598Y-105079042D01*
X72386598Y-105079042D02*
X72386598Y-104936185D01*
X72386598Y-104936185D02*
X72458026Y-104793328D01*
X72458026Y-104793328D02*
X72600884Y-104721900D01*
X72600884Y-104721900D02*
X72958026Y-104721900D01*
X72958026Y-104721900D02*
X73100884Y-104650471D01*
X73600884Y-104293328D02*
X74172312Y-104293328D01*
X73815169Y-103793328D02*
X73815169Y-105079042D01*
X73815169Y-105079042D02*
X73886598Y-105221900D01*
X73886598Y-105221900D02*
X74029455Y-105293328D01*
X74029455Y-105293328D02*
X74172312Y-105293328D01*
X75243741Y-105221900D02*
X75100884Y-105293328D01*
X75100884Y-105293328D02*
X74815170Y-105293328D01*
X74815170Y-105293328D02*
X74672312Y-105221900D01*
X74672312Y-105221900D02*
X74600884Y-105079042D01*
X74600884Y-105079042D02*
X74600884Y-104507614D01*
X74600884Y-104507614D02*
X74672312Y-104364757D01*
X74672312Y-104364757D02*
X74815170Y-104293328D01*
X74815170Y-104293328D02*
X75100884Y-104293328D01*
X75100884Y-104293328D02*
X75243741Y-104364757D01*
X75243741Y-104364757D02*
X75315170Y-104507614D01*
X75315170Y-104507614D02*
X75315170Y-104650471D01*
X75315170Y-104650471D02*
X74600884Y-104793328D01*
X75958026Y-105150471D02*
X76029455Y-105221900D01*
X76029455Y-105221900D02*
X75958026Y-105293328D01*
X75958026Y-105293328D02*
X75886598Y-105221900D01*
X75886598Y-105221900D02*
X75958026Y-105150471D01*
X75958026Y-105150471D02*
X75958026Y-105293328D01*
X75958026Y-104364757D02*
X76029455Y-104436185D01*
X76029455Y-104436185D02*
X75958026Y-104507614D01*
X75958026Y-104507614D02*
X75886598Y-104436185D01*
X75886598Y-104436185D02*
X75958026Y-104364757D01*
X75958026Y-104364757D02*
X75958026Y-104507614D01*
D10*
D11*
X47502200Y-106007200D02*
X155502200Y-106007200D01*
D10*
D11*
X48958026Y-108093328D02*
X48958026Y-106593328D01*
X49815169Y-108093328D02*
X49172312Y-107236185D01*
X49815169Y-106593328D02*
X48958026Y-107450471D01*
X50458026Y-108093328D02*
X50458026Y-107093328D01*
X50458026Y-106593328D02*
X50386598Y-106664757D01*
X50386598Y-106664757D02*
X50458026Y-106736185D01*
X50458026Y-106736185D02*
X50529455Y-106664757D01*
X50529455Y-106664757D02*
X50458026Y-106593328D01*
X50458026Y-106593328D02*
X50458026Y-106736185D01*
X52029455Y-107950471D02*
X51958027Y-108021900D01*
X51958027Y-108021900D02*
X51743741Y-108093328D01*
X51743741Y-108093328D02*
X51600884Y-108093328D01*
X51600884Y-108093328D02*
X51386598Y-108021900D01*
X51386598Y-108021900D02*
X51243741Y-107879042D01*
X51243741Y-107879042D02*
X51172312Y-107736185D01*
X51172312Y-107736185D02*
X51100884Y-107450471D01*
X51100884Y-107450471D02*
X51100884Y-107236185D01*
X51100884Y-107236185D02*
X51172312Y-106950471D01*
X51172312Y-106950471D02*
X51243741Y-106807614D01*
X51243741Y-106807614D02*
X51386598Y-106664757D01*
X51386598Y-106664757D02*
X51600884Y-106593328D01*
X51600884Y-106593328D02*
X51743741Y-106593328D01*
X51743741Y-106593328D02*
X51958027Y-106664757D01*
X51958027Y-106664757D02*
X52029455Y-106736185D01*
X53315170Y-108093328D02*
X53315170Y-107307614D01*
X53315170Y-107307614D02*
X53243741Y-107164757D01*
X53243741Y-107164757D02*
X53100884Y-107093328D01*
X53100884Y-107093328D02*
X52815170Y-107093328D01*
X52815170Y-107093328D02*
X52672312Y-107164757D01*
X53315170Y-108021900D02*
X53172312Y-108093328D01*
X53172312Y-108093328D02*
X52815170Y-108093328D01*
X52815170Y-108093328D02*
X52672312Y-108021900D01*
X52672312Y-108021900D02*
X52600884Y-107879042D01*
X52600884Y-107879042D02*
X52600884Y-107736185D01*
X52600884Y-107736185D02*
X52672312Y-107593328D01*
X52672312Y-107593328D02*
X52815170Y-107521900D01*
X52815170Y-107521900D02*
X53172312Y-107521900D01*
X53172312Y-107521900D02*
X53315170Y-107450471D01*
X54672313Y-108093328D02*
X54672313Y-106593328D01*
X54672313Y-108021900D02*
X54529455Y-108093328D01*
X54529455Y-108093328D02*
X54243741Y-108093328D01*
X54243741Y-108093328D02*
X54100884Y-108021900D01*
X54100884Y-108021900D02*
X54029455Y-107950471D01*
X54029455Y-107950471D02*
X53958027Y-107807614D01*
X53958027Y-107807614D02*
X53958027Y-107379042D01*
X53958027Y-107379042D02*
X54029455Y-107236185D01*
X54029455Y-107236185D02*
X54100884Y-107164757D01*
X54100884Y-107164757D02*
X54243741Y-107093328D01*
X54243741Y-107093328D02*
X54529455Y-107093328D01*
X54529455Y-107093328D02*
X54672313Y-107164757D01*
X56529455Y-107307614D02*
X57029455Y-107307614D01*
X57243741Y-108093328D02*
X56529455Y-108093328D01*
X56529455Y-108093328D02*
X56529455Y-106593328D01*
X56529455Y-106593328D02*
X57243741Y-106593328D01*
X57886598Y-107950471D02*
X57958027Y-108021900D01*
X57958027Y-108021900D02*
X57886598Y-108093328D01*
X57886598Y-108093328D02*
X57815170Y-108021900D01*
X57815170Y-108021900D02*
X57886598Y-107950471D01*
X57886598Y-107950471D02*
X57886598Y-108093328D01*
X58600884Y-108093328D02*
X58600884Y-106593328D01*
X58600884Y-106593328D02*
X58958027Y-106593328D01*
X58958027Y-106593328D02*
X59172313Y-106664757D01*
X59172313Y-106664757D02*
X59315170Y-106807614D01*
X59315170Y-106807614D02*
X59386599Y-106950471D01*
X59386599Y-106950471D02*
X59458027Y-107236185D01*
X59458027Y-107236185D02*
X59458027Y-107450471D01*
X59458027Y-107450471D02*
X59386599Y-107736185D01*
X59386599Y-107736185D02*
X59315170Y-107879042D01*
X59315170Y-107879042D02*
X59172313Y-108021900D01*
X59172313Y-108021900D02*
X58958027Y-108093328D01*
X58958027Y-108093328D02*
X58600884Y-108093328D01*
X60100884Y-107950471D02*
X60172313Y-108021900D01*
X60172313Y-108021900D02*
X60100884Y-108093328D01*
X60100884Y-108093328D02*
X60029456Y-108021900D01*
X60029456Y-108021900D02*
X60100884Y-107950471D01*
X60100884Y-107950471D02*
X60100884Y-108093328D01*
X60743742Y-107664757D02*
X61458028Y-107664757D01*
X60600885Y-108093328D02*
X61100885Y-106593328D01*
X61100885Y-106593328D02*
X61600885Y-108093328D01*
X62100884Y-107950471D02*
X62172313Y-108021900D01*
X62172313Y-108021900D02*
X62100884Y-108093328D01*
X62100884Y-108093328D02*
X62029456Y-108021900D01*
X62029456Y-108021900D02*
X62100884Y-107950471D01*
X62100884Y-107950471D02*
X62100884Y-108093328D01*
X64029456Y-108093328D02*
X64315170Y-108093328D01*
X64315170Y-108093328D02*
X64458027Y-108021900D01*
X64458027Y-108021900D02*
X64529456Y-107950471D01*
X64529456Y-107950471D02*
X64672313Y-107736185D01*
X64672313Y-107736185D02*
X64743742Y-107450471D01*
X64743742Y-107450471D02*
X64743742Y-106879042D01*
X64743742Y-106879042D02*
X64672313Y-106736185D01*
X64672313Y-106736185D02*
X64600885Y-106664757D01*
X64600885Y-106664757D02*
X64458027Y-106593328D01*
X64458027Y-106593328D02*
X64172313Y-106593328D01*
X64172313Y-106593328D02*
X64029456Y-106664757D01*
X64029456Y-106664757D02*
X63958027Y-106736185D01*
X63958027Y-106736185D02*
X63886599Y-106879042D01*
X63886599Y-106879042D02*
X63886599Y-107236185D01*
X63886599Y-107236185D02*
X63958027Y-107379042D01*
X63958027Y-107379042D02*
X64029456Y-107450471D01*
X64029456Y-107450471D02*
X64172313Y-107521900D01*
X64172313Y-107521900D02*
X64458027Y-107521900D01*
X64458027Y-107521900D02*
X64600885Y-107450471D01*
X64600885Y-107450471D02*
X64672313Y-107379042D01*
X64672313Y-107379042D02*
X64743742Y-107236185D01*
X65386598Y-107950471D02*
X65458027Y-108021900D01*
X65458027Y-108021900D02*
X65386598Y-108093328D01*
X65386598Y-108093328D02*
X65315170Y-108021900D01*
X65315170Y-108021900D02*
X65386598Y-107950471D01*
X65386598Y-107950471D02*
X65386598Y-108093328D01*
X66386599Y-106593328D02*
X66529456Y-106593328D01*
X66529456Y-106593328D02*
X66672313Y-106664757D01*
X66672313Y-106664757D02*
X66743742Y-106736185D01*
X66743742Y-106736185D02*
X66815170Y-106879042D01*
X66815170Y-106879042D02*
X66886599Y-107164757D01*
X66886599Y-107164757D02*
X66886599Y-107521900D01*
X66886599Y-107521900D02*
X66815170Y-107807614D01*
X66815170Y-107807614D02*
X66743742Y-107950471D01*
X66743742Y-107950471D02*
X66672313Y-108021900D01*
X66672313Y-108021900D02*
X66529456Y-108093328D01*
X66529456Y-108093328D02*
X66386599Y-108093328D01*
X66386599Y-108093328D02*
X66243742Y-108021900D01*
X66243742Y-108021900D02*
X66172313Y-107950471D01*
X66172313Y-107950471D02*
X66100884Y-107807614D01*
X66100884Y-107807614D02*
X66029456Y-107521900D01*
X66029456Y-107521900D02*
X66029456Y-107164757D01*
X66029456Y-107164757D02*
X66100884Y-106879042D01*
X66100884Y-106879042D02*
X66172313Y-106736185D01*
X66172313Y-106736185D02*
X66243742Y-106664757D01*
X66243742Y-106664757D02*
X66386599Y-106593328D01*
X67529455Y-107950471D02*
X67600884Y-108021900D01*
X67600884Y-108021900D02*
X67529455Y-108093328D01*
X67529455Y-108093328D02*
X67458027Y-108021900D01*
X67458027Y-108021900D02*
X67529455Y-107950471D01*
X67529455Y-107950471D02*
X67529455Y-108093328D01*
X68886599Y-106593328D02*
X68600884Y-106593328D01*
X68600884Y-106593328D02*
X68458027Y-106664757D01*
X68458027Y-106664757D02*
X68386599Y-106736185D01*
X68386599Y-106736185D02*
X68243741Y-106950471D01*
X68243741Y-106950471D02*
X68172313Y-107236185D01*
X68172313Y-107236185D02*
X68172313Y-107807614D01*
X68172313Y-107807614D02*
X68243741Y-107950471D01*
X68243741Y-107950471D02*
X68315170Y-108021900D01*
X68315170Y-108021900D02*
X68458027Y-108093328D01*
X68458027Y-108093328D02*
X68743741Y-108093328D01*
X68743741Y-108093328D02*
X68886599Y-108021900D01*
X68886599Y-108021900D02*
X68958027Y-107950471D01*
X68958027Y-107950471D02*
X69029456Y-107807614D01*
X69029456Y-107807614D02*
X69029456Y-107450471D01*
X69029456Y-107450471D02*
X68958027Y-107307614D01*
X68958027Y-107307614D02*
X68886599Y-107236185D01*
X68886599Y-107236185D02*
X68743741Y-107164757D01*
X68743741Y-107164757D02*
X68458027Y-107164757D01*
X68458027Y-107164757D02*
X68315170Y-107236185D01*
X68315170Y-107236185D02*
X68243741Y-107307614D01*
X68243741Y-107307614D02*
X68172313Y-107450471D01*
D10*
D11*
X47502200Y-103007200D02*
X155502200Y-103007200D01*
D10*
D12*
X134913853Y-105285528D02*
X134413853Y-104571242D01*
X134056710Y-105285528D02*
X134056710Y-103785528D01*
X134056710Y-103785528D02*
X134628139Y-103785528D01*
X134628139Y-103785528D02*
X134770996Y-103856957D01*
X134770996Y-103856957D02*
X134842425Y-103928385D01*
X134842425Y-103928385D02*
X134913853Y-104071242D01*
X134913853Y-104071242D02*
X134913853Y-104285528D01*
X134913853Y-104285528D02*
X134842425Y-104428385D01*
X134842425Y-104428385D02*
X134770996Y-104499814D01*
X134770996Y-104499814D02*
X134628139Y-104571242D01*
X134628139Y-104571242D02*
X134056710Y-104571242D01*
X136128139Y-105214100D02*
X135985282Y-105285528D01*
X135985282Y-105285528D02*
X135699568Y-105285528D01*
X135699568Y-105285528D02*
X135556710Y-105214100D01*
X135556710Y-105214100D02*
X135485282Y-105071242D01*
X135485282Y-105071242D02*
X135485282Y-104499814D01*
X135485282Y-104499814D02*
X135556710Y-104356957D01*
X135556710Y-104356957D02*
X135699568Y-104285528D01*
X135699568Y-104285528D02*
X135985282Y-104285528D01*
X135985282Y-104285528D02*
X136128139Y-104356957D01*
X136128139Y-104356957D02*
X136199568Y-104499814D01*
X136199568Y-104499814D02*
X136199568Y-104642671D01*
X136199568Y-104642671D02*
X135485282Y-104785528D01*
X136699567Y-104285528D02*
X137056710Y-105285528D01*
X137056710Y-105285528D02*
X137413853Y-104285528D01*
X137985281Y-105142671D02*
X138056710Y-105214100D01*
X138056710Y-105214100D02*
X137985281Y-105285528D01*
X137985281Y-105285528D02*
X137913853Y-105214100D01*
X137913853Y-105214100D02*
X137985281Y-105142671D01*
X137985281Y-105142671D02*
X137985281Y-105285528D01*
X137985281Y-104356957D02*
X138056710Y-104428385D01*
X138056710Y-104428385D02*
X137985281Y-104499814D01*
X137985281Y-104499814D02*
X137913853Y-104428385D01*
X137913853Y-104428385D02*
X137985281Y-104356957D01*
X137985281Y-104356957D02*
X137985281Y-104499814D01*
D10*
D11*
X48886598Y-105221900D02*
X49100884Y-105293328D01*
X49100884Y-105293328D02*
X49458026Y-105293328D01*
X49458026Y-105293328D02*
X49600884Y-105221900D01*
X49600884Y-105221900D02*
X49672312Y-105150471D01*
X49672312Y-105150471D02*
X49743741Y-105007614D01*
X49743741Y-105007614D02*
X49743741Y-104864757D01*
X49743741Y-104864757D02*
X49672312Y-104721900D01*
X49672312Y-104721900D02*
X49600884Y-104650471D01*
X49600884Y-104650471D02*
X49458026Y-104579042D01*
X49458026Y-104579042D02*
X49172312Y-104507614D01*
X49172312Y-104507614D02*
X49029455Y-104436185D01*
X49029455Y-104436185D02*
X48958026Y-104364757D01*
X48958026Y-104364757D02*
X48886598Y-104221900D01*
X48886598Y-104221900D02*
X48886598Y-104079042D01*
X48886598Y-104079042D02*
X48958026Y-103936185D01*
X48958026Y-103936185D02*
X49029455Y-103864757D01*
X49029455Y-103864757D02*
X49172312Y-103793328D01*
X49172312Y-103793328D02*
X49529455Y-103793328D01*
X49529455Y-103793328D02*
X49743741Y-103864757D01*
X50386597Y-105293328D02*
X50386597Y-104293328D01*
X50386597Y-103793328D02*
X50315169Y-103864757D01*
X50315169Y-103864757D02*
X50386597Y-103936185D01*
X50386597Y-103936185D02*
X50458026Y-103864757D01*
X50458026Y-103864757D02*
X50386597Y-103793328D01*
X50386597Y-103793328D02*
X50386597Y-103936185D01*
X50958026Y-104293328D02*
X51743741Y-104293328D01*
X51743741Y-104293328D02*
X50958026Y-105293328D01*
X50958026Y-105293328D02*
X51743741Y-105293328D01*
X52886598Y-105221900D02*
X52743741Y-105293328D01*
X52743741Y-105293328D02*
X52458027Y-105293328D01*
X52458027Y-105293328D02*
X52315169Y-105221900D01*
X52315169Y-105221900D02*
X52243741Y-105079042D01*
X52243741Y-105079042D02*
X52243741Y-104507614D01*
X52243741Y-104507614D02*
X52315169Y-104364757D01*
X52315169Y-104364757D02*
X52458027Y-104293328D01*
X52458027Y-104293328D02*
X52743741Y-104293328D01*
X52743741Y-104293328D02*
X52886598Y-104364757D01*
X52886598Y-104364757D02*
X52958027Y-104507614D01*
X52958027Y-104507614D02*
X52958027Y-104650471D01*
X52958027Y-104650471D02*
X52243741Y-104793328D01*
X53600883Y-105150471D02*
X53672312Y-105221900D01*
X53672312Y-105221900D02*
X53600883Y-105293328D01*
X53600883Y-105293328D02*
X53529455Y-105221900D01*
X53529455Y-105221900D02*
X53600883Y-105150471D01*
X53600883Y-105150471D02*
X53600883Y-105293328D01*
X53600883Y-104364757D02*
X53672312Y-104436185D01*
X53672312Y-104436185D02*
X53600883Y-104507614D01*
X53600883Y-104507614D02*
X53529455Y-104436185D01*
X53529455Y-104436185D02*
X53600883Y-104364757D01*
X53600883Y-104364757D02*
X53600883Y-104507614D01*
X55386598Y-104864757D02*
X56100884Y-104864757D01*
X55243741Y-105293328D02*
X55743741Y-103793328D01*
X55743741Y-103793328D02*
X56243741Y-105293328D01*
X57386598Y-104293328D02*
X57386598Y-105293328D01*
X57029455Y-103721900D02*
X56672312Y-104793328D01*
X56672312Y-104793328D02*
X57600883Y-104793328D01*
D10*
D11*
X133958026Y-108093328D02*
X133958026Y-106593328D01*
X135315170Y-108093328D02*
X135315170Y-106593328D01*
X135315170Y-108021900D02*
X135172312Y-108093328D01*
X135172312Y-108093328D02*
X134886598Y-108093328D01*
X134886598Y-108093328D02*
X134743741Y-108021900D01*
X134743741Y-108021900D02*
X134672312Y-107950471D01*
X134672312Y-107950471D02*
X134600884Y-107807614D01*
X134600884Y-107807614D02*
X134600884Y-107379042D01*
X134600884Y-107379042D02*
X134672312Y-107236185D01*
X134672312Y-107236185D02*
X134743741Y-107164757D01*
X134743741Y-107164757D02*
X134886598Y-107093328D01*
X134886598Y-107093328D02*
X135172312Y-107093328D01*
X135172312Y-107093328D02*
X135315170Y-107164757D01*
X136029455Y-107950471D02*
X136100884Y-108021900D01*
X136100884Y-108021900D02*
X136029455Y-108093328D01*
X136029455Y-108093328D02*
X135958027Y-108021900D01*
X135958027Y-108021900D02*
X136029455Y-107950471D01*
X136029455Y-107950471D02*
X136029455Y-108093328D01*
X136029455Y-107164757D02*
X136100884Y-107236185D01*
X136100884Y-107236185D02*
X136029455Y-107307614D01*
X136029455Y-107307614D02*
X135958027Y-107236185D01*
X135958027Y-107236185D02*
X136029455Y-107164757D01*
X136029455Y-107164757D02*
X136029455Y-107307614D01*
X138672313Y-108093328D02*
X137815170Y-108093328D01*
X138243741Y-108093328D02*
X138243741Y-106593328D01*
X138243741Y-106593328D02*
X138100884Y-106807614D01*
X138100884Y-106807614D02*
X137958027Y-106950471D01*
X137958027Y-106950471D02*
X137815170Y-107021900D01*
X140386598Y-106521900D02*
X139100884Y-108450471D01*
X141672313Y-108093328D02*
X140815170Y-108093328D01*
X141243741Y-108093328D02*
X141243741Y-106593328D01*
X141243741Y-106593328D02*
X141100884Y-106807614D01*
X141100884Y-106807614D02*
X140958027Y-106950471D01*
X140958027Y-106950471D02*
X140815170Y-107021900D01*
X142958027Y-106593328D02*
X142672312Y-106593328D01*
X142672312Y-106593328D02*
X142529455Y-106664757D01*
X142529455Y-106664757D02*
X142458027Y-106736185D01*
X142458027Y-106736185D02*
X142315169Y-106950471D01*
X142315169Y-106950471D02*
X142243741Y-107236185D01*
X142243741Y-107236185D02*
X142243741Y-107807614D01*
X142243741Y-107807614D02*
X142315169Y-107950471D01*
X142315169Y-107950471D02*
X142386598Y-108021900D01*
X142386598Y-108021900D02*
X142529455Y-108093328D01*
X142529455Y-108093328D02*
X142815169Y-108093328D01*
X142815169Y-108093328D02*
X142958027Y-108021900D01*
X142958027Y-108021900D02*
X143029455Y-107950471D01*
X143029455Y-107950471D02*
X143100884Y-107807614D01*
X143100884Y-107807614D02*
X143100884Y-107450471D01*
X143100884Y-107450471D02*
X143029455Y-107307614D01*
X143029455Y-107307614D02*
X142958027Y-107236185D01*
X142958027Y-107236185D02*
X142815169Y-107164757D01*
X142815169Y-107164757D02*
X142529455Y-107164757D01*
X142529455Y-107164757D02*
X142386598Y-107236185D01*
X142386598Y-107236185D02*
X142315169Y-107307614D01*
X142315169Y-107307614D02*
X142243741Y-107450471D01*
D10*
D11*
X47502200Y-99007200D02*
X155502200Y-99007200D01*
D10*
D13*
X49193928Y-99711638D02*
X50336785Y-99711638D01*
X49515357Y-101711638D02*
X49765357Y-99711638D01*
X50753452Y-101711638D02*
X50920119Y-100378304D01*
X51003452Y-99711638D02*
X50896309Y-99806876D01*
X50896309Y-99806876D02*
X50979643Y-99902114D01*
X50979643Y-99902114D02*
X51086786Y-99806876D01*
X51086786Y-99806876D02*
X51003452Y-99711638D01*
X51003452Y-99711638D02*
X50979643Y-99902114D01*
X51586786Y-100378304D02*
X52348690Y-100378304D01*
X51955833Y-99711638D02*
X51741548Y-101425923D01*
X51741548Y-101425923D02*
X51812976Y-101616400D01*
X51812976Y-101616400D02*
X51991548Y-101711638D01*
X51991548Y-101711638D02*
X52182024Y-101711638D01*
X53134405Y-101711638D02*
X52955833Y-101616400D01*
X52955833Y-101616400D02*
X52884405Y-101425923D01*
X52884405Y-101425923D02*
X53098690Y-99711638D01*
X54670119Y-101616400D02*
X54467738Y-101711638D01*
X54467738Y-101711638D02*
X54086785Y-101711638D01*
X54086785Y-101711638D02*
X53908214Y-101616400D01*
X53908214Y-101616400D02*
X53836785Y-101425923D01*
X53836785Y-101425923D02*
X53932024Y-100664019D01*
X53932024Y-100664019D02*
X54051071Y-100473542D01*
X54051071Y-100473542D02*
X54253452Y-100378304D01*
X54253452Y-100378304D02*
X54634404Y-100378304D01*
X54634404Y-100378304D02*
X54812976Y-100473542D01*
X54812976Y-100473542D02*
X54884404Y-100664019D01*
X54884404Y-100664019D02*
X54860595Y-100854495D01*
X54860595Y-100854495D02*
X53884404Y-101044971D01*
X55634405Y-101521161D02*
X55717738Y-101616400D01*
X55717738Y-101616400D02*
X55610595Y-101711638D01*
X55610595Y-101711638D02*
X55527262Y-101616400D01*
X55527262Y-101616400D02*
X55634405Y-101521161D01*
X55634405Y-101521161D02*
X55610595Y-101711638D01*
X55765357Y-100473542D02*
X55848690Y-100568780D01*
X55848690Y-100568780D02*
X55741548Y-100664019D01*
X55741548Y-100664019D02*
X55658214Y-100568780D01*
X55658214Y-100568780D02*
X55765357Y-100473542D01*
X55765357Y-100473542D02*
X55741548Y-100664019D01*
D10*
D11*
X49458026Y-97107614D02*
X48958026Y-97107614D01*
X48958026Y-97893328D02*
X48958026Y-96393328D01*
X48958026Y-96393328D02*
X49672312Y-96393328D01*
X50243740Y-97893328D02*
X50243740Y-96893328D01*
X50243740Y-96393328D02*
X50172312Y-96464757D01*
X50172312Y-96464757D02*
X50243740Y-96536185D01*
X50243740Y-96536185D02*
X50315169Y-96464757D01*
X50315169Y-96464757D02*
X50243740Y-96393328D01*
X50243740Y-96393328D02*
X50243740Y-96536185D01*
X51172312Y-97893328D02*
X51029455Y-97821900D01*
X51029455Y-97821900D02*
X50958026Y-97679042D01*
X50958026Y-97679042D02*
X50958026Y-96393328D01*
X52315169Y-97821900D02*
X52172312Y-97893328D01*
X52172312Y-97893328D02*
X51886598Y-97893328D01*
X51886598Y-97893328D02*
X51743740Y-97821900D01*
X51743740Y-97821900D02*
X51672312Y-97679042D01*
X51672312Y-97679042D02*
X51672312Y-97107614D01*
X51672312Y-97107614D02*
X51743740Y-96964757D01*
X51743740Y-96964757D02*
X51886598Y-96893328D01*
X51886598Y-96893328D02*
X52172312Y-96893328D01*
X52172312Y-96893328D02*
X52315169Y-96964757D01*
X52315169Y-96964757D02*
X52386598Y-97107614D01*
X52386598Y-97107614D02*
X52386598Y-97250471D01*
X52386598Y-97250471D02*
X51672312Y-97393328D01*
X53029454Y-97750471D02*
X53100883Y-97821900D01*
X53100883Y-97821900D02*
X53029454Y-97893328D01*
X53029454Y-97893328D02*
X52958026Y-97821900D01*
X52958026Y-97821900D02*
X53029454Y-97750471D01*
X53029454Y-97750471D02*
X53029454Y-97893328D01*
X53029454Y-96964757D02*
X53100883Y-97036185D01*
X53100883Y-97036185D02*
X53029454Y-97107614D01*
X53029454Y-97107614D02*
X52958026Y-97036185D01*
X52958026Y-97036185D02*
X53029454Y-96964757D01*
X53029454Y-96964757D02*
X53029454Y-97107614D01*
X54886597Y-97893328D02*
X54886597Y-96393328D01*
X54886597Y-97107614D02*
X55743740Y-97107614D01*
X55743740Y-97893328D02*
X55743740Y-96393328D01*
X57100884Y-97893328D02*
X57100884Y-97107614D01*
X57100884Y-97107614D02*
X57029455Y-96964757D01*
X57029455Y-96964757D02*
X56886598Y-96893328D01*
X56886598Y-96893328D02*
X56600884Y-96893328D01*
X56600884Y-96893328D02*
X56458026Y-96964757D01*
X57100884Y-97821900D02*
X56958026Y-97893328D01*
X56958026Y-97893328D02*
X56600884Y-97893328D01*
X56600884Y-97893328D02*
X56458026Y-97821900D01*
X56458026Y-97821900D02*
X56386598Y-97679042D01*
X56386598Y-97679042D02*
X56386598Y-97536185D01*
X56386598Y-97536185D02*
X56458026Y-97393328D01*
X56458026Y-97393328D02*
X56600884Y-97321900D01*
X56600884Y-97321900D02*
X56958026Y-97321900D01*
X56958026Y-97321900D02*
X57100884Y-97250471D01*
X57815169Y-97893328D02*
X57815169Y-96893328D01*
X57815169Y-97179042D02*
X57886598Y-97036185D01*
X57886598Y-97036185D02*
X57958027Y-96964757D01*
X57958027Y-96964757D02*
X58100884Y-96893328D01*
X58100884Y-96893328D02*
X58243741Y-96893328D01*
X59386598Y-97893328D02*
X59386598Y-96393328D01*
X59386598Y-97821900D02*
X59243740Y-97893328D01*
X59243740Y-97893328D02*
X58958026Y-97893328D01*
X58958026Y-97893328D02*
X58815169Y-97821900D01*
X58815169Y-97821900D02*
X58743740Y-97750471D01*
X58743740Y-97750471D02*
X58672312Y-97607614D01*
X58672312Y-97607614D02*
X58672312Y-97179042D01*
X58672312Y-97179042D02*
X58743740Y-97036185D01*
X58743740Y-97036185D02*
X58815169Y-96964757D01*
X58815169Y-96964757D02*
X58958026Y-96893328D01*
X58958026Y-96893328D02*
X59243740Y-96893328D01*
X59243740Y-96893328D02*
X59386598Y-96964757D01*
X59958026Y-96893328D02*
X60243741Y-97893328D01*
X60243741Y-97893328D02*
X60529455Y-97179042D01*
X60529455Y-97179042D02*
X60815169Y-97893328D01*
X60815169Y-97893328D02*
X61100883Y-96893328D01*
X62315170Y-97893328D02*
X62315170Y-97107614D01*
X62315170Y-97107614D02*
X62243741Y-96964757D01*
X62243741Y-96964757D02*
X62100884Y-96893328D01*
X62100884Y-96893328D02*
X61815170Y-96893328D01*
X61815170Y-96893328D02*
X61672312Y-96964757D01*
X62315170Y-97821900D02*
X62172312Y-97893328D01*
X62172312Y-97893328D02*
X61815170Y-97893328D01*
X61815170Y-97893328D02*
X61672312Y-97821900D01*
X61672312Y-97821900D02*
X61600884Y-97679042D01*
X61600884Y-97679042D02*
X61600884Y-97536185D01*
X61600884Y-97536185D02*
X61672312Y-97393328D01*
X61672312Y-97393328D02*
X61815170Y-97321900D01*
X61815170Y-97321900D02*
X62172312Y-97321900D01*
X62172312Y-97321900D02*
X62315170Y-97250471D01*
X63029455Y-97893328D02*
X63029455Y-96893328D01*
X63029455Y-97179042D02*
X63100884Y-97036185D01*
X63100884Y-97036185D02*
X63172313Y-96964757D01*
X63172313Y-96964757D02*
X63315170Y-96893328D01*
X63315170Y-96893328D02*
X63458027Y-96893328D01*
X64529455Y-97821900D02*
X64386598Y-97893328D01*
X64386598Y-97893328D02*
X64100884Y-97893328D01*
X64100884Y-97893328D02*
X63958026Y-97821900D01*
X63958026Y-97821900D02*
X63886598Y-97679042D01*
X63886598Y-97679042D02*
X63886598Y-97107614D01*
X63886598Y-97107614D02*
X63958026Y-96964757D01*
X63958026Y-96964757D02*
X64100884Y-96893328D01*
X64100884Y-96893328D02*
X64386598Y-96893328D01*
X64386598Y-96893328D02*
X64529455Y-96964757D01*
X64529455Y-96964757D02*
X64600884Y-97107614D01*
X64600884Y-97107614D02*
X64600884Y-97250471D01*
X64600884Y-97250471D02*
X63886598Y-97393328D01*
X65243740Y-97750471D02*
X65315169Y-97821900D01*
X65315169Y-97821900D02*
X65243740Y-97893328D01*
X65243740Y-97893328D02*
X65172312Y-97821900D01*
X65172312Y-97821900D02*
X65243740Y-97750471D01*
X65243740Y-97750471D02*
X65243740Y-97893328D01*
X65958026Y-97893328D02*
X65958026Y-96393328D01*
X66100884Y-97321900D02*
X66529455Y-97893328D01*
X66529455Y-96893328D02*
X65958026Y-97464757D01*
X67172312Y-97893328D02*
X67172312Y-96893328D01*
X67172312Y-96393328D02*
X67100884Y-96464757D01*
X67100884Y-96464757D02*
X67172312Y-96536185D01*
X67172312Y-96536185D02*
X67243741Y-96464757D01*
X67243741Y-96464757D02*
X67172312Y-96393328D01*
X67172312Y-96393328D02*
X67172312Y-96536185D01*
X68529456Y-97821900D02*
X68386598Y-97893328D01*
X68386598Y-97893328D02*
X68100884Y-97893328D01*
X68100884Y-97893328D02*
X67958027Y-97821900D01*
X67958027Y-97821900D02*
X67886598Y-97750471D01*
X67886598Y-97750471D02*
X67815170Y-97607614D01*
X67815170Y-97607614D02*
X67815170Y-97179042D01*
X67815170Y-97179042D02*
X67886598Y-97036185D01*
X67886598Y-97036185D02*
X67958027Y-96964757D01*
X67958027Y-96964757D02*
X68100884Y-96893328D01*
X68100884Y-96893328D02*
X68386598Y-96893328D01*
X68386598Y-96893328D02*
X68529456Y-96964757D01*
X69815170Y-97893328D02*
X69815170Y-97107614D01*
X69815170Y-97107614D02*
X69743741Y-96964757D01*
X69743741Y-96964757D02*
X69600884Y-96893328D01*
X69600884Y-96893328D02*
X69315170Y-96893328D01*
X69315170Y-96893328D02*
X69172312Y-96964757D01*
X69815170Y-97821900D02*
X69672312Y-97893328D01*
X69672312Y-97893328D02*
X69315170Y-97893328D01*
X69315170Y-97893328D02*
X69172312Y-97821900D01*
X69172312Y-97821900D02*
X69100884Y-97679042D01*
X69100884Y-97679042D02*
X69100884Y-97536185D01*
X69100884Y-97536185D02*
X69172312Y-97393328D01*
X69172312Y-97393328D02*
X69315170Y-97321900D01*
X69315170Y-97321900D02*
X69672312Y-97321900D01*
X69672312Y-97321900D02*
X69815170Y-97250471D01*
X71172313Y-97893328D02*
X71172313Y-96393328D01*
X71172313Y-97821900D02*
X71029455Y-97893328D01*
X71029455Y-97893328D02*
X70743741Y-97893328D01*
X70743741Y-97893328D02*
X70600884Y-97821900D01*
X70600884Y-97821900D02*
X70529455Y-97750471D01*
X70529455Y-97750471D02*
X70458027Y-97607614D01*
X70458027Y-97607614D02*
X70458027Y-97179042D01*
X70458027Y-97179042D02*
X70529455Y-97036185D01*
X70529455Y-97036185D02*
X70600884Y-96964757D01*
X70600884Y-96964757D02*
X70743741Y-96893328D01*
X70743741Y-96893328D02*
X71029455Y-96893328D01*
X71029455Y-96893328D02*
X71172313Y-96964757D01*
X71529456Y-98036185D02*
X72672313Y-98036185D01*
X73029455Y-96893328D02*
X73029455Y-98393328D01*
X73029455Y-96964757D02*
X73172313Y-96893328D01*
X73172313Y-96893328D02*
X73458027Y-96893328D01*
X73458027Y-96893328D02*
X73600884Y-96964757D01*
X73600884Y-96964757D02*
X73672313Y-97036185D01*
X73672313Y-97036185D02*
X73743741Y-97179042D01*
X73743741Y-97179042D02*
X73743741Y-97607614D01*
X73743741Y-97607614D02*
X73672313Y-97750471D01*
X73672313Y-97750471D02*
X73600884Y-97821900D01*
X73600884Y-97821900D02*
X73458027Y-97893328D01*
X73458027Y-97893328D02*
X73172313Y-97893328D01*
X73172313Y-97893328D02*
X73029455Y-97821900D01*
X75029456Y-97821900D02*
X74886598Y-97893328D01*
X74886598Y-97893328D02*
X74600884Y-97893328D01*
X74600884Y-97893328D02*
X74458027Y-97821900D01*
X74458027Y-97821900D02*
X74386598Y-97750471D01*
X74386598Y-97750471D02*
X74315170Y-97607614D01*
X74315170Y-97607614D02*
X74315170Y-97179042D01*
X74315170Y-97179042D02*
X74386598Y-97036185D01*
X74386598Y-97036185D02*
X74458027Y-96964757D01*
X74458027Y-96964757D02*
X74600884Y-96893328D01*
X74600884Y-96893328D02*
X74886598Y-96893328D01*
X74886598Y-96893328D02*
X75029456Y-96964757D01*
X75672312Y-97893328D02*
X75672312Y-96393328D01*
X75672312Y-96964757D02*
X75815170Y-96893328D01*
X75815170Y-96893328D02*
X76100884Y-96893328D01*
X76100884Y-96893328D02*
X76243741Y-96964757D01*
X76243741Y-96964757D02*
X76315170Y-97036185D01*
X76315170Y-97036185D02*
X76386598Y-97179042D01*
X76386598Y-97179042D02*
X76386598Y-97607614D01*
X76386598Y-97607614D02*
X76315170Y-97750471D01*
X76315170Y-97750471D02*
X76243741Y-97821900D01*
X76243741Y-97821900D02*
X76100884Y-97893328D01*
X76100884Y-97893328D02*
X75815170Y-97893328D01*
X75815170Y-97893328D02*
X75672312Y-97821900D01*
D10*
D11*
X47502200Y-93007200D02*
X155502200Y-93007200D01*
D10*
D11*
X48886598Y-95121900D02*
X49100884Y-95193328D01*
X49100884Y-95193328D02*
X49458026Y-95193328D01*
X49458026Y-95193328D02*
X49600884Y-95121900D01*
X49600884Y-95121900D02*
X49672312Y-95050471D01*
X49672312Y-95050471D02*
X49743741Y-94907614D01*
X49743741Y-94907614D02*
X49743741Y-94764757D01*
X49743741Y-94764757D02*
X49672312Y-94621900D01*
X49672312Y-94621900D02*
X49600884Y-94550471D01*
X49600884Y-94550471D02*
X49458026Y-94479042D01*
X49458026Y-94479042D02*
X49172312Y-94407614D01*
X49172312Y-94407614D02*
X49029455Y-94336185D01*
X49029455Y-94336185D02*
X48958026Y-94264757D01*
X48958026Y-94264757D02*
X48886598Y-94121900D01*
X48886598Y-94121900D02*
X48886598Y-93979042D01*
X48886598Y-93979042D02*
X48958026Y-93836185D01*
X48958026Y-93836185D02*
X49029455Y-93764757D01*
X49029455Y-93764757D02*
X49172312Y-93693328D01*
X49172312Y-93693328D02*
X49529455Y-93693328D01*
X49529455Y-93693328D02*
X49743741Y-93764757D01*
X50386597Y-95193328D02*
X50386597Y-93693328D01*
X51029455Y-95193328D02*
X51029455Y-94407614D01*
X51029455Y-94407614D02*
X50958026Y-94264757D01*
X50958026Y-94264757D02*
X50815169Y-94193328D01*
X50815169Y-94193328D02*
X50600883Y-94193328D01*
X50600883Y-94193328D02*
X50458026Y-94264757D01*
X50458026Y-94264757D02*
X50386597Y-94336185D01*
X52315169Y-95121900D02*
X52172312Y-95193328D01*
X52172312Y-95193328D02*
X51886598Y-95193328D01*
X51886598Y-95193328D02*
X51743740Y-95121900D01*
X51743740Y-95121900D02*
X51672312Y-94979042D01*
X51672312Y-94979042D02*
X51672312Y-94407614D01*
X51672312Y-94407614D02*
X51743740Y-94264757D01*
X51743740Y-94264757D02*
X51886598Y-94193328D01*
X51886598Y-94193328D02*
X52172312Y-94193328D01*
X52172312Y-94193328D02*
X52315169Y-94264757D01*
X52315169Y-94264757D02*
X52386598Y-94407614D01*
X52386598Y-94407614D02*
X52386598Y-94550471D01*
X52386598Y-94550471D02*
X51672312Y-94693328D01*
X53600883Y-95121900D02*
X53458026Y-95193328D01*
X53458026Y-95193328D02*
X53172312Y-95193328D01*
X53172312Y-95193328D02*
X53029454Y-95121900D01*
X53029454Y-95121900D02*
X52958026Y-94979042D01*
X52958026Y-94979042D02*
X52958026Y-94407614D01*
X52958026Y-94407614D02*
X53029454Y-94264757D01*
X53029454Y-94264757D02*
X53172312Y-94193328D01*
X53172312Y-94193328D02*
X53458026Y-94193328D01*
X53458026Y-94193328D02*
X53600883Y-94264757D01*
X53600883Y-94264757D02*
X53672312Y-94407614D01*
X53672312Y-94407614D02*
X53672312Y-94550471D01*
X53672312Y-94550471D02*
X52958026Y-94693328D01*
X54100883Y-94193328D02*
X54672311Y-94193328D01*
X54315168Y-93693328D02*
X54315168Y-94979042D01*
X54315168Y-94979042D02*
X54386597Y-95121900D01*
X54386597Y-95121900D02*
X54529454Y-95193328D01*
X54529454Y-95193328D02*
X54672311Y-95193328D01*
X55172311Y-95050471D02*
X55243740Y-95121900D01*
X55243740Y-95121900D02*
X55172311Y-95193328D01*
X55172311Y-95193328D02*
X55100883Y-95121900D01*
X55100883Y-95121900D02*
X55172311Y-95050471D01*
X55172311Y-95050471D02*
X55172311Y-95193328D01*
X55172311Y-94264757D02*
X55243740Y-94336185D01*
X55243740Y-94336185D02*
X55172311Y-94407614D01*
X55172311Y-94407614D02*
X55100883Y-94336185D01*
X55100883Y-94336185D02*
X55172311Y-94264757D01*
X55172311Y-94264757D02*
X55172311Y-94407614D01*
D10*
D11*
X67502200Y-103007200D02*
X67502200Y-106007200D01*
D10*
D11*
X131502200Y-103007200D02*
X131502200Y-109507200D01*
D14*
%TO.P,C14,1*%
%TO.N,GND*%
X30460000Y10500000D03*
%TO.P,C14,2*%
%TO.N,+3V3*%
X29500000Y10500000D03*
%TD*%
D15*
%TO.P,J4,1,Pin_1*%
%TO.N,+3V3*%
X36500000Y2500000D03*
D16*
%TO.P,J4,2,Pin_2*%
%TO.N,GND*%
X33960000Y2500000D03*
%TO.P,J4,3,Pin_3*%
%TO.N,unconnected-(J4-Pin_3-Pad3)*%
X31420000Y2500000D03*
%TO.P,J4,4,Pin_4*%
%TO.N,/MQ2_sensor*%
X28880000Y2500000D03*
%TD*%
D15*
%TO.P,J1,1,Pin_1*%
%TO.N,+3V3*%
X4000000Y2690000D03*
D16*
%TO.P,J1,2,Pin_2*%
%TO.N,/SWDCLK*%
X4000000Y5230000D03*
%TO.P,J1,3,Pin_3*%
%TO.N,GND*%
X4000000Y7770000D03*
%TO.P,J1,4,Pin_4*%
%TO.N,/SWDIO*%
X4000000Y10310000D03*
%TD*%
D17*
%TO.P,R2,1*%
%TO.N,Net-(J3-CC1)*%
X8500000Y19500000D03*
%TO.P,R2,2*%
%TO.N,GND*%
X9520000Y19500000D03*
%TD*%
D18*
%TO.P,Y2,1,1*%
%TO.N,Net-(U1-OSC_IN)*%
X30500000Y22400000D03*
%TO.P,Y2,2,2*%
%TO.N,GND*%
X31900000Y22400000D03*
%TO.P,Y2,3,3*%
%TO.N,Net-(U1-OSC_OUT)*%
X31900000Y23500000D03*
%TO.P,Y2,4,4*%
%TO.N,GND*%
X30500000Y23500000D03*
%TD*%
D19*
%TO.P,U2,1,I/O1*%
%TO.N,/USB SCHEME/D-*%
X12500000Y19500000D03*
%TO.P,U2,2,GND*%
%TO.N,GND*%
X12500000Y18550000D03*
%TO.P,U2,3,I/O2*%
%TO.N,/USB SCHEME/D+*%
X12500000Y17600000D03*
%TO.P,U2,4,I/O2*%
%TO.N,/USB_D+*%
X14775000Y17600000D03*
%TO.P,U2,5,VBUS*%
%TO.N,+5V*%
X14775000Y18550000D03*
%TO.P,U2,6,I/O1*%
%TO.N,/USB_D-*%
X14775000Y19500000D03*
%TD*%
D20*
%TO.P,Y1,1,1*%
%TO.N,Net-(U1-PC14)*%
X20800000Y10500000D03*
%TO.P,Y1,2,2*%
%TO.N,Net-(U1-PC15)*%
X22200000Y10500000D03*
%TD*%
D21*
%TO.P,FLT1,1,IN*%
%TO.N,Net-(FLT1-IN)*%
X41000000Y19000000D03*
D22*
%TO.P,FLT1,2,GND*%
%TO.N,GND*%
X41850000Y19450000D03*
D21*
%TO.P,FLT1,3,OUT*%
%TO.N,Net-(FLT1-OUT)*%
X42700000Y19000000D03*
D22*
%TO.P,FLT1,4,GND*%
%TO.N,GND*%
X41850000Y18550000D03*
%TD*%
D23*
%TO.P,C2,1*%
%TO.N,+3V3*%
X31000000Y16000000D03*
%TO.P,C2,2*%
%TO.N,GND*%
X32550000Y16000000D03*
%TD*%
D24*
%TO.P,BZ1,1,+*%
%TO.N,+3V3*%
X52500000Y10000000D03*
D25*
%TO.P,BZ1,2,-*%
%TO.N,Net-(BZ1--)*%
X44900000Y10000000D03*
%TD*%
D14*
%TO.P,C10,1*%
%TO.N,GND*%
X31960000Y20000000D03*
%TO.P,C10,2*%
%TO.N,+3V3*%
X31000000Y20000000D03*
%TD*%
%TO.P,C8,1*%
%TO.N,GND*%
X30980000Y11500000D03*
%TO.P,C8,2*%
%TO.N,+3V3*%
X30020000Y11500000D03*
%TD*%
D26*
%TO.P,J3,A1,GND*%
%TO.N,GND*%
X7000000Y20800000D03*
%TO.P,J3,A4,VBUS*%
%TO.N,+5V*%
X7000000Y20000000D03*
D27*
%TO.P,J3,A5,CC1*%
%TO.N,Net-(J3-CC1)*%
X7000000Y18850000D03*
%TO.P,J3,A6,D+*%
%TO.N,/USB SCHEME/D+*%
X7000000Y17850000D03*
%TO.P,J3,A7,D-*%
%TO.N,/USB SCHEME/D-*%
X7000000Y17350000D03*
%TO.P,J3,A8,SBU1*%
%TO.N,unconnected-(J3-SBU1-PadA8)*%
X7000000Y16350000D03*
D26*
%TO.P,J3,A9,VBUS*%
%TO.N,+5V*%
X7000000Y15200000D03*
%TO.P,J3,A12,GND*%
%TO.N,GND*%
X7000000Y14400000D03*
%TO.P,J3,B1,GND*%
X7000000Y14400000D03*
%TO.P,J3,B4,VBUS*%
%TO.N,+5V*%
X7000000Y15200000D03*
D27*
%TO.P,J3,B5,CC2*%
%TO.N,Net-(J3-CC2)*%
X7000000Y15850000D03*
%TO.P,J3,B6,D+*%
%TO.N,/USB SCHEME/D+*%
X7000000Y16850000D03*
%TO.P,J3,B7,D-*%
%TO.N,/USB SCHEME/D-*%
X7000000Y18350000D03*
%TO.P,J3,B8,SBU2*%
%TO.N,unconnected-(J3-SBU2-PadB8)*%
X7000000Y19350000D03*
D26*
%TO.P,J3,B9,VBUS*%
%TO.N,+5V*%
X7000000Y20000000D03*
%TO.P,J3,B12,GND*%
%TO.N,GND*%
X7000000Y20800000D03*
D28*
%TO.P,J3,S1,SHIELD*%
X6425000Y21920000D03*
D29*
X2245000Y21920000D03*
D28*
X6425000Y13280000D03*
D29*
X2245000Y13280000D03*
%TD*%
D14*
%TO.P,C6,1*%
%TO.N,+3V3*%
X19960000Y15000000D03*
%TO.P,C6,2*%
%TO.N,GND*%
X19000000Y15000000D03*
%TD*%
D30*
%TO.P,C25,1*%
%TO.N,Net-(FLT1-IN)*%
X37480000Y19000000D03*
%TO.P,C25,2*%
%TO.N,GND*%
X37480000Y18040000D03*
%TD*%
D31*
%TO.P,R7,1*%
%TO.N,Net-(Q1-B)*%
X36990000Y12490000D03*
%TO.P,R7,2*%
%TO.N,Net-(U1-PA3)*%
X36990000Y13510000D03*
%TD*%
D32*
%TO.P,C11,1*%
%TO.N,+3V3*%
X24050000Y23500000D03*
%TO.P,C11,2*%
%TO.N,GND*%
X22500000Y23500000D03*
%TD*%
D14*
%TO.P,C9,1*%
%TO.N,GND*%
X34460000Y21500000D03*
%TO.P,C9,2*%
%TO.N,+3V3*%
X33500000Y21500000D03*
%TD*%
D33*
%TO.P,L1,1,1*%
%TO.N,/VLXSMPS*%
X25500000Y22515000D03*
%TO.P,L1,2,2*%
%TO.N,Net-(L1-Pad2)*%
X25500000Y23485000D03*
%TD*%
D34*
%TO.P,C1,1*%
%TO.N,/RESET*%
X21040000Y4500000D03*
%TO.P,C1,2*%
%TO.N,GND*%
X22000000Y4500000D03*
%TD*%
D30*
%TO.P,C16,1*%
%TO.N,Net-(U1-PC15)*%
X23500000Y10500000D03*
%TO.P,C16,2*%
%TO.N,GND*%
X23500000Y9540000D03*
%TD*%
D35*
%TO.P,C20,1*%
%TO.N,+3V3*%
X19000000Y27450000D03*
%TO.P,C20,2*%
%TO.N,GND*%
X19000000Y29000000D03*
%TD*%
D14*
%TO.P,C3,1*%
%TO.N,+3V3*%
X20000000Y13000000D03*
%TO.P,C3,2*%
%TO.N,GND*%
X19040000Y13000000D03*
%TD*%
D35*
%TO.P,C19,1*%
%TO.N,+5V*%
X13500000Y23225000D03*
%TO.P,C19,2*%
%TO.N,GND*%
X13500000Y24775000D03*
%TD*%
D17*
%TO.P,R8,1*%
%TO.N,Net-(D2-K)*%
X34480000Y25000000D03*
%TO.P,R8,2*%
%TO.N,GND*%
X35500000Y25000000D03*
%TD*%
D34*
%TO.P,C5,1*%
%TO.N,+3V3*%
X31040000Y14500000D03*
%TO.P,C5,2*%
%TO.N,GND*%
X32000000Y14500000D03*
%TD*%
D36*
%TO.P,U1,1,VBAT*%
%TO.N,+3V3*%
X22020000Y12885000D03*
%TO.P,U1,2,PC13*%
%TO.N,unconnected-(U1-PC13-Pad2)*%
X22420000Y12885000D03*
%TO.P,U1,3,PC14*%
%TO.N,Net-(U1-PC14)*%
X22820000Y12885000D03*
%TO.P,U1,4,PC15*%
%TO.N,Net-(U1-PC15)*%
X23220000Y12885000D03*
%TO.P,U1,5,PH3*%
%TO.N,/PH3_BOOT*%
X23620000Y12885000D03*
%TO.P,U1,6,PB8*%
%TO.N,/I2C_SCL*%
X24020000Y12885000D03*
%TO.P,U1,7,PB9*%
%TO.N,/I2C_SDA*%
X24420000Y12885000D03*
%TO.P,U1,8,NRST*%
%TO.N,/RESET*%
X24820000Y12885000D03*
%TO.P,U1,9,PC0*%
%TO.N,unconnected-(U1-PC0-Pad9)*%
X25220000Y12885000D03*
%TO.P,U1,10,PC1*%
%TO.N,unconnected-(U1-PC1-Pad10)*%
X25620000Y12885000D03*
%TO.P,U1,11,PC2*%
%TO.N,unconnected-(U1-PC2-Pad11)*%
X26020000Y12885000D03*
%TO.P,U1,12,PC3*%
%TO.N,unconnected-(U1-PC3-Pad12)*%
X26420000Y12885000D03*
%TO.P,U1,13,VREF+*%
%TO.N,+3V3*%
X26820000Y12885000D03*
%TO.P,U1,14,VDDA*%
X27220000Y12885000D03*
%TO.P,U1,15,PA0*%
%TO.N,/MQ2_sensor*%
X27620000Y12885000D03*
%TO.P,U1,16,PA1*%
%TO.N,unconnected-(U1-PA1-Pad16)*%
X28020000Y12885000D03*
%TO.P,U1,17,PA2*%
%TO.N,unconnected-(U1-PA2-Pad17)*%
X28420000Y12885000D03*
D37*
%TO.P,U1,18,PA3*%
%TO.N,Net-(U1-PA3)*%
X29125000Y13590000D03*
%TO.P,U1,19,PA4*%
%TO.N,unconnected-(U1-PA4-Pad19)*%
X29125000Y13990000D03*
%TO.P,U1,20,PA5*%
%TO.N,unconnected-(U1-PA5-Pad20)*%
X29125000Y14390000D03*
%TO.P,U1,21,PA6*%
%TO.N,unconnected-(U1-PA6-Pad21)*%
X29125000Y14790000D03*
%TO.P,U1,22,PA7*%
%TO.N,unconnected-(U1-PA7-Pad22)*%
X29125000Y15190000D03*
%TO.P,U1,23,PA8*%
%TO.N,unconnected-(U1-PA8-Pad23)*%
X29125000Y15590000D03*
%TO.P,U1,24,PA9*%
%TO.N,unconnected-(U1-PA9-Pad24)*%
X29125000Y15990000D03*
%TO.P,U1,25,PC4*%
%TO.N,unconnected-(U1-PC4-Pad25)*%
X29125000Y16390000D03*
%TO.P,U1,26,PC5*%
%TO.N,unconnected-(U1-PC5-Pad26)*%
X29125000Y16790000D03*
%TO.P,U1,27,PB2*%
%TO.N,unconnected-(U1-PB2-Pad27)*%
X29125000Y17190000D03*
%TO.P,U1,28,PB10*%
%TO.N,unconnected-(U1-PB10-Pad28)*%
X29125000Y17590000D03*
%TO.P,U1,29,PB11*%
%TO.N,unconnected-(U1-PB11-Pad29)*%
X29125000Y17990000D03*
%TO.P,U1,30,VDD*%
%TO.N,+3V3*%
X29125000Y18390000D03*
%TO.P,U1,31,RF1*%
%TO.N,/RF*%
X29125000Y18790000D03*
%TO.P,U1,32,VSSRF*%
%TO.N,GND*%
X29125000Y19190000D03*
%TO.P,U1,33,VDDRF*%
%TO.N,+3V3*%
X29125000Y19590000D03*
%TO.P,U1,34,OSC_OUT*%
%TO.N,Net-(U1-OSC_OUT)*%
X29125000Y19990000D03*
D36*
%TO.P,U1,35,OSC_IN*%
%TO.N,Net-(U1-OSC_IN)*%
X28420000Y20695000D03*
%TO.P,U1,36,AT0*%
%TO.N,unconnected-(U1-AT0-Pad36)*%
X28020000Y20695000D03*
%TO.P,U1,37,AT1*%
%TO.N,unconnected-(U1-AT1-Pad37)*%
X27620000Y20695000D03*
%TO.P,U1,38,PB0*%
%TO.N,unconnected-(U1-PB0-Pad38)*%
X27220000Y20695000D03*
%TO.P,U1,39,PB1*%
%TO.N,unconnected-(U1-PB1-Pad39)*%
X26820000Y20695000D03*
%TO.P,U1,40,PE4*%
%TO.N,unconnected-(U1-PE4-Pad40)*%
X26420000Y20695000D03*
%TO.P,U1,41,VFBSMPS*%
%TO.N,Net-(U1-VFBSMPS)*%
X26020000Y20695000D03*
%TO.P,U1,42,VSSSMPS*%
%TO.N,GND*%
X25620000Y20695000D03*
%TO.P,U1,43,VLXSMPS*%
%TO.N,/VLXSMPS*%
X25220000Y20695000D03*
%TO.P,U1,44,VDDSMPS*%
%TO.N,+3V3*%
X24820000Y20695000D03*
%TO.P,U1,45,VDD*%
X24420000Y20695000D03*
%TO.P,U1,46,PB12*%
%TO.N,unconnected-(U1-PB12-Pad46)*%
X24020000Y20695000D03*
%TO.P,U1,47,PB13*%
%TO.N,/HOT_YELLOW*%
X23620000Y20695000D03*
%TO.P,U1,48,PB14*%
%TO.N,/ORANGE_GOOD*%
X23220000Y20695000D03*
%TO.P,U1,49,PB15*%
%TO.N,/COLD_BLUE*%
X22820000Y20695000D03*
%TO.P,U1,50,PC6*%
%TO.N,unconnected-(U1-PC6-Pad50)*%
X22420000Y20695000D03*
%TO.P,U1,51,PA10*%
%TO.N,unconnected-(U1-PA10-Pad51)*%
X22020000Y20695000D03*
D37*
%TO.P,U1,52,PA11*%
%TO.N,/USB_D-*%
X21315000Y19990000D03*
%TO.P,U1,53,PA12*%
%TO.N,/USB_D+*%
X21315000Y19590000D03*
%TO.P,U1,54,PA13*%
%TO.N,/SWDIO*%
X21315000Y19190000D03*
%TO.P,U1,55,VDDUSB*%
%TO.N,+3V3*%
X21315000Y18790000D03*
%TO.P,U1,56,PA14*%
%TO.N,/SWDCLK*%
X21315000Y18390000D03*
%TO.P,U1,57,PA15*%
%TO.N,unconnected-(U1-PA15-Pad57)*%
X21315000Y17990000D03*
%TO.P,U1,58,PC10*%
%TO.N,unconnected-(U1-PC10-Pad58)*%
X21315000Y17590000D03*
%TO.P,U1,59,PC11*%
%TO.N,unconnected-(U1-PC11-Pad59)*%
X21315000Y17190000D03*
%TO.P,U1,60,PC12*%
%TO.N,unconnected-(U1-PC12-Pad60)*%
X21315000Y16790000D03*
%TO.P,U1,61,PD0*%
%TO.N,unconnected-(U1-PD0-Pad61)*%
X21315000Y16390000D03*
%TO.P,U1,62,PD1*%
%TO.N,unconnected-(U1-PD1-Pad62)*%
X21315000Y15990000D03*
%TO.P,U1,63,PB3*%
%TO.N,unconnected-(U1-PB3-Pad63)*%
X21315000Y15590000D03*
%TO.P,U1,64,PB4*%
%TO.N,unconnected-(U1-PB4-Pad64)*%
X21315000Y15190000D03*
%TO.P,U1,65,PB5*%
%TO.N,unconnected-(U1-PB5-Pad65)*%
X21315000Y14790000D03*
%TO.P,U1,66,PB6*%
%TO.N,unconnected-(U1-PB6-Pad66)*%
X21315000Y14390000D03*
%TO.P,U1,67,PB7*%
%TO.N,unconnected-(U1-PB7-Pad67)*%
X21315000Y13990000D03*
%TO.P,U1,68,VDD*%
%TO.N,+3V3*%
X21315000Y13590000D03*
D38*
%TO.P,U1,69,VSS*%
%TO.N,GND*%
X25220000Y16790000D03*
%TD*%
D17*
%TO.P,R1,1*%
%TO.N,/PH3_BOOT*%
X20500000Y7500000D03*
%TO.P,R1,2*%
%TO.N,GND*%
X21520000Y7500000D03*
%TD*%
D39*
%TO.P,L2,1,1*%
%TO.N,Net-(L1-Pad2)*%
X25875000Y25000000D03*
%TO.P,L2,2,2*%
%TO.N,Net-(U1-VFBSMPS)*%
X28000000Y25000000D03*
%TD*%
D17*
%TO.P,R4,1*%
%TO.N,Net-(D1-K)*%
X20500000Y29000000D03*
%TO.P,R4,2*%
%TO.N,GND*%
X21520000Y29000000D03*
%TD*%
D34*
%TO.P,C21,1*%
%TO.N,+3V3*%
X25500000Y5500000D03*
%TO.P,C21,2*%
%TO.N,GND*%
X26460000Y5500000D03*
%TD*%
D40*
%TO.P,R9,1*%
%TO.N,Net-(D3-K)*%
X38990000Y24510000D03*
%TO.P,R9,2*%
%TO.N,GND*%
X38990000Y23490000D03*
%TD*%
D41*
%TO.P,C15,1*%
%TO.N,Net-(U1-PC14)*%
X19500000Y10500000D03*
%TO.P,C15,2*%
%TO.N,GND*%
X19500000Y11460000D03*
%TD*%
D42*
%TO.P,U4,1,GND*%
%TO.N,GND*%
X28500000Y7950000D03*
%TO.P,U4,2,CSB*%
%TO.N,+3V3*%
X27850000Y7950000D03*
%TO.P,U4,3,SDI*%
%TO.N,/I2C_SDA*%
X27200000Y7950000D03*
%TO.P,U4,4,SCK*%
%TO.N,/I2C_SCL*%
X26550000Y7950000D03*
%TO.P,U4,5,SDO*%
%TO.N,+3V3*%
X26550000Y10000000D03*
%TO.P,U4,6,VDDIO*%
X27200000Y10000000D03*
%TO.P,U4,7,GND*%
%TO.N,GND*%
X27850000Y10000000D03*
%TO.P,U4,8,VDD*%
%TO.N,+3V3*%
X28500000Y10000000D03*
%TD*%
D19*
%TO.P,U3,1,VIN*%
%TO.N,+5V*%
X15500000Y26000000D03*
%TO.P,U3,2,GND*%
%TO.N,GND*%
X15500000Y25050000D03*
%TO.P,U3,3,EN*%
%TO.N,+5V*%
X15500000Y24100000D03*
%TO.P,U3,4,NC*%
%TO.N,unconnected-(U3-NC-Pad4)*%
X17775000Y24100000D03*
%TO.P,U3,5,VOUT*%
%TO.N,+3V3*%
X17775000Y26000000D03*
%TD*%
D14*
%TO.P,C12,1*%
%TO.N,+3V3*%
X23960000Y25500000D03*
%TO.P,C12,2*%
%TO.N,GND*%
X23000000Y25500000D03*
%TD*%
D34*
%TO.P,C7,1*%
%TO.N,GND*%
X18540000Y18000000D03*
%TO.P,C7,2*%
%TO.N,+3V3*%
X19500000Y18000000D03*
%TD*%
D23*
%TO.P,C13,1*%
%TO.N,Net-(U1-VFBSMPS)*%
X27000000Y22500000D03*
%TO.P,C13,2*%
%TO.N,GND*%
X28550000Y22500000D03*
%TD*%
D14*
%TO.P,C4,1*%
%TO.N,+3V3*%
X20000000Y14000000D03*
%TO.P,C4,2*%
%TO.N,GND*%
X19040000Y14000000D03*
%TD*%
D17*
%TO.P,R6,1*%
%TO.N,/I2C_SCL*%
X26000000Y6500000D03*
%TO.P,R6,2*%
%TO.N,+3V3*%
X27020000Y6500000D03*
%TD*%
D30*
%TO.P,C24,1*%
%TO.N,/RF*%
X31000000Y19000000D03*
%TO.P,C24,2*%
%TO.N,GND*%
X31000000Y18040000D03*
%TD*%
D43*
%TO.P,D4,1,K*%
%TO.N,Net-(D4-K)*%
X47000000Y29500000D03*
D44*
%TO.P,D4,2,A*%
%TO.N,/HOT_YELLOW*%
X44460000Y29500000D03*
%TD*%
D43*
%TO.P,D3,1,K*%
%TO.N,Net-(D3-K)*%
X40500000Y29500000D03*
D44*
%TO.P,D3,2,A*%
%TO.N,/ORANGE_GOOD*%
X37960000Y29500000D03*
%TD*%
D45*
%TO.P,D1,1,K*%
%TO.N,Net-(D1-K)*%
X21470000Y27500000D03*
%TO.P,D1,2,A*%
%TO.N,+3V3*%
X20500000Y27500000D03*
%TD*%
D17*
%TO.P,R3,1*%
%TO.N,Net-(J3-CC2)*%
X8500000Y15500000D03*
%TO.P,R3,2*%
%TO.N,GND*%
X9520000Y15500000D03*
%TD*%
D43*
%TO.P,D2,1,K*%
%TO.N,Net-(D2-K)*%
X34500000Y29500000D03*
D44*
%TO.P,D2,2,A*%
%TO.N,/COLD_BLUE*%
X31960000Y29500000D03*
%TD*%
D46*
%TO.P,Q1,1,B*%
%TO.N,Net-(Q1-B)*%
X39500000Y11000000D03*
%TO.P,Q1,2,E*%
%TO.N,GND*%
X39500000Y9100000D03*
%TO.P,Q1,3,C*%
%TO.N,Net-(BZ1--)*%
X41375000Y10050000D03*
%TD*%
D47*
%TO.P,J2,1,In*%
%TO.N,Net-(FLT1-OUT)*%
X45500000Y19000000D03*
D48*
%TO.P,J2,2,Ext*%
%TO.N,GND*%
X47025000Y20475000D03*
X47025000Y17525000D03*
%TD*%
D49*
%TO.P,L3,1,1*%
%TO.N,/RF*%
X33000000Y19000000D03*
%TO.P,L3,2,2*%
%TO.N,Net-(FLT1-IN)*%
X33970000Y19000000D03*
%TD*%
D50*
%TO.P,SW1,1,1*%
%TO.N,GND*%
X11100000Y5500000D03*
%TO.P,SW1,2,2*%
%TO.N,/RESET*%
X18900000Y5500000D03*
%TD*%
D40*
%TO.P,R10,1*%
%TO.N,Net-(D4-K)*%
X41990000Y25510000D03*
%TO.P,R10,2*%
%TO.N,GND*%
X41990000Y24490000D03*
%TD*%
D17*
%TO.P,R5,1*%
%TO.N,/I2C_SDA*%
X29490000Y6000000D03*
%TO.P,R5,2*%
%TO.N,+3V3*%
X30510000Y6000000D03*
%TD*%
D51*
%TO.N,GND*%
X35000000Y5000000D03*
X34000000Y5500000D03*
X1500000Y8500000D03*
%TO.N,+3V3*%
X6500000Y3500000D03*
X19000000Y17000000D03*
%TO.N,GND*%
X1500000Y6500000D03*
%TO.N,+3V3*%
X39500000Y1500000D03*
X24500000Y5500000D03*
X27500000Y5500000D03*
X31500000Y5500000D03*
X29500000Y9500000D03*
X20500000Y12000000D03*
X30500000Y9500000D03*
X31000000Y21000000D03*
X24390246Y26609754D03*
X54500000Y14500000D03*
X32000000Y17000000D03*
X20500000Y26500000D03*
X28500000Y7000000D03*
%TO.N,/RESET*%
X26000000Y11500000D03*
X21000000Y6000000D03*
X26000000Y11500000D03*
%TO.N,GND*%
X11500000Y24500000D03*
X21000000Y23500000D03*
X39500000Y22500000D03*
X27500000Y9000000D03*
X27500000Y14500000D03*
X22500000Y19500000D03*
X18500000Y11000000D03*
X32000000Y18000000D03*
X46500000Y16500000D03*
X31500000Y10500000D03*
X47000000Y21500000D03*
X22500000Y14500000D03*
X29500000Y7500000D03*
X37000000Y17000000D03*
X8000000Y22000000D03*
X8500000Y13500000D03*
X24500000Y19500000D03*
X39000000Y8000000D03*
X33000000Y20000000D03*
X23000000Y5000000D03*
X24500000Y15500000D03*
X29000000Y23500000D03*
X18500000Y30000000D03*
X22500000Y9000000D03*
X41500000Y20500000D03*
X32000000Y11500000D03*
X24500000Y18500000D03*
X33000000Y14000000D03*
X18000000Y17500000D03*
X11500000Y18500000D03*
X33000000Y15000000D03*
X45500000Y16500000D03*
X11500000Y25500000D03*
X48000000Y21500000D03*
X28000000Y17000000D03*
X23000000Y29500000D03*
X42000000Y17500000D03*
X35000000Y22000000D03*
X10500000Y7000000D03*
X1000000Y7500000D03*
X45500000Y21500000D03*
X31000000Y24500000D03*
X19500000Y30000000D03*
X10500000Y20000000D03*
X23000000Y8000000D03*
X30000000Y24500000D03*
X22500000Y17000000D03*
X9500000Y5500000D03*
X33000000Y22500000D03*
X27500000Y19500000D03*
X18000000Y13000000D03*
%TO.N,+3V3*%
X38500000Y4500000D03*
%TO.N,GND*%
X35500000Y24000000D03*
X27500000Y4500000D03*
X24500000Y14500000D03*
X21500000Y24500000D03*
X10500000Y16500000D03*
X42000000Y23500000D03*
X33500000Y17000000D03*
X17000000Y25000000D03*
X47500000Y16500000D03*
%TO.N,/COLD_BLUE*%
X29500000Y30500000D03*
X22053532Y22000000D03*
%TO.N,/ORANGE_GOOD*%
X22969668Y22530332D03*
X36000000Y28000000D03*
%TO.N,/HOT_YELLOW*%
X42500000Y27500000D03*
X23500000Y22000000D03*
%TO.N,/PH3_BOOT*%
X23620000Y11500000D03*
X23620000Y11500000D03*
X23620000Y11500000D03*
X20000000Y9000000D03*
X20000000Y9000000D03*
%TO.N,+3V3*%
X1500000Y2500000D03*
%TD*%
D52*
%TO.N,GND*%
X30460000Y10500000D02*
X31500000Y10500000D01*
D53*
%TO.N,+3V3*%
X29000000Y10000000D02*
X29500000Y10500000D01*
X28500000Y10000000D02*
X29000000Y10000000D01*
D52*
X29500000Y10670001D02*
X29500000Y10500000D01*
X30020000Y11190001D02*
X29500000Y10670001D01*
X30020000Y11500000D02*
X30020000Y11190001D01*
X30190001Y9500000D02*
X29500000Y10190001D01*
X30500000Y9500000D02*
X30190001Y9500000D01*
X29500000Y10190001D02*
X29500000Y10500000D01*
X29500000Y10500000D02*
X29500000Y9500000D01*
%TO.N,GND*%
X32000000Y11500000D02*
X30980000Y11500000D01*
D54*
%TO.N,Net-(L1-Pad2)*%
X25500000Y24625000D02*
X25875000Y25000000D01*
X25500000Y23485000D02*
X25500000Y24625000D01*
%TO.N,Net-(U1-VFBSMPS)*%
X27500000Y25000000D02*
X28000000Y25000000D01*
X27000000Y22500000D02*
X27000000Y24500000D01*
X27000000Y24500000D02*
X27500000Y25000000D01*
D52*
%TO.N,GND*%
X22500000Y23500000D02*
X21000000Y23500000D01*
X22500000Y24000000D02*
X22500000Y23500000D01*
%TO.N,+5V*%
X13613500Y18386500D02*
X13829200Y18170800D01*
X13613500Y22386500D02*
X13613500Y18386500D01*
X13500000Y22500000D02*
X13613500Y22386500D01*
X13500000Y23225000D02*
X13500000Y22500000D01*
%TO.N,GND*%
X12926000Y25349000D02*
X12230347Y25349000D01*
X13362500Y24912500D02*
X12926000Y25349000D01*
X12079346Y25500000D02*
X11500000Y25500000D01*
X12950000Y24500000D02*
X13362500Y24912500D01*
X11500000Y24500000D02*
X12950000Y24500000D01*
X12230347Y25349000D02*
X12079346Y25500000D01*
D53*
%TO.N,/RF*%
X31000000Y19000000D02*
X33000000Y19000000D01*
D52*
%TO.N,GND*%
X2730000Y6500000D02*
X4000000Y7770000D01*
X1500000Y6500000D02*
X2730000Y6500000D01*
X3730000Y7500000D02*
X4000000Y7770000D01*
X1000000Y7500000D02*
X3730000Y7500000D01*
X3270000Y8500000D02*
X4000000Y7770000D01*
X1500000Y8500000D02*
X3270000Y8500000D01*
%TO.N,+3V3*%
X3810000Y2500000D02*
X4000000Y2690000D01*
X1500000Y2500000D02*
X3810000Y2500000D01*
X4810000Y3500000D02*
X4000000Y2690000D01*
X6500000Y3500000D02*
X4810000Y3500000D01*
%TO.N,GND*%
X34000000Y2540000D02*
X33960000Y2500000D01*
X34000000Y5500000D02*
X34000000Y2540000D01*
X35000000Y3540000D02*
X33960000Y2500000D01*
X35000000Y5000000D02*
X35000000Y3540000D01*
%TO.N,+3V3*%
X37500000Y1500000D02*
X36500000Y2500000D01*
X39500000Y1500000D02*
X37500000Y1500000D01*
X38500000Y4500000D02*
X36500000Y2500000D01*
D53*
%TO.N,/MQ2_sensor*%
X30880000Y4500000D02*
X32500000Y4500000D01*
X28880000Y2500000D02*
X30880000Y4500000D01*
D52*
%TO.N,+3V3*%
X31010000Y5500000D02*
X30510000Y6000000D01*
X31500000Y5500000D02*
X31010000Y5500000D01*
D53*
%TO.N,/SWDIO*%
X9000000Y9500000D02*
X18690000Y19190000D01*
X18690000Y19190000D02*
X21315000Y19190000D01*
X7500000Y9500000D02*
X9000000Y9500000D01*
X6690000Y10310000D02*
X7500000Y9500000D01*
X4000000Y10310000D02*
X6690000Y10310000D01*
%TO.N,/SWDCLK*%
X9000000Y8000000D02*
X6770000Y8000000D01*
X6770000Y8000000D02*
X4000000Y5230000D01*
%TO.N,+3V3*%
X24820000Y20695000D02*
X24820000Y21730000D01*
X27276650Y12166650D02*
X27304300Y12166650D01*
X28000000Y11443300D02*
X28000000Y11000000D01*
D52*
X23960000Y26179508D02*
X24390246Y26609754D01*
D53*
X31000000Y16000000D02*
X31000000Y17176700D01*
D52*
X27850000Y7150000D02*
X28000000Y7000000D01*
D53*
X27304300Y12139000D02*
X27721650Y11721650D01*
X27200000Y11200000D02*
X27721650Y11721650D01*
D52*
X19500000Y17500000D02*
X19500000Y18000000D01*
X52500000Y12000000D02*
X52500000Y10000000D01*
D53*
X20000000Y14000000D02*
X20410000Y13590000D01*
D52*
X24050000Y25410000D02*
X23960000Y25500000D01*
D53*
X26550000Y10000000D02*
X26550000Y11410000D01*
D52*
X32000000Y17000000D02*
X31000000Y16000000D01*
D53*
X27220000Y12885000D02*
X27220000Y12280000D01*
X21905000Y13000000D02*
X22020000Y12885000D01*
X24820000Y21730000D02*
X24050000Y22500000D01*
X19960000Y13040000D02*
X20000000Y13000000D01*
D52*
X17775000Y26225000D02*
X19000000Y27450000D01*
D53*
X27304300Y12166650D02*
X27304300Y12139000D01*
X27721650Y11721650D02*
X28000000Y11443300D01*
X31000000Y14540000D02*
X31040000Y14500000D01*
D52*
X23960000Y25500000D02*
X23960000Y26179508D01*
X24050000Y24000000D02*
X24050000Y25410000D01*
X20500000Y12000000D02*
X20500000Y12500000D01*
D53*
X26820000Y12885000D02*
X26820000Y11680000D01*
D52*
X27500000Y5500000D02*
X27500000Y6020000D01*
D53*
X21315000Y18790000D02*
X20290000Y18790000D01*
X20000000Y13000000D02*
X21905000Y13000000D01*
D52*
X17775000Y26000000D02*
X17775000Y26225000D01*
D53*
X31000000Y16000000D02*
X31000000Y14540000D01*
X29125000Y19590000D02*
X30590000Y19590000D01*
D52*
X20450000Y27450000D02*
X19000000Y27450000D01*
D53*
X20290000Y18790000D02*
X19500000Y18000000D01*
D52*
X20500000Y12500000D02*
X20000000Y13000000D01*
D53*
X19960000Y15000000D02*
X19960000Y13040000D01*
X32500000Y21500000D02*
X33500000Y21500000D01*
D52*
X20500000Y26500000D02*
X20500000Y27400000D01*
X27500000Y6020000D02*
X27020000Y6500000D01*
X24050000Y24000000D02*
X24050000Y22500000D01*
X20500000Y27400000D02*
X20450000Y27450000D01*
D53*
X24420000Y21356700D02*
X24420000Y20695000D01*
X26550000Y11350000D02*
X27200000Y10700000D01*
X27276650Y12223350D02*
X27276650Y12166650D01*
D52*
X28000000Y7000000D02*
X28500000Y7000000D01*
D53*
X31000000Y17176700D02*
X29786700Y18390000D01*
X28500000Y10500000D02*
X28500000Y10000000D01*
X24050000Y21726700D02*
X24050000Y22500000D01*
X26550000Y11410000D02*
X26550000Y11350000D01*
X29786700Y18390000D02*
X29125000Y18390000D01*
X27220000Y12280000D02*
X27276650Y12223350D01*
X30590000Y19590000D02*
X31000000Y20000000D01*
D52*
X54500000Y14500000D02*
X54500000Y14000000D01*
X54500000Y14000000D02*
X52500000Y12000000D01*
X25500000Y5500000D02*
X24500000Y5500000D01*
D53*
X26820000Y11680000D02*
X26550000Y11410000D01*
X20410000Y13590000D02*
X21315000Y13590000D01*
D52*
X19000000Y17000000D02*
X19500000Y17500000D01*
X27850000Y7950000D02*
X27850000Y7150000D01*
D53*
X27200000Y10700000D02*
X27200000Y10000000D01*
X28000000Y11000000D02*
X28500000Y10500000D01*
X27200000Y10700000D02*
X27200000Y11200000D01*
X31000000Y20000000D02*
X32500000Y21500000D01*
X24420000Y21356700D02*
X24050000Y21726700D01*
X31000000Y20000000D02*
X31000000Y21000000D01*
%TO.N,Net-(BZ1--)*%
X44850000Y10050000D02*
X44900000Y10000000D01*
X41375000Y10050000D02*
X44850000Y10050000D01*
%TO.N,/RESET*%
X21000000Y6000000D02*
X21040000Y5960000D01*
X25466650Y12033350D02*
X26000000Y11500000D01*
X21040000Y4500000D02*
X19900000Y4500000D01*
X24820000Y12885000D02*
X24820000Y12223300D01*
X24820000Y12223300D02*
X25009950Y12033350D01*
X21040000Y5960000D02*
X21040000Y4500000D01*
X25009950Y12033350D02*
X25466650Y12033350D01*
X19900000Y4500000D02*
X18900000Y5500000D01*
%TO.N,GND*%
X32000000Y22500000D02*
X31900000Y22400000D01*
D52*
X31000000Y24000000D02*
X30500000Y23500000D01*
X22000000Y24000000D02*
X21500000Y24500000D01*
X19040000Y13000000D02*
X18000000Y13000000D01*
X23000000Y5000000D02*
X22500000Y5000000D01*
X31960000Y20000000D02*
X33000000Y20000000D01*
X47500000Y17050000D02*
X47025000Y17525000D01*
D53*
X9520000Y15520000D02*
X10500000Y16500000D01*
D52*
X47000000Y20500000D02*
X47025000Y20475000D01*
X18500000Y30000000D02*
X18500000Y29500000D01*
X31000000Y24500000D02*
X31000000Y24000000D01*
X27500000Y9000000D02*
X27850000Y9350000D01*
X46000000Y16500000D02*
X47025000Y17525000D01*
X39000000Y8600000D02*
X39500000Y9100000D01*
X47500000Y16500000D02*
X47500000Y17050000D01*
X42000000Y23500000D02*
X42000000Y24480000D01*
X22500000Y29000000D02*
X23000000Y29500000D01*
D53*
X10000000Y19500000D02*
X10500000Y20000000D01*
D52*
X10500000Y6100000D02*
X11100000Y5500000D01*
D55*
X25620000Y20008000D02*
X25112000Y19500000D01*
D52*
X12450000Y18500000D02*
X12500000Y18550000D01*
X21520000Y7500000D02*
X22500000Y7500000D01*
D55*
X27810000Y19190000D02*
X27500000Y19500000D01*
D52*
X26500000Y5500000D02*
X27500000Y4500000D01*
X32500000Y14000000D02*
X32000000Y14500000D01*
X18000000Y17500000D02*
X18500000Y18000000D01*
X41850000Y18550000D02*
X41850000Y17650000D01*
X33000000Y14000000D02*
X32500000Y14000000D01*
X33500000Y16950000D02*
X32550000Y16000000D01*
X23000000Y24500000D02*
X22500000Y24000000D01*
X34960000Y22000000D02*
X34460000Y21500000D01*
X46500000Y17000000D02*
X47025000Y17525000D01*
X48000000Y21450000D02*
X47025000Y20475000D01*
X29050000Y7950000D02*
X29500000Y7500000D01*
X30000000Y24000000D02*
X30500000Y23500000D01*
X21520000Y29000000D02*
X22500000Y29000000D01*
D53*
X33000000Y22500000D02*
X32000000Y22500000D01*
D52*
X31960000Y18040000D02*
X32000000Y18000000D01*
D53*
X7000000Y14400000D02*
X7600000Y14400000D01*
D52*
X29000000Y22950000D02*
X28550000Y22500000D01*
X47000000Y21500000D02*
X47000000Y20500000D01*
X22500000Y7500000D02*
X23000000Y8000000D01*
D55*
X29125000Y19190000D02*
X27810000Y19190000D01*
D53*
X19000000Y15000000D02*
X19000000Y13040000D01*
D52*
X30000000Y24500000D02*
X30000000Y24000000D01*
D53*
X7600000Y14400000D02*
X8500000Y13500000D01*
D52*
X46000000Y21500000D02*
X47025000Y20475000D01*
X22500000Y9000000D02*
X22960000Y9000000D01*
D53*
X19000000Y13040000D02*
X19040000Y13000000D01*
D52*
X27850000Y9350000D02*
X27850000Y10000000D01*
X28500000Y7950000D02*
X29050000Y7950000D01*
X41850000Y17650000D02*
X42000000Y17500000D01*
X39500000Y22980000D02*
X38990000Y23490000D01*
X39000000Y8000000D02*
X39000000Y8600000D01*
X22500000Y5000000D02*
X22000000Y4500000D01*
X45500000Y16500000D02*
X46000000Y16500000D01*
X45500000Y21500000D02*
X46000000Y21500000D01*
X31000000Y18040000D02*
X31960000Y18040000D01*
X35000000Y22000000D02*
X34960000Y22000000D01*
X17000000Y25000000D02*
X15550000Y25000000D01*
D53*
X32900000Y22400000D02*
X33000000Y22500000D01*
D52*
X11500000Y18500000D02*
X12450000Y18500000D01*
X19500000Y29500000D02*
X19000000Y29000000D01*
X23000000Y25500000D02*
X23000000Y24500000D01*
D53*
X9520000Y15500000D02*
X9520000Y15520000D01*
X7000000Y21000000D02*
X8000000Y22000000D01*
D52*
X15550000Y25000000D02*
X15500000Y25050000D01*
X39500000Y22500000D02*
X39500000Y22980000D01*
X18960000Y11460000D02*
X19500000Y11460000D01*
X18500000Y18000000D02*
X18540000Y18000000D01*
X35500000Y24000000D02*
X35500000Y25000000D01*
X29000000Y23500000D02*
X29000000Y22950000D01*
X33000000Y15550000D02*
X32550000Y16000000D01*
X41500000Y20500000D02*
X41500000Y19800000D01*
D53*
X9520000Y19500000D02*
X10000000Y19500000D01*
D52*
X22960000Y9000000D02*
X23500000Y9540000D01*
X10500000Y7000000D02*
X10500000Y6100000D01*
X22500000Y24000000D02*
X22000000Y24000000D01*
D53*
X7000000Y20800000D02*
X7000000Y21000000D01*
D52*
X33000000Y15000000D02*
X33000000Y15550000D01*
D55*
X25620000Y20695000D02*
X25620000Y20008000D01*
D52*
X18500000Y29500000D02*
X19000000Y29000000D01*
X33500000Y17000000D02*
X33500000Y16950000D01*
X41500000Y19800000D02*
X41850000Y19450000D01*
D55*
X25112000Y19500000D02*
X24500000Y19500000D01*
D52*
X26460000Y5500000D02*
X26500000Y5500000D01*
X18500000Y11000000D02*
X18960000Y11460000D01*
X37480000Y18040000D02*
X37480000Y17480000D01*
X48000000Y21500000D02*
X48000000Y21450000D01*
X9500000Y5500000D02*
X11100000Y5500000D01*
X46500000Y16500000D02*
X46500000Y17000000D01*
X42000000Y24480000D02*
X41990000Y24490000D01*
X37480000Y17480000D02*
X37000000Y17000000D01*
X19500000Y30000000D02*
X19500000Y29500000D01*
D54*
%TO.N,Net-(U1-VFBSMPS)*%
X26401000Y21901000D02*
X26401000Y21831000D01*
X27000000Y22500000D02*
X26401000Y21901000D01*
D53*
X26020000Y20695000D02*
X26020000Y21520000D01*
%TO.N,Net-(U1-PC14)*%
X22820000Y12220001D02*
X22820000Y12885000D01*
X20800000Y10500000D02*
X21099999Y10500000D01*
X20800000Y10500000D02*
X19500000Y10500000D01*
X21099999Y10500000D02*
X22820000Y12220001D01*
%TO.N,Net-(U1-PC15)*%
X23500000Y10500000D02*
X22000000Y10500000D01*
X23023234Y11976766D02*
X23220000Y12173532D01*
X23023234Y10976766D02*
X23023234Y11976766D01*
X23220000Y12173532D02*
X23220000Y12885000D01*
X23500000Y10500000D02*
X23023234Y10976766D01*
D52*
%TO.N,+5V*%
X7000000Y15200000D02*
X7718240Y15200000D01*
X13658400Y16658400D02*
X13658400Y18000000D01*
X15500000Y26000000D02*
X12500000Y26000000D01*
X13000000Y23000000D02*
X14400000Y23000000D01*
X10558388Y23000000D02*
X13000000Y23000000D01*
X7718240Y15200000D02*
X8139240Y14779000D01*
X8500000Y26000000D02*
X8500000Y24500000D01*
X10000000Y27500000D02*
X8500000Y26000000D01*
X14400000Y23000000D02*
X15500000Y24100000D01*
X8139240Y14779000D02*
X11779000Y14779000D01*
X11779000Y14779000D02*
X13658400Y16658400D01*
X8500000Y24500000D02*
X10279194Y22720806D01*
X13829200Y18170800D02*
X14208400Y18550000D01*
X11000000Y27500000D02*
X10000000Y27500000D01*
X7558388Y20000000D02*
X10279194Y22720806D01*
X7000000Y20000000D02*
X7558388Y20000000D01*
X13658400Y18000000D02*
X13829200Y18170800D01*
X12500000Y26000000D02*
X11000000Y27500000D01*
X14208400Y18550000D02*
X14775000Y18550000D01*
X10279194Y22720806D02*
X10558388Y23000000D01*
D53*
%TO.N,/RF*%
X30790000Y18790000D02*
X31000000Y19000000D01*
X29125000Y18790000D02*
X30790000Y18790000D01*
%TO.N,Net-(FLT1-IN)*%
X37480000Y19000000D02*
X41000000Y19000000D01*
X33970000Y19000000D02*
X37480000Y19000000D01*
%TO.N,Net-(D1-K)*%
X20500000Y28470000D02*
X21470000Y27500000D01*
X20500000Y29000000D02*
X20500000Y28470000D01*
%TO.N,Net-(D2-K)*%
X34480000Y25000000D02*
X34480000Y26480000D01*
X35000000Y29000000D02*
X34500000Y29500000D01*
X35000000Y27000000D02*
X35000000Y29000000D01*
X34480000Y26480000D02*
X35000000Y27000000D01*
%TO.N,/COLD_BLUE*%
X30960000Y30500000D02*
X31960000Y29500000D01*
X22820000Y20695000D02*
X22820000Y21233532D01*
X22820000Y21233532D02*
X22053532Y22000000D01*
X29500000Y30500000D02*
X30960000Y30500000D01*
X22000000Y22000000D02*
X22053532Y22000000D01*
%TO.N,Net-(D3-K)*%
X38990000Y24510000D02*
X38990000Y25490000D01*
X41500000Y28500000D02*
X40500000Y29500000D01*
X38990000Y25490000D02*
X41500000Y28000000D01*
X41500000Y28000000D02*
X41500000Y28500000D01*
%TO.N,/ORANGE_GOOD*%
X23220000Y21280000D02*
X23220000Y20695000D01*
X36460000Y28000000D02*
X37960000Y29500000D01*
X22966650Y22220921D02*
X22966650Y21779079D01*
X22969668Y22223939D02*
X22966650Y22220921D01*
X22969668Y21776061D02*
X22969668Y21530332D01*
X22969668Y21530332D02*
X23220000Y21280000D01*
X22969668Y22530332D02*
X22969668Y22223939D01*
X22966650Y21779079D02*
X22969668Y21776061D01*
X36000000Y28000000D02*
X36460000Y28000000D01*
%TO.N,Net-(D4-K)*%
X41990000Y25510000D02*
X45010000Y25510000D01*
X47000000Y27500000D02*
X47000000Y29500000D01*
X45010000Y25510000D02*
X47000000Y27500000D01*
%TO.N,/HOT_YELLOW*%
X42500000Y27500000D02*
X42500000Y27540000D01*
X42500000Y27540000D02*
X44460000Y29500000D01*
X23620000Y20695000D02*
X23620000Y21880000D01*
X23620000Y21880000D02*
X23500000Y22000000D01*
%TO.N,/SWDCLK*%
X20788528Y18446650D02*
X21258350Y18446650D01*
X20000000Y16500000D02*
X20000000Y17658122D01*
X21258350Y18446650D02*
X21315000Y18390000D01*
X19500000Y16000000D02*
X20000000Y16500000D01*
X20000000Y17658122D02*
X20788528Y18446650D01*
X17000000Y16000000D02*
X19500000Y16000000D01*
X9000000Y8000000D02*
X17000000Y16000000D01*
%TO.N,/USB SCHEME/D-*%
X6425001Y17350000D02*
X6000000Y17775001D01*
X10728599Y18722350D02*
X7956212Y18722350D01*
X6000000Y18000000D02*
X6350000Y18350000D01*
X7000000Y17350000D02*
X6425001Y17350000D01*
X12500000Y19500000D02*
X11506249Y19500000D01*
X11506249Y19500000D02*
X10728599Y18722350D01*
X6000000Y17775001D02*
X6000000Y18000000D01*
X7650512Y18416650D02*
X7079170Y18416650D01*
X7079170Y18416650D02*
X7012520Y18350000D01*
X7012520Y18350000D02*
X7000000Y18350000D01*
X7956212Y18722350D02*
X7650512Y18416650D01*
X6350000Y18350000D02*
X7000000Y18350000D01*
%TO.N,Net-(J3-CC2)*%
X7000000Y15850000D02*
X8150000Y15850000D01*
X8150000Y15850000D02*
X8500000Y15500000D01*
%TO.N,Net-(J3-CC1)*%
X8163152Y19500000D02*
X8500000Y19500000D01*
X7000000Y18850000D02*
X7513152Y18850000D01*
X7513152Y18850000D02*
X8163152Y19500000D01*
%TO.N,/USB SCHEME/D+*%
X7086650Y17936650D02*
X7000000Y17850000D01*
X7861364Y17136365D02*
X7861364Y18138636D01*
X11506249Y17600000D02*
X10729579Y18376670D01*
X7659378Y17936650D02*
X7086650Y17936650D01*
X7574999Y16850000D02*
X7861364Y17136365D01*
X12500000Y17600000D02*
X11506249Y17600000D01*
X8099398Y18376670D02*
X7861364Y18138636D01*
X7861364Y18138636D02*
X7659378Y17936650D01*
X10729579Y18376670D02*
X8099398Y18376670D01*
X7000000Y16850000D02*
X7574999Y16850000D01*
%TO.N,/MQ2_sensor*%
X27620000Y12269768D02*
X28389768Y11500000D01*
X29500000Y11500000D02*
X29500000Y12500000D01*
X33033350Y11966650D02*
X33033350Y5033350D01*
X28389768Y11500000D02*
X29500000Y11500000D01*
X29500000Y12500000D02*
X30000000Y13000000D01*
X30000000Y13000000D02*
X32000000Y13000000D01*
X32000000Y13000000D02*
X33033350Y11966650D01*
X27620000Y12885000D02*
X27620000Y12269768D01*
X33033350Y5033350D02*
X32500000Y4500000D01*
D52*
%TO.N,/VLXSMPS*%
X25500000Y22000000D02*
X25500000Y22515000D01*
D53*
X25220000Y21720000D02*
X25500000Y22000000D01*
X25220000Y20695000D02*
X25220000Y21720000D01*
%TO.N,Net-(Q1-B)*%
X36990000Y12010000D02*
X38000000Y11000000D01*
X36990000Y12490000D02*
X36990000Y12010000D01*
X38000000Y11000000D02*
X39500000Y11000000D01*
%TO.N,/PH3_BOOT*%
X23620000Y12885000D02*
X23620000Y11584300D01*
X23620000Y11584300D02*
X23535700Y11500000D01*
X20500000Y8000000D02*
X20500000Y7500000D01*
X23535700Y11500000D02*
X23500000Y11500000D01*
X20000000Y8500000D02*
X20500000Y8000000D01*
X20000000Y9000000D02*
X20000000Y8500000D01*
X23620000Y11584300D02*
X23584300Y11584300D01*
%TO.N,/I2C_SDA*%
X25500000Y11000000D02*
X25500000Y10064700D01*
X24420000Y12080000D02*
X25500000Y11000000D01*
X25500000Y10064700D02*
X27200000Y8364700D01*
X29320921Y8433350D02*
X27441650Y8433350D01*
X27200000Y8364700D02*
X27200000Y7950000D01*
X30033350Y7720921D02*
X29320921Y8433350D01*
X27200000Y8191700D02*
X27200000Y7950000D01*
X30033350Y6543350D02*
X30033350Y7720921D01*
X27441650Y8433350D02*
X27200000Y8191700D01*
X24420000Y12885000D02*
X24420000Y12080000D01*
X29490000Y6000000D02*
X30033350Y6543350D01*
%TO.N,/I2C_SCL*%
X24020000Y12885000D02*
X24020000Y11980000D01*
X26000000Y7400000D02*
X26550000Y7950000D01*
X26000000Y6500000D02*
X26000000Y7400000D01*
X25000000Y11000000D02*
X25000000Y9500000D01*
X24020000Y11980000D02*
X25000000Y11000000D01*
X25000000Y9500000D02*
X26550000Y7950000D01*
%TO.N,Net-(U1-PA3)*%
X33000000Y13000000D02*
X35000000Y13000000D01*
X35510000Y13510000D02*
X36990000Y13510000D01*
X29198350Y13516650D02*
X32483350Y13516650D01*
X35000000Y13000000D02*
X35510000Y13510000D01*
X32483350Y13516650D02*
X33000000Y13000000D01*
X29125000Y13590000D02*
X29198350Y13516650D01*
%TO.N,/USB_D+*%
X16546401Y18377650D02*
X15768751Y17600000D01*
X15768751Y17600000D02*
X14775000Y17600000D01*
X20587499Y19590000D02*
X20559849Y19617650D01*
X18361390Y19617650D02*
X17121390Y18377650D01*
X21315000Y19590000D02*
X20587499Y19590000D01*
X20559849Y19617650D02*
X18361390Y19617650D01*
X17121390Y18377650D02*
X16546401Y18377650D01*
%TO.N,Net-(U1-OSC_IN)*%
X28795000Y20695000D02*
X28420000Y20695000D01*
X30500000Y22400000D02*
X28795000Y20695000D01*
%TO.N,Net-(U1-OSC_OUT)*%
X29125000Y19990000D02*
X29158390Y19990000D01*
X31216650Y22048260D02*
X31216650Y22816650D01*
X31216650Y22816650D02*
X31900000Y23500000D01*
X29158390Y19990000D02*
X31216650Y22048260D01*
%TO.N,/USB_D-*%
X20587499Y19990000D02*
X20559849Y19962350D01*
X21315000Y19990000D02*
X20587499Y19990000D01*
X16546401Y18722350D02*
X15768751Y19500000D01*
X15768751Y19500000D02*
X14775000Y19500000D01*
X18218610Y19962350D02*
X16978610Y18722350D01*
X16978610Y18722350D02*
X16546401Y18722350D01*
X20559849Y19962350D02*
X18218610Y19962350D01*
%TO.N,Net-(FLT1-OUT)*%
X42700000Y19000000D02*
X45500000Y19000000D01*
%TD*%
M02*
