%TF.GenerationSoftware,KiCad,Pcbnew,9.0.6*%
%TF.CreationDate,2026-05-15T23:17:32+02:00*%
%TF.ProjectId,Hardware,48617264-7761-4726-952e-6b696361645f,rev?*%
%TF.SameCoordinates,PX7b80360PY5466720*%
%TF.FileFunction,Soldermask,Bot*%
%TF.FilePolarity,Negative*%
%FSLAX46Y46*%
G04 Gerber Fmt 4.6, Leading zero omitted, Abs format (unit mm)*
G04 Created by KiCad (PCBNEW 9.0.6) date 2026-05-15 23:17:32*
%MOMM*%
%LPD*%
G01*
G04 APERTURE LIST*
G04 Aperture macros list*
%AMRoundRect*
0 Rectangle with rounded corners*
0 $1 Rounding radius*
0 $2 $3 $4 $5 $6 $7 $8 $9 X,Y pos of 4 corners*
0 Add a 4 corners polygon primitive as box body*
4,1,4,$2,$3,$4,$5,$6,$7,$8,$9,$2,$3,0*
0 Add four circle primitives for the rounded corners*
1,1,$1+$1,$2,$3*
1,1,$1+$1,$4,$5*
1,1,$1+$1,$6,$7*
1,1,$1+$1,$8,$9*
0 Add four rect primitives between the rounded corners*
20,1,$1+$1,$2,$3,$4,$5,0*
20,1,$1+$1,$4,$5,$6,$7,0*
20,1,$1+$1,$6,$7,$8,$9,0*
20,1,$1+$1,$8,$9,$2,$3,0*%
G04 Aperture macros list end*
%ADD10C,0.100000*%
%ADD11C,0.150000*%
%ADD12C,0.300000*%
%ADD13C,0.400000*%
%ADD14RoundRect,0.050000X-0.850000X0.850000X-0.850000X-0.850000X0.850000X-0.850000X0.850000X0.850000X0*%
%ADD15C,1.800000*%
%ADD16RoundRect,0.050000X0.850000X0.850000X-0.850000X0.850000X-0.850000X-0.850000X0.850000X-0.850000X0*%
%ADD17RoundRect,0.050000X1.000000X1.000000X-1.000000X1.000000X-1.000000X-1.000000X1.000000X-1.000000X0*%
%ADD18C,2.100000*%
%ADD19C,0.750000*%
%ADD20O,2.200000X1.100000*%
%ADD21O,1.900000X1.100000*%
%ADD22RoundRect,0.050000X0.900000X0.900000X-0.900000X0.900000X-0.900000X-0.900000X0.900000X-0.900000X0*%
%ADD23C,1.900000*%
G04 APERTURE END LIST*
D10*
D11*
X47502200Y-77507200D02*
X155502200Y-77507200D01*
X155502200Y-109507200D01*
X47502200Y-109507200D01*
X47502200Y-77507200D01*
D10*
D11*
X-119500000Y78500000D02*
X157502200Y78500000D01*
X157502200Y-111507200D01*
X-119500000Y-111507200D01*
X-119500000Y78500000D01*
D10*
D11*
X-117500000Y76500000D02*
X155502200Y76500000D01*
X155502200Y-109507200D01*
X-117500000Y-109507200D01*
X-117500000Y76500000D01*
D10*
D11*
X-69500000Y76500000D02*
X-69500000Y78500000D01*
D10*
D11*
X-19500000Y76500000D02*
X-19500000Y78500000D01*
D10*
D11*
X30500000Y76500000D02*
X30500000Y78500000D01*
D10*
D11*
X80500000Y76500000D02*
X80500000Y78500000D01*
D10*
D11*
X130500000Y76500000D02*
X130500000Y78500000D01*
D10*
D11*
X-93410840Y76906396D02*
X-94153697Y76906396D01*
X-93782269Y76906396D02*
X-93782269Y78206396D01*
X-93782269Y78206396D02*
X-93906078Y78020681D01*
X-93906078Y78020681D02*
X-94029888Y77896872D01*
X-94029888Y77896872D02*
X-94153697Y77834967D01*
D10*
D11*
X-44153697Y78082586D02*
X-44091793Y78144491D01*
X-44091793Y78144491D02*
X-43967983Y78206396D01*
X-43967983Y78206396D02*
X-43658459Y78206396D01*
X-43658459Y78206396D02*
X-43534650Y78144491D01*
X-43534650Y78144491D02*
X-43472745Y78082586D01*
X-43472745Y78082586D02*
X-43410840Y77958777D01*
X-43410840Y77958777D02*
X-43410840Y77834967D01*
X-43410840Y77834967D02*
X-43472745Y77649253D01*
X-43472745Y77649253D02*
X-44215602Y76906396D01*
X-44215602Y76906396D02*
X-43410840Y76906396D01*
D10*
D11*
X5784398Y78206396D02*
X6589160Y78206396D01*
X6589160Y78206396D02*
X6155826Y77711158D01*
X6155826Y77711158D02*
X6341541Y77711158D01*
X6341541Y77711158D02*
X6465350Y77649253D01*
X6465350Y77649253D02*
X6527255Y77587348D01*
X6527255Y77587348D02*
X6589160Y77463539D01*
X6589160Y77463539D02*
X6589160Y77154015D01*
X6589160Y77154015D02*
X6527255Y77030205D01*
X6527255Y77030205D02*
X6465350Y76968300D01*
X6465350Y76968300D02*
X6341541Y76906396D01*
X6341541Y76906396D02*
X5970112Y76906396D01*
X5970112Y76906396D02*
X5846303Y76968300D01*
X5846303Y76968300D02*
X5784398Y77030205D01*
D10*
D11*
X56465350Y77773062D02*
X56465350Y76906396D01*
X56155826Y78268300D02*
X55846303Y77339729D01*
X55846303Y77339729D02*
X56651064Y77339729D01*
D10*
D11*
X106527255Y78206396D02*
X105908207Y78206396D01*
X105908207Y78206396D02*
X105846303Y77587348D01*
X105846303Y77587348D02*
X105908207Y77649253D01*
X105908207Y77649253D02*
X106032017Y77711158D01*
X106032017Y77711158D02*
X106341541Y77711158D01*
X106341541Y77711158D02*
X106465350Y77649253D01*
X106465350Y77649253D02*
X106527255Y77587348D01*
X106527255Y77587348D02*
X106589160Y77463539D01*
X106589160Y77463539D02*
X106589160Y77154015D01*
X106589160Y77154015D02*
X106527255Y77030205D01*
X106527255Y77030205D02*
X106465350Y76968300D01*
X106465350Y76968300D02*
X106341541Y76906396D01*
X106341541Y76906396D02*
X106032017Y76906396D01*
X106032017Y76906396D02*
X105908207Y76968300D01*
X105908207Y76968300D02*
X105846303Y77030205D01*
D10*
D11*
X156465350Y78206396D02*
X156217731Y78206396D01*
X156217731Y78206396D02*
X156093922Y78144491D01*
X156093922Y78144491D02*
X156032017Y78082586D01*
X156032017Y78082586D02*
X155908207Y77896872D01*
X155908207Y77896872D02*
X155846303Y77649253D01*
X155846303Y77649253D02*
X155846303Y77154015D01*
X155846303Y77154015D02*
X155908207Y77030205D01*
X155908207Y77030205D02*
X155970112Y76968300D01*
X155970112Y76968300D02*
X156093922Y76906396D01*
X156093922Y76906396D02*
X156341541Y76906396D01*
X156341541Y76906396D02*
X156465350Y76968300D01*
X156465350Y76968300D02*
X156527255Y77030205D01*
X156527255Y77030205D02*
X156589160Y77154015D01*
X156589160Y77154015D02*
X156589160Y77463539D01*
X156589160Y77463539D02*
X156527255Y77587348D01*
X156527255Y77587348D02*
X156465350Y77649253D01*
X156465350Y77649253D02*
X156341541Y77711158D01*
X156341541Y77711158D02*
X156093922Y77711158D01*
X156093922Y77711158D02*
X155970112Y77649253D01*
X155970112Y77649253D02*
X155908207Y77587348D01*
X155908207Y77587348D02*
X155846303Y77463539D01*
D10*
D11*
X-69500000Y-109507200D02*
X-69500000Y-111507200D01*
D10*
D11*
X-19500000Y-109507200D02*
X-19500000Y-111507200D01*
D10*
D11*
X30500000Y-109507200D02*
X30500000Y-111507200D01*
D10*
D11*
X80500000Y-109507200D02*
X80500000Y-111507200D01*
D10*
D11*
X130500000Y-109507200D02*
X130500000Y-111507200D01*
D10*
D11*
X-93410840Y-111100804D02*
X-94153697Y-111100804D01*
X-93782269Y-111100804D02*
X-93782269Y-109800804D01*
X-93782269Y-109800804D02*
X-93906078Y-109986519D01*
X-93906078Y-109986519D02*
X-94029888Y-110110328D01*
X-94029888Y-110110328D02*
X-94153697Y-110172233D01*
D10*
D11*
X-44153697Y-109924614D02*
X-44091793Y-109862709D01*
X-44091793Y-109862709D02*
X-43967983Y-109800804D01*
X-43967983Y-109800804D02*
X-43658459Y-109800804D01*
X-43658459Y-109800804D02*
X-43534650Y-109862709D01*
X-43534650Y-109862709D02*
X-43472745Y-109924614D01*
X-43472745Y-109924614D02*
X-43410840Y-110048423D01*
X-43410840Y-110048423D02*
X-43410840Y-110172233D01*
X-43410840Y-110172233D02*
X-43472745Y-110357947D01*
X-43472745Y-110357947D02*
X-44215602Y-111100804D01*
X-44215602Y-111100804D02*
X-43410840Y-111100804D01*
D10*
D11*
X5784398Y-109800804D02*
X6589160Y-109800804D01*
X6589160Y-109800804D02*
X6155826Y-110296042D01*
X6155826Y-110296042D02*
X6341541Y-110296042D01*
X6341541Y-110296042D02*
X6465350Y-110357947D01*
X6465350Y-110357947D02*
X6527255Y-110419852D01*
X6527255Y-110419852D02*
X6589160Y-110543661D01*
X6589160Y-110543661D02*
X6589160Y-110853185D01*
X6589160Y-110853185D02*
X6527255Y-110976995D01*
X6527255Y-110976995D02*
X6465350Y-111038900D01*
X6465350Y-111038900D02*
X6341541Y-111100804D01*
X6341541Y-111100804D02*
X5970112Y-111100804D01*
X5970112Y-111100804D02*
X5846303Y-111038900D01*
X5846303Y-111038900D02*
X5784398Y-110976995D01*
D10*
D11*
X56465350Y-110234138D02*
X56465350Y-111100804D01*
X56155826Y-109738900D02*
X55846303Y-110667471D01*
X55846303Y-110667471D02*
X56651064Y-110667471D01*
D10*
D11*
X106527255Y-109800804D02*
X105908207Y-109800804D01*
X105908207Y-109800804D02*
X105846303Y-110419852D01*
X105846303Y-110419852D02*
X105908207Y-110357947D01*
X105908207Y-110357947D02*
X106032017Y-110296042D01*
X106032017Y-110296042D02*
X106341541Y-110296042D01*
X106341541Y-110296042D02*
X106465350Y-110357947D01*
X106465350Y-110357947D02*
X106527255Y-110419852D01*
X106527255Y-110419852D02*
X106589160Y-110543661D01*
X106589160Y-110543661D02*
X106589160Y-110853185D01*
X106589160Y-110853185D02*
X106527255Y-110976995D01*
X106527255Y-110976995D02*
X106465350Y-111038900D01*
X106465350Y-111038900D02*
X106341541Y-111100804D01*
X106341541Y-111100804D02*
X106032017Y-111100804D01*
X106032017Y-111100804D02*
X105908207Y-111038900D01*
X105908207Y-111038900D02*
X105846303Y-110976995D01*
D10*
D11*
X156465350Y-109800804D02*
X156217731Y-109800804D01*
X156217731Y-109800804D02*
X156093922Y-109862709D01*
X156093922Y-109862709D02*
X156032017Y-109924614D01*
X156032017Y-109924614D02*
X155908207Y-110110328D01*
X155908207Y-110110328D02*
X155846303Y-110357947D01*
X155846303Y-110357947D02*
X155846303Y-110853185D01*
X155846303Y-110853185D02*
X155908207Y-110976995D01*
X155908207Y-110976995D02*
X155970112Y-111038900D01*
X155970112Y-111038900D02*
X156093922Y-111100804D01*
X156093922Y-111100804D02*
X156341541Y-111100804D01*
X156341541Y-111100804D02*
X156465350Y-111038900D01*
X156465350Y-111038900D02*
X156527255Y-110976995D01*
X156527255Y-110976995D02*
X156589160Y-110853185D01*
X156589160Y-110853185D02*
X156589160Y-110543661D01*
X156589160Y-110543661D02*
X156527255Y-110419852D01*
X156527255Y-110419852D02*
X156465350Y-110357947D01*
X156465350Y-110357947D02*
X156341541Y-110296042D01*
X156341541Y-110296042D02*
X156093922Y-110296042D01*
X156093922Y-110296042D02*
X155970112Y-110357947D01*
X155970112Y-110357947D02*
X155908207Y-110419852D01*
X155908207Y-110419852D02*
X155846303Y-110543661D01*
D10*
D11*
X-119500000Y28500000D02*
X-117500000Y28500000D01*
D10*
D11*
X-119500000Y-21500000D02*
X-117500000Y-21500000D01*
D10*
D11*
X-119500000Y-71500000D02*
X-117500000Y-71500000D01*
D10*
D11*
X-118809524Y53277824D02*
X-118190477Y53277824D01*
X-118933334Y52906396D02*
X-118500001Y54206396D01*
X-118500001Y54206396D02*
X-118066667Y52906396D01*
D10*
D11*
X-118407143Y3587348D02*
X-118221429Y3525443D01*
X-118221429Y3525443D02*
X-118159524Y3463539D01*
X-118159524Y3463539D02*
X-118097620Y3339729D01*
X-118097620Y3339729D02*
X-118097620Y3154015D01*
X-118097620Y3154015D02*
X-118159524Y3030205D01*
X-118159524Y3030205D02*
X-118221429Y2968300D01*
X-118221429Y2968300D02*
X-118345239Y2906396D01*
X-118345239Y2906396D02*
X-118840477Y2906396D01*
X-118840477Y2906396D02*
X-118840477Y4206396D01*
X-118840477Y4206396D02*
X-118407143Y4206396D01*
X-118407143Y4206396D02*
X-118283334Y4144491D01*
X-118283334Y4144491D02*
X-118221429Y4082586D01*
X-118221429Y4082586D02*
X-118159524Y3958777D01*
X-118159524Y3958777D02*
X-118159524Y3834967D01*
X-118159524Y3834967D02*
X-118221429Y3711158D01*
X-118221429Y3711158D02*
X-118283334Y3649253D01*
X-118283334Y3649253D02*
X-118407143Y3587348D01*
X-118407143Y3587348D02*
X-118840477Y3587348D01*
D10*
D11*
X-118097620Y-46969795D02*
X-118159524Y-47031700D01*
X-118159524Y-47031700D02*
X-118345239Y-47093604D01*
X-118345239Y-47093604D02*
X-118469048Y-47093604D01*
X-118469048Y-47093604D02*
X-118654762Y-47031700D01*
X-118654762Y-47031700D02*
X-118778572Y-46907890D01*
X-118778572Y-46907890D02*
X-118840477Y-46784080D01*
X-118840477Y-46784080D02*
X-118902381Y-46536461D01*
X-118902381Y-46536461D02*
X-118902381Y-46350747D01*
X-118902381Y-46350747D02*
X-118840477Y-46103128D01*
X-118840477Y-46103128D02*
X-118778572Y-45979319D01*
X-118778572Y-45979319D02*
X-118654762Y-45855509D01*
X-118654762Y-45855509D02*
X-118469048Y-45793604D01*
X-118469048Y-45793604D02*
X-118345239Y-45793604D01*
X-118345239Y-45793604D02*
X-118159524Y-45855509D01*
X-118159524Y-45855509D02*
X-118097620Y-45917414D01*
D10*
D11*
X-118840477Y-97093604D02*
X-118840477Y-95793604D01*
X-118840477Y-95793604D02*
X-118530953Y-95793604D01*
X-118530953Y-95793604D02*
X-118345239Y-95855509D01*
X-118345239Y-95855509D02*
X-118221429Y-95979319D01*
X-118221429Y-95979319D02*
X-118159524Y-96103128D01*
X-118159524Y-96103128D02*
X-118097620Y-96350747D01*
X-118097620Y-96350747D02*
X-118097620Y-96536461D01*
X-118097620Y-96536461D02*
X-118159524Y-96784080D01*
X-118159524Y-96784080D02*
X-118221429Y-96907890D01*
X-118221429Y-96907890D02*
X-118345239Y-97031700D01*
X-118345239Y-97031700D02*
X-118530953Y-97093604D01*
X-118530953Y-97093604D02*
X-118840477Y-97093604D01*
D10*
D11*
X157502200Y28500000D02*
X155502200Y28500000D01*
D10*
D11*
X157502200Y-21500000D02*
X155502200Y-21500000D01*
D10*
D11*
X157502200Y-71500000D02*
X155502200Y-71500000D01*
D10*
D11*
X156192676Y53277824D02*
X156811723Y53277824D01*
X156068866Y52906396D02*
X156502199Y54206396D01*
X156502199Y54206396D02*
X156935533Y52906396D01*
D10*
D11*
X156595057Y3587348D02*
X156780771Y3525443D01*
X156780771Y3525443D02*
X156842676Y3463539D01*
X156842676Y3463539D02*
X156904580Y3339729D01*
X156904580Y3339729D02*
X156904580Y3154015D01*
X156904580Y3154015D02*
X156842676Y3030205D01*
X156842676Y3030205D02*
X156780771Y2968300D01*
X156780771Y2968300D02*
X156656961Y2906396D01*
X156656961Y2906396D02*
X156161723Y2906396D01*
X156161723Y2906396D02*
X156161723Y4206396D01*
X156161723Y4206396D02*
X156595057Y4206396D01*
X156595057Y4206396D02*
X156718866Y4144491D01*
X156718866Y4144491D02*
X156780771Y4082586D01*
X156780771Y4082586D02*
X156842676Y3958777D01*
X156842676Y3958777D02*
X156842676Y3834967D01*
X156842676Y3834967D02*
X156780771Y3711158D01*
X156780771Y3711158D02*
X156718866Y3649253D01*
X156718866Y3649253D02*
X156595057Y3587348D01*
X156595057Y3587348D02*
X156161723Y3587348D01*
D10*
D11*
X156904580Y-46969795D02*
X156842676Y-47031700D01*
X156842676Y-47031700D02*
X156656961Y-47093604D01*
X156656961Y-47093604D02*
X156533152Y-47093604D01*
X156533152Y-47093604D02*
X156347438Y-47031700D01*
X156347438Y-47031700D02*
X156223628Y-46907890D01*
X156223628Y-46907890D02*
X156161723Y-46784080D01*
X156161723Y-46784080D02*
X156099819Y-46536461D01*
X156099819Y-46536461D02*
X156099819Y-46350747D01*
X156099819Y-46350747D02*
X156161723Y-46103128D01*
X156161723Y-46103128D02*
X156223628Y-45979319D01*
X156223628Y-45979319D02*
X156347438Y-45855509D01*
X156347438Y-45855509D02*
X156533152Y-45793604D01*
X156533152Y-45793604D02*
X156656961Y-45793604D01*
X156656961Y-45793604D02*
X156842676Y-45855509D01*
X156842676Y-45855509D02*
X156904580Y-45917414D01*
D10*
D11*
X156161723Y-97093604D02*
X156161723Y-95793604D01*
X156161723Y-95793604D02*
X156471247Y-95793604D01*
X156471247Y-95793604D02*
X156656961Y-95855509D01*
X156656961Y-95855509D02*
X156780771Y-95979319D01*
X156780771Y-95979319D02*
X156842676Y-96103128D01*
X156842676Y-96103128D02*
X156904580Y-96350747D01*
X156904580Y-96350747D02*
X156904580Y-96536461D01*
X156904580Y-96536461D02*
X156842676Y-96784080D01*
X156842676Y-96784080D02*
X156780771Y-96907890D01*
X156780771Y-96907890D02*
X156656961Y-97031700D01*
X156656961Y-97031700D02*
X156471247Y-97093604D01*
X156471247Y-97093604D02*
X156161723Y-97093604D01*
D10*
D11*
X70958026Y-105293328D02*
X70958026Y-103793328D01*
X70958026Y-103793328D02*
X71315169Y-103793328D01*
X71315169Y-103793328D02*
X71529455Y-103864757D01*
X71529455Y-103864757D02*
X71672312Y-104007614D01*
X71672312Y-104007614D02*
X71743741Y-104150471D01*
X71743741Y-104150471D02*
X71815169Y-104436185D01*
X71815169Y-104436185D02*
X71815169Y-104650471D01*
X71815169Y-104650471D02*
X71743741Y-104936185D01*
X71743741Y-104936185D02*
X71672312Y-105079042D01*
X71672312Y-105079042D02*
X71529455Y-105221900D01*
X71529455Y-105221900D02*
X71315169Y-105293328D01*
X71315169Y-105293328D02*
X70958026Y-105293328D01*
X73100884Y-105293328D02*
X73100884Y-104507614D01*
X73100884Y-104507614D02*
X73029455Y-104364757D01*
X73029455Y-104364757D02*
X72886598Y-104293328D01*
X72886598Y-104293328D02*
X72600884Y-104293328D01*
X72600884Y-104293328D02*
X72458026Y-104364757D01*
X73100884Y-105221900D02*
X72958026Y-105293328D01*
X72958026Y-105293328D02*
X72600884Y-105293328D01*
X72600884Y-105293328D02*
X72458026Y-105221900D01*
X72458026Y-105221900D02*
X72386598Y-105079042D01*
X72386598Y-105079042D02*
X72386598Y-104936185D01*
X72386598Y-104936185D02*
X72458026Y-104793328D01*
X72458026Y-104793328D02*
X72600884Y-104721900D01*
X72600884Y-104721900D02*
X72958026Y-104721900D01*
X72958026Y-104721900D02*
X73100884Y-104650471D01*
X73600884Y-104293328D02*
X74172312Y-104293328D01*
X73815169Y-103793328D02*
X73815169Y-105079042D01*
X73815169Y-105079042D02*
X73886598Y-105221900D01*
X73886598Y-105221900D02*
X74029455Y-105293328D01*
X74029455Y-105293328D02*
X74172312Y-105293328D01*
X75243741Y-105221900D02*
X75100884Y-105293328D01*
X75100884Y-105293328D02*
X74815170Y-105293328D01*
X74815170Y-105293328D02*
X74672312Y-105221900D01*
X74672312Y-105221900D02*
X74600884Y-105079042D01*
X74600884Y-105079042D02*
X74600884Y-104507614D01*
X74600884Y-104507614D02*
X74672312Y-104364757D01*
X74672312Y-104364757D02*
X74815170Y-104293328D01*
X74815170Y-104293328D02*
X75100884Y-104293328D01*
X75100884Y-104293328D02*
X75243741Y-104364757D01*
X75243741Y-104364757D02*
X75315170Y-104507614D01*
X75315170Y-104507614D02*
X75315170Y-104650471D01*
X75315170Y-104650471D02*
X74600884Y-104793328D01*
X75958026Y-105150471D02*
X76029455Y-105221900D01*
X76029455Y-105221900D02*
X75958026Y-105293328D01*
X75958026Y-105293328D02*
X75886598Y-105221900D01*
X75886598Y-105221900D02*
X75958026Y-105150471D01*
X75958026Y-105150471D02*
X75958026Y-105293328D01*
X75958026Y-104364757D02*
X76029455Y-104436185D01*
X76029455Y-104436185D02*
X75958026Y-104507614D01*
X75958026Y-104507614D02*
X75886598Y-104436185D01*
X75886598Y-104436185D02*
X75958026Y-104364757D01*
X75958026Y-104364757D02*
X75958026Y-104507614D01*
D10*
D11*
X47502200Y-106007200D02*
X155502200Y-106007200D01*
D10*
D11*
X48958026Y-108093328D02*
X48958026Y-106593328D01*
X49815169Y-108093328D02*
X49172312Y-107236185D01*
X49815169Y-106593328D02*
X48958026Y-107450471D01*
X50458026Y-108093328D02*
X50458026Y-107093328D01*
X50458026Y-106593328D02*
X50386598Y-106664757D01*
X50386598Y-106664757D02*
X50458026Y-106736185D01*
X50458026Y-106736185D02*
X50529455Y-106664757D01*
X50529455Y-106664757D02*
X50458026Y-106593328D01*
X50458026Y-106593328D02*
X50458026Y-106736185D01*
X52029455Y-107950471D02*
X51958027Y-108021900D01*
X51958027Y-108021900D02*
X51743741Y-108093328D01*
X51743741Y-108093328D02*
X51600884Y-108093328D01*
X51600884Y-108093328D02*
X51386598Y-108021900D01*
X51386598Y-108021900D02*
X51243741Y-107879042D01*
X51243741Y-107879042D02*
X51172312Y-107736185D01*
X51172312Y-107736185D02*
X51100884Y-107450471D01*
X51100884Y-107450471D02*
X51100884Y-107236185D01*
X51100884Y-107236185D02*
X51172312Y-106950471D01*
X51172312Y-106950471D02*
X51243741Y-106807614D01*
X51243741Y-106807614D02*
X51386598Y-106664757D01*
X51386598Y-106664757D02*
X51600884Y-106593328D01*
X51600884Y-106593328D02*
X51743741Y-106593328D01*
X51743741Y-106593328D02*
X51958027Y-106664757D01*
X51958027Y-106664757D02*
X52029455Y-106736185D01*
X53315170Y-108093328D02*
X53315170Y-107307614D01*
X53315170Y-107307614D02*
X53243741Y-107164757D01*
X53243741Y-107164757D02*
X53100884Y-107093328D01*
X53100884Y-107093328D02*
X52815170Y-107093328D01*
X52815170Y-107093328D02*
X52672312Y-107164757D01*
X53315170Y-108021900D02*
X53172312Y-108093328D01*
X53172312Y-108093328D02*
X52815170Y-108093328D01*
X52815170Y-108093328D02*
X52672312Y-108021900D01*
X52672312Y-108021900D02*
X52600884Y-107879042D01*
X52600884Y-107879042D02*
X52600884Y-107736185D01*
X52600884Y-107736185D02*
X52672312Y-107593328D01*
X52672312Y-107593328D02*
X52815170Y-107521900D01*
X52815170Y-107521900D02*
X53172312Y-107521900D01*
X53172312Y-107521900D02*
X53315170Y-107450471D01*
X54672313Y-108093328D02*
X54672313Y-106593328D01*
X54672313Y-108021900D02*
X54529455Y-108093328D01*
X54529455Y-108093328D02*
X54243741Y-108093328D01*
X54243741Y-108093328D02*
X54100884Y-108021900D01*
X54100884Y-108021900D02*
X54029455Y-107950471D01*
X54029455Y-107950471D02*
X53958027Y-107807614D01*
X53958027Y-107807614D02*
X53958027Y-107379042D01*
X53958027Y-107379042D02*
X54029455Y-107236185D01*
X54029455Y-107236185D02*
X54100884Y-107164757D01*
X54100884Y-107164757D02*
X54243741Y-107093328D01*
X54243741Y-107093328D02*
X54529455Y-107093328D01*
X54529455Y-107093328D02*
X54672313Y-107164757D01*
X56529455Y-107307614D02*
X57029455Y-107307614D01*
X57243741Y-108093328D02*
X56529455Y-108093328D01*
X56529455Y-108093328D02*
X56529455Y-106593328D01*
X56529455Y-106593328D02*
X57243741Y-106593328D01*
X57886598Y-107950471D02*
X57958027Y-108021900D01*
X57958027Y-108021900D02*
X57886598Y-108093328D01*
X57886598Y-108093328D02*
X57815170Y-108021900D01*
X57815170Y-108021900D02*
X57886598Y-107950471D01*
X57886598Y-107950471D02*
X57886598Y-108093328D01*
X58600884Y-108093328D02*
X58600884Y-106593328D01*
X58600884Y-106593328D02*
X58958027Y-106593328D01*
X58958027Y-106593328D02*
X59172313Y-106664757D01*
X59172313Y-106664757D02*
X59315170Y-106807614D01*
X59315170Y-106807614D02*
X59386599Y-106950471D01*
X59386599Y-106950471D02*
X59458027Y-107236185D01*
X59458027Y-107236185D02*
X59458027Y-107450471D01*
X59458027Y-107450471D02*
X59386599Y-107736185D01*
X59386599Y-107736185D02*
X59315170Y-107879042D01*
X59315170Y-107879042D02*
X59172313Y-108021900D01*
X59172313Y-108021900D02*
X58958027Y-108093328D01*
X58958027Y-108093328D02*
X58600884Y-108093328D01*
X60100884Y-107950471D02*
X60172313Y-108021900D01*
X60172313Y-108021900D02*
X60100884Y-108093328D01*
X60100884Y-108093328D02*
X60029456Y-108021900D01*
X60029456Y-108021900D02*
X60100884Y-107950471D01*
X60100884Y-107950471D02*
X60100884Y-108093328D01*
X60743742Y-107664757D02*
X61458028Y-107664757D01*
X60600885Y-108093328D02*
X61100885Y-106593328D01*
X61100885Y-106593328D02*
X61600885Y-108093328D01*
X62100884Y-107950471D02*
X62172313Y-108021900D01*
X62172313Y-108021900D02*
X62100884Y-108093328D01*
X62100884Y-108093328D02*
X62029456Y-108021900D01*
X62029456Y-108021900D02*
X62100884Y-107950471D01*
X62100884Y-107950471D02*
X62100884Y-108093328D01*
X64029456Y-108093328D02*
X64315170Y-108093328D01*
X64315170Y-108093328D02*
X64458027Y-108021900D01*
X64458027Y-108021900D02*
X64529456Y-107950471D01*
X64529456Y-107950471D02*
X64672313Y-107736185D01*
X64672313Y-107736185D02*
X64743742Y-107450471D01*
X64743742Y-107450471D02*
X64743742Y-106879042D01*
X64743742Y-106879042D02*
X64672313Y-106736185D01*
X64672313Y-106736185D02*
X64600885Y-106664757D01*
X64600885Y-106664757D02*
X64458027Y-106593328D01*
X64458027Y-106593328D02*
X64172313Y-106593328D01*
X64172313Y-106593328D02*
X64029456Y-106664757D01*
X64029456Y-106664757D02*
X63958027Y-106736185D01*
X63958027Y-106736185D02*
X63886599Y-106879042D01*
X63886599Y-106879042D02*
X63886599Y-107236185D01*
X63886599Y-107236185D02*
X63958027Y-107379042D01*
X63958027Y-107379042D02*
X64029456Y-107450471D01*
X64029456Y-107450471D02*
X64172313Y-107521900D01*
X64172313Y-107521900D02*
X64458027Y-107521900D01*
X64458027Y-107521900D02*
X64600885Y-107450471D01*
X64600885Y-107450471D02*
X64672313Y-107379042D01*
X64672313Y-107379042D02*
X64743742Y-107236185D01*
X65386598Y-107950471D02*
X65458027Y-108021900D01*
X65458027Y-108021900D02*
X65386598Y-108093328D01*
X65386598Y-108093328D02*
X65315170Y-108021900D01*
X65315170Y-108021900D02*
X65386598Y-107950471D01*
X65386598Y-107950471D02*
X65386598Y-108093328D01*
X66386599Y-106593328D02*
X66529456Y-106593328D01*
X66529456Y-106593328D02*
X66672313Y-106664757D01*
X66672313Y-106664757D02*
X66743742Y-106736185D01*
X66743742Y-106736185D02*
X66815170Y-106879042D01*
X66815170Y-106879042D02*
X66886599Y-107164757D01*
X66886599Y-107164757D02*
X66886599Y-107521900D01*
X66886599Y-107521900D02*
X66815170Y-107807614D01*
X66815170Y-107807614D02*
X66743742Y-107950471D01*
X66743742Y-107950471D02*
X66672313Y-108021900D01*
X66672313Y-108021900D02*
X66529456Y-108093328D01*
X66529456Y-108093328D02*
X66386599Y-108093328D01*
X66386599Y-108093328D02*
X66243742Y-108021900D01*
X66243742Y-108021900D02*
X66172313Y-107950471D01*
X66172313Y-107950471D02*
X66100884Y-107807614D01*
X66100884Y-107807614D02*
X66029456Y-107521900D01*
X66029456Y-107521900D02*
X66029456Y-107164757D01*
X66029456Y-107164757D02*
X66100884Y-106879042D01*
X66100884Y-106879042D02*
X66172313Y-106736185D01*
X66172313Y-106736185D02*
X66243742Y-106664757D01*
X66243742Y-106664757D02*
X66386599Y-106593328D01*
X67529455Y-107950471D02*
X67600884Y-108021900D01*
X67600884Y-108021900D02*
X67529455Y-108093328D01*
X67529455Y-108093328D02*
X67458027Y-108021900D01*
X67458027Y-108021900D02*
X67529455Y-107950471D01*
X67529455Y-107950471D02*
X67529455Y-108093328D01*
X68886599Y-106593328D02*
X68600884Y-106593328D01*
X68600884Y-106593328D02*
X68458027Y-106664757D01*
X68458027Y-106664757D02*
X68386599Y-106736185D01*
X68386599Y-106736185D02*
X68243741Y-106950471D01*
X68243741Y-106950471D02*
X68172313Y-107236185D01*
X68172313Y-107236185D02*
X68172313Y-107807614D01*
X68172313Y-107807614D02*
X68243741Y-107950471D01*
X68243741Y-107950471D02*
X68315170Y-108021900D01*
X68315170Y-108021900D02*
X68458027Y-108093328D01*
X68458027Y-108093328D02*
X68743741Y-108093328D01*
X68743741Y-108093328D02*
X68886599Y-108021900D01*
X68886599Y-108021900D02*
X68958027Y-107950471D01*
X68958027Y-107950471D02*
X69029456Y-107807614D01*
X69029456Y-107807614D02*
X69029456Y-107450471D01*
X69029456Y-107450471D02*
X68958027Y-107307614D01*
X68958027Y-107307614D02*
X68886599Y-107236185D01*
X68886599Y-107236185D02*
X68743741Y-107164757D01*
X68743741Y-107164757D02*
X68458027Y-107164757D01*
X68458027Y-107164757D02*
X68315170Y-107236185D01*
X68315170Y-107236185D02*
X68243741Y-107307614D01*
X68243741Y-107307614D02*
X68172313Y-107450471D01*
D10*
D11*
X47502200Y-103007200D02*
X155502200Y-103007200D01*
D10*
D12*
X134913853Y-105285528D02*
X134413853Y-104571242D01*
X134056710Y-105285528D02*
X134056710Y-103785528D01*
X134056710Y-103785528D02*
X134628139Y-103785528D01*
X134628139Y-103785528D02*
X134770996Y-103856957D01*
X134770996Y-103856957D02*
X134842425Y-103928385D01*
X134842425Y-103928385D02*
X134913853Y-104071242D01*
X134913853Y-104071242D02*
X134913853Y-104285528D01*
X134913853Y-104285528D02*
X134842425Y-104428385D01*
X134842425Y-104428385D02*
X134770996Y-104499814D01*
X134770996Y-104499814D02*
X134628139Y-104571242D01*
X134628139Y-104571242D02*
X134056710Y-104571242D01*
X136128139Y-105214100D02*
X135985282Y-105285528D01*
X135985282Y-105285528D02*
X135699568Y-105285528D01*
X135699568Y-105285528D02*
X135556710Y-105214100D01*
X135556710Y-105214100D02*
X135485282Y-105071242D01*
X135485282Y-105071242D02*
X135485282Y-104499814D01*
X135485282Y-104499814D02*
X135556710Y-104356957D01*
X135556710Y-104356957D02*
X135699568Y-104285528D01*
X135699568Y-104285528D02*
X135985282Y-104285528D01*
X135985282Y-104285528D02*
X136128139Y-104356957D01*
X136128139Y-104356957D02*
X136199568Y-104499814D01*
X136199568Y-104499814D02*
X136199568Y-104642671D01*
X136199568Y-104642671D02*
X135485282Y-104785528D01*
X136699567Y-104285528D02*
X137056710Y-105285528D01*
X137056710Y-105285528D02*
X137413853Y-104285528D01*
X137985281Y-105142671D02*
X138056710Y-105214100D01*
X138056710Y-105214100D02*
X137985281Y-105285528D01*
X137985281Y-105285528D02*
X137913853Y-105214100D01*
X137913853Y-105214100D02*
X137985281Y-105142671D01*
X137985281Y-105142671D02*
X137985281Y-105285528D01*
X137985281Y-104356957D02*
X138056710Y-104428385D01*
X138056710Y-104428385D02*
X137985281Y-104499814D01*
X137985281Y-104499814D02*
X137913853Y-104428385D01*
X137913853Y-104428385D02*
X137985281Y-104356957D01*
X137985281Y-104356957D02*
X137985281Y-104499814D01*
D10*
D11*
X48886598Y-105221900D02*
X49100884Y-105293328D01*
X49100884Y-105293328D02*
X49458026Y-105293328D01*
X49458026Y-105293328D02*
X49600884Y-105221900D01*
X49600884Y-105221900D02*
X49672312Y-105150471D01*
X49672312Y-105150471D02*
X49743741Y-105007614D01*
X49743741Y-105007614D02*
X49743741Y-104864757D01*
X49743741Y-104864757D02*
X49672312Y-104721900D01*
X49672312Y-104721900D02*
X49600884Y-104650471D01*
X49600884Y-104650471D02*
X49458026Y-104579042D01*
X49458026Y-104579042D02*
X49172312Y-104507614D01*
X49172312Y-104507614D02*
X49029455Y-104436185D01*
X49029455Y-104436185D02*
X48958026Y-104364757D01*
X48958026Y-104364757D02*
X48886598Y-104221900D01*
X48886598Y-104221900D02*
X48886598Y-104079042D01*
X48886598Y-104079042D02*
X48958026Y-103936185D01*
X48958026Y-103936185D02*
X49029455Y-103864757D01*
X49029455Y-103864757D02*
X49172312Y-103793328D01*
X49172312Y-103793328D02*
X49529455Y-103793328D01*
X49529455Y-103793328D02*
X49743741Y-103864757D01*
X50386597Y-105293328D02*
X50386597Y-104293328D01*
X50386597Y-103793328D02*
X50315169Y-103864757D01*
X50315169Y-103864757D02*
X50386597Y-103936185D01*
X50386597Y-103936185D02*
X50458026Y-103864757D01*
X50458026Y-103864757D02*
X50386597Y-103793328D01*
X50386597Y-103793328D02*
X50386597Y-103936185D01*
X50958026Y-104293328D02*
X51743741Y-104293328D01*
X51743741Y-104293328D02*
X50958026Y-105293328D01*
X50958026Y-105293328D02*
X51743741Y-105293328D01*
X52886598Y-105221900D02*
X52743741Y-105293328D01*
X52743741Y-105293328D02*
X52458027Y-105293328D01*
X52458027Y-105293328D02*
X52315169Y-105221900D01*
X52315169Y-105221900D02*
X52243741Y-105079042D01*
X52243741Y-105079042D02*
X52243741Y-104507614D01*
X52243741Y-104507614D02*
X52315169Y-104364757D01*
X52315169Y-104364757D02*
X52458027Y-104293328D01*
X52458027Y-104293328D02*
X52743741Y-104293328D01*
X52743741Y-104293328D02*
X52886598Y-104364757D01*
X52886598Y-104364757D02*
X52958027Y-104507614D01*
X52958027Y-104507614D02*
X52958027Y-104650471D01*
X52958027Y-104650471D02*
X52243741Y-104793328D01*
X53600883Y-105150471D02*
X53672312Y-105221900D01*
X53672312Y-105221900D02*
X53600883Y-105293328D01*
X53600883Y-105293328D02*
X53529455Y-105221900D01*
X53529455Y-105221900D02*
X53600883Y-105150471D01*
X53600883Y-105150471D02*
X53600883Y-105293328D01*
X53600883Y-104364757D02*
X53672312Y-104436185D01*
X53672312Y-104436185D02*
X53600883Y-104507614D01*
X53600883Y-104507614D02*
X53529455Y-104436185D01*
X53529455Y-104436185D02*
X53600883Y-104364757D01*
X53600883Y-104364757D02*
X53600883Y-104507614D01*
X55386598Y-104864757D02*
X56100884Y-104864757D01*
X55243741Y-105293328D02*
X55743741Y-103793328D01*
X55743741Y-103793328D02*
X56243741Y-105293328D01*
X57386598Y-104293328D02*
X57386598Y-105293328D01*
X57029455Y-103721900D02*
X56672312Y-104793328D01*
X56672312Y-104793328D02*
X57600883Y-104793328D01*
D10*
D11*
X133958026Y-108093328D02*
X133958026Y-106593328D01*
X135315170Y-108093328D02*
X135315170Y-106593328D01*
X135315170Y-108021900D02*
X135172312Y-108093328D01*
X135172312Y-108093328D02*
X134886598Y-108093328D01*
X134886598Y-108093328D02*
X134743741Y-108021900D01*
X134743741Y-108021900D02*
X134672312Y-107950471D01*
X134672312Y-107950471D02*
X134600884Y-107807614D01*
X134600884Y-107807614D02*
X134600884Y-107379042D01*
X134600884Y-107379042D02*
X134672312Y-107236185D01*
X134672312Y-107236185D02*
X134743741Y-107164757D01*
X134743741Y-107164757D02*
X134886598Y-107093328D01*
X134886598Y-107093328D02*
X135172312Y-107093328D01*
X135172312Y-107093328D02*
X135315170Y-107164757D01*
X136029455Y-107950471D02*
X136100884Y-108021900D01*
X136100884Y-108021900D02*
X136029455Y-108093328D01*
X136029455Y-108093328D02*
X135958027Y-108021900D01*
X135958027Y-108021900D02*
X136029455Y-107950471D01*
X136029455Y-107950471D02*
X136029455Y-108093328D01*
X136029455Y-107164757D02*
X136100884Y-107236185D01*
X136100884Y-107236185D02*
X136029455Y-107307614D01*
X136029455Y-107307614D02*
X135958027Y-107236185D01*
X135958027Y-107236185D02*
X136029455Y-107164757D01*
X136029455Y-107164757D02*
X136029455Y-107307614D01*
X138672313Y-108093328D02*
X137815170Y-108093328D01*
X138243741Y-108093328D02*
X138243741Y-106593328D01*
X138243741Y-106593328D02*
X138100884Y-106807614D01*
X138100884Y-106807614D02*
X137958027Y-106950471D01*
X137958027Y-106950471D02*
X137815170Y-107021900D01*
X140100884Y-108093328D02*
X139243741Y-108093328D01*
X139672312Y-108093328D02*
X139672312Y-106593328D01*
X139672312Y-106593328D02*
X139529455Y-106807614D01*
X139529455Y-106807614D02*
X139386598Y-106950471D01*
X139386598Y-106950471D02*
X139243741Y-107021900D01*
X141815169Y-106521900D02*
X140529455Y-108450471D01*
X143100884Y-108093328D02*
X142243741Y-108093328D01*
X142672312Y-108093328D02*
X142672312Y-106593328D01*
X142672312Y-106593328D02*
X142529455Y-106807614D01*
X142529455Y-106807614D02*
X142386598Y-106950471D01*
X142386598Y-106950471D02*
X142243741Y-107021900D01*
X144386598Y-106593328D02*
X144100883Y-106593328D01*
X144100883Y-106593328D02*
X143958026Y-106664757D01*
X143958026Y-106664757D02*
X143886598Y-106736185D01*
X143886598Y-106736185D02*
X143743740Y-106950471D01*
X143743740Y-106950471D02*
X143672312Y-107236185D01*
X143672312Y-107236185D02*
X143672312Y-107807614D01*
X143672312Y-107807614D02*
X143743740Y-107950471D01*
X143743740Y-107950471D02*
X143815169Y-108021900D01*
X143815169Y-108021900D02*
X143958026Y-108093328D01*
X143958026Y-108093328D02*
X144243740Y-108093328D01*
X144243740Y-108093328D02*
X144386598Y-108021900D01*
X144386598Y-108021900D02*
X144458026Y-107950471D01*
X144458026Y-107950471D02*
X144529455Y-107807614D01*
X144529455Y-107807614D02*
X144529455Y-107450471D01*
X144529455Y-107450471D02*
X144458026Y-107307614D01*
X144458026Y-107307614D02*
X144386598Y-107236185D01*
X144386598Y-107236185D02*
X144243740Y-107164757D01*
X144243740Y-107164757D02*
X143958026Y-107164757D01*
X143958026Y-107164757D02*
X143815169Y-107236185D01*
X143815169Y-107236185D02*
X143743740Y-107307614D01*
X143743740Y-107307614D02*
X143672312Y-107450471D01*
D10*
D11*
X47502200Y-99007200D02*
X155502200Y-99007200D01*
D10*
D13*
X49193928Y-99711638D02*
X50336785Y-99711638D01*
X49515357Y-101711638D02*
X49765357Y-99711638D01*
X50753452Y-101711638D02*
X50920119Y-100378304D01*
X51003452Y-99711638D02*
X50896309Y-99806876D01*
X50896309Y-99806876D02*
X50979643Y-99902114D01*
X50979643Y-99902114D02*
X51086786Y-99806876D01*
X51086786Y-99806876D02*
X51003452Y-99711638D01*
X51003452Y-99711638D02*
X50979643Y-99902114D01*
X51586786Y-100378304D02*
X52348690Y-100378304D01*
X51955833Y-99711638D02*
X51741548Y-101425923D01*
X51741548Y-101425923D02*
X51812976Y-101616400D01*
X51812976Y-101616400D02*
X51991548Y-101711638D01*
X51991548Y-101711638D02*
X52182024Y-101711638D01*
X53134405Y-101711638D02*
X52955833Y-101616400D01*
X52955833Y-101616400D02*
X52884405Y-101425923D01*
X52884405Y-101425923D02*
X53098690Y-99711638D01*
X54670119Y-101616400D02*
X54467738Y-101711638D01*
X54467738Y-101711638D02*
X54086785Y-101711638D01*
X54086785Y-101711638D02*
X53908214Y-101616400D01*
X53908214Y-101616400D02*
X53836785Y-101425923D01*
X53836785Y-101425923D02*
X53932024Y-100664019D01*
X53932024Y-100664019D02*
X54051071Y-100473542D01*
X54051071Y-100473542D02*
X54253452Y-100378304D01*
X54253452Y-100378304D02*
X54634404Y-100378304D01*
X54634404Y-100378304D02*
X54812976Y-100473542D01*
X54812976Y-100473542D02*
X54884404Y-100664019D01*
X54884404Y-100664019D02*
X54860595Y-100854495D01*
X54860595Y-100854495D02*
X53884404Y-101044971D01*
X55634405Y-101521161D02*
X55717738Y-101616400D01*
X55717738Y-101616400D02*
X55610595Y-101711638D01*
X55610595Y-101711638D02*
X55527262Y-101616400D01*
X55527262Y-101616400D02*
X55634405Y-101521161D01*
X55634405Y-101521161D02*
X55610595Y-101711638D01*
X55765357Y-100473542D02*
X55848690Y-100568780D01*
X55848690Y-100568780D02*
X55741548Y-100664019D01*
X55741548Y-100664019D02*
X55658214Y-100568780D01*
X55658214Y-100568780D02*
X55765357Y-100473542D01*
X55765357Y-100473542D02*
X55741548Y-100664019D01*
D10*
D11*
X49458026Y-97107614D02*
X48958026Y-97107614D01*
X48958026Y-97893328D02*
X48958026Y-96393328D01*
X48958026Y-96393328D02*
X49672312Y-96393328D01*
X50243740Y-97893328D02*
X50243740Y-96893328D01*
X50243740Y-96393328D02*
X50172312Y-96464757D01*
X50172312Y-96464757D02*
X50243740Y-96536185D01*
X50243740Y-96536185D02*
X50315169Y-96464757D01*
X50315169Y-96464757D02*
X50243740Y-96393328D01*
X50243740Y-96393328D02*
X50243740Y-96536185D01*
X51172312Y-97893328D02*
X51029455Y-97821900D01*
X51029455Y-97821900D02*
X50958026Y-97679042D01*
X50958026Y-97679042D02*
X50958026Y-96393328D01*
X52315169Y-97821900D02*
X52172312Y-97893328D01*
X52172312Y-97893328D02*
X51886598Y-97893328D01*
X51886598Y-97893328D02*
X51743740Y-97821900D01*
X51743740Y-97821900D02*
X51672312Y-97679042D01*
X51672312Y-97679042D02*
X51672312Y-97107614D01*
X51672312Y-97107614D02*
X51743740Y-96964757D01*
X51743740Y-96964757D02*
X51886598Y-96893328D01*
X51886598Y-96893328D02*
X52172312Y-96893328D01*
X52172312Y-96893328D02*
X52315169Y-96964757D01*
X52315169Y-96964757D02*
X52386598Y-97107614D01*
X52386598Y-97107614D02*
X52386598Y-97250471D01*
X52386598Y-97250471D02*
X51672312Y-97393328D01*
X53029454Y-97750471D02*
X53100883Y-97821900D01*
X53100883Y-97821900D02*
X53029454Y-97893328D01*
X53029454Y-97893328D02*
X52958026Y-97821900D01*
X52958026Y-97821900D02*
X53029454Y-97750471D01*
X53029454Y-97750471D02*
X53029454Y-97893328D01*
X53029454Y-96964757D02*
X53100883Y-97036185D01*
X53100883Y-97036185D02*
X53029454Y-97107614D01*
X53029454Y-97107614D02*
X52958026Y-97036185D01*
X52958026Y-97036185D02*
X53029454Y-96964757D01*
X53029454Y-96964757D02*
X53029454Y-97107614D01*
X54886597Y-97893328D02*
X54886597Y-96393328D01*
X54886597Y-97107614D02*
X55743740Y-97107614D01*
X55743740Y-97893328D02*
X55743740Y-96393328D01*
X57100884Y-97893328D02*
X57100884Y-97107614D01*
X57100884Y-97107614D02*
X57029455Y-96964757D01*
X57029455Y-96964757D02*
X56886598Y-96893328D01*
X56886598Y-96893328D02*
X56600884Y-96893328D01*
X56600884Y-96893328D02*
X56458026Y-96964757D01*
X57100884Y-97821900D02*
X56958026Y-97893328D01*
X56958026Y-97893328D02*
X56600884Y-97893328D01*
X56600884Y-97893328D02*
X56458026Y-97821900D01*
X56458026Y-97821900D02*
X56386598Y-97679042D01*
X56386598Y-97679042D02*
X56386598Y-97536185D01*
X56386598Y-97536185D02*
X56458026Y-97393328D01*
X56458026Y-97393328D02*
X56600884Y-97321900D01*
X56600884Y-97321900D02*
X56958026Y-97321900D01*
X56958026Y-97321900D02*
X57100884Y-97250471D01*
X57815169Y-97893328D02*
X57815169Y-96893328D01*
X57815169Y-97179042D02*
X57886598Y-97036185D01*
X57886598Y-97036185D02*
X57958027Y-96964757D01*
X57958027Y-96964757D02*
X58100884Y-96893328D01*
X58100884Y-96893328D02*
X58243741Y-96893328D01*
X59386598Y-97893328D02*
X59386598Y-96393328D01*
X59386598Y-97821900D02*
X59243740Y-97893328D01*
X59243740Y-97893328D02*
X58958026Y-97893328D01*
X58958026Y-97893328D02*
X58815169Y-97821900D01*
X58815169Y-97821900D02*
X58743740Y-97750471D01*
X58743740Y-97750471D02*
X58672312Y-97607614D01*
X58672312Y-97607614D02*
X58672312Y-97179042D01*
X58672312Y-97179042D02*
X58743740Y-97036185D01*
X58743740Y-97036185D02*
X58815169Y-96964757D01*
X58815169Y-96964757D02*
X58958026Y-96893328D01*
X58958026Y-96893328D02*
X59243740Y-96893328D01*
X59243740Y-96893328D02*
X59386598Y-96964757D01*
X59958026Y-96893328D02*
X60243741Y-97893328D01*
X60243741Y-97893328D02*
X60529455Y-97179042D01*
X60529455Y-97179042D02*
X60815169Y-97893328D01*
X60815169Y-97893328D02*
X61100883Y-96893328D01*
X62315170Y-97893328D02*
X62315170Y-97107614D01*
X62315170Y-97107614D02*
X62243741Y-96964757D01*
X62243741Y-96964757D02*
X62100884Y-96893328D01*
X62100884Y-96893328D02*
X61815170Y-96893328D01*
X61815170Y-96893328D02*
X61672312Y-96964757D01*
X62315170Y-97821900D02*
X62172312Y-97893328D01*
X62172312Y-97893328D02*
X61815170Y-97893328D01*
X61815170Y-97893328D02*
X61672312Y-97821900D01*
X61672312Y-97821900D02*
X61600884Y-97679042D01*
X61600884Y-97679042D02*
X61600884Y-97536185D01*
X61600884Y-97536185D02*
X61672312Y-97393328D01*
X61672312Y-97393328D02*
X61815170Y-97321900D01*
X61815170Y-97321900D02*
X62172312Y-97321900D01*
X62172312Y-97321900D02*
X62315170Y-97250471D01*
X63029455Y-97893328D02*
X63029455Y-96893328D01*
X63029455Y-97179042D02*
X63100884Y-97036185D01*
X63100884Y-97036185D02*
X63172313Y-96964757D01*
X63172313Y-96964757D02*
X63315170Y-96893328D01*
X63315170Y-96893328D02*
X63458027Y-96893328D01*
X64529455Y-97821900D02*
X64386598Y-97893328D01*
X64386598Y-97893328D02*
X64100884Y-97893328D01*
X64100884Y-97893328D02*
X63958026Y-97821900D01*
X63958026Y-97821900D02*
X63886598Y-97679042D01*
X63886598Y-97679042D02*
X63886598Y-97107614D01*
X63886598Y-97107614D02*
X63958026Y-96964757D01*
X63958026Y-96964757D02*
X64100884Y-96893328D01*
X64100884Y-96893328D02*
X64386598Y-96893328D01*
X64386598Y-96893328D02*
X64529455Y-96964757D01*
X64529455Y-96964757D02*
X64600884Y-97107614D01*
X64600884Y-97107614D02*
X64600884Y-97250471D01*
X64600884Y-97250471D02*
X63886598Y-97393328D01*
X65243740Y-97750471D02*
X65315169Y-97821900D01*
X65315169Y-97821900D02*
X65243740Y-97893328D01*
X65243740Y-97893328D02*
X65172312Y-97821900D01*
X65172312Y-97821900D02*
X65243740Y-97750471D01*
X65243740Y-97750471D02*
X65243740Y-97893328D01*
X65958026Y-97893328D02*
X65958026Y-96393328D01*
X66100884Y-97321900D02*
X66529455Y-97893328D01*
X66529455Y-96893328D02*
X65958026Y-97464757D01*
X67172312Y-97893328D02*
X67172312Y-96893328D01*
X67172312Y-96393328D02*
X67100884Y-96464757D01*
X67100884Y-96464757D02*
X67172312Y-96536185D01*
X67172312Y-96536185D02*
X67243741Y-96464757D01*
X67243741Y-96464757D02*
X67172312Y-96393328D01*
X67172312Y-96393328D02*
X67172312Y-96536185D01*
X68529456Y-97821900D02*
X68386598Y-97893328D01*
X68386598Y-97893328D02*
X68100884Y-97893328D01*
X68100884Y-97893328D02*
X67958027Y-97821900D01*
X67958027Y-97821900D02*
X67886598Y-97750471D01*
X67886598Y-97750471D02*
X67815170Y-97607614D01*
X67815170Y-97607614D02*
X67815170Y-97179042D01*
X67815170Y-97179042D02*
X67886598Y-97036185D01*
X67886598Y-97036185D02*
X67958027Y-96964757D01*
X67958027Y-96964757D02*
X68100884Y-96893328D01*
X68100884Y-96893328D02*
X68386598Y-96893328D01*
X68386598Y-96893328D02*
X68529456Y-96964757D01*
X69815170Y-97893328D02*
X69815170Y-97107614D01*
X69815170Y-97107614D02*
X69743741Y-96964757D01*
X69743741Y-96964757D02*
X69600884Y-96893328D01*
X69600884Y-96893328D02*
X69315170Y-96893328D01*
X69315170Y-96893328D02*
X69172312Y-96964757D01*
X69815170Y-97821900D02*
X69672312Y-97893328D01*
X69672312Y-97893328D02*
X69315170Y-97893328D01*
X69315170Y-97893328D02*
X69172312Y-97821900D01*
X69172312Y-97821900D02*
X69100884Y-97679042D01*
X69100884Y-97679042D02*
X69100884Y-97536185D01*
X69100884Y-97536185D02*
X69172312Y-97393328D01*
X69172312Y-97393328D02*
X69315170Y-97321900D01*
X69315170Y-97321900D02*
X69672312Y-97321900D01*
X69672312Y-97321900D02*
X69815170Y-97250471D01*
X71172313Y-97893328D02*
X71172313Y-96393328D01*
X71172313Y-97821900D02*
X71029455Y-97893328D01*
X71029455Y-97893328D02*
X70743741Y-97893328D01*
X70743741Y-97893328D02*
X70600884Y-97821900D01*
X70600884Y-97821900D02*
X70529455Y-97750471D01*
X70529455Y-97750471D02*
X70458027Y-97607614D01*
X70458027Y-97607614D02*
X70458027Y-97179042D01*
X70458027Y-97179042D02*
X70529455Y-97036185D01*
X70529455Y-97036185D02*
X70600884Y-96964757D01*
X70600884Y-96964757D02*
X70743741Y-96893328D01*
X70743741Y-96893328D02*
X71029455Y-96893328D01*
X71029455Y-96893328D02*
X71172313Y-96964757D01*
X71529456Y-98036185D02*
X72672313Y-98036185D01*
X73029455Y-96893328D02*
X73029455Y-98393328D01*
X73029455Y-96964757D02*
X73172313Y-96893328D01*
X73172313Y-96893328D02*
X73458027Y-96893328D01*
X73458027Y-96893328D02*
X73600884Y-96964757D01*
X73600884Y-96964757D02*
X73672313Y-97036185D01*
X73672313Y-97036185D02*
X73743741Y-97179042D01*
X73743741Y-97179042D02*
X73743741Y-97607614D01*
X73743741Y-97607614D02*
X73672313Y-97750471D01*
X73672313Y-97750471D02*
X73600884Y-97821900D01*
X73600884Y-97821900D02*
X73458027Y-97893328D01*
X73458027Y-97893328D02*
X73172313Y-97893328D01*
X73172313Y-97893328D02*
X73029455Y-97821900D01*
X75029456Y-97821900D02*
X74886598Y-97893328D01*
X74886598Y-97893328D02*
X74600884Y-97893328D01*
X74600884Y-97893328D02*
X74458027Y-97821900D01*
X74458027Y-97821900D02*
X74386598Y-97750471D01*
X74386598Y-97750471D02*
X74315170Y-97607614D01*
X74315170Y-97607614D02*
X74315170Y-97179042D01*
X74315170Y-97179042D02*
X74386598Y-97036185D01*
X74386598Y-97036185D02*
X74458027Y-96964757D01*
X74458027Y-96964757D02*
X74600884Y-96893328D01*
X74600884Y-96893328D02*
X74886598Y-96893328D01*
X74886598Y-96893328D02*
X75029456Y-96964757D01*
X75672312Y-97893328D02*
X75672312Y-96393328D01*
X75672312Y-96964757D02*
X75815170Y-96893328D01*
X75815170Y-96893328D02*
X76100884Y-96893328D01*
X76100884Y-96893328D02*
X76243741Y-96964757D01*
X76243741Y-96964757D02*
X76315170Y-97036185D01*
X76315170Y-97036185D02*
X76386598Y-97179042D01*
X76386598Y-97179042D02*
X76386598Y-97607614D01*
X76386598Y-97607614D02*
X76315170Y-97750471D01*
X76315170Y-97750471D02*
X76243741Y-97821900D01*
X76243741Y-97821900D02*
X76100884Y-97893328D01*
X76100884Y-97893328D02*
X75815170Y-97893328D01*
X75815170Y-97893328D02*
X75672312Y-97821900D01*
D10*
D11*
X47502200Y-93007200D02*
X155502200Y-93007200D01*
D10*
D11*
X48886598Y-95121900D02*
X49100884Y-95193328D01*
X49100884Y-95193328D02*
X49458026Y-95193328D01*
X49458026Y-95193328D02*
X49600884Y-95121900D01*
X49600884Y-95121900D02*
X49672312Y-95050471D01*
X49672312Y-95050471D02*
X49743741Y-94907614D01*
X49743741Y-94907614D02*
X49743741Y-94764757D01*
X49743741Y-94764757D02*
X49672312Y-94621900D01*
X49672312Y-94621900D02*
X49600884Y-94550471D01*
X49600884Y-94550471D02*
X49458026Y-94479042D01*
X49458026Y-94479042D02*
X49172312Y-94407614D01*
X49172312Y-94407614D02*
X49029455Y-94336185D01*
X49029455Y-94336185D02*
X48958026Y-94264757D01*
X48958026Y-94264757D02*
X48886598Y-94121900D01*
X48886598Y-94121900D02*
X48886598Y-93979042D01*
X48886598Y-93979042D02*
X48958026Y-93836185D01*
X48958026Y-93836185D02*
X49029455Y-93764757D01*
X49029455Y-93764757D02*
X49172312Y-93693328D01*
X49172312Y-93693328D02*
X49529455Y-93693328D01*
X49529455Y-93693328D02*
X49743741Y-93764757D01*
X50386597Y-95193328D02*
X50386597Y-93693328D01*
X51029455Y-95193328D02*
X51029455Y-94407614D01*
X51029455Y-94407614D02*
X50958026Y-94264757D01*
X50958026Y-94264757D02*
X50815169Y-94193328D01*
X50815169Y-94193328D02*
X50600883Y-94193328D01*
X50600883Y-94193328D02*
X50458026Y-94264757D01*
X50458026Y-94264757D02*
X50386597Y-94336185D01*
X52315169Y-95121900D02*
X52172312Y-95193328D01*
X52172312Y-95193328D02*
X51886598Y-95193328D01*
X51886598Y-95193328D02*
X51743740Y-95121900D01*
X51743740Y-95121900D02*
X51672312Y-94979042D01*
X51672312Y-94979042D02*
X51672312Y-94407614D01*
X51672312Y-94407614D02*
X51743740Y-94264757D01*
X51743740Y-94264757D02*
X51886598Y-94193328D01*
X51886598Y-94193328D02*
X52172312Y-94193328D01*
X52172312Y-94193328D02*
X52315169Y-94264757D01*
X52315169Y-94264757D02*
X52386598Y-94407614D01*
X52386598Y-94407614D02*
X52386598Y-94550471D01*
X52386598Y-94550471D02*
X51672312Y-94693328D01*
X53600883Y-95121900D02*
X53458026Y-95193328D01*
X53458026Y-95193328D02*
X53172312Y-95193328D01*
X53172312Y-95193328D02*
X53029454Y-95121900D01*
X53029454Y-95121900D02*
X52958026Y-94979042D01*
X52958026Y-94979042D02*
X52958026Y-94407614D01*
X52958026Y-94407614D02*
X53029454Y-94264757D01*
X53029454Y-94264757D02*
X53172312Y-94193328D01*
X53172312Y-94193328D02*
X53458026Y-94193328D01*
X53458026Y-94193328D02*
X53600883Y-94264757D01*
X53600883Y-94264757D02*
X53672312Y-94407614D01*
X53672312Y-94407614D02*
X53672312Y-94550471D01*
X53672312Y-94550471D02*
X52958026Y-94693328D01*
X54100883Y-94193328D02*
X54672311Y-94193328D01*
X54315168Y-93693328D02*
X54315168Y-94979042D01*
X54315168Y-94979042D02*
X54386597Y-95121900D01*
X54386597Y-95121900D02*
X54529454Y-95193328D01*
X54529454Y-95193328D02*
X54672311Y-95193328D01*
X55172311Y-95050471D02*
X55243740Y-95121900D01*
X55243740Y-95121900D02*
X55172311Y-95193328D01*
X55172311Y-95193328D02*
X55100883Y-95121900D01*
X55100883Y-95121900D02*
X55172311Y-95050471D01*
X55172311Y-95050471D02*
X55172311Y-95193328D01*
X55172311Y-94264757D02*
X55243740Y-94336185D01*
X55243740Y-94336185D02*
X55172311Y-94407614D01*
X55172311Y-94407614D02*
X55100883Y-94336185D01*
X55100883Y-94336185D02*
X55172311Y-94264757D01*
X55172311Y-94264757D02*
X55172311Y-94407614D01*
D10*
D11*
X67502200Y-103007200D02*
X67502200Y-106007200D01*
D10*
D11*
X131502200Y-103007200D02*
X131502200Y-109507200D01*
D14*
%TO.C,J4*%
X36500000Y2500000D03*
D15*
X33960000Y2500000D03*
X31420000Y2500000D03*
X28880000Y2500000D03*
%TD*%
D16*
%TO.C,J1*%
X4000000Y2690000D03*
D15*
X4000000Y5230000D03*
X4000000Y7770000D03*
X4000000Y10310000D03*
%TD*%
D17*
%TO.C,BZ1*%
X52500000Y10000000D03*
D18*
X44900000Y10000000D03*
%TD*%
D19*
%TO.C,J3*%
X5925000Y20490000D03*
X5925000Y14710000D03*
D20*
X6425000Y21920000D03*
D21*
X2245000Y21920000D03*
D20*
X6425000Y13280000D03*
D21*
X2245000Y13280000D03*
%TD*%
D22*
%TO.C,D4*%
X47000000Y29500000D03*
D23*
X44460000Y29500000D03*
%TD*%
D22*
%TO.C,D3*%
X40500000Y29500000D03*
D23*
X37960000Y29500000D03*
%TD*%
D22*
%TO.C,D2*%
X34500000Y29500000D03*
D23*
X31960000Y29500000D03*
%TD*%
M02*
